<svg xmlns="http://www.w3.org/2000/svg" width="1235.0" height="1235.0" viewBox="-117.5 -95.0 1235.0 1235.0">
  <g id="decorations"><polygon points="460.0,185.0 490.0,185.0 485.7,-65.0 460.3,-60.0" fill="purple" /><polygon points="510.0,185.0 540.0,185.0 535.7,-65.0 510.3,-60.0" fill="purple" /></g><g transform="translate(272.348,869.573) scale(1.158537,-1.158537)">
    <path d="M330 -9Q318 18 308.5 39.0Q299 60 289.5 78.5Q280 97 270 116L247 58Q234 25 222.0 12.5Q210 0 190 0H9L49 161H192Q209 161 222.0 165.0Q235 169 242.0 177.0Q249 185 249 196V394Q249 417 244.0 424.0Q239 431 217 431H159Q121 431 103.5 451.5Q86 472 86 520Q86 539 88.0 556.0Q90 573 94.5 594.5Q99 616 106 647H141V633Q141 614 153.0 603.0Q165 592 189 592H249Q283 592 296.5 575.5Q310 559 310 516V254Q310 235 313.0 220.5Q316 206 323.0 187.5Q330 169 342 140L384 42Q374 23 361.0 10.0Q348 -3 339 -9Z" fill="black" />
  </g>
</svg>