<svg xmlns="http://www.w3.org/2000/svg"
     width="1225" height="1225" viewBox="0 0 1225 1225">
  <g transform="translate(257.871,958.432) scale(1.156773,-1.156773)">
    <path d="M504 -10
      Q503 1 499.0 13.5
      Q495 26 485.5 41.0
      Q476 56 456 73
      L56 467
      Q-80 592 -93.0 623.0
      Q-106 654 -106 683
      Q-106 710 -98.5 736.5
      Q-91 763 -78 797
      H-44
      V780
      Q-44 763 -29.0 731.5
      Q4 690 0 695
      L518 196
      Q533 182 542.5 164.5
      Q552 147 557.0 128.0
      Q562 109 562 88
      Q562 59 552.5 36.5
      Q543 14 528 -10Z
      
      M40 0V76
      H57
      Q74 76 80.0 83.0
      Q86 90 82 106
      L65 174
      Q54 219 62.5 261.5
      Q71 304 99 340
      L149 407
      L181 373
      L155 330
      Q134 297 133.5 271.0
      Q133 245 154 207
      L186 147
      Q203 117 207.5 81.5
      Q212 46 195 0Z
      
      M448 260 397 308
      Q397 318 403.0 334.5
      Q409 351 418.0 369.5
      Q427 388 436 402
      L480 476
      L527 460
      L479 381
      Q467 361 460.0 341.5
      Q453 322 450.5 302.0
      Q448 282 448 260Z
      
      M560 418 435 434
      Q401 438 387.5 457.0
      Q374 476 374 519
      Q374 545 379.5 577.5
      Q385 610 398 647
      H433
      V630
      Q433 613 443.0 603.5
      Q453 594 472 592
      L516 586
      Q546 582 560.0 562.5
      Q574 543 574 507
      Q574 486 570.5 466.0
      Q567 446 560 418Z" fill="black"/>
  </g>
</svg>