<svg xmlns="http://www.w3.org/2000/svg" width="1225.0" height="1225.0" viewBox="-112.5 -90.0 1225.0 1225.0">
  <g id="decorations"><polygon points="265.0,855.0 295.0,855.0 294.7,1100.0 269.3,1105.0" fill="purple" /></g><g transform="translate(144.871,868.432) scale(1.156773,-1.156773)">
    <path d="M504 -10Q503 1 499.0 13.5Q495 26 485.5 41.0Q476 56 456 73L96 417Q70 442 57.0 473.0Q44 504 44 533Q44 560 51.5 586.5Q59 613 72 647H106V631Q106 613 115.0 591.5Q124 570 148 546L518 196Q533 182 542.5 164.5Q552 147 557.0 128.0Q562 109 562 88Q562 59 552.5 36.5Q543 14 528 -10ZM40 0V76H57Q74 76 80.0 83.0Q86 90 82 106L65 174Q54 219 62.5 261.5Q71 304 99 340L149 407L181 373L155 330Q134 297 133.5 271.0Q133 245 154 207L186 147Q203 117 207.5 81.5Q212 46 195 0ZM448 260 397 308Q397 318 403.0 334.5Q409 351 418.0 369.5Q427 388 436 402L480 476L527 460L479 381Q467 361 460.0 341.5Q453 322 450.5 302.0Q448 282 448 260ZM560 418 435 434Q401 438 387.5 457.0Q374 476 374 519Q374 545 379.5 577.5Q385 610 398 647H433V630Q433 613 443.0 603.5Q453 594 472 592L516 586Q546 582 560.0 562.5Q574 543 574 507Q574 486 570.5 466.0Q567 446 560 418Z" fill="black" />
  </g>
</svg>