<svg xmlns="http://www.w3.org/2000/svg" width="1235.0" height="1235.0" viewBox="-117.5 -85.0 1235.0 1235.0">
  <g id="decorations"><g><path d="M 355.1 214.1 L 362.7 214.0 L 370.2 213.6 L 377.5 212.9 L 384.7 211.9 L 391.7 210.8 L 398.6 209.3 L 405.3 207.7 L 411.9 205.8 L 418.4 203.7 L 424.6 201.4 L 430.7 198.8 L 436.6 196.1 L 442.4 193.1 L 447.9 189.9 L 453.3 186.5 L 458.4 183.0 L 463.4 179.3 L 468.2 175.5 L 472.8 171.5 L 477.1 167.3 L 481.3 163.1 L 485.3 158.7 L 489.0 154.2 L 492.6 149.6 L 495.9 144.8 L 499.0 140.0 L 501.9 135.1 L 504.6 130.1 L 507.0 125.1 L 509.2 119.9 L 511.1 114.7 L 512.9 109.5 L 514.3 104.2 L 515.5 98.9 L 516.5 93.5 L 517.2 88.1 L 517.6 82.7 L 517.8 77.3 L 517.6 71.9 L 517.2 66.5 L 516.6 61.1 L 515.6 55.8 L 514.3 50.5 L 512.8 45.2 L 510.9 40.1 L 508.7 35.0 L 506.3 30.0 L 503.5 25.1 L 500.4 20.3 L 497.1 15.6 L 493.4 11.1 L 489.4 6.7 L 485.2 2.5 L 480.6 -1.5 L 475.7 -5.3 L 470.6 -9.0 L 465.1 -12.5 L 459.4 -15.8 L 453.4 -18.8 L 447.1 -21.7 L 440.6 -24.4 L 433.7 -26.8 L 426.6 -29.0 L 429.4 -29.3 L 401.7 -4.3 L 418.3 -0.8 L 424.3 1.1 L 430.0 3.2 L 435.3 5.4 L 440.4 7.8 L 445.2 10.3 L 449.6 12.9 L 453.8 15.6 L 457.7 18.5 L 461.3 21.4 L 464.7 24.4 L 467.8 27.5 L 470.6 30.7 L 473.3 33.9 L 475.7 37.2 L 477.8 40.5 L 479.7 44.0 L 481.5 47.5 L 483.0 51.0 L 484.3 54.6 L 485.3 58.2 L 486.2 61.9 L 486.9 65.7 L 487.4 69.5 L 487.7 73.3 L 487.8 77.2 L 487.7 81.1 L 487.3 85.0 L 486.8 89.0 L 486.1 92.9 L 485.2 96.9 L 484.1 100.9 L 482.8 104.8 L 481.4 108.8 L 479.7 112.7 L 477.8 116.6 L 475.7 120.5 L 473.5 124.3 L 471.1 128.1 L 468.4 131.8 L 465.6 135.4 L 462.6 139.0 L 459.5 142.5 L 456.1 145.9 L 452.6 149.2 L 448.9 152.4 L 445.1 155.6 L 441.0 158.5 L 436.8 161.4 L 432.5 164.2 L 427.9 166.8 L 423.2 169.2 L 418.4 171.6 L 413.4 173.8 L 408.3 175.9 L 402.9 177.8 L 397.5 179.5 L 391.9 181.0 L 386.1 182.3 L 380.1 183.5 L 374.0 184.4 L 367.8 185.1 L 361.4 185.6 L 354.9 185.9 Z" fill="purple" stroke="none" /><path d="M 427.9 -28.9 L 420.0 -29.7 L 412.3 -30.1 L 404.8 -30.3 L 397.5 -30.1 L 390.5 -29.7 L 383.6 -29.0 L 377.0 -28.1 L 370.6 -26.8 L 364.4 -25.4 L 358.5 -23.6 L 352.7 -21.7 L 347.2 -19.5 L 342.0 -17.0 L 337.0 -14.3 L 332.2 -11.4 L 327.7 -8.3 L 323.4 -5.1 L 319.4 -1.7 L 315.6 1.9 L 312.1 5.6 L 308.9 9.4 L 306.0 13.4 L 303.3 17.5 L 300.8 21.7 L 298.7 25.9 L 296.8 30.3 L 295.3 34.7 L 294.0 39.2 L 293.0 43.7 L 292.3 48.2 L 291.9 52.7 L 291.7 57.3 L 291.9 61.8 L 292.4 66.3 L 293.2 70.8 L 294.4 75.2 L 295.8 79.5 L 297.5 83.7 L 299.6 87.8 L 301.9 91.8 L 304.6 95.6 L 307.6 99.2 L 310.8 102.7 L 314.4 105.9 L 318.2 109.0 L 322.3 111.8 L 326.6 114.3 L 331.2 116.6 L 336.0 118.6 L 341.0 120.4 L 346.3 121.9 L 351.8 123.1 L 357.5 124.0 L 363.4 124.6 L 369.5 124.9 L 375.8 124.9 L 382.3 124.5 L 389.0 123.9 L 395.9 122.9 L 403.0 121.7 L 410.3 120.0 L 417.8 118.1 L 425.5 115.8 L 423.7 116.2 L 433.6 82.3 L 416.7 87.7 L 410.0 89.6 L 403.5 91.3 L 397.3 92.6 L 391.3 93.6 L 385.7 94.4 L 380.3 94.8 L 375.1 95.0 L 370.3 95.0 L 365.7 94.7 L 361.4 94.3 L 357.3 93.6 L 353.6 92.8 L 350.0 91.8 L 346.8 90.6 L 343.7 89.4 L 340.9 88.0 L 338.4 86.5 L 336.0 84.8 L 333.9 83.1 L 331.9 81.3 L 330.1 79.5 L 328.6 77.5 L 327.1 75.5 L 325.9 73.4 L 324.8 71.3 L 323.9 69.0 L 323.2 66.8 L 322.6 64.4 L 322.1 62.0 L 321.9 59.5 L 321.7 57.0 L 321.8 54.5 L 322.0 51.9 L 322.5 49.2 L 323.0 46.6 L 323.8 43.9 L 324.8 41.3 L 325.9 38.6 L 327.3 35.9 L 328.8 33.3 L 330.5 30.6 L 332.4 28.1 L 334.6 25.5 L 336.9 23.0 L 339.4 20.6 L 342.2 18.3 L 345.2 16.0 L 348.4 13.8 L 351.8 11.8 L 355.5 9.8 L 359.3 8.0 L 363.4 6.3 L 367.8 4.6 L 372.3 3.2 L 377.1 1.9 L 382.2 0.8 L 387.5 -0.1 L 393.1 -0.9 L 399.0 -1.3 L 405.1 -1.6 L 411.4 -1.6 L 418.0 -1.4 L 424.9 -0.8 Z" fill="purple" stroke="none" /></g><g><path d="M 255.5 856.6 L 248.3 859.1 L 241.4 861.8 L 234.6 864.7 L 228.1 867.8 L 221.8 871.1 L 215.6 874.6 L 209.7 878.2 L 204.1 882.1 L 198.6 886.1 L 193.4 890.2 L 188.3 894.5 L 183.6 899.0 L 179.1 903.6 L 174.8 908.3 L 170.7 913.2 L 166.9 918.1 L 163.3 923.2 L 159.9 928.3 L 156.8 933.5 L 153.9 938.8 L 151.3 944.2 L 148.9 949.6 L 146.7 955.0 L 144.7 960.5 L 143.0 966.0 L 141.5 971.5 L 140.3 977.1 L 139.3 982.7 L 138.6 988.2 L 138.1 993.8 L 137.8 999.3 L 137.8 1004.9 L 138.1 1010.3 L 138.6 1015.8 L 139.3 1021.2 L 140.3 1026.5 L 141.6 1031.8 L 143.1 1037.0 L 144.9 1042.1 L 147.0 1047.1 L 149.3 1052.0 L 151.8 1056.8 L 154.7 1061.4 L 157.8 1065.9 L 161.2 1070.3 L 164.8 1074.5 L 168.7 1078.5 L 172.8 1082.3 L 177.2 1085.9 L 181.9 1089.3 L 186.7 1092.4 L 191.9 1095.3 L 197.2 1098.0 L 202.8 1100.4 L 208.6 1102.6 L 214.7 1104.5 L 220.9 1106.1 L 227.4 1107.5 L 234.0 1108.5 L 240.9 1109.3 L 248.0 1109.8 L 255.2 1110.0 L 262.7 1109.9 L 259.9 1110.4 L 278.9 1079.4 L 261.9 1080.5 L 255.6 1080.5 L 249.5 1080.3 L 243.7 1079.9 L 238.2 1079.2 L 232.9 1078.3 L 227.8 1077.2 L 223.0 1075.9 L 218.4 1074.4 L 214.1 1072.7 L 210.0 1070.9 L 206.0 1068.9 L 202.3 1066.8 L 198.9 1064.5 L 195.6 1062.1 L 192.5 1059.6 L 189.6 1056.9 L 186.9 1054.2 L 184.3 1051.3 L 182.0 1048.2 L 179.8 1045.1 L 177.9 1041.8 L 176.0 1038.5 L 174.4 1035.0 L 173.0 1031.5 L 171.7 1027.8 L 170.6 1024.1 L 169.7 1020.3 L 168.9 1016.3 L 168.4 1012.4 L 168.0 1008.3 L 167.8 1004.2 L 167.8 1000.0 L 168.0 995.8 L 168.4 991.6 L 169.0 987.3 L 169.7 983.0 L 170.7 978.6 L 171.8 974.3 L 173.2 969.9 L 174.7 965.6 L 176.5 961.3 L 178.4 957.0 L 180.5 952.7 L 182.8 948.5 L 185.4 944.3 L 188.1 940.1 L 191.0 936.0 L 194.1 932.0 L 197.4 928.0 L 200.9 924.1 L 204.6 920.4 L 208.5 916.6 L 212.6 913.0 L 216.8 909.4 L 221.3 906.0 L 225.9 902.7 L 230.8 899.5 L 235.9 896.4 L 241.2 893.5 L 246.7 890.7 L 252.4 888.1 L 258.4 885.6 L 264.5 883.4 Z" fill="purple" stroke="none" /><path d="M 261.4 1110.2 L 269.2 1108.5 L 276.6 1106.6 L 283.8 1104.4 L 290.7 1102.0 L 297.2 1099.4 L 303.5 1096.7 L 309.5 1093.7 L 315.2 1090.6 L 320.7 1087.2 L 325.8 1083.8 L 330.7 1080.1 L 335.2 1076.3 L 339.4 1072.3 L 343.4 1068.2 L 347.0 1064.0 L 350.4 1059.7 L 353.4 1055.3 L 356.2 1050.8 L 358.7 1046.3 L 360.8 1041.6 L 362.7 1037.0 L 364.3 1032.3 L 365.6 1027.6 L 366.6 1022.9 L 367.3 1018.1 L 367.8 1013.4 L 367.9 1008.7 L 367.7 1004.1 L 367.3 999.5 L 366.6 995.0 L 365.6 990.5 L 364.3 986.2 L 362.7 981.9 L 360.8 977.8 L 358.7 973.8 L 356.3 970.0 L 353.6 966.3 L 350.6 962.9 L 347.4 959.6 L 343.9 956.5 L 340.2 953.7 L 336.3 951.2 L 332.1 948.9 L 327.7 946.9 L 323.2 945.2 L 318.4 943.8 L 313.5 942.7 L 308.4 941.9 L 303.2 941.5 L 297.9 941.4 L 292.4 941.6 L 286.8 942.2 L 281.1 943.1 L 275.3 944.3 L 269.4 945.9 L 263.5 947.9 L 257.4 950.2 L 251.2 952.9 L 244.9 955.9 L 238.5 959.3 L 232.1 963.1 L 225.6 967.3 L 218.9 971.9 L 220.4 971.5 L 221.9 1005.6 L 236.0 995.9 L 241.8 991.9 L 247.5 988.4 L 253.0 985.2 L 258.3 982.4 L 263.5 979.9 L 268.5 977.8 L 273.3 976.0 L 277.9 974.6 L 282.3 973.4 L 286.6 972.5 L 290.6 971.9 L 294.5 971.5 L 298.2 971.4 L 301.6 971.5 L 304.9 971.7 L 308.0 972.2 L 310.9 972.8 L 313.7 973.7 L 316.2 974.6 L 318.6 975.7 L 320.9 976.9 L 323.0 978.3 L 325.0 979.8 L 326.8 981.4 L 328.5 983.1 L 330.0 984.9 L 331.5 986.9 L 332.8 988.9 L 333.9 991.1 L 334.9 993.3 L 335.8 995.7 L 336.5 998.2 L 337.1 1000.7 L 337.5 1003.3 L 337.8 1006.0 L 337.9 1008.8 L 337.8 1011.6 L 337.5 1014.5 L 337.1 1017.5 L 336.5 1020.5 L 335.6 1023.5 L 334.6 1026.5 L 333.4 1029.6 L 331.9 1032.7 L 330.2 1035.8 L 328.3 1038.9 L 326.2 1042.0 L 323.8 1045.0 L 321.2 1048.0 L 318.3 1051.0 L 315.2 1053.9 L 311.9 1056.9 L 308.2 1059.7 L 304.3 1062.5 L 300.2 1065.3 L 295.7 1067.9 L 290.9 1070.4 L 285.8 1072.8 L 280.4 1075.1 L 274.7 1077.2 L 268.6 1079.2 L 262.3 1081.0 L 255.6 1082.6 Z" fill="purple" stroke="none" /></g></g><g transform="translate(222.813,792.668) scale(1.039672,-1.039672)">
    <path d="M22 -84V83L192 158Q241 180 281.0 209.5Q321 239 352.5 273.0Q384 307 404.5 344.0Q425 381 435 418L437 426L372 434Q339 439 325.0 457.5Q311 476 311 519Q311 545 316.5 575.5Q322 606 336 647H370V631Q370 613 380.5 603.5Q391 594 410 592L456 586Q486 582 501.5 562.5Q517 543 512 508L504 448Q499 402 481.5 353.5Q464 305 437.5 256.0Q411 207 375.5 162.0Q340 117 297.0 78.5Q254 40 206 11L41 -84ZM193 118 126 255Q114 281 106.0 316.5Q98 352 98.0 389.5Q98 427 106 459L152 455Q149 427 150.0 404.5Q151 382 158.0 362.5Q165 343 175 324L271 155ZM212 418 81 434Q46 439 33.0 458.0Q20 477 20 517Q20 545 25.5 576.5Q31 608 44 647H79V631Q79 614 89.0 604.0Q99 594 118 592L168 586Q198 583 212.0 563.0Q226 543 226 507Q226 486 222.5 466.0Q219 446 212 418Z" fill="black" />
  </g>
</svg>