<svg xmlns="http://www.w3.org/2000/svg" width="1230.0" height="1230.0" viewBox="-115.0 -80.0 1230.0 1230.0" version="1.1" id="svg1">
  <g id="decorations"><polygon points="625.0,205.0 655.0,205.0 650.7,-45.0 625.3,-40.0" fill="purple" /><polygon points="675.0,205.0 705.0,205.0 700.7,-45.0 675.3,-40.0" fill="purple" /><path d="M 255.5 846.6 L 247.8 849.3 L 240.4 852.1 L 233.2 855.1 L 226.2 858.2 L 219.5 861.6 L 213.0 865.0 L 206.7 868.7 L 200.6 872.5 L 194.8 876.4 L 189.1 880.5 L 183.8 884.7 L 178.7 889.0 L 173.8 893.6 L 169.2 898.2 L 164.9 902.9 L 160.8 907.8 L 156.9 912.7 L 153.3 917.8 L 149.9 922.9 L 146.8 928.1 L 144.0 933.4 L 141.4 938.8 L 139.1 944.2 L 137.0 949.6 L 135.2 955.2 L 133.7 960.7 L 132.4 966.3 L 131.5 971.9 L 130.8 977.6 L 130.3 983.2 L 130.2 988.9 L 130.3 994.5 L 130.7 1000.2 L 131.4 1005.8 L 132.4 1011.4 L 133.6 1016.9 L 135.2 1022.4 L 137.0 1027.8 L 139.1 1033.2 L 141.5 1038.5 L 144.1 1043.7 L 147.1 1048.8 L 150.3 1053.8 L 153.7 1058.7 L 157.5 1063.5 L 161.5 1068.1 L 165.8 1072.7 L 170.3 1077.1 L 175.1 1081.3 L 180.1 1085.4 L 185.5 1089.4 L 191.0 1093.2 L 196.8 1096.9 L 202.9 1100.3 L 209.3 1103.6 L 215.8 1106.8 L 222.7 1109.7 L 229.7 1112.5 L 237.0 1115.0 L 244.6 1117.4 L 252.4 1119.6 L 260.5 1121.5 L 268.8 1123.3 L 266.9 1123.7 L 292.6 1097.0 L 274.6 1094.4 L 267.1 1092.8 L 260.0 1091.0 L 253.1 1089.0 L 246.5 1086.9 L 240.1 1084.6 L 234.0 1082.2 L 228.2 1079.6 L 222.6 1076.9 L 217.3 1074.1 L 212.3 1071.2 L 207.5 1068.2 L 202.9 1065.0 L 198.6 1061.8 L 194.5 1058.5 L 190.7 1055.1 L 187.1 1051.6 L 183.8 1048.1 L 180.7 1044.4 L 177.8 1040.8 L 175.1 1037.0 L 172.7 1033.2 L 170.5 1029.4 L 168.5 1025.5 L 166.8 1021.5 L 165.2 1017.6 L 163.9 1013.6 L 162.7 1009.5 L 161.8 1005.5 L 161.1 1001.4 L 160.6 997.2 L 160.3 993.1 L 160.2 988.9 L 160.3 984.8 L 160.6 980.6 L 161.1 976.4 L 161.9 972.2 L 162.8 968.0 L 164.0 963.8 L 165.3 959.6 L 166.9 955.4 L 168.7 951.2 L 170.7 947.0 L 172.9 942.9 L 175.4 938.8 L 178.0 934.7 L 180.9 930.7 L 184.0 926.7 L 187.4 922.8 L 190.9 918.9 L 194.7 915.1 L 198.7 911.4 L 202.9 907.7 L 207.3 904.0 L 212.0 900.5 L 216.9 897.0 L 222.0 893.6 L 227.4 890.4 L 233.0 887.2 L 238.8 884.2 L 244.9 881.3 L 251.2 878.5 L 257.7 875.9 L 264.5 873.4 Z" fill="purple" stroke="none" /></g><defs id="defs1" />
  <g transform="matrix(1.039672,0,0,-1.039672,222.813,792.668)" id="g1">
    <path d="M 22,-84 V 83 l 170,75 c 32.66667,14.66667 62.33333,31.83333 89,51.5 26.66667,19.66667 50.5,40.83333 71.5,63.5 21,22.66667 38.33333,46.33333 52,71 13.66667,24.66667 23.83333,49.33333 30.5,74 l 26.64675,98.93541 c 13.30367,63.45075 -30.64069,56.34169 -4.20569,51.55269 16.34057,-2.96027 46.84495,-27.38706 50.7201,-72.43115 L 504,448 c -3.33333,-30.66667 -10.83333,-62.16667 -22.5,-94.5 -11.66667,-32.33333 -26.33333,-64.83333 -44,-97.5 -17.66667,-32.66667 -38.33333,-64 -62,-94 C 351.83333,132 325.66667,104.16667 297,78.5 268.33333,52.833333 238,30.333333 206,11 L 41,-84 Z m 171,202 -67,137 c -8,17.33333 -14.66667,37.83333 -20,61.5 -5.33333,23.66667 -8,48 -8,73 0,25 2.66667,48.16667 8,69.5 l 46,-4 c -2,-18.66667 -2.66667,-35.5 -2,-50.5 0.66667,-15 3.33333,-29 8,-42 4.66667,-13 10.33333,-25.83333 17,-38.5 l 96,-169 z m 19,300 -131,16 c -23.333333,3.33333 -39.333333,11.33333 -48,24 -8.666667,12.66667 -13,32.33333 -13,59 0,18.66667 1.833333,38.5 5.5,59.5 3.666667,21 9.833333,44.5 18.5,70.5 h 35 v -16 c 0,-11.33333 3.333333,-20.33333 10,-27 6.666667,-6.66667 16.33333,-10.66667 29,-12 l 50,-6 c 20,-2 34.66667,-9.66667 44,-23 9.33333,-13.33333 14,-32 14,-56 0,-14 -1.16667,-27.66667 -3.5,-41 -2.33333,-13.33333 -5.83333,-29.33333 -10.5,-48 z" fill="#000000" id="path1" />
  </g>
  <path d="m 704.89379,205.9325 c -13.21747,-10.90426 -52.12931,-13.29138 -67.47714,-14.26792 -24.76761,-1.57592 -39.76736,-1.97018 -63.89091,3.34919 -24.66223,5.43815 -47.881,18.14814 -64.59951,35.60035 -15.65773,16.345 -21.46353,28.62329 -27.76044,43.20272 -8.05646,18.6536 -9.20284,46.663 -1.73257,65.62931 4.72395,11.99365 23.04647,37.03739 38.2522,43.92374 19.99675,9.05613 33.06812,10.27602 54.95765,12.5802 18.03987,1.89939 52.39227,-8.65931 67.23041,-16.18182 9.94299,-5.04084 28.16495,-38.90683 27.33796,-51.57018 -1.54957,-23.7259 0.63922,-26.3108 -22.0615,-42.86662 -10.71159,-7.81204 -47.73027,-17.06 -54.68164,-4.85328 l -15.83294,27.80323 c 0,0 44.26472,-13.84284 50.81249,11.14024 2.56186,9.77486 -3.68716,33.82613 -8.1484,35.66265 -11.80669,4.86026 -30.38871,9.27614 -44.07369,7.99853 -16.27007,-1.51896 -42.86221,-9.49068 -53.46314,-22.01169 -8.50613,-10.04682 -10.54148,-28.59992 -9.47402,-41.31554 1.16448,-13.87109 9.94927,-21.30663 20.81303,-32.3153 10.94068,-11.08664 25.0049,-24.03788 40.13043,-26.34743 27.60166,-4.21459 33.6896,-2.79041 61.61255,-3.3444 11.24193,-0.22302 19.70842,-1.81311 37.51616,5.47391 13.89793,5.6871 26.14514,12.21635 28.15073,27.47479 1.74617,13.28474 14.84089,-57.78642 6.38229,-64.76468 z" fill="#000000" stroke="none" id="path2" />
</svg>