<svg xmlns="http://www.w3.org/2000/svg" width="1235.0" height="1235.0" viewBox="-117.5 -85.0 1235.0 1235.0">
  <g id="decorations"><g><path d="M 355.1 214.1 L 362.7 214.0 L 370.2 213.6 L 377.5 212.9 L 384.7 211.9 L 391.7 210.8 L 398.6 209.3 L 405.3 207.7 L 411.9 205.8 L 418.4 203.7 L 424.6 201.4 L 430.7 198.8 L 436.6 196.1 L 442.4 193.1 L 447.9 189.9 L 453.3 186.5 L 458.4 183.0 L 463.4 179.3 L 468.2 175.5 L 472.8 171.5 L 477.1 167.3 L 481.3 163.1 L 485.3 158.7 L 489.0 154.2 L 492.6 149.6 L 495.9 144.8 L 499.0 140.0 L 501.9 135.1 L 504.6 130.1 L 507.0 125.1 L 509.2 119.9 L 511.1 114.7 L 512.9 109.5 L 514.3 104.2 L 515.5 98.9 L 516.5 93.5 L 517.2 88.1 L 517.6 82.7 L 517.8 77.3 L 517.6 71.9 L 517.2 66.5 L 516.6 61.1 L 515.6 55.8 L 514.3 50.5 L 512.8 45.2 L 510.9 40.1 L 508.7 35.0 L 506.3 30.0 L 503.5 25.1 L 500.4 20.3 L 497.1 15.6 L 493.4 11.1 L 489.4 6.7 L 485.2 2.5 L 480.6 -1.5 L 475.7 -5.3 L 470.6 -9.0 L 465.1 -12.5 L 459.4 -15.8 L 453.4 -18.8 L 447.1 -21.7 L 440.6 -24.4 L 433.7 -26.8 L 426.6 -29.0 L 429.4 -29.3 L 401.7 -4.3 L 418.3 -0.8 L 424.3 1.1 L 430.0 3.2 L 435.3 5.4 L 440.4 7.8 L 445.2 10.3 L 449.6 12.9 L 453.8 15.6 L 457.7 18.5 L 461.3 21.4 L 464.7 24.4 L 467.8 27.5 L 470.6 30.7 L 473.3 33.9 L 475.7 37.2 L 477.8 40.5 L 479.7 44.0 L 481.5 47.5 L 483.0 51.0 L 484.3 54.6 L 485.3 58.2 L 486.2 61.9 L 486.9 65.7 L 487.4 69.5 L 487.7 73.3 L 487.8 77.2 L 487.7 81.1 L 487.3 85.0 L 486.8 89.0 L 486.1 92.9 L 485.2 96.9 L 484.1 100.9 L 482.8 104.8 L 481.4 108.8 L 479.7 112.7 L 477.8 116.6 L 475.7 120.5 L 473.5 124.3 L 471.1 128.1 L 468.4 131.8 L 465.6 135.4 L 462.6 139.0 L 459.5 142.5 L 456.1 145.9 L 452.6 149.2 L 448.9 152.4 L 445.1 155.6 L 441.0 158.5 L 436.8 161.4 L 432.5 164.2 L 427.9 166.8 L 423.2 169.2 L 418.4 171.6 L 413.4 173.8 L 408.3 175.9 L 402.9 177.8 L 397.5 179.5 L 391.9 181.0 L 386.1 182.3 L 380.1 183.5 L 374.0 184.4 L 367.8 185.1 L 361.4 185.6 L 354.9 185.9 Z" fill="purple" stroke="none" /><path d="M 427.9 -28.9 L 420.0 -29.7 L 412.3 -30.1 L 404.8 -30.3 L 397.5 -30.1 L 390.5 -29.7 L 383.6 -29.0 L 377.0 -28.1 L 370.6 -26.8 L 364.4 -25.4 L 358.5 -23.6 L 352.7 -21.7 L 347.2 -19.5 L 342.0 -17.0 L 337.0 -14.3 L 332.2 -11.4 L 327.7 -8.3 L 323.4 -5.1 L 319.4 -1.7 L 315.6 1.9 L 312.1 5.6 L 308.9 9.4 L 306.0 13.4 L 303.3 17.5 L 300.8 21.7 L 298.7 25.9 L 296.8 30.3 L 295.3 34.7 L 294.0 39.2 L 293.0 43.7 L 292.3 48.2 L 291.9 52.7 L 291.7 57.3 L 291.9 61.8 L 292.4 66.3 L 293.2 70.8 L 294.4 75.2 L 295.8 79.5 L 297.5 83.7 L 299.6 87.8 L 301.9 91.8 L 304.6 95.6 L 307.6 99.2 L 310.8 102.7 L 314.4 105.9 L 318.2 109.0 L 322.3 111.8 L 326.6 114.3 L 331.2 116.6 L 336.0 118.6 L 341.0 120.4 L 346.3 121.9 L 351.8 123.1 L 357.5 124.0 L 363.4 124.6 L 369.5 124.9 L 375.8 124.9 L 382.3 124.5 L 389.0 123.9 L 395.9 122.9 L 403.0 121.7 L 410.3 120.0 L 417.8 118.1 L 425.5 115.8 L 423.7 116.2 L 433.6 82.3 L 416.7 87.7 L 410.0 89.6 L 403.5 91.3 L 397.3 92.6 L 391.3 93.6 L 385.7 94.4 L 380.3 94.8 L 375.1 95.0 L 370.3 95.0 L 365.7 94.7 L 361.4 94.3 L 357.3 93.6 L 353.6 92.8 L 350.0 91.8 L 346.8 90.6 L 343.7 89.4 L 340.9 88.0 L 338.4 86.5 L 336.0 84.8 L 333.9 83.1 L 331.9 81.3 L 330.1 79.5 L 328.6 77.5 L 327.1 75.5 L 325.9 73.4 L 324.8 71.3 L 323.9 69.0 L 323.2 66.8 L 322.6 64.4 L 322.1 62.0 L 321.9 59.5 L 321.7 57.0 L 321.8 54.5 L 322.0 51.9 L 322.5 49.2 L 323.0 46.6 L 323.8 43.9 L 324.8 41.3 L 325.9 38.6 L 327.3 35.9 L 328.8 33.3 L 330.5 30.6 L 332.4 28.1 L 334.6 25.5 L 336.9 23.0 L 339.4 20.6 L 342.2 18.3 L 345.2 16.0 L 348.4 13.8 L 351.8 11.8 L 355.5 9.8 L 359.3 8.0 L 363.4 6.3 L 367.8 4.6 L 372.3 3.2 L 377.1 1.9 L 382.2 0.8 L 387.5 -0.1 L 393.1 -0.9 L 399.0 -1.3 L 405.1 -1.6 L 411.4 -1.6 L 418.0 -1.4 L 424.9 -0.8 Z" fill="purple" stroke="none" /></g><g><path d="M 665.1 209.1 L 672.7 209.0 L 680.2 208.6 L 687.5 207.9 L 694.7 206.9 L 701.7 205.8 L 708.6 204.3 L 715.3 202.7 L 721.9 200.8 L 728.4 198.7 L 734.6 196.4 L 740.7 193.8 L 746.6 191.1 L 752.4 188.1 L 757.9 184.9 L 763.3 181.5 L 768.4 178.0 L 773.4 174.3 L 778.2 170.5 L 782.8 166.5 L 787.1 162.3 L 791.3 158.1 L 795.3 153.7 L 799.0 149.2 L 802.6 144.6 L 805.9 139.8 L 809.0 135.0 L 811.9 130.1 L 814.6 125.1 L 817.0 120.1 L 819.2 114.9 L 821.1 109.7 L 822.9 104.5 L 824.3 99.2 L 825.5 93.9 L 826.5 88.5 L 827.2 83.1 L 827.6 77.7 L 827.8 72.3 L 827.6 66.9 L 827.2 61.5 L 826.6 56.1 L 825.6 50.8 L 824.3 45.5 L 822.8 40.2 L 820.9 35.1 L 818.7 30.0 L 816.3 25.0 L 813.5 20.1 L 810.4 15.3 L 807.1 10.6 L 803.4 6.1 L 799.4 1.7 L 795.2 -2.5 L 790.6 -6.5 L 785.7 -10.3 L 780.6 -14.0 L 775.1 -17.5 L 769.4 -20.8 L 763.4 -23.8 L 757.1 -26.7 L 750.6 -29.4 L 743.7 -31.8 L 736.6 -34.0 L 739.4 -34.3 L 711.7 -9.3 L 728.3 -5.8 L 734.3 -3.9 L 740.0 -1.8 L 745.3 0.4 L 750.4 2.8 L 755.2 5.3 L 759.6 7.9 L 763.8 10.6 L 767.7 13.5 L 771.3 16.4 L 774.7 19.4 L 777.8 22.5 L 780.6 25.7 L 783.3 28.9 L 785.7 32.2 L 787.8 35.5 L 789.7 39.0 L 791.5 42.5 L 793.0 46.0 L 794.3 49.6 L 795.3 53.2 L 796.2 56.9 L 796.9 60.7 L 797.4 64.5 L 797.7 68.3 L 797.8 72.2 L 797.7 76.1 L 797.3 80.0 L 796.8 84.0 L 796.1 87.9 L 795.2 91.9 L 794.1 95.9 L 792.8 99.8 L 791.4 103.8 L 789.7 107.7 L 787.8 111.6 L 785.7 115.5 L 783.5 119.3 L 781.1 123.1 L 778.4 126.8 L 775.6 130.4 L 772.6 134.0 L 769.5 137.5 L 766.1 140.9 L 762.6 144.2 L 758.9 147.4 L 755.1 150.6 L 751.0 153.5 L 746.8 156.4 L 742.5 159.2 L 737.9 161.8 L 733.2 164.2 L 728.4 166.6 L 723.4 168.8 L 718.3 170.9 L 712.9 172.8 L 707.5 174.5 L 701.9 176.0 L 696.1 177.3 L 690.1 178.5 L 684.0 179.4 L 677.8 180.1 L 671.4 180.6 L 664.9 180.9 Z" fill="purple" stroke="none" /><path d="M 737.9 -33.9 L 730.0 -34.7 L 722.3 -35.1 L 714.8 -35.3 L 707.5 -35.1 L 700.5 -34.7 L 693.6 -34.0 L 687.0 -33.1 L 680.6 -31.8 L 674.4 -30.4 L 668.5 -28.6 L 662.7 -26.7 L 657.2 -24.5 L 652.0 -22.0 L 647.0 -19.3 L 642.2 -16.4 L 637.7 -13.3 L 633.4 -10.1 L 629.4 -6.7 L 625.6 -3.1 L 622.1 0.6 L 618.9 4.4 L 616.0 8.4 L 613.3 12.5 L 610.8 16.7 L 608.7 20.9 L 606.8 25.3 L 605.3 29.7 L 604.0 34.2 L 603.0 38.7 L 602.3 43.2 L 601.9 47.7 L 601.7 52.3 L 601.9 56.8 L 602.4 61.3 L 603.2 65.8 L 604.4 70.2 L 605.8 74.5 L 607.5 78.7 L 609.6 82.8 L 611.9 86.8 L 614.6 90.6 L 617.6 94.2 L 620.8 97.7 L 624.4 100.9 L 628.2 104.0 L 632.3 106.8 L 636.6 109.3 L 641.2 111.6 L 646.0 113.6 L 651.0 115.4 L 656.3 116.9 L 661.8 118.1 L 667.5 119.0 L 673.4 119.6 L 679.5 119.9 L 685.8 119.9 L 692.3 119.5 L 699.0 118.9 L 705.9 117.9 L 713.0 116.7 L 720.3 115.0 L 727.8 113.1 L 735.5 110.8 L 733.7 111.2 L 743.6 77.3 L 726.7 82.7 L 720.0 84.6 L 713.5 86.3 L 707.3 87.6 L 701.3 88.6 L 695.7 89.4 L 690.3 89.8 L 685.1 90.0 L 680.3 90.0 L 675.7 89.7 L 671.4 89.3 L 667.3 88.6 L 663.6 87.8 L 660.0 86.8 L 656.8 85.6 L 653.7 84.4 L 650.9 83.0 L 648.4 81.5 L 646.0 79.8 L 643.9 78.1 L 641.9 76.3 L 640.1 74.5 L 638.6 72.5 L 637.1 70.5 L 635.9 68.4 L 634.8 66.3 L 633.9 64.0 L 633.2 61.8 L 632.6 59.4 L 632.1 57.0 L 631.9 54.5 L 631.7 52.0 L 631.8 49.5 L 632.0 46.9 L 632.5 44.2 L 633.0 41.6 L 633.8 38.9 L 634.8 36.3 L 635.9 33.6 L 637.3 30.9 L 638.8 28.3 L 640.5 25.6 L 642.4 23.1 L 644.6 20.5 L 646.9 18.0 L 649.4 15.6 L 652.2 13.3 L 655.2 11.0 L 658.4 8.8 L 661.8 6.8 L 665.5 4.8 L 669.3 3.0 L 673.4 1.3 L 677.8 -0.4 L 682.3 -1.8 L 687.1 -3.1 L 692.2 -4.2 L 697.5 -5.1 L 703.1 -5.9 L 709.0 -6.3 L 715.1 -6.6 L 721.4 -6.6 L 728.0 -6.4 L 734.9 -5.8 Z" fill="purple" stroke="none" /></g></g><g transform="translate(222.813,792.668) scale(1.039672,-1.039672)">
    <path d="M22 -84V83L192 158Q241 180 281.0 209.5Q321 239 352.5 273.0Q384 307 404.5 344.0Q425 381 435 418L437 426L372 434Q339 439 325.0 457.5Q311 476 311 519Q311 545 316.5 575.5Q322 606 336 647H370V631Q370 613 380.5 603.5Q391 594 410 592L456 586Q486 582 501.5 562.5Q517 543 512 508L504 448Q499 402 481.5 353.5Q464 305 437.5 256.0Q411 207 375.5 162.0Q340 117 297.0 78.5Q254 40 206 11L41 -84ZM193 118 126 255Q114 281 106.0 316.5Q98 352 98.0 389.5Q98 427 106 459L152 455Q149 427 150.0 404.5Q151 382 158.0 362.5Q165 343 175 324L271 155ZM212 418 81 434Q46 439 33.0 458.0Q20 477 20 517Q20 545 25.5 576.5Q31 608 44 647H79V631Q79 614 89.0 604.0Q99 594 118 592L168 586Q198 583 212.0 563.0Q226 543 226 507Q226 486 222.5 466.0Q219 446 212 418Z" fill="black" />
  </g>
</svg>