<svg xmlns="http://www.w3.org/2000/svg" width="1230.0" height="1230.0" viewBox="-115.0 -80.0 1230.0 1230.0" version="1.1" id="svg1">
  <g id="decorations" /><defs id="defs1" />
  <g transform="matrix(1.039672,0,0,-1.039672,222.813,792.668)" id="g1">
    <path d="M 22,-84 V 83 l 170,75 c 32.66667,14.66667 62.33333,31.83333 89,51.5 26.66667,19.66667 50.5,40.83333 71.5,63.5 21,22.66667 38.33333,46.33333 52,71 13.66667,24.66667 23.83333,49.33333 30.5,74 l 26.64675,98.93541 c 13.30367,63.45075 -30.64069,56.34169 -4.20569,51.55269 16.34057,-2.96027 46.84495,-27.38706 50.7201,-72.43115 L 504,448 c -3.33333,-30.66667 -10.83333,-62.16667 -22.5,-94.5 -11.66667,-32.33333 -26.33333,-64.83333 -44,-97.5 -17.66667,-32.66667 -38.33333,-64 -62,-94 C 351.83333,132 325.66667,104.16667 297,78.5 268.33333,52.833333 238,30.333333 206,11 L 41,-84 Z m 171,202 -67,137 c -8,17.33333 -14.66667,37.83333 -20,61.5 -5.33333,23.66667 -8,48 -8,73 0,25 2.66667,48.16667 8,69.5 l 46,-4 c -2,-18.66667 -2.66667,-35.5 -2,-50.5 0.66667,-15 3.33333,-29 8,-42 4.66667,-13 10.33333,-25.83333 17,-38.5 l 96,-169 z m 19,300 -131,16 c -23.333333,3.33333 -39.333333,11.33333 -48,24 -8.666667,12.66667 -13,32.33333 -13,59 0,18.66667 1.833333,38.5 5.5,59.5 3.666667,21 9.833333,44.5 18.5,70.5 h 35 v -16 c 0,-11.33333 3.333333,-20.33333 10,-27 6.666667,-6.66667 16.33333,-10.66667 29,-12 l 50,-6 c 20,-2 34.66667,-9.66667 44,-23 9.33333,-13.33333 14,-32 14,-56 0,-14 -1.16667,-27.66667 -3.5,-41 -2.33333,-13.33333 -5.83333,-29.33333 -10.5,-48 z" fill="#000000" id="path1" />
  </g>
  <path d="m 704.89379,205.9325 c -13.21747,-10.90426 -52.12931,-13.29138 -67.47714,-14.26792 -24.76761,-1.57592 -39.76736,-1.97018 -63.89091,3.34919 -24.66223,5.43815 -47.881,18.14814 -64.59951,35.60035 -15.65773,16.345 -21.46353,28.62329 -27.76044,43.20272 -8.05646,18.6536 -9.20284,46.663 -1.73257,65.62931 4.72395,11.99365 23.04647,37.03739 38.2522,43.92374 19.99675,9.05613 33.06812,10.27602 54.95765,12.5802 18.03987,1.89939 52.39227,-8.65931 67.23041,-16.18182 9.94299,-5.04084 28.16495,-38.90683 27.33796,-51.57018 -1.54957,-23.7259 0.63922,-26.3108 -22.0615,-42.86662 -10.71159,-7.81204 -47.73027,-17.06 -54.68164,-4.85328 l -15.83294,27.80323 c 0,0 44.26472,-13.84284 50.81249,11.14024 2.56186,9.77486 -3.68716,33.82613 -8.1484,35.66265 -11.80669,4.86026 -30.38871,9.27614 -44.07369,7.99853 -16.27007,-1.51896 -42.86221,-9.49068 -53.46314,-22.01169 -8.50613,-10.04682 -10.54148,-28.59992 -9.47402,-41.31554 1.16448,-13.87109 9.94927,-21.30663 20.81303,-32.3153 10.94068,-11.08664 25.0049,-24.03788 40.13043,-26.34743 27.60166,-4.21459 33.6896,-2.79041 61.61255,-3.3444 11.24193,-0.22302 19.70842,-1.81311 37.51616,5.47391 13.89793,5.6871 26.14514,12.21635 28.15073,27.47479 1.74617,13.28474 14.84089,-57.78642 6.38229,-64.76468 z" fill="#000000" stroke="none" id="path2" />
</svg>