<svg xmlns="http://www.w3.org/2000/svg" width="1447.0" height="1447.0" viewBox="-73.5 -37.0 1447.0 1447.0">
  <g id="decorations"><polygon points="490.0,243.0 520.0,243.0 515.7,-7.0 490.3,-2.0" fill="purple" /><g><path d="M 399.5 1116.6 L 392.3 1119.1 L 385.4 1121.8 L 378.6 1124.7 L 372.1 1127.8 L 365.8 1131.1 L 359.6 1134.6 L 353.7 1138.2 L 348.1 1142.1 L 342.6 1146.1 L 337.4 1150.2 L 332.3 1154.5 L 327.6 1159.0 L 323.1 1163.6 L 318.8 1168.3 L 314.7 1173.2 L 310.9 1178.1 L 307.3 1183.2 L 303.9 1188.3 L 300.8 1193.5 L 297.9 1198.8 L 295.3 1204.2 L 292.9 1209.6 L 290.7 1215.0 L 288.7 1220.5 L 287.0 1226.0 L 285.5 1231.5 L 284.3 1237.1 L 283.3 1242.7 L 282.6 1248.2 L 282.1 1253.8 L 281.8 1259.3 L 281.8 1264.9 L 282.1 1270.3 L 282.6 1275.8 L 283.3 1281.2 L 284.3 1286.5 L 285.6 1291.8 L 287.1 1297.0 L 288.9 1302.1 L 291.0 1307.1 L 293.3 1312.0 L 295.8 1316.8 L 298.7 1321.4 L 301.8 1325.9 L 305.2 1330.3 L 308.8 1334.5 L 312.7 1338.5 L 316.8 1342.3 L 321.2 1345.9 L 325.9 1349.3 L 330.7 1352.4 L 335.9 1355.3 L 341.2 1358.0 L 346.8 1360.4 L 352.6 1362.6 L 358.7 1364.5 L 364.9 1366.1 L 371.4 1367.5 L 378.0 1368.5 L 384.9 1369.3 L 392.0 1369.8 L 399.2 1370.0 L 406.7 1369.9 L 403.9 1370.4 L 422.9 1339.4 L 405.9 1340.5 L 399.6 1340.5 L 393.5 1340.3 L 387.7 1339.9 L 382.2 1339.2 L 376.9 1338.3 L 371.8 1337.2 L 367.0 1335.9 L 362.4 1334.4 L 358.1 1332.7 L 354.0 1330.9 L 350.0 1328.9 L 346.3 1326.8 L 342.9 1324.5 L 339.6 1322.1 L 336.5 1319.6 L 333.6 1316.9 L 330.9 1314.2 L 328.3 1311.3 L 326.0 1308.2 L 323.8 1305.1 L 321.9 1301.8 L 320.0 1298.5 L 318.4 1295.0 L 317.0 1291.5 L 315.7 1287.8 L 314.6 1284.1 L 313.7 1280.3 L 312.9 1276.3 L 312.4 1272.4 L 312.0 1268.3 L 311.8 1264.2 L 311.8 1260.0 L 312.0 1255.8 L 312.4 1251.6 L 313.0 1247.3 L 313.7 1243.0 L 314.7 1238.6 L 315.8 1234.3 L 317.2 1229.9 L 318.7 1225.6 L 320.5 1221.3 L 322.4 1217.0 L 324.5 1212.7 L 326.8 1208.5 L 329.4 1204.3 L 332.1 1200.1 L 335.0 1196.0 L 338.1 1192.0 L 341.4 1188.0 L 344.9 1184.1 L 348.6 1180.4 L 352.5 1176.6 L 356.6 1173.0 L 360.8 1169.4 L 365.3 1166.0 L 369.9 1162.7 L 374.8 1159.5 L 379.9 1156.4 L 385.2 1153.5 L 390.7 1150.7 L 396.4 1148.1 L 402.4 1145.6 L 408.5 1143.4 Z" fill="purple" stroke="none" /><path d="M 405.4 1370.2 L 413.2 1368.5 L 420.6 1366.6 L 427.8 1364.4 L 434.7 1362.0 L 441.2 1359.4 L 447.5 1356.7 L 453.5 1353.7 L 459.2 1350.6 L 464.7 1347.2 L 469.8 1343.8 L 474.7 1340.1 L 479.2 1336.3 L 483.4 1332.3 L 487.4 1328.2 L 491.0 1324.0 L 494.4 1319.7 L 497.4 1315.3 L 500.2 1310.8 L 502.7 1306.3 L 504.8 1301.6 L 506.7 1297.0 L 508.3 1292.3 L 509.6 1287.6 L 510.6 1282.9 L 511.3 1278.1 L 511.8 1273.4 L 511.9 1268.7 L 511.7 1264.1 L 511.3 1259.5 L 510.6 1255.0 L 509.6 1250.5 L 508.3 1246.2 L 506.7 1241.9 L 504.8 1237.8 L 502.7 1233.8 L 500.3 1230.0 L 497.6 1226.3 L 494.6 1222.9 L 491.4 1219.6 L 487.9 1216.5 L 484.2 1213.7 L 480.3 1211.2 L 476.1 1208.9 L 471.7 1206.9 L 467.2 1205.2 L 462.4 1203.8 L 457.5 1202.7 L 452.4 1201.9 L 447.2 1201.5 L 441.9 1201.4 L 436.4 1201.6 L 430.8 1202.2 L 425.1 1203.1 L 419.3 1204.3 L 413.4 1205.9 L 407.5 1207.9 L 401.4 1210.2 L 395.2 1212.9 L 388.9 1215.9 L 382.5 1219.3 L 376.1 1223.1 L 369.6 1227.3 L 362.9 1231.9 L 364.4 1231.5 L 365.9 1265.6 L 380.0 1255.9 L 385.8 1251.9 L 391.5 1248.4 L 397.0 1245.2 L 402.3 1242.4 L 407.5 1239.9 L 412.5 1237.8 L 417.3 1236.0 L 421.9 1234.6 L 426.3 1233.4 L 430.6 1232.5 L 434.6 1231.9 L 438.5 1231.5 L 442.2 1231.4 L 445.6 1231.5 L 448.9 1231.7 L 452.0 1232.2 L 454.9 1232.8 L 457.7 1233.7 L 460.2 1234.6 L 462.6 1235.7 L 464.9 1236.9 L 467.0 1238.3 L 469.0 1239.8 L 470.8 1241.4 L 472.5 1243.1 L 474.0 1244.9 L 475.5 1246.9 L 476.8 1248.9 L 477.9 1251.1 L 478.9 1253.3 L 479.8 1255.7 L 480.5 1258.2 L 481.1 1260.7 L 481.5 1263.3 L 481.8 1266.0 L 481.9 1268.8 L 481.8 1271.6 L 481.5 1274.5 L 481.1 1277.5 L 480.5 1280.5 L 479.6 1283.5 L 478.6 1286.5 L 477.4 1289.6 L 475.9 1292.7 L 474.2 1295.8 L 472.3 1298.9 L 470.2 1302.0 L 467.8 1305.0 L 465.2 1308.0 L 462.3 1311.0 L 459.2 1313.9 L 455.9 1316.9 L 452.2 1319.7 L 448.3 1322.5 L 444.2 1325.3 L 439.7 1327.9 L 434.9 1330.4 L 429.8 1332.8 L 424.4 1335.1 L 418.7 1337.2 L 412.6 1339.2 L 406.3 1341.0 L 399.6 1342.6 Z" fill="purple" stroke="none" /></g></g><g transform="translate(372.813,1052.668) scale(1.039672,-1.039672)">
    <path d="M22 -84       V83       L192 158       Q241 180 281.0 209.5       Q321 239 352.5 273.0       Q384 307 404.5 344.0       Q425 381 435 418       L437 426       L372 434       Q339 439 325.0 457.5       Q311 476 311 519       Q311 545 316.5 575.5       Q322 606 336 647       H370       V631       Q370 613 380.5 603.5       Q391 594 410 592       L456 586       Q486 582 501.5 562.5       Q517 543 512 508       L504 448       Q499 402 481.5 353.5       Q464 305 437.5 256.0       Q411 207 375.5 162.0       Q340 117 297.0 78.5       Q254 40 206 11L41 -84       Z              M193 118 120 455              Q114 481 106.0 516.5       Q98 552 98.0 589.5       Q98 627 106 659       L152 655       Q149 627 150.0 604.5       Q149 582 150.0 562.5       Q151 543 158 524       L271 155              ZM212 618 81 634       Q46 639 33.0 658.0       Q20 677 20 717       Q20 745 25.5 776.5       Q31 808 44 847       H79       V831       Q79 814 89.0 804.0       Q99 794 118 792       L168 786       Q198 783 212.0 763.0       Q226 743 226 707       Q226 686 222.5 666.0       Q219 646 212 618Z" fill="black" />
  </g>
</svg>