<svg xmlns="http://www.w3.org/2000/svg" width="1235.0" height="1235.0" viewBox="-117.5 -85.0 1235.0 1235.0">
  <g id="decorations"><g><path d="M 355.1 214.1 L 362.7 214.0 L 370.2 213.6 L 377.5 212.9 L 384.7 211.9 L 391.7 210.8 L 398.6 209.3 L 405.3 207.7 L 411.9 205.8 L 418.4 203.7 L 424.6 201.4 L 430.7 198.8 L 436.6 196.1 L 442.4 193.1 L 447.9 189.9 L 453.3 186.5 L 458.4 183.0 L 463.4 179.3 L 468.2 175.5 L 472.8 171.5 L 477.1 167.3 L 481.3 163.1 L 485.3 158.7 L 489.0 154.2 L 492.6 149.6 L 495.9 144.8 L 499.0 140.0 L 501.9 135.1 L 504.6 130.1 L 507.0 125.1 L 509.2 119.9 L 511.1 114.7 L 512.9 109.5 L 514.3 104.2 L 515.5 98.9 L 516.5 93.5 L 517.2 88.1 L 517.6 82.7 L 517.8 77.3 L 517.6 71.9 L 517.2 66.5 L 516.6 61.1 L 515.6 55.8 L 514.3 50.5 L 512.8 45.2 L 510.9 40.1 L 508.7 35.0 L 506.3 30.0 L 503.5 25.1 L 500.4 20.3 L 497.1 15.6 L 493.4 11.1 L 489.4 6.7 L 485.2 2.5 L 480.6 -1.5 L 475.7 -5.3 L 470.6 -9.0 L 465.1 -12.5 L 459.4 -15.8 L 453.4 -18.8 L 447.1 -21.7 L 440.6 -24.4 L 433.7 -26.8 L 426.6 -29.0 L 429.4 -29.3 L 401.7 -4.3 L 418.3 -0.8 L 424.3 1.1 L 430.0 3.2 L 435.3 5.4 L 440.4 7.8 L 445.2 10.3 L 449.6 12.9 L 453.8 15.6 L 457.7 18.5 L 461.3 21.4 L 464.7 24.4 L 467.8 27.5 L 470.6 30.7 L 473.3 33.9 L 475.7 37.2 L 477.8 40.5 L 479.7 44.0 L 481.5 47.5 L 483.0 51.0 L 484.3 54.6 L 485.3 58.2 L 486.2 61.9 L 486.9 65.7 L 487.4 69.5 L 487.7 73.3 L 487.8 77.2 L 487.7 81.1 L 487.3 85.0 L 486.8 89.0 L 486.1 92.9 L 485.2 96.9 L 484.1 100.9 L 482.8 104.8 L 481.4 108.8 L 479.7 112.7 L 477.8 116.6 L 475.7 120.5 L 473.5 124.3 L 471.1 128.1 L 468.4 131.8 L 465.6 135.4 L 462.6 139.0 L 459.5 142.5 L 456.1 145.9 L 452.6 149.2 L 448.9 152.4 L 445.1 155.6 L 441.0 158.5 L 436.8 161.4 L 432.5 164.2 L 427.9 166.8 L 423.2 169.2 L 418.4 171.6 L 413.4 173.8 L 408.3 175.9 L 402.9 177.8 L 397.5 179.5 L 391.9 181.0 L 386.1 182.3 L 380.1 183.5 L 374.0 184.4 L 367.8 185.1 L 361.4 185.6 L 354.9 185.9 Z" fill="purple" stroke="none" /><path d="M 427.9 -28.9 L 420.0 -29.7 L 412.3 -30.1 L 404.8 -30.3 L 397.5 -30.1 L 390.5 -29.7 L 383.6 -29.0 L 377.0 -28.1 L 370.6 -26.8 L 364.4 -25.4 L 358.5 -23.6 L 352.7 -21.7 L 347.2 -19.5 L 342.0 -17.0 L 337.0 -14.3 L 332.2 -11.4 L 327.7 -8.3 L 323.4 -5.1 L 319.4 -1.7 L 315.6 1.9 L 312.1 5.6 L 308.9 9.4 L 306.0 13.4 L 303.3 17.5 L 300.8 21.7 L 298.7 25.9 L 296.8 30.3 L 295.3 34.7 L 294.0 39.2 L 293.0 43.7 L 292.3 48.2 L 291.9 52.7 L 291.7 57.3 L 291.9 61.8 L 292.4 66.3 L 293.2 70.8 L 294.4 75.2 L 295.8 79.5 L 297.5 83.7 L 299.6 87.8 L 301.9 91.8 L 304.6 95.6 L 307.6 99.2 L 310.8 102.7 L 314.4 105.9 L 318.2 109.0 L 322.3 111.8 L 326.6 114.3 L 331.2 116.6 L 336.0 118.6 L 341.0 120.4 L 346.3 121.9 L 351.8 123.1 L 357.5 124.0 L 363.4 124.6 L 369.5 124.9 L 375.8 124.9 L 382.3 124.5 L 389.0 123.9 L 395.9 122.9 L 403.0 121.7 L 410.3 120.0 L 417.8 118.1 L 425.5 115.8 L 423.7 116.2 L 433.6 82.3 L 416.7 87.7 L 410.0 89.6 L 403.5 91.3 L 397.3 92.6 L 391.3 93.6 L 385.7 94.4 L 380.3 94.8 L 375.1 95.0 L 370.3 95.0 L 365.7 94.7 L 361.4 94.3 L 357.3 93.6 L 353.6 92.8 L 350.0 91.8 L 346.8 90.6 L 343.7 89.4 L 340.9 88.0 L 338.4 86.5 L 336.0 84.8 L 333.9 83.1 L 331.9 81.3 L 330.1 79.5 L 328.6 77.5 L 327.1 75.5 L 325.9 73.4 L 324.8 71.3 L 323.9 69.0 L 323.2 66.8 L 322.6 64.4 L 322.1 62.0 L 321.9 59.5 L 321.7 57.0 L 321.8 54.5 L 322.0 51.9 L 322.5 49.2 L 323.0 46.6 L 323.8 43.9 L 324.8 41.3 L 325.9 38.6 L 327.3 35.9 L 328.8 33.3 L 330.5 30.6 L 332.4 28.1 L 334.6 25.5 L 336.9 23.0 L 339.4 20.6 L 342.2 18.3 L 345.2 16.0 L 348.4 13.8 L 351.8 11.8 L 355.5 9.8 L 359.3 8.0 L 363.4 6.3 L 367.8 4.6 L 372.3 3.2 L 377.1 1.9 L 382.2 0.8 L 387.5 -0.1 L 393.1 -0.9 L 399.0 -1.3 L 405.1 -1.6 L 411.4 -1.6 L 418.0 -1.4 L 424.9 -0.8 Z" fill="purple" stroke="none" /></g><polygon points="625.0,195.0 655.0,195.0 650.7,-55.0 625.3,-50.0" fill="purple" /><polygon points="675.0,195.0 705.0,195.0 700.7,-55.0 675.3,-50.0" fill="purple" /><polygon points="245.0,810.0 275.0,810.0 274.7,1115.0 249.3,1120.0" fill="purple" /><polygon points="295.0,750.0 325.0,750.0 324.7,1115.0 299.3,1120.0" fill="purple" /></g><g transform="translate(222.813,792.668) scale(1.039672,-1.039672)">
    <path d="M22 -84V83L192 158Q241 180 281.0 209.5Q321 239 352.5 273.0Q384 307 404.5 344.0Q425 381 435 418L437 426L372 434Q339 439 325.0 457.5Q311 476 311 519Q311 545 316.5 575.5Q322 606 336 647H370V631Q370 613 380.5 603.5Q391 594 410 592L456 586Q486 582 501.5 562.5Q517 543 512 508L504 448Q499 402 481.5 353.5Q464 305 437.5 256.0Q411 207 375.5 162.0Q340 117 297.0 78.5Q254 40 206 11L41 -84ZM193 118 126 255Q114 281 106.0 316.5Q98 352 98.0 389.5Q98 427 106 459L152 455Q149 427 150.0 404.5Q151 382 158.0 362.5Q165 343 175 324L271 155ZM212 418 81 434Q46 439 33.0 458.0Q20 477 20 517Q20 545 25.5 576.5Q31 608 44 647H79V631Q79 614 89.0 604.0Q99 594 118 592L168 586Q198 583 212.0 563.0Q226 543 226 507Q226 486 222.5 466.0Q219 446 212 418Z" fill="black" />
  </g>
</svg>