<?xml version="1.0" encoding="UTF-8" standalone="no"?>
<svg
   width="1000"
   height="1000"
   viewBox="0 0 1300 1300"
   version="1.1"
   id="svg1"
   xmlns="http://www.w3.org/2000/svg"
   xmlns:svg="http://www.w3.org/2000/svg">
  <defs
     id="defs1" />
  <g
     transform="matrix(1.039672,0,0,-1.039672,372.813,1052.668)"
     id="g1">
    <path
       d="M 22,-84 V 83 l 170,75 c 32.66667,14.66667 62.33333,31.83333 89,51.5 26.66667,19.66667 50.5,40.83333 71.5,63.5 21,22.66667 38.33333,46.33333 52,71 13.66667,24.66667 23.83333,49.33333 30.5,74 l 27.49348,97.83416 c -20.3276,12.64693 -34.02045,82.9983 6.50129,65.81734 C 493.93805,571.07571 515.33333,531.33333 512,508 l -8,-60 c -3.33333,-30.66667 -10.83333,-62.16667 -22.5,-94.5 -11.66667,-32.33333 -26.33333,-64.83333 -44,-97.5 -17.66667,-32.66667 -38.33333,-64 -62,-94 C 351.83333,132 325.66667,104.16667 297,78.5 268.33333,52.833333 238,30.333333 206,11 L 41,-84 Z m 171,202 -73,337 c -4,17.33333 -8.66667,37.83333 -14,61.5 -5.33333,23.66667 -8,48 -8,73 0,25 2.66667,48.16667 8,69.5 l 46,-4 c -2,-18.66667 -2.66667,-35.5 -2,-50.5 -0.66667,-15 -0.66667,-29 0,-42 0.66667,-13 3.33333,-25.83333 8,-38.5 L 271,155 Z m 19,500 -131,16 c -23.333333,3.33333 -39.333333,11.33333 -48,24 -8.666667,12.66667 -13,32.33333 -13,59 0,18.66667 1.833333,38.5 5.5,59.5 3.666667,21 9.833333,44.5 18.5,70.5 h 35 v -16 c 0,-11.33333 3.333333,-20.33333 10,-27 6.666667,-6.66667 16.33333,-10.66667 29,-12 l 50,-6 c 20,-2 34.66667,-9.66667 44,-23 9.33333,-13.33333 14,-32 14,-56 0,-14 -1.16667,-27.66667 -3.5,-41 -2.33333,-13.33333 -5.83333,-29.33333 -10.5,-48 z"
       fill="#000000"
       id="path1" />
  </g>
  <path
     d="m 862.9457,448.70071 c -17.84297,-9.03907 -67.1275,-18.20496 -85.04336,-19.34491 -28.91175,-1.8396 -46.42129,-2.29983 -74.5812,3.90959 -28.78873,6.34807 -55.89248,21.18469 -75.40829,41.55703 -18.27764,19.07986 -25.05483,33.41255 -32.40536,50.43142 -9.40448,21.77474 -10.74268,54.47069 -2.02252,76.61047 5.51442,14.00043 26.9027,43.23451 44.65262,51.27309 23.34265,10.57141 38.60114,11.99541 64.15326,14.68513 21.05828,2.21719 61.15854,-10.1082 78.47942,-18.88938 11.60667,-5.88427 32.8775,-45.41675 31.91213,-60.19894 -1.80881,-27.69573 0.74618,-30.71314 -25.75281,-50.0391 -12.50389,-9.11915 -55.71657,-19.91449 -63.83098,-5.66533 l -18.48219,32.45529 c 0,0 51.67118,-16.15904 59.31453,13.00423 2.9905,11.4104 -4.30409,39.48595 -9.51187,41.62975 -13.78219,5.67348 -35.47335,10.82823 -51.44813,9.33685 -18.99231,-1.77311 -50.03389,-11.07866 -62.40856,-25.69471 -9.92941,-11.72785 -12.30536,-33.38527 -11.05929,-48.22848 1.35939,-16.19201 11.61403,-24.87167 24.29554,-37.72232 12.77129,-12.94167 29.18867,-28.05992 46.84503,-30.75591 32.22003,-4.91977 39.32659,-3.2573 71.92168,-3.90398 13.12293,-0.26033 23.00601,-2.11648 43.79339,6.38981 16.22333,6.63867 32.31279,17.39833 34.65399,35.20982 2.03832,15.50756 22.70344,-70.59321 11.93297,-76.04942 z"
     fill="#000000"
     stroke="none"
     id="path2"
     style="stroke-width:1.16732" />
</svg>
