<svg xmlns="http://www.w3.org/2000/svg" width="1235.0" height="1235.0" viewBox="-117.5 -85.0 1235.0 1235.0">
  <g id="decorations"><polygon points="290.0,200.0 320.0,200.0 315.7,-50.0 290.3,-45.0" fill="purple" /><polygon points="340.0,200.0 370.0,200.0 365.7,-50.0 340.3,-45.0" fill="purple" /><polygon points="390.0,200.0 420.0,200.0 415.7,-50.0 390.3,-45.0" fill="purple" /><g><path d="M 665.1 209.1 L 672.7 209.0 L 680.2 208.6 L 687.5 207.9 L 694.7 206.9 L 701.7 205.8 L 708.6 204.3 L 715.3 202.7 L 721.9 200.8 L 728.4 198.7 L 734.6 196.4 L 740.7 193.8 L 746.6 191.1 L 752.4 188.1 L 757.9 184.9 L 763.3 181.5 L 768.4 178.0 L 773.4 174.3 L 778.2 170.5 L 782.8 166.5 L 787.1 162.3 L 791.3 158.1 L 795.3 153.7 L 799.0 149.2 L 802.6 144.6 L 805.9 139.8 L 809.0 135.0 L 811.9 130.1 L 814.6 125.1 L 817.0 120.1 L 819.2 114.9 L 821.1 109.7 L 822.9 104.5 L 824.3 99.2 L 825.5 93.9 L 826.5 88.5 L 827.2 83.1 L 827.6 77.7 L 827.8 72.3 L 827.6 66.9 L 827.2 61.5 L 826.6 56.1 L 825.6 50.8 L 824.3 45.5 L 822.8 40.2 L 820.9 35.1 L 818.7 30.0 L 816.3 25.0 L 813.5 20.1 L 810.4 15.3 L 807.1 10.6 L 803.4 6.1 L 799.4 1.7 L 795.2 -2.5 L 790.6 -6.5 L 785.7 -10.3 L 780.6 -14.0 L 775.1 -17.5 L 769.4 -20.8 L 763.4 -23.8 L 757.1 -26.7 L 750.6 -29.4 L 743.7 -31.8 L 736.6 -34.0 L 739.4 -34.3 L 711.7 -9.3 L 728.3 -5.8 L 734.3 -3.9 L 740.0 -1.8 L 745.3 0.4 L 750.4 2.8 L 755.2 5.3 L 759.6 7.9 L 763.8 10.6 L 767.7 13.5 L 771.3 16.4 L 774.7 19.4 L 777.8 22.5 L 780.6 25.7 L 783.3 28.9 L 785.7 32.2 L 787.8 35.5 L 789.7 39.0 L 791.5 42.5 L 793.0 46.0 L 794.3 49.6 L 795.3 53.2 L 796.2 56.9 L 796.9 60.7 L 797.4 64.5 L 797.7 68.3 L 797.8 72.2 L 797.7 76.1 L 797.3 80.0 L 796.8 84.0 L 796.1 87.9 L 795.2 91.9 L 794.1 95.9 L 792.8 99.8 L 791.4 103.8 L 789.7 107.7 L 787.8 111.6 L 785.7 115.5 L 783.5 119.3 L 781.1 123.1 L 778.4 126.8 L 775.6 130.4 L 772.6 134.0 L 769.5 137.5 L 766.1 140.9 L 762.6 144.2 L 758.9 147.4 L 755.1 150.6 L 751.0 153.5 L 746.8 156.4 L 742.5 159.2 L 737.9 161.8 L 733.2 164.2 L 728.4 166.6 L 723.4 168.8 L 718.3 170.9 L 712.9 172.8 L 707.5 174.5 L 701.9 176.0 L 696.1 177.3 L 690.1 178.5 L 684.0 179.4 L 677.8 180.1 L 671.4 180.6 L 664.9 180.9 Z" fill="purple" stroke="none" /><path d="M 737.9 -33.9 L 730.0 -34.7 L 722.3 -35.1 L 714.8 -35.3 L 707.5 -35.1 L 700.5 -34.7 L 693.6 -34.0 L 687.0 -33.1 L 680.6 -31.8 L 674.4 -30.4 L 668.5 -28.6 L 662.7 -26.7 L 657.2 -24.5 L 652.0 -22.0 L 647.0 -19.3 L 642.2 -16.4 L 637.7 -13.3 L 633.4 -10.1 L 629.4 -6.7 L 625.6 -3.1 L 622.1 0.6 L 618.9 4.4 L 616.0 8.4 L 613.3 12.5 L 610.8 16.7 L 608.7 20.9 L 606.8 25.3 L 605.3 29.7 L 604.0 34.2 L 603.0 38.7 L 602.3 43.2 L 601.9 47.7 L 601.7 52.3 L 601.9 56.8 L 602.4 61.3 L 603.2 65.8 L 604.4 70.2 L 605.8 74.5 L 607.5 78.7 L 609.6 82.8 L 611.9 86.8 L 614.6 90.6 L 617.6 94.2 L 620.8 97.7 L 624.4 100.9 L 628.2 104.0 L 632.3 106.8 L 636.6 109.3 L 641.2 111.6 L 646.0 113.6 L 651.0 115.4 L 656.3 116.9 L 661.8 118.1 L 667.5 119.0 L 673.4 119.6 L 679.5 119.9 L 685.8 119.9 L 692.3 119.5 L 699.0 118.9 L 705.9 117.9 L 713.0 116.7 L 720.3 115.0 L 727.8 113.1 L 735.5 110.8 L 733.7 111.2 L 743.6 77.3 L 726.7 82.7 L 720.0 84.6 L 713.5 86.3 L 707.3 87.6 L 701.3 88.6 L 695.7 89.4 L 690.3 89.8 L 685.1 90.0 L 680.3 90.0 L 675.7 89.7 L 671.4 89.3 L 667.3 88.6 L 663.6 87.8 L 660.0 86.8 L 656.8 85.6 L 653.7 84.4 L 650.9 83.0 L 648.4 81.5 L 646.0 79.8 L 643.9 78.1 L 641.9 76.3 L 640.1 74.5 L 638.6 72.5 L 637.1 70.5 L 635.9 68.4 L 634.8 66.3 L 633.9 64.0 L 633.2 61.8 L 632.6 59.4 L 632.1 57.0 L 631.9 54.5 L 631.7 52.0 L 631.8 49.5 L 632.0 46.9 L 632.5 44.2 L 633.0 41.6 L 633.8 38.9 L 634.8 36.3 L 635.9 33.6 L 637.3 30.9 L 638.8 28.3 L 640.5 25.6 L 642.4 23.1 L 644.6 20.5 L 646.9 18.0 L 649.4 15.6 L 652.2 13.3 L 655.2 11.0 L 658.4 8.8 L 661.8 6.8 L 665.5 4.8 L 669.3 3.0 L 673.4 1.3 L 677.8 -0.4 L 682.3 -1.8 L 687.1 -3.1 L 692.2 -4.2 L 697.5 -5.1 L 703.1 -5.9 L 709.0 -6.3 L 715.1 -6.6 L 721.4 -6.6 L 728.0 -6.4 L 734.9 -5.8 Z" fill="purple" stroke="none" /></g><g><path d="M 255.5 856.6 L 248.3 859.1 L 241.4 861.8 L 234.6 864.7 L 228.1 867.8 L 221.8 871.1 L 215.6 874.6 L 209.7 878.2 L 204.1 882.1 L 198.6 886.1 L 193.4 890.2 L 188.3 894.5 L 183.6 899.0 L 179.1 903.6 L 174.8 908.3 L 170.7 913.2 L 166.9 918.1 L 163.3 923.2 L 159.9 928.3 L 156.8 933.5 L 153.9 938.8 L 151.3 944.2 L 148.9 949.6 L 146.7 955.0 L 144.7 960.5 L 143.0 966.0 L 141.5 971.5 L 140.3 977.1 L 139.3 982.7 L 138.6 988.2 L 138.1 993.8 L 137.8 999.3 L 137.8 1004.9 L 138.1 1010.3 L 138.6 1015.8 L 139.3 1021.2 L 140.3 1026.5 L 141.6 1031.8 L 143.1 1037.0 L 144.9 1042.1 L 147.0 1047.1 L 149.3 1052.0 L 151.8 1056.8 L 154.7 1061.4 L 157.8 1065.9 L 161.2 1070.3 L 164.8 1074.5 L 168.7 1078.5 L 172.8 1082.3 L 177.2 1085.9 L 181.9 1089.3 L 186.7 1092.4 L 191.9 1095.3 L 197.2 1098.0 L 202.8 1100.4 L 208.6 1102.6 L 214.7 1104.5 L 220.9 1106.1 L 227.4 1107.5 L 234.0 1108.5 L 240.9 1109.3 L 248.0 1109.8 L 255.2 1110.0 L 262.7 1109.9 L 259.9 1110.4 L 278.9 1079.4 L 261.9 1080.5 L 255.6 1080.5 L 249.5 1080.3 L 243.7 1079.9 L 238.2 1079.2 L 232.9 1078.3 L 227.8 1077.2 L 223.0 1075.9 L 218.4 1074.4 L 214.1 1072.7 L 210.0 1070.9 L 206.0 1068.9 L 202.3 1066.8 L 198.9 1064.5 L 195.6 1062.1 L 192.5 1059.6 L 189.6 1056.9 L 186.9 1054.2 L 184.3 1051.3 L 182.0 1048.2 L 179.8 1045.1 L 177.9 1041.8 L 176.0 1038.5 L 174.4 1035.0 L 173.0 1031.5 L 171.7 1027.8 L 170.6 1024.1 L 169.7 1020.3 L 168.9 1016.3 L 168.4 1012.4 L 168.0 1008.3 L 167.8 1004.2 L 167.8 1000.0 L 168.0 995.8 L 168.4 991.6 L 169.0 987.3 L 169.7 983.0 L 170.7 978.6 L 171.8 974.3 L 173.2 969.9 L 174.7 965.6 L 176.5 961.3 L 178.4 957.0 L 180.5 952.7 L 182.8 948.5 L 185.4 944.3 L 188.1 940.1 L 191.0 936.0 L 194.1 932.0 L 197.4 928.0 L 200.9 924.1 L 204.6 920.4 L 208.5 916.6 L 212.6 913.0 L 216.8 909.4 L 221.3 906.0 L 225.9 902.7 L 230.8 899.5 L 235.9 896.4 L 241.2 893.5 L 246.7 890.7 L 252.4 888.1 L 258.4 885.6 L 264.5 883.4 Z" fill="purple" stroke="none" /><path d="M 261.4 1110.2 L 269.2 1108.5 L 276.6 1106.6 L 283.8 1104.4 L 290.7 1102.0 L 297.2 1099.4 L 303.5 1096.7 L 309.5 1093.7 L 315.2 1090.6 L 320.7 1087.2 L 325.8 1083.8 L 330.7 1080.1 L 335.2 1076.3 L 339.4 1072.3 L 343.4 1068.2 L 347.0 1064.0 L 350.4 1059.7 L 353.4 1055.3 L 356.2 1050.8 L 358.7 1046.3 L 360.8 1041.6 L 362.7 1037.0 L 364.3 1032.3 L 365.6 1027.6 L 366.6 1022.9 L 367.3 1018.1 L 367.8 1013.4 L 367.9 1008.7 L 367.7 1004.1 L 367.3 999.5 L 366.6 995.0 L 365.6 990.5 L 364.3 986.2 L 362.7 981.9 L 360.8 977.8 L 358.7 973.8 L 356.3 970.0 L 353.6 966.3 L 350.6 962.9 L 347.4 959.6 L 343.9 956.5 L 340.2 953.7 L 336.3 951.2 L 332.1 948.9 L 327.7 946.9 L 323.2 945.2 L 318.4 943.8 L 313.5 942.7 L 308.4 941.9 L 303.2 941.5 L 297.9 941.4 L 292.4 941.6 L 286.8 942.2 L 281.1 943.1 L 275.3 944.3 L 269.4 945.9 L 263.5 947.9 L 257.4 950.2 L 251.2 952.9 L 244.9 955.9 L 238.5 959.3 L 232.1 963.1 L 225.6 967.3 L 218.9 971.9 L 220.4 971.5 L 221.9 1005.6 L 236.0 995.9 L 241.8 991.9 L 247.5 988.4 L 253.0 985.2 L 258.3 982.4 L 263.5 979.9 L 268.5 977.8 L 273.3 976.0 L 277.9 974.6 L 282.3 973.4 L 286.6 972.5 L 290.6 971.9 L 294.5 971.5 L 298.2 971.4 L 301.6 971.5 L 304.9 971.7 L 308.0 972.2 L 310.9 972.8 L 313.7 973.7 L 316.2 974.6 L 318.6 975.7 L 320.9 976.9 L 323.0 978.3 L 325.0 979.8 L 326.8 981.4 L 328.5 983.1 L 330.0 984.9 L 331.5 986.9 L 332.8 988.9 L 333.9 991.1 L 334.9 993.3 L 335.8 995.7 L 336.5 998.2 L 337.1 1000.7 L 337.5 1003.3 L 337.8 1006.0 L 337.9 1008.8 L 337.8 1011.6 L 337.5 1014.5 L 337.1 1017.5 L 336.5 1020.5 L 335.6 1023.5 L 334.6 1026.5 L 333.4 1029.6 L 331.9 1032.7 L 330.2 1035.8 L 328.3 1038.9 L 326.2 1042.0 L 323.8 1045.0 L 321.2 1048.0 L 318.3 1051.0 L 315.2 1053.9 L 311.9 1056.9 L 308.2 1059.7 L 304.3 1062.5 L 300.2 1065.3 L 295.7 1067.9 L 290.9 1070.4 L 285.8 1072.8 L 280.4 1075.1 L 274.7 1077.2 L 268.6 1079.2 L 262.3 1081.0 L 255.6 1082.6 Z" fill="purple" stroke="none" /></g></g><g transform="translate(222.813,792.668) scale(1.039672,-1.039672)">
    <path d="M22 -84V83L192 158Q241 180 281.0 209.5Q321 239 352.5 273.0Q384 307 404.5 344.0Q425 381 435 418L437 426L372 434Q339 439 325.0 457.5Q311 476 311 519Q311 545 316.5 575.5Q322 606 336 647H370V631Q370 613 380.5 603.5Q391 594 410 592L456 586Q486 582 501.5 562.5Q517 543 512 508L504 448Q499 402 481.5 353.5Q464 305 437.5 256.0Q411 207 375.5 162.0Q340 117 297.0 78.5Q254 40 206 11L41 -84ZM193 118 126 255Q114 281 106.0 316.5Q98 352 98.0 389.5Q98 427 106 459L152 455Q149 427 150.0 404.5Q151 382 158.0 362.5Q165 343 175 324L271 155ZM212 418 81 434Q46 439 33.0 458.0Q20 477 20 517Q20 545 25.5 576.5Q31 608 44 647H79V631Q79 614 89.0 604.0Q99 594 118 592L168 586Q198 583 212.0 563.0Q226 543 226 507Q226 486 222.5 466.0Q219 446 212 418Z" fill="black" />
  </g>
</svg>