<svg xmlns="http://www.w3.org/2000/svg" width="1250.0" height="1250.0" viewBox="-125.0 -90.0 1250.0 1250.0">
  <g id="decorations"><polygon points="700.0,310.0 730.0,310.0 725.7,-60.0 700.3,-55.0" fill="purple" /></g><g transform="translate(180.495,880.000) scale(1.174652,-1.174652)">
    <path d="M24 0 65 161H398Q402 172 404.0 183.0Q406 194 406.5 208.5Q407 223 407 247V365Q407 402 390.0 416.5Q373 431 331 431H120Q83 431 65.5 451.5Q48 472 48 520Q48 539 50.0 556.0Q52 573 56.5 594.5Q61 616 68 647H103V633Q103 614 115.0 603.0Q127 592 151 592H346Q405 592 436.5 554.5Q468 517 468 450V268Q468 247 467.0 228.0Q466 209 464.0 192.0Q462 175 459 161H520V0Z" fill="black" />
  </g>
</svg>