<svg xmlns="http://www.w3.org/2000/svg" width="1095.0" height="1095.0" viewBox="-47.5 -95.0 1095.0 1095.0">
  <g id="decorations"><polygon points="255.0,185.0 285.0,185.0 280.7,-65.0 255.3,-60.0" fill="purple" /><polygon points="485.0,185.0 515.0,185.0 510.7,-65.0 485.3,-60.0" fill="purple" /><polygon points="715.0,185.0 745.0,185.0 740.7,-65.0 715.3,-60.0" fill="purple" /><polygon points="245.0,344.0 275.0,344.0 239.9,586.6 214.5,591.6" fill="purple" /></g><g transform="translate(224.587,871.865) scale(1.162080,-1.162080)">
    <path d="M337 -7V270Q337 318 340.0 348.0Q343 378 346.5 397.0Q350 416 353 429V431H81Q44 431 26.5 451.0Q9 471 9 519Q9 539 11.0 556.0Q13 573 17.5 594.5Q22 616 29 647H64V633Q64 614 76.0 603.0Q88 592 112 592H429Q448 592 456.5 583.0Q465 574 465 553V431H400L413 30Q399 16 387.0 8.0Q375 0 355 -7Z" fill="black" />
  </g>
</svg>