<svg xmlns="http://www.w3.org/2000/svg" width="1093.0" height="1093.0" viewBox="-46.5 -93.0 1093.0 1093.0">
  <g id="decorations"><polygon points="230.0,187.0 260.0,187.0 255.7,-63.0 230.3,-58.0" fill="purple" /><polygon points="280.0,187.0 310.0,187.0 305.7,-63.0 280.3,-58.0" fill="purple" /></g><g transform="translate(151.957,871.865) scale(1.162080,-1.162080)">
    <path d="M460 -7V268Q460 316 462.5 346.5Q465 377 469.0 396.0Q473 415 476 428V431H122Q85 431 67.5 451.0Q50 471 50 519Q50 539 51.5 556.0Q53 573 57.5 594.5Q62 616 69 647H104V630Q104 611 116.5 601.5Q129 592 152 592H513Q532 592 540.5 583.0Q549 574 549 553V443L523 434L536 30Q522 16 509.5 8.0Q497 0 478 -7ZM68 -7V230Q68 269 77.5 292.0Q87 315 105 323L132 334L143 321L144 30Q130 17 117.5 9.0Q105 1 86 -7Z" fill="black" />
  </g>
</svg>