<svg xmlns="http://www.w3.org/2000/svg"
     width="1093" height="1093" viewBox="0 0 1093 1093">
  <g transform="translate(198.457,918.365) scale(1.162080,-1.162080)">
    <path d="M460 -7
      V268
      Q460 316 462.5 346.5
      Q465 377 469.0 396.0
      Q473 415 476 428
      V431
      H-78
      Q-115 431 -132.5 451.0
      Q-150 471 -150 519
      Q-150 539 -149.5 556.0
      Q-147 573 -142.5 594.5
      Q-138 616 -131 647
      H-96
      V630
      Q-96 611 -83.5 601.5
      Q-71 592 -48 592
      H513
      Q532 592 540.5 583.0
      Q549 574 549 553
      V443
      L523 434
      L536 30
      Q522 16 509.5 8.0
      Q497 0 478 -7Z
      
      M68 -7
      V230
      Q68 269 77.5 292.0
      Q87 315 105 323
      L132 334
      L143 321
      L144 30
      Q130 17 117.5 9.0
      Q105 1 86 -7Z" fill="black"/>
  </g>
</svg>
