<svg xmlns="http://www.w3.org/2000/svg" width="1235.0" height="1235.0" viewBox="-117.5 -95.0 1235.0 1235.0">
  <g id="decorations"><polygon points="240.0,185.0 270.0,185.0 265.7,-65.0 240.3,-60.0" fill="purple" /><polygon points="485.0,185.0 515.0,185.0 510.7,-65.0 485.3,-60.0" fill="purple" /><path d="M 728.3 837.6 L 723.3 840.3 L 718.5 843.3 L 713.9 846.4 L 709.4 849.7 L 705.1 853.1 L 701.0 856.7 L 697.1 860.5 L 693.3 864.4 L 689.8 868.5 L 686.4 872.7 L 683.2 877.0 L 680.2 881.4 L 677.4 886.0 L 674.9 890.7 L 672.5 895.5 L 670.2 900.3 L 668.2 905.2 L 666.4 910.2 L 664.7 915.3 L 663.2 920.4 L 661.9 925.6 L 660.8 930.8 L 659.8 936.0 L 659.1 941.3 L 658.5 946.7 L 658.1 952.0 L 657.8 957.3 L 657.8 962.7 L 657.9 968.1 L 658.2 973.4 L 658.6 978.8 L 659.3 984.2 L 660.1 989.5 L 661.1 994.8 L 662.2 1000.1 L 663.6 1005.3 L 665.1 1010.5 L 666.8 1015.7 L 668.7 1020.8 L 670.7 1025.9 L 672.9 1030.8 L 675.3 1035.8 L 677.9 1040.6 L 680.7 1045.4 L 683.6 1050.0 L 686.7 1054.6 L 690.0 1059.1 L 693.5 1063.4 L 697.2 1067.7 L 701.0 1071.8 L 705.0 1075.8 L 709.2 1079.6 L 713.6 1083.3 L 718.2 1086.8 L 722.9 1090.2 L 727.8 1093.4 L 732.9 1096.4 L 738.2 1099.2 L 743.6 1101.8 L 749.2 1104.3 L 754.9 1106.5 L 760.8 1108.6 L 766.9 1110.4 L 762.8 1110.3 L 790.2 1085.1 L 774.9 1082.0 L 770.0 1080.5 L 765.2 1078.8 L 760.6 1077.0 L 756.1 1075.0 L 751.8 1072.8 L 747.7 1070.5 L 743.7 1068.1 L 739.8 1065.5 L 736.1 1062.8 L 732.5 1060.0 L 729.1 1057.1 L 725.7 1054.0 L 722.6 1050.9 L 719.5 1047.6 L 716.6 1044.3 L 713.8 1040.8 L 711.2 1037.2 L 708.7 1033.6 L 706.4 1029.8 L 704.1 1026.0 L 702.1 1022.1 L 700.1 1018.1 L 698.3 1014.1 L 696.6 1010.0 L 695.1 1005.9 L 693.7 1001.7 L 692.5 997.4 L 691.4 993.1 L 690.5 988.8 L 689.7 984.5 L 689.0 980.1 L 688.5 975.7 L 688.1 971.3 L 687.8 967.0 L 687.8 962.6 L 687.8 958.2 L 688.0 953.8 L 688.3 949.5 L 688.8 945.2 L 689.4 940.9 L 690.2 936.6 L 691.1 932.4 L 692.2 928.3 L 693.4 924.2 L 694.7 920.1 L 696.2 916.2 L 697.8 912.3 L 699.5 908.4 L 701.4 904.7 L 703.4 901.0 L 705.6 897.5 L 707.8 894.0 L 710.2 890.6 L 712.7 887.2 L 715.3 884.0 L 718.1 880.9 L 721.1 877.9 L 724.1 875.0 L 727.3 872.2 L 730.7 869.6 L 734.2 867.1 L 737.9 864.7 L 741.7 862.4 Z" fill="purple" stroke="none" /><path d="M 288.3 862.4 L 292.1 864.7 L 295.8 867.1 L 299.3 869.6 L 302.7 872.2 L 305.9 875.0 L 308.9 877.9 L 311.9 880.9 L 314.7 884.0 L 317.3 887.2 L 319.8 890.6 L 322.2 894.0 L 324.4 897.5 L 326.6 901.0 L 328.6 904.7 L 330.5 908.4 L 332.2 912.3 L 333.8 916.2 L 335.3 920.1 L 336.6 924.2 L 337.8 928.3 L 338.9 932.4 L 339.8 936.6 L 340.6 940.9 L 341.2 945.2 L 341.7 949.5 L 342.0 953.8 L 342.2 958.2 L 342.2 962.6 L 342.2 967.0 L 341.9 971.3 L 341.5 975.7 L 341.0 980.1 L 340.3 984.5 L 339.5 988.8 L 338.6 993.1 L 337.5 997.4 L 336.3 1001.7 L 334.9 1005.9 L 333.4 1010.0 L 331.7 1014.1 L 329.9 1018.1 L 327.9 1022.1 L 325.9 1026.0 L 323.6 1029.8 L 321.3 1033.6 L 318.8 1037.2 L 316.2 1040.8 L 313.4 1044.3 L 310.5 1047.6 L 307.4 1050.9 L 304.3 1054.0 L 300.9 1057.1 L 297.5 1060.0 L 293.9 1062.8 L 290.2 1065.5 L 286.3 1068.1 L 282.3 1070.5 L 278.2 1072.8 L 273.9 1075.0 L 269.4 1077.0 L 264.8 1078.8 L 260.0 1080.5 L 255.1 1082.0 L 260.2 1081.1 L 246.8 1114.2 L 263.1 1110.4 L 269.2 1108.6 L 275.1 1106.5 L 280.8 1104.3 L 286.4 1101.8 L 291.8 1099.2 L 297.1 1096.4 L 302.2 1093.4 L 307.1 1090.2 L 311.8 1086.8 L 316.4 1083.3 L 320.8 1079.6 L 325.0 1075.8 L 329.0 1071.8 L 332.8 1067.7 L 336.5 1063.4 L 340.0 1059.1 L 343.3 1054.6 L 346.4 1050.0 L 349.3 1045.4 L 352.1 1040.6 L 354.7 1035.8 L 357.1 1030.8 L 359.3 1025.9 L 361.3 1020.8 L 363.2 1015.7 L 364.9 1010.5 L 366.4 1005.3 L 367.8 1000.1 L 368.9 994.8 L 369.9 989.5 L 370.7 984.2 L 371.4 978.8 L 371.8 973.4 L 372.1 968.1 L 372.2 962.7 L 372.2 957.3 L 371.9 952.0 L 371.5 946.7 L 370.9 941.3 L 370.2 936.0 L 369.2 930.8 L 368.1 925.6 L 366.8 920.4 L 365.3 915.3 L 363.6 910.2 L 361.8 905.2 L 359.8 900.3 L 357.5 895.5 L 355.1 890.7 L 352.6 886.0 L 349.8 881.4 L 346.8 877.0 L 343.6 872.7 L 340.2 868.5 L 336.7 864.4 L 332.9 860.5 L 329.0 856.7 L 324.9 853.1 L 320.6 849.7 L 316.1 846.4 L 311.5 843.3 L 306.7 840.3 L 301.7 837.6 Z" fill="purple" stroke="none" /></g><g transform="translate(122.905,871.865) scale(1.162080,-1.162080)">
    <path d="M495 -7V268Q495 316 497.5 346.0Q500 376 504.0 395.5Q508 415 511 428V431H137Q99 431 82.0 451.0Q65 471 65 520Q65 539 66.5 556.0Q68 573 72.5 594.5Q77 616 84 647H119V633Q119 614 131.0 603.0Q143 592 167 592H548Q567 592 575.5 583.0Q584 574 584 553V443L558 434L571 30Q557 16 544.5 8.0Q532 0 513 -7ZM113 -7V268Q113 316 116.0 346.5Q119 377 122.5 396.5Q126 416 129 430V472H178L189 30Q175 16 163.0 8.0Q151 0 132 -7Z" fill="black" />
  </g>
</svg>