<svg xmlns="http://www.w3.org/2000/svg" width="1585.0" height="1585.0" viewBox="-142.5 -55.0 1585.0 1585.0">
  <g id="decorations"><path d="M 878.3 1227.6 L 873.3 1230.3 L 868.5 1233.3 L 863.9 1236.4 L 859.4 1239.7 L 855.1 1243.1 L 851.0 1246.7 L 847.1 1250.5 L 843.3 1254.4 L 839.8 1258.5 L 836.4 1262.7 L 833.2 1267.0 L 830.2 1271.4 L 827.4 1276.0 L 824.9 1280.7 L 822.5 1285.5 L 820.2 1290.3 L 818.2 1295.2 L 816.4 1300.2 L 814.7 1305.3 L 813.2 1310.4 L 811.9 1315.6 L 810.8 1320.8 L 809.8 1326.0 L 809.1 1331.3 L 808.5 1336.7 L 808.1 1342.0 L 807.8 1347.3 L 807.8 1352.7 L 807.9 1358.1 L 808.2 1363.4 L 808.6 1368.8 L 809.3 1374.2 L 810.1 1379.5 L 811.1 1384.8 L 812.2 1390.1 L 813.6 1395.3 L 815.1 1400.5 L 816.8 1405.7 L 818.7 1410.8 L 820.7 1415.9 L 822.9 1420.8 L 825.3 1425.8 L 827.9 1430.6 L 830.7 1435.4 L 833.6 1440.0 L 836.7 1444.6 L 840.0 1449.1 L 843.5 1453.4 L 847.2 1457.7 L 851.0 1461.8 L 855.0 1465.8 L 859.2 1469.6 L 863.6 1473.3 L 868.2 1476.8 L 872.9 1480.2 L 877.8 1483.4 L 882.9 1486.4 L 888.2 1489.2 L 893.6 1491.8 L 899.2 1494.3 L 904.9 1496.5 L 910.8 1498.6 L 916.9 1500.4 L 912.8 1500.3 L 940.2 1475.1 L 924.9 1472.0 L 920.0 1470.5 L 915.2 1468.8 L 910.6 1467.0 L 906.1 1465.0 L 901.8 1462.8 L 897.7 1460.5 L 893.7 1458.1 L 889.8 1455.5 L 886.1 1452.8 L 882.5 1450.0 L 879.1 1447.1 L 875.7 1444.0 L 872.6 1440.9 L 869.5 1437.6 L 866.6 1434.3 L 863.8 1430.8 L 861.2 1427.2 L 858.7 1423.6 L 856.4 1419.8 L 854.1 1416.0 L 852.1 1412.1 L 850.1 1408.1 L 848.3 1404.1 L 846.6 1400.0 L 845.1 1395.9 L 843.7 1391.7 L 842.5 1387.4 L 841.4 1383.1 L 840.5 1378.8 L 839.7 1374.5 L 839.0 1370.1 L 838.5 1365.7 L 838.1 1361.3 L 837.8 1357.0 L 837.8 1352.6 L 837.8 1348.2 L 838.0 1343.8 L 838.3 1339.5 L 838.8 1335.2 L 839.4 1330.9 L 840.2 1326.6 L 841.1 1322.4 L 842.2 1318.3 L 843.4 1314.2 L 844.7 1310.1 L 846.2 1306.2 L 847.8 1302.3 L 849.5 1298.4 L 851.4 1294.7 L 853.4 1291.0 L 855.6 1287.5 L 857.8 1284.0 L 860.2 1280.6 L 862.7 1277.2 L 865.3 1274.0 L 868.1 1270.9 L 871.1 1267.9 L 874.1 1265.0 L 877.3 1262.2 L 880.7 1259.6 L 884.2 1257.1 L 887.9 1254.7 L 891.7 1252.4 Z" fill="purple" stroke="none" /><path d="M 438.3 1252.4 L 442.1 1254.7 L 445.8 1257.1 L 449.3 1259.6 L 452.7 1262.2 L 455.9 1265.0 L 458.9 1267.9 L 461.9 1270.9 L 464.7 1274.0 L 467.3 1277.2 L 469.8 1280.6 L 472.2 1284.0 L 474.4 1287.5 L 476.6 1291.0 L 478.6 1294.7 L 480.5 1298.4 L 482.2 1302.3 L 483.8 1306.2 L 485.3 1310.1 L 486.6 1314.2 L 487.8 1318.3 L 488.9 1322.4 L 489.8 1326.6 L 490.6 1330.9 L 491.2 1335.2 L 491.7 1339.5 L 492.0 1343.8 L 492.2 1348.2 L 492.2 1352.6 L 492.2 1357.0 L 491.9 1361.3 L 491.5 1365.7 L 491.0 1370.1 L 490.3 1374.5 L 489.5 1378.8 L 488.6 1383.1 L 487.5 1387.4 L 486.3 1391.7 L 484.9 1395.9 L 483.4 1400.0 L 481.7 1404.1 L 479.9 1408.1 L 477.9 1412.1 L 475.9 1416.0 L 473.6 1419.8 L 471.3 1423.6 L 468.8 1427.2 L 466.2 1430.8 L 463.4 1434.3 L 460.5 1437.6 L 457.4 1440.9 L 454.3 1444.0 L 450.9 1447.1 L 447.5 1450.0 L 443.9 1452.8 L 440.2 1455.5 L 436.3 1458.1 L 432.3 1460.5 L 428.2 1462.8 L 423.9 1465.0 L 419.4 1467.0 L 414.8 1468.8 L 410.0 1470.5 L 405.1 1472.0 L 410.2 1471.1 L 396.8 1504.2 L 413.1 1500.4 L 419.2 1498.6 L 425.1 1496.5 L 430.8 1494.3 L 436.4 1491.8 L 441.8 1489.2 L 447.1 1486.4 L 452.2 1483.4 L 457.1 1480.2 L 461.8 1476.8 L 466.4 1473.3 L 470.8 1469.6 L 475.0 1465.8 L 479.0 1461.8 L 482.8 1457.7 L 486.5 1453.4 L 490.0 1449.1 L 493.3 1444.6 L 496.4 1440.0 L 499.3 1435.4 L 502.1 1430.6 L 504.7 1425.8 L 507.1 1420.8 L 509.3 1415.9 L 511.3 1410.8 L 513.2 1405.7 L 514.9 1400.5 L 516.4 1395.3 L 517.8 1390.1 L 518.9 1384.8 L 519.9 1379.5 L 520.7 1374.2 L 521.4 1368.8 L 521.8 1363.4 L 522.1 1358.1 L 522.2 1352.7 L 522.2 1347.3 L 521.9 1342.0 L 521.5 1336.7 L 520.9 1331.3 L 520.2 1326.0 L 519.2 1320.8 L 518.1 1315.6 L 516.8 1310.4 L 515.3 1305.3 L 513.6 1300.2 L 511.8 1295.2 L 509.8 1290.3 L 507.5 1285.5 L 505.1 1280.7 L 502.6 1276.0 L 499.8 1271.4 L 496.8 1267.0 L 493.6 1262.7 L 490.2 1258.5 L 486.7 1254.4 L 482.9 1250.5 L 479.0 1246.7 L 474.9 1243.1 L 470.6 1239.7 L 466.1 1236.4 L 461.5 1233.3 L 456.7 1230.3 L 451.7 1227.6 Z" fill="purple" stroke="none" /></g><g transform="translate(272.905,911.865) scale(1.162080,-1.162080)">
    <path d="M495 -307       V-32       Q495 316 497.5 346.0       Q500 376 504.0 395.5       Q508 415 511 428       V431       L 411 431       L 346 651       L 281 431       H137       Q99 431 82.0 451.0       Q65 471 65 520       Q65 539 66.5 556.0       Q68 573 72.5 594.5       Q77 616 84 647       H119       V633       Q119 614 131.0 603.0       Q143 592 167 592       L 281 592       L 346 751       L 411 592              H548       Q567 592 575.5 583.0       Q584 574 584 553       V443       L558 434       L571 -270       Q557 -284 544.5 -292.0       Q532 -300 513 -307Z              M113 -307       V268       Q113 316 116.0 346.5       Q119 377 122.5 396.5       Q126 416 129 430       V472       H178       L189 -270       Q175 -284 163.0 -292.0       Q151 -300 132 -307Z" fill="black" />
  </g>
</svg>