<svg xmlns="http://www.w3.org/2000/svg" width="1235.0" height="1235.0" viewBox="-117.5 -95.0 1235.0 1235.0">
  <g id="decorations"><polygon points="240.0,185.0 270.0,185.0 265.7,-65.0 240.3,-60.0" fill="purple" /><polygon points="730.0,185.0 760.0,185.0 755.7,-65.0 730.3,-60.0" fill="purple" /><g><path d="M 730.5 846.6 L 723.3 849.1 L 716.4 851.8 L 709.6 854.7 L 703.1 857.8 L 696.8 861.1 L 690.6 864.6 L 684.7 868.2 L 679.1 872.1 L 673.6 876.1 L 668.4 880.2 L 663.3 884.5 L 658.6 889.0 L 654.1 893.6 L 649.8 898.3 L 645.7 903.2 L 641.9 908.1 L 638.3 913.2 L 634.9 918.3 L 631.8 923.5 L 628.9 928.8 L 626.3 934.2 L 623.9 939.6 L 621.7 945.0 L 619.7 950.5 L 618.0 956.0 L 616.5 961.5 L 615.3 967.1 L 614.3 972.7 L 613.6 978.2 L 613.1 983.8 L 612.8 989.3 L 612.8 994.9 L 613.1 1000.3 L 613.6 1005.8 L 614.3 1011.2 L 615.3 1016.5 L 616.6 1021.8 L 618.1 1027.0 L 619.9 1032.1 L 622.0 1037.1 L 624.3 1042.0 L 626.8 1046.8 L 629.7 1051.4 L 632.8 1055.9 L 636.2 1060.3 L 639.8 1064.5 L 643.7 1068.5 L 647.8 1072.3 L 652.2 1075.9 L 656.9 1079.3 L 661.7 1082.4 L 666.9 1085.3 L 672.2 1088.0 L 677.8 1090.4 L 683.6 1092.6 L 689.7 1094.5 L 695.9 1096.1 L 702.4 1097.5 L 709.0 1098.5 L 715.9 1099.3 L 723.0 1099.8 L 730.2 1100.0 L 737.7 1099.9 L 734.9 1100.4 L 753.9 1069.4 L 736.9 1070.5 L 730.6 1070.5 L 724.5 1070.3 L 718.7 1069.9 L 713.2 1069.2 L 707.9 1068.3 L 702.8 1067.2 L 698.0 1065.9 L 693.4 1064.4 L 689.1 1062.7 L 685.0 1060.9 L 681.0 1058.9 L 677.3 1056.8 L 673.9 1054.5 L 670.6 1052.1 L 667.5 1049.6 L 664.6 1046.9 L 661.9 1044.2 L 659.3 1041.3 L 657.0 1038.2 L 654.8 1035.1 L 652.9 1031.8 L 651.0 1028.5 L 649.4 1025.0 L 648.0 1021.5 L 646.7 1017.8 L 645.6 1014.1 L 644.7 1010.3 L 643.9 1006.3 L 643.4 1002.4 L 643.0 998.3 L 642.8 994.2 L 642.8 990.0 L 643.0 985.8 L 643.4 981.6 L 644.0 977.3 L 644.7 973.0 L 645.7 968.6 L 646.8 964.3 L 648.2 959.9 L 649.7 955.6 L 651.5 951.3 L 653.4 947.0 L 655.5 942.7 L 657.8 938.5 L 660.4 934.3 L 663.1 930.1 L 666.0 926.0 L 669.1 922.0 L 672.4 918.0 L 675.9 914.1 L 679.6 910.4 L 683.5 906.6 L 687.6 903.0 L 691.8 899.4 L 696.3 896.0 L 700.9 892.7 L 705.8 889.5 L 710.9 886.4 L 716.2 883.5 L 721.7 880.7 L 727.4 878.1 L 733.4 875.6 L 739.5 873.4 Z" fill="purple" stroke="none" /><path d="M 736.4 1100.2 L 744.2 1098.5 L 751.6 1096.6 L 758.8 1094.4 L 765.7 1092.0 L 772.2 1089.4 L 778.5 1086.7 L 784.5 1083.7 L 790.2 1080.6 L 795.7 1077.2 L 800.8 1073.8 L 805.7 1070.1 L 810.2 1066.3 L 814.4 1062.3 L 818.4 1058.2 L 822.0 1054.0 L 825.4 1049.7 L 828.4 1045.3 L 831.2 1040.8 L 833.7 1036.3 L 835.8 1031.6 L 837.7 1027.0 L 839.3 1022.3 L 840.6 1017.6 L 841.6 1012.9 L 842.3 1008.1 L 842.8 1003.4 L 842.9 998.7 L 842.7 994.1 L 842.3 989.5 L 841.6 985.0 L 840.6 980.5 L 839.3 976.2 L 837.7 971.9 L 835.8 967.8 L 833.7 963.8 L 831.3 960.0 L 828.6 956.3 L 825.6 952.9 L 822.4 949.6 L 818.9 946.5 L 815.2 943.7 L 811.3 941.2 L 807.1 938.9 L 802.7 936.9 L 798.2 935.2 L 793.4 933.8 L 788.5 932.7 L 783.4 931.9 L 778.2 931.5 L 772.9 931.4 L 767.4 931.6 L 761.8 932.2 L 756.1 933.1 L 750.3 934.3 L 744.4 935.9 L 738.5 937.9 L 732.4 940.2 L 726.2 942.9 L 719.9 945.9 L 713.5 949.3 L 707.1 953.1 L 700.6 957.3 L 693.9 961.9 L 695.4 961.5 L 696.9 995.6 L 711.0 985.9 L 716.8 981.9 L 722.5 978.4 L 728.0 975.2 L 733.3 972.4 L 738.5 969.9 L 743.5 967.8 L 748.3 966.0 L 752.9 964.6 L 757.3 963.4 L 761.6 962.5 L 765.6 961.9 L 769.5 961.5 L 773.2 961.4 L 776.6 961.5 L 779.9 961.7 L 783.0 962.2 L 785.9 962.8 L 788.7 963.7 L 791.2 964.6 L 793.6 965.7 L 795.9 966.9 L 798.0 968.3 L 800.0 969.8 L 801.8 971.4 L 803.5 973.1 L 805.0 974.9 L 806.5 976.9 L 807.8 978.9 L 808.9 981.1 L 809.9 983.3 L 810.8 985.7 L 811.5 988.2 L 812.1 990.7 L 812.5 993.3 L 812.8 996.0 L 812.9 998.8 L 812.8 1001.6 L 812.5 1004.5 L 812.1 1007.5 L 811.5 1010.5 L 810.6 1013.5 L 809.6 1016.5 L 808.4 1019.6 L 806.9 1022.7 L 805.2 1025.8 L 803.3 1028.9 L 801.2 1032.0 L 798.8 1035.0 L 796.2 1038.0 L 793.3 1041.0 L 790.2 1043.9 L 786.9 1046.9 L 783.2 1049.7 L 779.3 1052.5 L 775.2 1055.3 L 770.7 1057.9 L 765.9 1060.4 L 760.8 1062.8 L 755.4 1065.1 L 749.7 1067.2 L 743.6 1069.2 L 737.3 1071.0 L 730.6 1072.6 Z" fill="purple" stroke="none" /></g><g><path d="M 290.5 873.4 L 296.6 875.6 L 302.6 878.1 L 308.3 880.7 L 313.8 883.5 L 319.1 886.4 L 324.2 889.5 L 329.1 892.7 L 333.7 896.0 L 338.2 899.4 L 342.4 903.0 L 346.5 906.6 L 350.4 910.4 L 354.1 914.1 L 357.6 918.0 L 360.9 922.0 L 364.0 926.0 L 366.9 930.1 L 369.6 934.3 L 372.2 938.5 L 374.5 942.7 L 376.6 947.0 L 378.5 951.3 L 380.3 955.6 L 381.8 959.9 L 383.2 964.3 L 384.3 968.6 L 385.3 973.0 L 386.0 977.3 L 386.6 981.6 L 387.0 985.8 L 387.2 990.0 L 387.2 994.2 L 387.0 998.3 L 386.6 1002.4 L 386.1 1006.3 L 385.3 1010.3 L 384.4 1014.1 L 383.3 1017.8 L 382.0 1021.5 L 380.6 1025.0 L 379.0 1028.5 L 377.1 1031.8 L 375.2 1035.1 L 373.0 1038.2 L 370.7 1041.3 L 368.1 1044.2 L 365.4 1046.9 L 362.5 1049.6 L 359.4 1052.1 L 356.1 1054.5 L 352.7 1056.8 L 349.0 1058.9 L 345.0 1060.9 L 340.9 1062.7 L 336.6 1064.4 L 332.0 1065.9 L 327.2 1067.2 L 322.1 1068.3 L 316.8 1069.2 L 311.3 1069.9 L 305.5 1070.3 L 299.4 1070.5 L 293.1 1070.5 L 297.1 1070.5 L 274.1 1099.3 L 292.3 1099.9 L 299.8 1100.0 L 307.0 1099.8 L 314.1 1099.3 L 321.0 1098.5 L 327.6 1097.5 L 334.1 1096.1 L 340.3 1094.5 L 346.4 1092.6 L 352.2 1090.4 L 357.8 1088.0 L 363.1 1085.3 L 368.3 1082.4 L 373.1 1079.3 L 377.8 1075.9 L 382.2 1072.3 L 386.3 1068.5 L 390.2 1064.5 L 393.8 1060.3 L 397.2 1055.9 L 400.3 1051.4 L 403.2 1046.8 L 405.7 1042.0 L 408.0 1037.1 L 410.1 1032.1 L 411.9 1027.0 L 413.4 1021.8 L 414.7 1016.5 L 415.7 1011.2 L 416.4 1005.8 L 416.9 1000.3 L 417.2 994.9 L 417.2 989.3 L 416.9 983.8 L 416.4 978.2 L 415.7 972.7 L 414.7 967.1 L 413.5 961.5 L 412.0 956.0 L 410.3 950.5 L 408.3 945.0 L 406.1 939.6 L 403.7 934.2 L 401.1 928.8 L 398.2 923.5 L 395.1 918.3 L 391.7 913.2 L 388.1 908.1 L 384.3 903.2 L 380.2 898.3 L 375.9 893.6 L 371.4 889.0 L 366.7 884.5 L 361.6 880.2 L 356.4 876.1 L 350.9 872.1 L 345.3 868.2 L 339.4 864.6 L 333.2 861.1 L 326.9 857.8 L 320.4 854.7 L 313.6 851.8 L 306.7 849.1 L 299.5 846.6 Z" fill="purple" stroke="none" /><path d="M 299.4 1072.6 L 292.7 1071.0 L 286.4 1069.2 L 280.3 1067.2 L 274.6 1065.1 L 269.2 1062.8 L 264.1 1060.4 L 259.3 1057.9 L 254.8 1055.3 L 250.7 1052.5 L 246.8 1049.7 L 243.1 1046.9 L 239.8 1043.9 L 236.7 1041.0 L 233.8 1038.0 L 231.2 1035.0 L 228.8 1032.0 L 226.7 1028.9 L 224.8 1025.8 L 223.1 1022.7 L 221.6 1019.6 L 220.4 1016.5 L 219.4 1013.5 L 218.5 1010.5 L 217.9 1007.5 L 217.5 1004.5 L 217.2 1001.6 L 217.1 998.8 L 217.2 996.0 L 217.5 993.3 L 217.9 990.7 L 218.5 988.2 L 219.2 985.7 L 220.1 983.3 L 221.1 981.1 L 222.2 978.9 L 223.5 976.9 L 225.0 974.9 L 226.5 973.1 L 228.2 971.4 L 230.0 969.8 L 232.0 968.3 L 234.1 966.9 L 236.4 965.7 L 238.8 964.6 L 241.3 963.7 L 244.1 962.8 L 247.0 962.2 L 250.1 961.7 L 253.4 961.5 L 256.8 961.4 L 260.5 961.5 L 264.4 961.9 L 268.4 962.5 L 272.7 963.4 L 277.1 964.6 L 281.7 966.0 L 286.5 967.8 L 291.5 969.9 L 296.7 972.4 L 302.0 975.2 L 307.5 978.4 L 313.2 981.9 L 319.0 985.9 L 316.4 985.4 L 351.3 971.7 L 336.1 961.9 L 329.4 957.3 L 322.9 953.1 L 316.5 949.3 L 310.1 945.9 L 303.8 942.9 L 297.6 940.2 L 291.5 937.9 L 285.6 935.9 L 279.7 934.3 L 273.9 933.1 L 268.2 932.2 L 262.6 931.6 L 257.1 931.4 L 251.8 931.5 L 246.6 931.9 L 241.5 932.7 L 236.6 933.8 L 231.8 935.2 L 227.3 936.9 L 222.9 938.9 L 218.7 941.2 L 214.8 943.7 L 211.1 946.5 L 207.6 949.6 L 204.4 952.9 L 201.4 956.3 L 198.7 960.0 L 196.3 963.8 L 194.2 967.8 L 192.3 971.9 L 190.7 976.2 L 189.4 980.5 L 188.4 985.0 L 187.7 989.5 L 187.3 994.1 L 187.1 998.7 L 187.2 1003.4 L 187.7 1008.1 L 188.4 1012.9 L 189.4 1017.6 L 190.7 1022.3 L 192.3 1027.0 L 194.2 1031.6 L 196.3 1036.3 L 198.8 1040.8 L 201.6 1045.3 L 204.6 1049.7 L 208.0 1054.0 L 211.6 1058.2 L 215.6 1062.3 L 219.8 1066.3 L 224.3 1070.1 L 229.2 1073.8 L 234.3 1077.2 L 239.8 1080.6 L 245.5 1083.7 L 251.5 1086.7 L 257.8 1089.4 L 264.3 1092.0 L 271.2 1094.4 L 278.4 1096.6 L 285.8 1098.5 L 293.6 1100.2 Z" fill="purple" stroke="none" /></g></g><g transform="translate(122.905,871.865) scale(1.162080,-1.162080)">
    <path d="M495 -7       V268       Q495 316 497.5 346.0       Q500 376 504.0 395.5       Q508 415 511 428       V431       L 411 431       L 346 651       L 281 431       H137       Q99 431 82.0 451.0       Q65 471 65 520       Q65 539 66.5 556.0       Q68 573 72.5 594.5       Q77 616 84 647       H119       V633       Q119 614 131.0 603.0       Q143 592 167 592       L 281 592       L 346 751       L 411 592              H548       Q567 592 575.5 583.0       Q584 574 584 553       V443       L558 434       L571 30       Q557 16 544.5 8.0       Q532 0 513 -7Z              M113 -7       V268       Q113 316 116.0 346.5       Q119 377 122.5 396.5       Q126 416 129 430       V472       H178       L189 30       Q175 16 163.0 8.0       Q151 0 132 -7Z" fill="black" />
  </g>
</svg>