<svg xmlns="http://www.w3.org/2000/svg" width="1585.0" height="1585.0" viewBox="-142.5 -55.0 1585.0 1585.0">
  <g id="decorations"><g><path d="M 880.5 1236.6 L 873.3 1239.1 L 866.4 1241.8 L 859.6 1244.7 L 853.1 1247.8 L 846.8 1251.1 L 840.6 1254.6 L 834.7 1258.2 L 829.1 1262.1 L 823.6 1266.1 L 818.4 1270.2 L 813.3 1274.5 L 808.6 1279.0 L 804.1 1283.6 L 799.8 1288.3 L 795.7 1293.2 L 791.9 1298.1 L 788.3 1303.2 L 784.9 1308.3 L 781.8 1313.5 L 778.9 1318.8 L 776.3 1324.2 L 773.9 1329.6 L 771.7 1335.0 L 769.7 1340.5 L 768.0 1346.0 L 766.5 1351.5 L 765.3 1357.1 L 764.3 1362.7 L 763.6 1368.2 L 763.1 1373.8 L 762.8 1379.3 L 762.8 1384.9 L 763.1 1390.3 L 763.6 1395.8 L 764.3 1401.2 L 765.3 1406.5 L 766.6 1411.8 L 768.1 1417.0 L 769.9 1422.1 L 772.0 1427.1 L 774.3 1432.0 L 776.8 1436.8 L 779.7 1441.4 L 782.8 1445.9 L 786.2 1450.3 L 789.8 1454.5 L 793.7 1458.5 L 797.8 1462.3 L 802.2 1465.9 L 806.9 1469.3 L 811.7 1472.4 L 816.9 1475.3 L 822.2 1478.0 L 827.8 1480.4 L 833.6 1482.6 L 839.7 1484.5 L 845.9 1486.1 L 852.4 1487.5 L 859.0 1488.5 L 865.9 1489.3 L 873.0 1489.8 L 880.2 1490.0 L 887.7 1489.9 L 884.9 1490.4 L 903.9 1459.4 L 886.9 1460.5 L 880.6 1460.5 L 874.5 1460.3 L 868.7 1459.9 L 863.2 1459.2 L 857.9 1458.3 L 852.8 1457.2 L 848.0 1455.9 L 843.4 1454.4 L 839.1 1452.7 L 835.0 1450.9 L 831.0 1448.9 L 827.3 1446.8 L 823.9 1444.5 L 820.6 1442.1 L 817.5 1439.6 L 814.6 1436.9 L 811.9 1434.2 L 809.3 1431.3 L 807.0 1428.2 L 804.8 1425.1 L 802.9 1421.8 L 801.0 1418.5 L 799.4 1415.0 L 798.0 1411.5 L 796.7 1407.8 L 795.6 1404.1 L 794.7 1400.3 L 793.9 1396.3 L 793.4 1392.4 L 793.0 1388.3 L 792.8 1384.2 L 792.8 1380.0 L 793.0 1375.8 L 793.4 1371.6 L 794.0 1367.3 L 794.7 1363.0 L 795.7 1358.6 L 796.8 1354.3 L 798.2 1349.9 L 799.7 1345.6 L 801.5 1341.3 L 803.4 1337.0 L 805.5 1332.7 L 807.8 1328.5 L 810.4 1324.3 L 813.1 1320.1 L 816.0 1316.0 L 819.1 1312.0 L 822.4 1308.0 L 825.9 1304.1 L 829.6 1300.4 L 833.5 1296.6 L 837.6 1293.0 L 841.8 1289.4 L 846.3 1286.0 L 850.9 1282.7 L 855.8 1279.5 L 860.9 1276.4 L 866.2 1273.5 L 871.7 1270.7 L 877.4 1268.1 L 883.4 1265.6 L 889.5 1263.4 Z" fill="purple" stroke="none" /><path d="M 886.4 1490.2 L 894.2 1488.5 L 901.6 1486.6 L 908.8 1484.4 L 915.7 1482.0 L 922.2 1479.4 L 928.5 1476.7 L 934.5 1473.7 L 940.2 1470.6 L 945.7 1467.2 L 950.8 1463.8 L 955.7 1460.1 L 960.2 1456.3 L 964.4 1452.3 L 968.4 1448.2 L 972.0 1444.0 L 975.4 1439.7 L 978.4 1435.3 L 981.2 1430.8 L 983.7 1426.3 L 985.8 1421.6 L 987.7 1417.0 L 989.3 1412.3 L 990.6 1407.6 L 991.6 1402.9 L 992.3 1398.1 L 992.8 1393.4 L 992.9 1388.7 L 992.7 1384.1 L 992.3 1379.5 L 991.6 1375.0 L 990.6 1370.5 L 989.3 1366.2 L 987.7 1361.9 L 985.8 1357.8 L 983.7 1353.8 L 981.3 1350.0 L 978.6 1346.3 L 975.6 1342.9 L 972.4 1339.6 L 968.9 1336.5 L 965.2 1333.7 L 961.3 1331.2 L 957.1 1328.9 L 952.7 1326.9 L 948.2 1325.2 L 943.4 1323.8 L 938.5 1322.7 L 933.4 1321.9 L 928.2 1321.5 L 922.9 1321.4 L 917.4 1321.6 L 911.8 1322.2 L 906.1 1323.1 L 900.3 1324.3 L 894.4 1325.9 L 888.5 1327.9 L 882.4 1330.2 L 876.2 1332.9 L 869.9 1335.9 L 863.5 1339.3 L 857.1 1343.1 L 850.6 1347.3 L 843.9 1351.9 L 845.4 1351.5 L 846.9 1385.6 L 861.0 1375.9 L 866.8 1371.9 L 872.5 1368.4 L 878.0 1365.2 L 883.3 1362.4 L 888.5 1359.9 L 893.5 1357.8 L 898.3 1356.0 L 902.9 1354.6 L 907.3 1353.4 L 911.6 1352.5 L 915.6 1351.9 L 919.5 1351.5 L 923.2 1351.4 L 926.6 1351.5 L 929.9 1351.7 L 933.0 1352.2 L 935.9 1352.8 L 938.7 1353.7 L 941.2 1354.6 L 943.6 1355.7 L 945.9 1356.9 L 948.0 1358.3 L 950.0 1359.8 L 951.8 1361.4 L 953.5 1363.1 L 955.0 1364.9 L 956.5 1366.9 L 957.8 1368.9 L 958.9 1371.1 L 959.9 1373.3 L 960.8 1375.7 L 961.5 1378.2 L 962.1 1380.7 L 962.5 1383.3 L 962.8 1386.0 L 962.9 1388.8 L 962.8 1391.6 L 962.5 1394.5 L 962.1 1397.5 L 961.5 1400.5 L 960.6 1403.5 L 959.6 1406.5 L 958.4 1409.6 L 956.9 1412.7 L 955.2 1415.8 L 953.3 1418.9 L 951.2 1422.0 L 948.8 1425.0 L 946.2 1428.0 L 943.3 1431.0 L 940.2 1433.9 L 936.9 1436.9 L 933.2 1439.7 L 929.3 1442.5 L 925.2 1445.3 L 920.7 1447.9 L 915.9 1450.4 L 910.8 1452.8 L 905.4 1455.1 L 899.7 1457.2 L 893.6 1459.2 L 887.3 1461.0 L 880.6 1462.6 Z" fill="purple" stroke="none" /></g><g><path d="M 440.5 1263.4 L 446.6 1265.6 L 452.6 1268.1 L 458.3 1270.7 L 463.8 1273.5 L 469.1 1276.4 L 474.2 1279.5 L 479.1 1282.7 L 483.7 1286.0 L 488.2 1289.4 L 492.4 1293.0 L 496.5 1296.6 L 500.4 1300.4 L 504.1 1304.1 L 507.6 1308.0 L 510.9 1312.0 L 514.0 1316.0 L 516.9 1320.1 L 519.6 1324.3 L 522.2 1328.5 L 524.5 1332.7 L 526.6 1337.0 L 528.5 1341.3 L 530.3 1345.6 L 531.8 1349.9 L 533.2 1354.3 L 534.3 1358.6 L 535.3 1363.0 L 536.0 1367.3 L 536.6 1371.6 L 537.0 1375.8 L 537.2 1380.0 L 537.2 1384.2 L 537.0 1388.3 L 536.6 1392.4 L 536.1 1396.3 L 535.3 1400.3 L 534.4 1404.1 L 533.3 1407.8 L 532.0 1411.5 L 530.6 1415.0 L 529.0 1418.5 L 527.1 1421.8 L 525.2 1425.1 L 523.0 1428.2 L 520.7 1431.3 L 518.1 1434.2 L 515.4 1436.9 L 512.5 1439.6 L 509.4 1442.1 L 506.1 1444.5 L 502.7 1446.8 L 499.0 1448.9 L 495.0 1450.9 L 490.9 1452.7 L 486.6 1454.4 L 482.0 1455.9 L 477.2 1457.2 L 472.1 1458.3 L 466.8 1459.2 L 461.3 1459.9 L 455.5 1460.3 L 449.4 1460.5 L 443.1 1460.5 L 447.1 1460.5 L 424.1 1489.3 L 442.3 1489.9 L 449.8 1490.0 L 457.0 1489.8 L 464.1 1489.3 L 471.0 1488.5 L 477.6 1487.5 L 484.1 1486.1 L 490.3 1484.5 L 496.4 1482.6 L 502.2 1480.4 L 507.8 1478.0 L 513.1 1475.3 L 518.3 1472.4 L 523.1 1469.3 L 527.8 1465.9 L 532.2 1462.3 L 536.3 1458.5 L 540.2 1454.5 L 543.8 1450.3 L 547.2 1445.9 L 550.3 1441.4 L 553.2 1436.8 L 555.7 1432.0 L 558.0 1427.1 L 560.1 1422.1 L 561.9 1417.0 L 563.4 1411.8 L 564.7 1406.5 L 565.7 1401.2 L 566.4 1395.8 L 566.9 1390.3 L 567.2 1384.9 L 567.2 1379.3 L 566.9 1373.8 L 566.4 1368.2 L 565.7 1362.7 L 564.7 1357.1 L 563.5 1351.5 L 562.0 1346.0 L 560.3 1340.5 L 558.3 1335.0 L 556.1 1329.6 L 553.7 1324.2 L 551.1 1318.8 L 548.2 1313.5 L 545.1 1308.3 L 541.7 1303.2 L 538.1 1298.1 L 534.3 1293.2 L 530.2 1288.3 L 525.9 1283.6 L 521.4 1279.0 L 516.7 1274.5 L 511.6 1270.2 L 506.4 1266.1 L 500.9 1262.1 L 495.3 1258.2 L 489.4 1254.6 L 483.2 1251.1 L 476.9 1247.8 L 470.4 1244.7 L 463.6 1241.8 L 456.7 1239.1 L 449.5 1236.6 Z" fill="purple" stroke="none" /><path d="M 449.4 1462.6 L 442.7 1461.0 L 436.4 1459.2 L 430.3 1457.2 L 424.6 1455.1 L 419.2 1452.8 L 414.1 1450.4 L 409.3 1447.9 L 404.8 1445.3 L 400.7 1442.5 L 396.8 1439.7 L 393.1 1436.9 L 389.8 1433.9 L 386.7 1431.0 L 383.8 1428.0 L 381.2 1425.0 L 378.8 1422.0 L 376.7 1418.9 L 374.8 1415.8 L 373.1 1412.7 L 371.6 1409.6 L 370.4 1406.5 L 369.4 1403.5 L 368.5 1400.5 L 367.9 1397.5 L 367.5 1394.5 L 367.2 1391.6 L 367.1 1388.8 L 367.2 1386.0 L 367.5 1383.3 L 367.9 1380.7 L 368.5 1378.2 L 369.2 1375.7 L 370.1 1373.3 L 371.1 1371.1 L 372.2 1368.9 L 373.5 1366.9 L 375.0 1364.9 L 376.5 1363.1 L 378.2 1361.4 L 380.0 1359.8 L 382.0 1358.3 L 384.1 1356.9 L 386.4 1355.7 L 388.8 1354.6 L 391.3 1353.7 L 394.1 1352.8 L 397.0 1352.2 L 400.1 1351.7 L 403.4 1351.5 L 406.8 1351.4 L 410.5 1351.5 L 414.4 1351.9 L 418.4 1352.5 L 422.7 1353.4 L 427.1 1354.6 L 431.7 1356.0 L 436.5 1357.8 L 441.5 1359.9 L 446.7 1362.4 L 452.0 1365.2 L 457.5 1368.4 L 463.2 1371.9 L 469.0 1375.9 L 466.4 1375.4 L 501.3 1361.7 L 486.1 1351.9 L 479.4 1347.3 L 472.9 1343.1 L 466.5 1339.3 L 460.1 1335.9 L 453.8 1332.9 L 447.6 1330.2 L 441.5 1327.9 L 435.6 1325.9 L 429.7 1324.3 L 423.9 1323.1 L 418.2 1322.2 L 412.6 1321.6 L 407.1 1321.4 L 401.8 1321.5 L 396.6 1321.9 L 391.5 1322.7 L 386.6 1323.8 L 381.8 1325.2 L 377.3 1326.9 L 372.9 1328.9 L 368.7 1331.2 L 364.8 1333.7 L 361.1 1336.5 L 357.6 1339.6 L 354.4 1342.9 L 351.4 1346.3 L 348.7 1350.0 L 346.3 1353.8 L 344.2 1357.8 L 342.3 1361.9 L 340.7 1366.2 L 339.4 1370.5 L 338.4 1375.0 L 337.7 1379.5 L 337.3 1384.1 L 337.1 1388.7 L 337.2 1393.4 L 337.7 1398.1 L 338.4 1402.9 L 339.4 1407.6 L 340.7 1412.3 L 342.3 1417.0 L 344.2 1421.6 L 346.3 1426.3 L 348.8 1430.8 L 351.6 1435.3 L 354.6 1439.7 L 358.0 1444.0 L 361.6 1448.2 L 365.6 1452.3 L 369.8 1456.3 L 374.3 1460.1 L 379.2 1463.8 L 384.3 1467.2 L 389.8 1470.6 L 395.5 1473.7 L 401.5 1476.7 L 407.8 1479.4 L 414.3 1482.0 L 421.2 1484.4 L 428.4 1486.6 L 435.8 1488.5 L 443.6 1490.2 Z" fill="purple" stroke="none" /></g></g><g transform="translate(272.905,911.865) scale(1.162080,-1.162080)">
    <path d="M495 -307       V-32       Q495 316 497.5 346.0       Q500 376 504.0 395.5       Q508 415 511 428       V431       L 411 431       L 346 651       L 281 431       H137       Q99 431 82.0 451.0       Q65 471 65 520       Q65 539 66.5 556.0       Q68 573 72.5 594.5       Q77 616 84 647       H119       V633       Q119 614 131.0 603.0       Q143 592 167 592       L 281 592       L 346 751       L 411 592              H548       Q567 592 575.5 583.0       Q584 574 584 553       V443       L558 434       L571 -270       Q557 -284 544.5 -292.0       Q532 -300 513 -307Z              M113 -307       V268       Q113 316 116.0 346.5       Q119 377 122.5 396.5       Q126 416 129 430       V472       H178       L189 -270       Q175 -284 163.0 -292.0       Q151 -300 132 -307Z" fill="black" />
  </g>
</svg>