<svg xmlns="http://www.w3.org/2000/svg" width="1585.0" height="1585.0" viewBox="-192.5 -165.0 1585.0 1585.0">
  <g id="decorations"><polygon points="585.0,115.0 615.0,115.0 610.7,-135.0 585.3,-130.0" fill="purple" /><g><path d="M 830.5 1126.6 L 823.3 1129.1 L 816.4 1131.8 L 809.6 1134.7 L 803.1 1137.8 L 796.8 1141.1 L 790.6 1144.6 L 784.7 1148.2 L 779.1 1152.1 L 773.6 1156.1 L 768.4 1160.2 L 763.3 1164.5 L 758.6 1169.0 L 754.1 1173.6 L 749.8 1178.3 L 745.7 1183.2 L 741.9 1188.1 L 738.3 1193.2 L 734.9 1198.3 L 731.8 1203.5 L 728.9 1208.8 L 726.3 1214.2 L 723.9 1219.6 L 721.7 1225.0 L 719.7 1230.5 L 718.0 1236.0 L 716.5 1241.5 L 715.3 1247.1 L 714.3 1252.7 L 713.6 1258.2 L 713.1 1263.8 L 712.8 1269.3 L 712.8 1274.9 L 713.1 1280.3 L 713.6 1285.8 L 714.3 1291.2 L 715.3 1296.5 L 716.6 1301.8 L 718.1 1307.0 L 719.9 1312.1 L 722.0 1317.1 L 724.3 1322.0 L 726.8 1326.8 L 729.7 1331.4 L 732.8 1335.9 L 736.2 1340.3 L 739.8 1344.5 L 743.7 1348.5 L 747.8 1352.3 L 752.2 1355.9 L 756.9 1359.3 L 761.7 1362.4 L 766.9 1365.3 L 772.2 1368.0 L 777.8 1370.4 L 783.6 1372.6 L 789.7 1374.5 L 795.9 1376.1 L 802.4 1377.5 L 809.0 1378.5 L 815.9 1379.3 L 823.0 1379.8 L 830.2 1380.0 L 837.7 1379.9 L 834.9 1380.4 L 853.9 1349.4 L 836.9 1350.5 L 830.6 1350.5 L 824.5 1350.3 L 818.7 1349.9 L 813.2 1349.2 L 807.9 1348.3 L 802.8 1347.2 L 798.0 1345.9 L 793.4 1344.4 L 789.1 1342.7 L 785.0 1340.9 L 781.0 1338.9 L 777.3 1336.8 L 773.9 1334.5 L 770.6 1332.1 L 767.5 1329.6 L 764.6 1326.9 L 761.9 1324.2 L 759.3 1321.3 L 757.0 1318.2 L 754.8 1315.1 L 752.9 1311.8 L 751.0 1308.5 L 749.4 1305.0 L 748.0 1301.5 L 746.7 1297.8 L 745.6 1294.1 L 744.7 1290.3 L 743.9 1286.3 L 743.4 1282.4 L 743.0 1278.3 L 742.8 1274.2 L 742.8 1270.0 L 743.0 1265.8 L 743.4 1261.6 L 744.0 1257.3 L 744.7 1253.0 L 745.7 1248.6 L 746.8 1244.3 L 748.2 1239.9 L 749.7 1235.6 L 751.5 1231.3 L 753.4 1227.0 L 755.5 1222.7 L 757.8 1218.5 L 760.4 1214.3 L 763.1 1210.1 L 766.0 1206.0 L 769.1 1202.0 L 772.4 1198.0 L 775.9 1194.1 L 779.6 1190.4 L 783.5 1186.6 L 787.6 1183.0 L 791.8 1179.4 L 796.3 1176.0 L 800.9 1172.7 L 805.8 1169.5 L 810.9 1166.4 L 816.2 1163.5 L 821.7 1160.7 L 827.4 1158.1 L 833.4 1155.6 L 839.5 1153.4 Z" fill="purple" stroke="none" /><path d="M 836.4 1380.2 L 844.2 1378.5 L 851.6 1376.6 L 858.8 1374.4 L 865.7 1372.0 L 872.2 1369.4 L 878.5 1366.7 L 884.5 1363.7 L 890.2 1360.6 L 895.7 1357.2 L 900.8 1353.8 L 905.7 1350.1 L 910.2 1346.3 L 914.4 1342.3 L 918.4 1338.2 L 922.0 1334.0 L 925.4 1329.7 L 928.4 1325.3 L 931.2 1320.8 L 933.7 1316.3 L 935.8 1311.6 L 937.7 1307.0 L 939.3 1302.3 L 940.6 1297.6 L 941.6 1292.9 L 942.3 1288.1 L 942.8 1283.4 L 942.9 1278.7 L 942.7 1274.1 L 942.3 1269.5 L 941.6 1265.0 L 940.6 1260.5 L 939.3 1256.2 L 937.7 1251.9 L 935.8 1247.8 L 933.7 1243.8 L 931.3 1240.0 L 928.6 1236.3 L 925.6 1232.9 L 922.4 1229.6 L 918.9 1226.5 L 915.2 1223.7 L 911.3 1221.2 L 907.1 1218.9 L 902.7 1216.9 L 898.2 1215.2 L 893.4 1213.8 L 888.5 1212.7 L 883.4 1211.9 L 878.2 1211.5 L 872.9 1211.4 L 867.4 1211.6 L 861.8 1212.2 L 856.1 1213.1 L 850.3 1214.3 L 844.4 1215.9 L 838.5 1217.9 L 832.4 1220.2 L 826.2 1222.9 L 819.9 1225.9 L 813.5 1229.3 L 807.1 1233.1 L 800.6 1237.3 L 793.9 1241.9 L 795.4 1241.5 L 796.9 1275.6 L 811.0 1265.9 L 816.8 1261.9 L 822.5 1258.4 L 828.0 1255.2 L 833.3 1252.4 L 838.5 1249.9 L 843.5 1247.8 L 848.3 1246.0 L 852.9 1244.6 L 857.3 1243.4 L 861.6 1242.5 L 865.6 1241.9 L 869.5 1241.5 L 873.2 1241.4 L 876.6 1241.5 L 879.9 1241.7 L 883.0 1242.2 L 885.9 1242.8 L 888.7 1243.7 L 891.2 1244.6 L 893.6 1245.7 L 895.9 1246.9 L 898.0 1248.3 L 900.0 1249.8 L 901.8 1251.4 L 903.5 1253.1 L 905.0 1254.9 L 906.5 1256.9 L 907.8 1258.9 L 908.9 1261.1 L 909.9 1263.3 L 910.8 1265.7 L 911.5 1268.2 L 912.1 1270.7 L 912.5 1273.3 L 912.8 1276.0 L 912.9 1278.8 L 912.8 1281.6 L 912.5 1284.5 L 912.1 1287.5 L 911.5 1290.5 L 910.6 1293.5 L 909.6 1296.5 L 908.4 1299.6 L 906.9 1302.7 L 905.2 1305.8 L 903.3 1308.9 L 901.2 1312.0 L 898.8 1315.0 L 896.2 1318.0 L 893.3 1321.0 L 890.2 1323.9 L 886.9 1326.9 L 883.2 1329.7 L 879.3 1332.5 L 875.2 1335.3 L 870.7 1337.9 L 865.9 1340.4 L 860.8 1342.8 L 855.4 1345.1 L 849.7 1347.2 L 843.6 1349.2 L 837.3 1351.0 L 830.6 1352.6 Z" fill="purple" stroke="none" /></g><g><path d="M 390.5 1153.4 L 396.6 1155.6 L 402.6 1158.1 L 408.3 1160.7 L 413.8 1163.5 L 419.1 1166.4 L 424.2 1169.5 L 429.1 1172.7 L 433.7 1176.0 L 438.2 1179.4 L 442.4 1183.0 L 446.5 1186.6 L 450.4 1190.4 L 454.1 1194.1 L 457.6 1198.0 L 460.9 1202.0 L 464.0 1206.0 L 466.9 1210.1 L 469.6 1214.3 L 472.2 1218.5 L 474.5 1222.7 L 476.6 1227.0 L 478.5 1231.3 L 480.3 1235.6 L 481.8 1239.9 L 483.2 1244.3 L 484.3 1248.6 L 485.3 1253.0 L 486.0 1257.3 L 486.6 1261.6 L 487.0 1265.8 L 487.2 1270.0 L 487.2 1274.2 L 487.0 1278.3 L 486.6 1282.4 L 486.1 1286.3 L 485.3 1290.3 L 484.4 1294.1 L 483.3 1297.8 L 482.0 1301.5 L 480.6 1305.0 L 479.0 1308.5 L 477.1 1311.8 L 475.2 1315.1 L 473.0 1318.2 L 470.7 1321.3 L 468.1 1324.2 L 465.4 1326.9 L 462.5 1329.6 L 459.4 1332.1 L 456.1 1334.5 L 452.7 1336.8 L 449.0 1338.9 L 445.0 1340.9 L 440.9 1342.7 L 436.6 1344.4 L 432.0 1345.9 L 427.2 1347.2 L 422.1 1348.3 L 416.8 1349.2 L 411.3 1349.9 L 405.5 1350.3 L 399.4 1350.5 L 393.1 1350.5 L 397.1 1350.5 L 374.1 1379.3 L 392.3 1379.9 L 399.8 1380.0 L 407.0 1379.8 L 414.1 1379.3 L 421.0 1378.5 L 427.6 1377.5 L 434.1 1376.1 L 440.3 1374.5 L 446.4 1372.6 L 452.2 1370.4 L 457.8 1368.0 L 463.1 1365.3 L 468.3 1362.4 L 473.1 1359.3 L 477.8 1355.9 L 482.2 1352.3 L 486.3 1348.5 L 490.2 1344.5 L 493.8 1340.3 L 497.2 1335.9 L 500.3 1331.4 L 503.2 1326.8 L 505.7 1322.0 L 508.0 1317.1 L 510.1 1312.1 L 511.9 1307.0 L 513.4 1301.8 L 514.7 1296.5 L 515.7 1291.2 L 516.4 1285.8 L 516.9 1280.3 L 517.2 1274.9 L 517.2 1269.3 L 516.9 1263.8 L 516.4 1258.2 L 515.7 1252.7 L 514.7 1247.1 L 513.5 1241.5 L 512.0 1236.0 L 510.3 1230.5 L 508.3 1225.0 L 506.1 1219.6 L 503.7 1214.2 L 501.1 1208.8 L 498.2 1203.5 L 495.1 1198.3 L 491.7 1193.2 L 488.1 1188.1 L 484.3 1183.2 L 480.2 1178.3 L 475.9 1173.6 L 471.4 1169.0 L 466.7 1164.5 L 461.6 1160.2 L 456.4 1156.1 L 450.9 1152.1 L 445.3 1148.2 L 439.4 1144.6 L 433.2 1141.1 L 426.9 1137.8 L 420.4 1134.7 L 413.6 1131.8 L 406.7 1129.1 L 399.5 1126.6 Z" fill="purple" stroke="none" /><path d="M 399.4 1352.6 L 392.7 1351.0 L 386.4 1349.2 L 380.3 1347.2 L 374.6 1345.1 L 369.2 1342.8 L 364.1 1340.4 L 359.3 1337.9 L 354.8 1335.3 L 350.7 1332.5 L 346.8 1329.7 L 343.1 1326.9 L 339.8 1323.9 L 336.7 1321.0 L 333.8 1318.0 L 331.2 1315.0 L 328.8 1312.0 L 326.7 1308.9 L 324.8 1305.8 L 323.1 1302.7 L 321.6 1299.6 L 320.4 1296.5 L 319.4 1293.5 L 318.5 1290.5 L 317.9 1287.5 L 317.5 1284.5 L 317.2 1281.6 L 317.1 1278.8 L 317.2 1276.0 L 317.5 1273.3 L 317.9 1270.7 L 318.5 1268.2 L 319.2 1265.7 L 320.1 1263.3 L 321.1 1261.1 L 322.2 1258.9 L 323.5 1256.9 L 325.0 1254.9 L 326.5 1253.1 L 328.2 1251.4 L 330.0 1249.8 L 332.0 1248.3 L 334.1 1246.9 L 336.4 1245.7 L 338.8 1244.6 L 341.3 1243.7 L 344.1 1242.8 L 347.0 1242.2 L 350.1 1241.7 L 353.4 1241.5 L 356.8 1241.4 L 360.5 1241.5 L 364.4 1241.9 L 368.4 1242.5 L 372.7 1243.4 L 377.1 1244.6 L 381.7 1246.0 L 386.5 1247.8 L 391.5 1249.9 L 396.7 1252.4 L 402.0 1255.2 L 407.5 1258.4 L 413.2 1261.9 L 419.0 1265.9 L 416.4 1265.4 L 451.3 1251.7 L 436.1 1241.9 L 429.4 1237.3 L 422.9 1233.1 L 416.5 1229.3 L 410.1 1225.9 L 403.8 1222.9 L 397.6 1220.2 L 391.5 1217.9 L 385.6 1215.9 L 379.7 1214.3 L 373.9 1213.1 L 368.2 1212.2 L 362.6 1211.6 L 357.1 1211.4 L 351.8 1211.5 L 346.6 1211.9 L 341.5 1212.7 L 336.6 1213.8 L 331.8 1215.2 L 327.3 1216.9 L 322.9 1218.9 L 318.7 1221.2 L 314.8 1223.7 L 311.1 1226.5 L 307.6 1229.6 L 304.4 1232.9 L 301.4 1236.3 L 298.7 1240.0 L 296.3 1243.8 L 294.2 1247.8 L 292.3 1251.9 L 290.7 1256.2 L 289.4 1260.5 L 288.4 1265.0 L 287.7 1269.5 L 287.3 1274.1 L 287.1 1278.7 L 287.2 1283.4 L 287.7 1288.1 L 288.4 1292.9 L 289.4 1297.6 L 290.7 1302.3 L 292.3 1307.0 L 294.2 1311.6 L 296.3 1316.3 L 298.8 1320.8 L 301.6 1325.3 L 304.6 1329.7 L 308.0 1334.0 L 311.6 1338.2 L 315.6 1342.3 L 319.8 1346.3 L 324.3 1350.1 L 329.2 1353.8 L 334.3 1357.2 L 339.8 1360.6 L 345.5 1363.7 L 351.5 1366.7 L 357.8 1369.4 L 364.3 1372.0 L 371.2 1374.4 L 378.4 1376.6 L 385.8 1378.5 L 393.6 1380.2 Z" fill="purple" stroke="none" /></g></g><g transform="translate(222.905,801.865) scale(1.162080,-1.162080)">
    <path d="M495 -307       V-32       Q495 316 497.5 346.0       Q500 376 504.0 395.5       Q508 415 511 428       V431       H137       Q99 431 82.0 451.0       Q65 471 65 520       Q65 539 66.5 556.0       Q68 573 72.5 594.5       Q77 616 84 647       H119       V633       Q119 614 131.0 603.0       Q143 592 167 592       H548       Q567 592 575.5 583.0       Q584 574 584 553       V443       L558 434       L571 -270       Q557 -284 544.5 -292.0       Q532 -300 513 -307Z              M113 -307       V268       Q113 316 116.0 346.5       Q119 377 122.5 396.5       Q126 416 129 430       V472       H178       L189 -270       Q175 -284 163.0 -292.0       Q151 -300 132 -307Z" fill="black" />
  </g>
</svg>