<svg xmlns="http://www.w3.org/2000/svg" width="1585.0" height="1585.0" viewBox="-192.5 -165.0 1585.0 1585.0">
  <g id="decorations"><path d="M 360.6 117.9 L 365.8 115.7 L 370.8 113.2 L 375.7 110.5 L 380.5 107.6 L 385.0 104.5 L 389.4 101.3 L 393.7 97.8 L 397.8 94.3 L 401.7 90.5 L 405.4 86.6 L 409.0 82.6 L 412.3 78.4 L 415.5 74.1 L 418.5 69.7 L 421.3 65.2 L 423.9 60.5 L 426.3 55.8 L 428.6 51.0 L 430.7 46.1 L 432.6 41.1 L 434.4 36.1 L 436.0 31.0 L 437.4 25.8 L 438.6 20.6 L 439.7 15.4 L 440.5 10.1 L 441.2 4.8 L 441.8 -0.5 L 442.1 -5.9 L 442.3 -11.3 L 442.3 -16.7 L 442.1 -22.0 L 441.8 -27.4 L 441.3 -32.8 L 440.6 -38.2 L 439.7 -43.5 L 438.6 -48.8 L 437.4 -54.1 L 436.0 -59.4 L 434.4 -64.6 L 432.6 -69.7 L 430.6 -74.9 L 428.5 -79.9 L 426.1 -84.9 L 423.6 -89.8 L 420.9 -94.6 L 418.0 -99.3 L 414.9 -104.0 L 411.6 -108.5 L 408.2 -113.0 L 404.5 -117.3 L 400.7 -121.5 L 396.6 -125.5 L 392.4 -129.4 L 388.0 -133.2 L 383.4 -136.8 L 378.6 -140.2 L 373.6 -143.5 L 368.4 -146.6 L 363.1 -149.6 L 357.5 -152.3 L 351.8 -154.8 L 345.9 -157.2 L 349.9 -156.9 L 320.5 -133.8 L 335.5 -129.6 L 340.3 -127.7 L 344.9 -125.6 L 349.3 -123.3 L 353.5 -121.0 L 357.6 -118.4 L 361.6 -115.8 L 365.4 -113.0 L 369.0 -110.1 L 372.5 -107.1 L 375.8 -104.0 L 379.0 -100.8 L 382.0 -97.5 L 384.9 -94.0 L 387.7 -90.5 L 390.3 -86.9 L 392.7 -83.2 L 395.0 -79.4 L 397.2 -75.6 L 399.2 -71.6 L 401.1 -67.6 L 402.8 -63.6 L 404.4 -59.5 L 405.9 -55.3 L 407.2 -51.1 L 408.3 -46.8 L 409.3 -42.5 L 410.2 -38.2 L 410.9 -33.8 L 411.5 -29.4 L 411.9 -25.0 L 412.2 -20.6 L 412.3 -16.2 L 412.3 -11.8 L 412.2 -7.4 L 411.9 -3.0 L 411.4 1.3 L 410.9 5.7 L 410.2 10.0 L 409.3 14.2 L 408.3 18.4 L 407.2 22.6 L 405.9 26.7 L 404.5 30.8 L 402.9 34.7 L 401.3 38.6 L 399.5 42.5 L 397.5 46.2 L 395.4 49.9 L 393.2 53.4 L 390.9 56.9 L 388.5 60.3 L 385.9 63.6 L 383.2 66.8 L 380.5 69.9 L 377.5 72.8 L 374.5 75.7 L 371.3 78.4 L 368.0 81.0 L 364.6 83.5 L 361.0 85.9 L 357.3 88.1 L 353.4 90.1 L 349.4 92.1 Z" fill="purple" stroke="none" /><path d="M 388.3 1142.4 L 392.1 1144.7 L 395.8 1147.1 L 399.3 1149.6 L 402.7 1152.2 L 405.9 1155.0 L 408.9 1157.9 L 411.9 1160.9 L 414.7 1164.0 L 417.3 1167.2 L 419.8 1170.6 L 422.2 1174.0 L 424.4 1177.5 L 426.6 1181.0 L 428.6 1184.7 L 430.5 1188.4 L 432.2 1192.3 L 433.8 1196.2 L 435.3 1200.1 L 436.6 1204.2 L 437.8 1208.3 L 438.9 1212.4 L 439.8 1216.6 L 440.6 1220.9 L 441.2 1225.2 L 441.7 1229.5 L 442.0 1233.8 L 442.2 1238.2 L 442.2 1242.6 L 442.2 1247.0 L 441.9 1251.3 L 441.5 1255.7 L 441.0 1260.1 L 440.3 1264.5 L 439.5 1268.8 L 438.6 1273.1 L 437.5 1277.4 L 436.3 1281.7 L 434.9 1285.9 L 433.4 1290.0 L 431.7 1294.1 L 429.9 1298.1 L 427.9 1302.1 L 425.9 1306.0 L 423.6 1309.8 L 421.3 1313.6 L 418.8 1317.2 L 416.2 1320.8 L 413.4 1324.3 L 410.5 1327.6 L 407.4 1330.9 L 404.3 1334.0 L 400.9 1337.1 L 397.5 1340.0 L 393.9 1342.8 L 390.2 1345.5 L 386.3 1348.1 L 382.3 1350.5 L 378.2 1352.8 L 373.9 1355.0 L 369.4 1357.0 L 364.8 1358.8 L 360.0 1360.5 L 355.1 1362.0 L 360.2 1361.1 L 346.8 1394.2 L 363.1 1390.4 L 369.2 1388.6 L 375.1 1386.5 L 380.8 1384.3 L 386.4 1381.8 L 391.8 1379.2 L 397.1 1376.4 L 402.2 1373.4 L 407.1 1370.2 L 411.8 1366.8 L 416.4 1363.3 L 420.8 1359.6 L 425.0 1355.8 L 429.0 1351.8 L 432.8 1347.7 L 436.5 1343.4 L 440.0 1339.1 L 443.3 1334.6 L 446.4 1330.0 L 449.3 1325.4 L 452.1 1320.6 L 454.7 1315.8 L 457.1 1310.8 L 459.3 1305.9 L 461.3 1300.8 L 463.2 1295.7 L 464.9 1290.5 L 466.4 1285.3 L 467.8 1280.1 L 468.9 1274.8 L 469.9 1269.5 L 470.7 1264.2 L 471.4 1258.8 L 471.8 1253.4 L 472.1 1248.1 L 472.2 1242.7 L 472.2 1237.3 L 471.9 1232.0 L 471.5 1226.7 L 470.9 1221.3 L 470.2 1216.0 L 469.2 1210.8 L 468.1 1205.6 L 466.8 1200.4 L 465.3 1195.3 L 463.6 1190.2 L 461.8 1185.2 L 459.8 1180.3 L 457.5 1175.5 L 455.1 1170.7 L 452.6 1166.0 L 449.8 1161.4 L 446.8 1157.0 L 443.6 1152.7 L 440.2 1148.5 L 436.7 1144.4 L 432.9 1140.5 L 429.0 1136.7 L 424.9 1133.1 L 420.6 1129.7 L 416.1 1126.4 L 411.5 1123.3 L 406.7 1120.3 L 401.7 1117.6 Z" fill="purple" stroke="none" /></g><g transform="translate(222.905,801.865) scale(1.162080,-1.162080)">
    <path d="M495 -307       V-32       Q495 316 497.5 346.0       Q500 376 504.0 395.5       Q508 415 511 428       V431       H137       Q99 431 82.0 451.0       Q65 471 65 520       Q65 539 66.5 556.0       Q68 573 72.5 594.5       Q77 616 84 647       H119       V633       Q119 614 131.0 603.0       Q143 592 167 592       H548       Q567 592 575.5 583.0       Q584 574 584 553       V443       L558 434       L571 -270       Q557 -284 544.5 -292.0       Q532 -300 513 -307Z              M113 -307       V268       Q113 316 116.0 346.5       Q119 377 122.5 396.5       Q126 416 129 430       V472       H178       L189 -270       Q175 -284 163.0 -292.0       Q151 -300 132 -307Z" fill="black" />
  </g>
</svg>