<svg xmlns="http://www.w3.org/2000/svg" width="1237.0" height="1237.0" viewBox="-118.5 -87.0 1237.0 1237.0">
  <g id="decorations"><polygon points="270.0,193.0 300.0,193.0 295.7,-57.0 270.3,-52.0" fill="purple" /><polygon points="485.0,193.0 515.0,193.0 510.7,-57.0 485.3,-52.0" fill="purple" /><polygon points="700.0,313.0 730.0,313.0 725.7,-57.0 700.3,-52.0" fill="purple" /><path d="M 297.9 321.1 L 289.9 322.3 L 282.1 323.8 L 274.5 325.5 L 267.0 327.4 L 259.8 329.5 L 252.8 331.8 L 246.0 334.3 L 239.3 337.0 L 232.9 339.8 L 226.7 342.9 L 220.6 346.1 L 214.9 349.5 L 209.3 353.1 L 204.0 356.9 L 198.8 360.8 L 194.0 364.8 L 189.3 369.0 L 184.9 373.4 L 180.7 377.8 L 176.7 382.4 L 173.0 387.1 L 169.5 392.0 L 166.3 396.9 L 163.3 401.9 L 160.6 407.1 L 158.1 412.3 L 155.9 417.6 L 154.0 422.9 L 152.3 428.4 L 150.9 433.9 L 149.8 439.4 L 148.9 445.0 L 148.3 450.6 L 148.1 456.2 L 148.0 461.9 L 148.3 467.6 L 148.9 473.2 L 149.7 478.9 L 150.9 484.5 L 152.3 490.2 L 154.0 495.7 L 156.0 501.3 L 158.3 506.8 L 160.8 512.2 L 163.7 517.6 L 166.8 522.9 L 170.3 528.1 L 174.0 533.2 L 177.9 538.2 L 182.2 543.2 L 186.7 548.0 L 191.6 552.7 L 196.7 557.3 L 202.1 561.8 L 207.7 566.1 L 213.7 570.3 L 219.9 574.4 L 226.3 578.4 L 233.1 582.2 L 240.1 585.8 L 247.5 589.3 L 255.0 592.6 L 262.9 595.8 L 261.1 596.3 L 290.9 573.7 L 273.6 568.4 L 266.6 565.5 L 259.9 562.5 L 253.4 559.4 L 247.3 556.1 L 241.4 552.8 L 235.8 549.3 L 230.6 545.8 L 225.5 542.2 L 220.8 538.5 L 216.3 534.7 L 212.1 530.9 L 208.2 527.0 L 204.5 523.1 L 201.1 519.1 L 197.9 515.1 L 195.0 511.0 L 192.3 507.0 L 189.9 502.9 L 187.7 498.7 L 185.7 494.6 L 184.0 490.4 L 182.5 486.3 L 181.2 482.1 L 180.1 477.9 L 179.3 473.7 L 178.7 469.5 L 178.2 465.4 L 178.0 461.2 L 178.0 457.0 L 178.3 452.9 L 178.7 448.8 L 179.3 444.7 L 180.1 440.6 L 181.2 436.5 L 182.4 432.4 L 183.9 428.4 L 185.5 424.5 L 187.4 420.5 L 189.5 416.6 L 191.8 412.8 L 194.2 409.0 L 196.9 405.2 L 199.8 401.5 L 203.0 397.9 L 206.3 394.4 L 209.8 390.9 L 213.6 387.5 L 217.6 384.2 L 221.7 381.0 L 226.1 377.9 L 230.7 374.9 L 235.5 372.0 L 240.5 369.2 L 245.7 366.5 L 251.1 364.0 L 256.7 361.5 L 262.6 359.2 L 268.7 357.1 L 274.9 355.1 L 281.4 353.3 L 288.1 351.7 L 295.0 350.2 L 302.1 348.9 Z" fill="purple" stroke="none" /></g><g transform="translate(182.257,880.000) scale(1.174652,-1.174652)">
    <path d="M36 0 77 161H330Q388 161 416.0 182.0Q444 203 444 247V347Q444 378 432.0 396.5Q420 415 398.0 423.0Q376 431 342 431H126Q88 431 70.5 451.5Q53 472 53 520Q53 539 55.0 556.0Q57 573 61.5 594.5Q66 616 73 647H108V633Q108 614 120.0 603.0Q132 592 156 592H347Q422 592 463.5 547.5Q505 503 505 425V199Q505 133 486.0 88.5Q467 44 434.0 22.0Q401 0 359 0Z" fill="black" />
  </g>
</svg>