<svg xmlns="http://www.w3.org/2000/svg" width="1245.0" height="1245.0" viewBox="-122.5 -95.0 1245.0 1245.0">
  <g id="decorations"><polygon points="335.0,185.0 365.0,185.0 360.7,-65.0 335.3,-60.0" fill="purple" /><polygon points="465.0,185.0 495.0,185.0 490.7,-65.0 465.3,-60.0" fill="purple" /><polygon points="515.0,185.0 545.0,185.0 540.7,-65.0 515.3,-60.0" fill="purple" /><g><path d="M 630.8 880.7 L 635.7 885.1 L 640.2 889.6 L 644.6 894.2 L 648.6 898.8 L 652.5 903.5 L 656.0 908.2 L 659.3 913.0 L 662.4 917.9 L 665.3 922.7 L 667.9 927.6 L 670.3 932.5 L 672.5 937.4 L 674.5 942.3 L 676.3 947.2 L 677.9 952.1 L 679.3 957.0 L 680.4 961.9 L 681.4 966.8 L 682.1 971.6 L 682.7 976.4 L 683.1 981.2 L 683.3 985.9 L 683.2 990.6 L 683.0 995.2 L 682.7 999.7 L 682.1 1004.2 L 681.4 1008.5 L 680.5 1012.8 L 679.4 1017.0 L 678.1 1021.1 L 676.7 1025.1 L 675.2 1029.0 L 673.5 1032.7 L 671.6 1036.3 L 669.6 1039.8 L 667.5 1043.2 L 665.2 1046.4 L 662.8 1049.4 L 660.2 1052.3 L 657.5 1055.1 L 654.7 1057.7 L 651.8 1060.1 L 648.7 1062.4 L 645.6 1064.5 L 642.3 1066.4 L 638.8 1068.1 L 635.3 1069.7 L 631.6 1071.1 L 627.8 1072.3 L 623.8 1073.3 L 619.7 1074.1 L 615.5 1074.6 L 611.2 1075.0 L 606.6 1075.2 L 602.0 1075.1 L 597.2 1074.7 L 592.2 1074.1 L 587.1 1073.3 L 581.9 1072.1 L 576.5 1070.7 L 570.9 1068.9 L 565.2 1066.9 L 559.4 1064.5 L 563.0 1065.2 L 531.1 1084.8 L 547.6 1091.5 L 554.5 1094.3 L 561.3 1096.9 L 568.1 1099.1 L 574.7 1100.9 L 581.3 1102.4 L 587.8 1103.6 L 594.2 1104.4 L 600.5 1104.9 L 606.7 1105.1 L 612.8 1104.9 L 618.8 1104.5 L 624.6 1103.7 L 630.3 1102.6 L 635.9 1101.2 L 641.3 1099.5 L 646.6 1097.5 L 651.7 1095.2 L 656.6 1092.7 L 661.4 1090.0 L 665.9 1087.0 L 670.3 1083.7 L 674.5 1080.2 L 678.5 1076.6 L 682.2 1072.7 L 685.8 1068.6 L 689.2 1064.4 L 692.3 1060.0 L 695.3 1055.4 L 698.0 1050.7 L 700.5 1045.8 L 702.8 1040.8 L 704.8 1035.7 L 706.7 1030.4 L 708.3 1025.1 L 709.7 1019.7 L 710.8 1014.1 L 711.8 1008.5 L 712.5 1002.8 L 713.0 997.1 L 713.2 991.3 L 713.2 985.4 L 713.0 979.5 L 712.6 973.5 L 711.9 967.6 L 710.9 961.6 L 709.7 955.5 L 708.3 949.5 L 706.6 943.5 L 704.7 937.5 L 702.5 931.5 L 700.0 925.5 L 697.3 919.6 L 694.2 913.7 L 690.9 907.9 L 687.3 902.1 L 683.5 896.5 L 679.4 890.9 L 675.0 885.3 L 670.4 879.9 L 665.5 874.6 L 660.3 869.4 L 654.9 864.3 L 649.2 859.3 Z" fill="purple" stroke="none" /><path d="M 564.5 1068.8 L 558.9 1064.8 L 553.6 1060.7 L 548.8 1056.6 L 544.3 1052.5 L 540.1 1048.4 L 536.3 1044.2 L 532.8 1040.1 L 529.6 1036.0 L 526.8 1031.9 L 524.2 1027.9 L 521.9 1023.8 L 519.9 1019.9 L 518.1 1016.0 L 516.6 1012.1 L 515.3 1008.4 L 514.2 1004.6 L 513.4 1001.0 L 512.8 997.4 L 512.4 993.9 L 512.2 990.5 L 512.2 987.2 L 512.4 984.0 L 512.7 980.9 L 513.3 977.9 L 514.0 975.0 L 514.8 972.2 L 515.8 969.5 L 516.9 967.0 L 518.2 964.6 L 519.5 962.3 L 521.0 960.2 L 522.6 958.2 L 524.3 956.3 L 526.1 954.6 L 528.0 953.0 L 530.0 951.6 L 532.0 950.3 L 534.1 949.2 L 536.3 948.3 L 538.6 947.5 L 541.0 946.8 L 543.5 946.4 L 546.0 946.1 L 548.7 945.9 L 551.4 946.0 L 554.3 946.3 L 557.2 946.8 L 560.2 947.5 L 563.4 948.5 L 566.6 949.7 L 570.0 951.2 L 573.4 953.0 L 576.9 955.1 L 580.5 957.5 L 584.2 960.3 L 588.0 963.3 L 591.8 966.8 L 595.6 970.6 L 599.5 974.8 L 603.4 979.4 L 607.3 984.5 L 611.2 989.9 L 615.1 995.7 L 613.4 994.9 L 649.9 994.1 L 639.9 979.9 L 635.5 973.1 L 631.0 966.8 L 626.4 960.9 L 621.8 955.3 L 617.1 950.2 L 612.4 945.4 L 607.6 940.9 L 602.8 936.9 L 597.9 933.2 L 593.0 929.8 L 588.1 926.8 L 583.1 924.2 L 578.1 922.0 L 573.1 920.1 L 568.1 918.6 L 563.2 917.4 L 558.2 916.5 L 553.3 916.1 L 548.4 915.9 L 543.6 916.1 L 538.9 916.7 L 534.3 917.6 L 529.8 918.8 L 525.4 920.3 L 521.2 922.2 L 517.2 924.3 L 513.3 926.7 L 509.6 929.3 L 506.1 932.2 L 502.9 935.3 L 499.8 938.7 L 497.0 942.2 L 494.4 946.0 L 492.0 949.9 L 489.9 954.0 L 488.0 958.2 L 486.4 962.6 L 485.0 967.1 L 483.9 971.8 L 483.1 976.5 L 482.5 981.4 L 482.2 986.3 L 482.2 991.4 L 482.5 996.5 L 483.1 1001.6 L 484.0 1006.8 L 485.1 1012.0 L 486.6 1017.3 L 488.4 1022.6 L 490.5 1027.8 L 493.0 1033.1 L 495.8 1038.3 L 498.9 1043.5 L 502.4 1048.7 L 506.2 1053.8 L 510.3 1058.9 L 514.7 1063.9 L 519.5 1068.8 L 524.7 1073.6 L 530.1 1078.4 L 536.0 1083.1 L 542.2 1087.7 L 548.7 1092.2 Z" fill="purple" stroke="none" /></g><polygon points="335.0,290.0 365.0,290.0 329.9,532.6 304.5,537.6" fill="purple" /></g><g transform="translate(304.645,674.363) scale(0.856821,-0.856821)">
    <path d="M360 -240V273Q360 325 365.0 361.0Q370 397 382 429V431H81Q44 431 26.5 451.5Q9 472 9 520Q9 539 11.0 556.0Q13 573 17.5 594.5Q22 616 29 647H64V633Q64 614 76.0 603.0Q88 592 112 592H412Q431 592 439.0 583.5Q447 575 447 553V455Q436 435 430.5 416.0Q425 397 423.5 372.0Q422 347 423 307L434 -201Q421 -216 408.5 -224.5Q396 -233 379 -240Z" fill="black" />
  </g>
</svg>