<svg xmlns="http://www.w3.org/2000/svg" width="1245.0" height="1245.0" viewBox="-122.5 -95.0 1245.0 1245.0">
  <g id="decorations"><polygon points="465.0,185.0 495.0,185.0 490.7,-65.0 465.3,-60.0" fill="purple" /><polygon points="515.0,185.0 545.0,185.0 540.7,-65.0 515.3,-60.0" fill="purple" /><polygon points="645.0,185.0 675.0,185.0 670.7,-65.0 645.3,-60.0" fill="purple" /></g><g transform="translate(304.645,674.363) scale(0.856821,-0.856821)">
    <path d="M360 -240V273Q360 325 365.0 361.0Q370 397 382 429V431H81Q44 431 26.5 451.5Q9 472 9 520Q9 539 11.0 556.0Q13 573 17.5 594.5Q22 616 29 647H64V633Q64 614 76.0 603.0Q88 592 112 592H412Q431 592 439.0 583.5Q447 575 447 553V455Q436 435 430.5 416.0Q425 397 423.5 372.0Q422 347 423 307L434 -201Q421 -216 408.5 -224.5Q396 -233 379 -240Z" fill="black" />
  </g>
</svg>