<svg xmlns="http://www.w3.org/2000/svg" width="1340.0" height="1340.0" viewBox="-120.0 -190.0 1340.0 1340.0">
  <g id="decorations"><polygon points="335.0,90.0 365.0,90.0 360.7,-160.0 335.3,-155.0" fill="purple" /><polygon points="440.0,90.0 470.0,90.0 465.7,-160.0 440.3,-155.0" fill="purple" /><polygon points="490.0,90.0 520.0,90.0 515.7,-160.0 490.3,-155.0" fill="purple" /><polygon points="540.0,90.0 570.0,90.0 565.7,-160.0 540.3,-155.0" fill="purple" /><polygon points="335.0,195.0 365.0,195.0 329.9,437.6 304.5,442.6" fill="purple" /></g><g transform="translate(304.645,594.363) scale(0.856821,-0.856821)">
    <path d="M370 -540       V-531       L330 -471       L390 -411       L330 -351       L390 -291       L330 -231       L360 -201       V273       Q360 325 365.0 361.0       Q370 397 382 429       V431       H81       Q44 431 26.5 451.5       Q9 472 9 520       Q9 539 11.0 556.0       Q13 573 17.5 594.5       Q22 616 29 647       H64       V633       Q64 614 76.0 603.0       Q88 592 112 592       H412       Q431 592 439.0 583.5       Q447 575 447 553       V455       Q436 435 430.5 416.0       Q425 397 423.5 372.0       Q422 347 423 307       L449 -201       L419 -231       L479 -291       L419 -351       L479 -411       L419 -471       L459 -501       Q446 -516 433.5 -524.5       Q421 -533 404 -540Z" fill="black" />
  </g>
</svg>