<svg xmlns="http://www.w3.org/2000/svg" width="1245.0" height="1245.0" viewBox="-122.5 -95.0 1245.0 1245.0">
  <g id="decorations"><polygon points="335.0,185.0 365.0,185.0 360.7,-65.0 335.3,-60.0" fill="purple" /><polygon points="490.0,185.0 520.0,185.0 515.7,-65.0 490.3,-60.0" fill="purple" /><polygon points="645.0,185.0 675.0,185.0 670.7,-65.0 645.3,-60.0" fill="purple" /><g><path d="M 345.0 276.8 L 338.0 279.5 L 331.1 282.5 L 324.5 285.6 L 318.0 288.9 L 311.8 292.4 L 305.8 296.1 L 300.1 300.0 L 294.5 304.0 L 289.2 308.2 L 284.1 312.5 L 279.2 317.0 L 274.6 321.6 L 270.3 326.4 L 266.2 331.3 L 262.3 336.3 L 258.6 341.4 L 255.2 346.5 L 252.0 351.8 L 249.1 357.1 L 246.4 362.5 L 243.9 367.9 L 241.7 373.4 L 239.7 378.9 L 238.0 384.5 L 236.4 390.0 L 235.2 395.6 L 234.1 401.2 L 233.3 406.8 L 232.8 412.4 L 232.5 418.0 L 232.4 423.5 L 232.6 429.0 L 233.0 434.5 L 233.7 439.9 L 234.7 445.3 L 235.9 450.6 L 237.3 455.8 L 239.0 461.0 L 241.0 466.0 L 243.2 470.9 L 245.7 475.8 L 248.4 480.5 L 251.4 485.0 L 254.7 489.4 L 258.2 493.6 L 262.0 497.7 L 266.0 501.5 L 270.3 505.2 L 274.8 508.6 L 279.6 511.8 L 284.5 514.8 L 289.8 517.6 L 295.2 520.1 L 300.9 522.3 L 306.8 524.2 L 312.9 525.9 L 319.2 527.3 L 325.7 528.5 L 332.4 529.3 L 339.3 529.9 L 346.3 530.1 L 353.6 530.1 L 361.1 529.7 L 358.3 530.2 L 376.2 498.6 L 359.2 500.3 L 352.9 500.6 L 346.9 500.6 L 341.1 500.3 L 335.5 499.8 L 330.2 499.1 L 325.1 498.2 L 320.2 497.0 L 315.6 495.7 L 311.2 494.2 L 307.0 492.5 L 303.0 490.7 L 299.2 488.7 L 295.7 486.5 L 292.3 484.3 L 289.1 481.8 L 286.1 479.3 L 283.3 476.6 L 280.7 473.8 L 278.3 470.8 L 276.0 467.8 L 273.9 464.6 L 272.0 461.3 L 270.2 457.9 L 268.6 454.4 L 267.2 450.8 L 266.0 447.1 L 265.0 443.3 L 264.1 439.4 L 263.4 435.5 L 262.9 431.4 L 262.6 427.3 L 262.4 423.2 L 262.5 418.9 L 262.7 414.7 L 263.1 410.4 L 263.7 406.0 L 264.5 401.7 L 265.5 397.3 L 266.7 392.9 L 268.1 388.5 L 269.7 384.1 L 271.5 379.8 L 273.5 375.4 L 275.6 371.1 L 278.0 366.8 L 280.6 362.6 L 283.3 358.4 L 286.3 354.2 L 289.5 350.2 L 292.8 346.2 L 296.4 342.3 L 300.2 338.4 L 304.1 334.6 L 308.2 330.9 L 312.6 327.3 L 317.1 323.8 L 321.9 320.5 L 326.8 317.2 L 332.0 314.1 L 337.4 311.2 L 343.1 308.3 L 348.9 305.7 L 355.0 303.2 Z" fill="purple" stroke="none" /><path d="M 359.8 530.0 L 367.5 528.0 L 374.9 525.8 L 382.0 523.4 L 388.7 520.8 L 395.2 518.0 L 401.4 515.0 L 407.3 511.8 L 412.9 508.5 L 418.2 505.0 L 423.2 501.3 L 428.0 497.5 L 432.4 493.6 L 436.5 489.4 L 440.2 485.2 L 443.7 480.9 L 446.9 476.4 L 449.8 471.9 L 452.4 467.3 L 454.8 462.7 L 456.8 458.0 L 458.5 453.3 L 459.9 448.6 L 461.0 443.8 L 461.9 439.0 L 462.4 434.3 L 462.7 429.6 L 462.7 424.9 L 462.4 420.3 L 461.8 415.7 L 460.9 411.2 L 459.7 406.8 L 458.3 402.5 L 456.5 398.3 L 454.5 394.2 L 452.2 390.3 L 449.7 386.6 L 446.9 383.0 L 443.8 379.6 L 440.5 376.5 L 436.9 373.6 L 433.1 370.9 L 429.0 368.5 L 424.8 366.3 L 420.4 364.5 L 415.7 362.9 L 411.0 361.7 L 406.0 360.8 L 400.9 360.2 L 395.7 359.9 L 390.3 360.0 L 384.9 360.4 L 379.3 361.2 L 373.7 362.3 L 367.9 363.7 L 362.1 365.6 L 356.2 367.7 L 350.2 370.3 L 344.1 373.1 L 337.9 376.4 L 331.7 380.0 L 325.4 384.1 L 319.0 388.5 L 312.5 393.3 L 313.9 392.9 L 316.7 426.8 L 330.4 416.7 L 336.1 412.5 L 341.6 408.7 L 347.0 405.4 L 352.2 402.4 L 357.3 399.7 L 362.2 397.5 L 367.0 395.5 L 371.5 393.9 L 375.9 392.6 L 380.2 391.5 L 384.2 390.8 L 388.0 390.3 L 391.7 390.0 L 395.1 389.9 L 398.4 390.1 L 401.5 390.5 L 404.5 391.0 L 407.2 391.7 L 409.8 392.6 L 412.3 393.6 L 414.6 394.8 L 416.7 396.0 L 418.8 397.5 L 420.6 399.0 L 422.4 400.7 L 424.0 402.4 L 425.5 404.3 L 426.9 406.3 L 428.1 408.4 L 429.2 410.7 L 430.1 413.0 L 431.0 415.4 L 431.6 417.9 L 432.1 420.5 L 432.5 423.2 L 432.7 426.0 L 432.7 428.8 L 432.5 431.7 L 432.2 434.7 L 431.7 437.7 L 430.9 440.8 L 430.0 443.8 L 428.9 447.0 L 427.5 450.1 L 426.0 453.2 L 424.2 456.4 L 422.2 459.5 L 419.9 462.7 L 417.4 465.8 L 414.6 468.9 L 411.6 471.9 L 408.3 474.9 L 404.8 477.9 L 401.0 480.9 L 396.9 483.7 L 392.6 486.5 L 387.9 489.2 L 382.9 491.8 L 377.5 494.2 L 371.9 496.6 L 365.9 498.8 L 359.6 500.8 L 353.0 502.6 Z" fill="purple" stroke="none" /></g></g><g transform="translate(304.645,674.363) scale(0.856821,-0.856821)">
    <path d="M360 -240V273Q360 325 365.0 361.0Q370 397 382 429V431H81Q44 431 26.5 451.5Q9 472 9 520Q9 539 11.0 556.0Q13 573 17.5 594.5Q22 616 29 647H64V633Q64 614 76.0 603.0Q88 592 112 592H412Q431 592 439.0 583.5Q447 575 447 553V455Q436 435 430.5 416.0Q425 397 423.5 372.0Q422 347 423 307L434 -201Q421 -216 408.5 -224.5Q396 -233 379 -240Z" fill="black" />
  </g>
</svg>