<svg xmlns="http://www.w3.org/2000/svg" width="1245.0" height="1245.0" viewBox="-122.5 -95.0 1245.0 1245.0">
  <g id="decorations"><polygon points="465.0,185.0 495.0,185.0 490.7,-65.0 465.3,-60.0" fill="purple" /><polygon points="515.0,185.0 545.0,185.0 540.7,-65.0 515.3,-60.0" fill="purple" /><polygon points="205.0,290.0 235.0,290.0 234.7,535.0 209.3,540.0" fill="purple" /><path d="M 220.0 450.0 L 105.0 450.0 C 101.8 450.0, 96.0 451.2, 96.0 455.0 L 96.0 535.0 C 96.0 538.8, 101.2 540.0, 105.0 540.0 L 215.0 540.0 C 218.8 540.0, 220.0 538.8, 220.0 535.0 L 220.0 554.0 L 220.0 450.0 Z" fill="purple" stroke="none" /></g><g transform="translate(434.645,674.363) scale(0.856821,-0.856821)">
    <path d="M360 -240       V273       Q360 325 365.0 361.0       Q370 397 382 429       V431       H-219       Q-256 431 -273.5 451.5       Q-291 472 -291 520       Q-291 539 -289.0 556.0       Q-287 573 -282.5 594.5       Q-278 616 -271 647       H-236       V633       Q-236 614 -224.0 603.0       Q-212 592 -188 592       H412       Q431 592 439.0 583.5       Q447 575 447 553       V455       Q436 435 430.5 416.0       Q425 397 423.5 372.0       Q422 347 423 307       L434 -201       Q421 -216 408.5 -224.5       Q396 -233 379 -240Z" fill="black" />
  </g>
</svg>