<svg xmlns="http://www.w3.org/2000/svg" width="1105.0" height="1105.0" viewBox="-52.5 -105.0 1105.0 1105.0">
  <g id="decorations"><g><path d="M 383.3 179.7 L 385.8 172.5 L 387.9 165.4 L 389.8 158.3 L 391.4 151.2 L 392.7 144.2 L 393.7 137.2 L 394.4 130.3 L 394.9 123.5 L 395.1 116.7 L 395.1 110.0 L 394.8 103.4 L 394.2 96.9 L 393.4 90.5 L 392.3 84.2 L 390.9 78.1 L 389.4 72.0 L 387.6 66.1 L 385.6 60.3 L 383.5 54.6 L 381.1 49.1 L 378.5 43.7 L 375.7 38.4 L 372.8 33.4 L 369.7 28.5 L 366.4 23.7 L 362.9 19.1 L 359.3 14.8 L 355.5 10.5 L 351.6 6.5 L 347.5 2.7 L 343.3 -0.9 L 338.9 -4.3 L 334.5 -7.5 L 329.9 -10.4 L 325.2 -13.2 L 320.3 -15.7 L 315.4 -17.9 L 310.4 -19.9 L 305.2 -21.7 L 300.0 -23.1 L 294.8 -24.3 L 289.4 -25.2 L 284.0 -25.9 L 278.5 -26.2 L 273.0 -26.2 L 267.5 -25.9 L 262.0 -25.3 L 256.4 -24.4 L 250.9 -23.1 L 245.3 -21.6 L 239.8 -19.7 L 234.4 -17.4 L 229.0 -14.9 L 223.6 -11.9 L 218.3 -8.7 L 213.1 -5.1 L 208.0 -1.2 L 203.0 3.1 L 198.0 7.7 L 193.2 12.6 L 188.4 17.9 L 183.8 23.5 L 179.3 29.4 L 180.5 28.6 L 193.5 59.3 L 203.0 46.9 L 206.8 41.9 L 210.7 37.3 L 214.6 33.0 L 218.6 29.0 L 222.6 25.4 L 226.6 22.1 L 230.6 19.1 L 234.5 16.4 L 238.5 14.0 L 242.5 11.9 L 246.5 10.0 L 250.4 8.4 L 254.4 7.0 L 258.3 5.9 L 262.2 5.1 L 266.0 4.4 L 269.9 4.0 L 273.8 3.8 L 277.6 3.8 L 281.4 4.0 L 285.2 4.5 L 288.9 5.1 L 292.6 6.0 L 296.3 7.0 L 300.0 8.2 L 303.6 9.7 L 307.2 11.3 L 310.7 13.1 L 314.2 15.2 L 317.6 17.4 L 321.0 19.7 L 324.3 22.3 L 327.5 25.1 L 330.6 28.0 L 333.6 31.1 L 336.6 34.3 L 339.4 37.8 L 342.1 41.3 L 344.7 45.1 L 347.2 48.9 L 349.5 53.0 L 351.7 57.2 L 353.8 61.5 L 355.7 65.9 L 357.4 70.5 L 359.0 75.2 L 360.5 80.0 L 361.7 84.9 L 362.8 90.0 L 363.7 95.1 L 364.4 100.4 L 365.0 105.7 L 365.4 111.2 L 365.5 116.7 L 365.5 122.3 L 365.2 128.1 L 364.8 133.9 L 364.0 139.8 L 363.1 145.7 L 361.9 151.8 L 360.4 157.9 L 358.7 164.1 L 356.7 170.3 Z" fill="purple" stroke="none" /><path d="M 179.8 28.2 L 176.4 35.4 L 173.4 42.5 L 170.7 49.4 L 168.3 56.3 L 166.3 63.1 L 164.6 69.7 L 163.2 76.3 L 162.2 82.7 L 161.5 89.1 L 161.0 95.3 L 160.9 101.3 L 161.1 107.3 L 161.6 113.0 L 162.5 118.7 L 163.5 124.1 L 164.9 129.4 L 166.5 134.5 L 168.3 139.5 L 170.4 144.2 L 172.7 148.8 L 175.2 153.1 L 177.9 157.3 L 180.8 161.2 L 183.9 164.9 L 187.2 168.4 L 190.6 171.6 L 194.2 174.6 L 198.0 177.3 L 201.9 179.8 L 205.9 182.0 L 210.0 184.0 L 214.3 185.6 L 218.6 187.0 L 223.0 188.1 L 227.4 188.8 L 231.9 189.3 L 236.5 189.4 L 241.1 189.2 L 245.6 188.7 L 250.1 187.8 L 254.6 186.6 L 259.1 185.1 L 263.4 183.2 L 267.7 181.0 L 271.9 178.5 L 275.9 175.6 L 279.8 172.4 L 283.5 168.9 L 287.0 165.0 L 290.4 160.9 L 293.6 156.5 L 296.6 151.7 L 299.4 146.7 L 302.0 141.3 L 304.4 135.7 L 306.5 129.8 L 308.4 123.5 L 310.1 117.0 L 311.6 110.2 L 312.8 103.1 L 313.8 95.7 L 314.5 87.9 L 315.0 79.9 L 315.4 79.9 L 285.6 62.8 L 285.6 78.6 L 285.1 85.6 L 284.4 92.2 L 283.6 98.5 L 282.5 104.5 L 281.2 110.1 L 279.8 115.3 L 278.3 120.2 L 276.6 124.7 L 274.8 128.9 L 272.8 132.8 L 270.8 136.4 L 268.8 139.7 L 266.6 142.7 L 264.4 145.3 L 262.2 147.8 L 259.9 149.9 L 257.6 151.8 L 255.3 153.5 L 252.9 154.9 L 250.6 156.1 L 248.2 157.1 L 245.9 158.0 L 243.5 158.6 L 241.1 159.0 L 238.7 159.3 L 236.3 159.4 L 233.9 159.3 L 231.5 159.1 L 229.1 158.7 L 226.7 158.1 L 224.3 157.3 L 221.9 156.4 L 219.5 155.3 L 217.2 154.0 L 214.9 152.6 L 212.7 150.9 L 210.5 149.1 L 208.4 147.1 L 206.3 145.0 L 204.4 142.6 L 202.5 140.1 L 200.7 137.4 L 199.1 134.5 L 197.5 131.5 L 196.1 128.3 L 194.9 124.9 L 193.8 121.3 L 192.8 117.5 L 192.0 113.6 L 191.4 109.5 L 191.1 105.3 L 190.8 100.8 L 190.8 96.2 L 191.0 91.4 L 191.4 86.4 L 192.1 81.3 L 193.1 76.0 L 194.3 70.5 L 195.8 64.8 L 197.7 59.0 L 199.8 53.0 L 202.3 46.9 L 205.2 40.6 Z" fill="purple" stroke="none" /></g></g><g transform="translate(290.890,873.850) scale(0.878613,-0.878613)">
    <path d="M227 -7Q209 -7 199.5 4.0Q190 15 190 42V70Q190 99 199.0 121.0Q208 143 232 163L383 293Q396 304 400.5 311.5Q405 319 405 330V395Q405 413 395.0 422.0Q385 431 368 431H96Q65 431 48.5 451.5Q32 472 32 508Q32 521 35.5 541.5Q39 562 44.5 585.0Q50 608 55.5 629.5Q61 651 65.5 667.5Q70 684 72 690Q75 700 73.0 704.5Q71 709 65 710L39 714Q22 718 15.5 731.5Q9 745 9 769Q9 795 19.5 820.5Q30 846 36 858H56V850Q56 836 61.5 829.5Q67 823 82 820L115 815Q136 812 143.5 791.0Q151 770 141 735L112 624Q108 609 114.0 600.5Q120 592 138 592H371Q406 592 427.0 578.5Q448 565 457.5 540.5Q467 516 467 481V333Q467 308 460.0 289.5Q453 271 433 253L290 130Q275 117 270.5 106.0Q266 95 266 76V42Q266 15 256.5 4.0Q247 -7 227 -7Z" fill="black" />
  </g>
</svg>