<svg xmlns="http://www.w3.org/2000/svg"
     width="1252" height="1252" viewBox="0 0 1252 1252">
  <g transform="translate(250.096,845.000) scale(1.174652,-1.174652)">
    <path d="M52 -280 
      81 204
      Q89 260 103.0 299.5
      Q117 339 131.0 364.0
      Q145 389 151 401
      Q156 409 158.0 414.5
      Q160 420 160 422
      Q160 431 142 431
      H107
      Q68 431 51.5 451.5
      Q35 472 35 524
      Q35 549 39.0 574.0
      Q43 599 54 647
      H89
      V633
      Q89 613 101.5 602.5
      Q114 592 137 592
      H155
      Q189 592 202.5 576.5
      Q216 561 216 520
      V496
      L218 495
      L312 598
      H330
      Q422 598 479.0 564.0
      Q536 530 562.0 460.5
      Q588 391 588 284
      Q588 258 586.5 231.5
      Q585 205 581.0 173.5
      Q577 142 570.0 100.0
      Q563 58 553 0
      H241
      L265 161
      H477
      Q493 161 501.5 165.5
      Q510 170 515 184
      Q522 198 524.5 218.0
      Q527 238 527 263
      Q527 312 516.5 348.5
      Q506 385 486.5 408.5
      Q467 432 439.0 443.5
      Q411 455 375 455
      Q326 455 287.0 436.5
      Q248 418 219.0 385.5
      Q190 353 172.0 310.5
      Q154 268 147 219
      L115 -280Z" fill="black"/>
  </g>
</svg>
