<svg xmlns="http://www.w3.org/2000/svg" width="1252.0" height="1252.0" viewBox="-126.0 -92.0 1252.0 1252.0">
  <g id="decorations"><path d="M 294.5 203.4 L 302.2 200.7 L 309.6 197.9 L 316.8 194.9 L 323.8 191.8 L 330.5 188.4 L 337.0 185.0 L 343.3 181.3 L 349.4 177.5 L 355.2 173.6 L 360.9 169.5 L 366.2 165.3 L 371.3 161.0 L 376.2 156.4 L 380.8 151.8 L 385.1 147.1 L 389.2 142.2 L 393.1 137.3 L 396.7 132.2 L 400.1 127.1 L 403.2 121.9 L 406.0 116.6 L 408.6 111.2 L 410.9 105.8 L 413.0 100.4 L 414.8 94.8 L 416.3 89.3 L 417.6 83.7 L 418.5 78.1 L 419.2 72.4 L 419.7 66.8 L 419.8 61.1 L 419.7 55.5 L 419.3 49.8 L 418.6 44.2 L 417.6 38.6 L 416.4 33.1 L 414.8 27.6 L 413.0 22.2 L 410.9 16.8 L 408.5 11.5 L 405.9 6.3 L 402.9 1.2 L 399.7 -3.8 L 396.3 -8.7 L 392.5 -13.5 L 388.5 -18.1 L 384.2 -22.7 L 379.7 -27.1 L 374.9 -31.3 L 369.9 -35.4 L 364.5 -39.4 L 359.0 -43.2 L 353.2 -46.9 L 347.1 -50.3 L 340.7 -53.6 L 334.2 -56.8 L 327.3 -59.7 L 320.3 -62.5 L 313.0 -65.0 L 305.4 -67.4 L 297.6 -69.6 L 289.5 -71.5 L 281.2 -73.3 L 283.1 -73.7 L 257.4 -47.0 L 275.4 -44.4 L 282.9 -42.8 L 290.0 -41.0 L 296.9 -39.0 L 303.5 -36.9 L 309.9 -34.6 L 316.0 -32.2 L 321.8 -29.6 L 327.4 -26.9 L 332.7 -24.1 L 337.7 -21.2 L 342.5 -18.2 L 347.1 -15.0 L 351.4 -11.8 L 355.5 -8.5 L 359.3 -5.1 L 362.9 -1.6 L 366.2 1.9 L 369.3 5.6 L 372.2 9.2 L 374.9 13.0 L 377.3 16.8 L 379.5 20.6 L 381.5 24.5 L 383.2 28.5 L 384.8 32.4 L 386.1 36.4 L 387.3 40.5 L 388.2 44.5 L 388.9 48.6 L 389.4 52.8 L 389.7 56.9 L 389.8 61.1 L 389.7 65.2 L 389.4 69.4 L 388.9 73.6 L 388.1 77.8 L 387.2 82.0 L 386.0 86.2 L 384.7 90.4 L 383.1 94.6 L 381.3 98.8 L 379.3 103.0 L 377.1 107.1 L 374.6 111.2 L 372.0 115.3 L 369.1 119.3 L 366.0 123.3 L 362.6 127.2 L 359.1 131.1 L 355.3 134.9 L 351.3 138.6 L 347.1 142.3 L 342.7 146.0 L 338.0 149.5 L 333.1 153.0 L 328.0 156.4 L 322.6 159.6 L 317.0 162.8 L 311.2 165.8 L 305.1 168.7 L 298.8 171.5 L 292.3 174.1 L 285.5 176.6 Z" fill="purple" stroke="none" /></g><g transform="translate(134.096,880.000) scale(1.174652,-1.174652)">
    <path d="M52 0 81 204Q89 260 103.0 299.5Q117 339 131.0 364.0Q145 389 151 401Q156 409 158.0 414.5Q160 420 160 422Q160 431 142 431H107Q68 431 51.5 451.5Q35 472 35 524Q35 549 39.0 574.0Q43 599 54 647H89V633Q89 613 101.5 602.5Q114 592 137 592H155Q189 592 202.5 576.5Q216 561 216 520V496L218 495L312 598H330Q422 598 479.0 564.0Q536 530 562.0 460.5Q588 391 588 284Q588 258 586.5 231.5Q585 205 581.0 173.5Q577 142 570.0 100.0Q563 58 553 0H241L265 161H477Q493 161 501.5 165.5Q510 170 515 184Q522 198 524.5 218.0Q527 238 527 263Q527 312 516.5 348.5Q506 385 486.5 408.5Q467 432 439.0 443.5Q411 455 375 455Q326 455 287.0 436.5Q248 418 219.0 385.5Q190 353 172.0 310.5Q154 268 147 219L115 0Z" fill="black" />
  </g>
</svg>