<svg xmlns="http://www.w3.org/2000/svg" width="1253.0" height="1253.0" viewBox="-126.5 -94.0 1253.0 1253.0">
  <g id="decorations"><polygon points="265.0,186.0 295.0,186.0 290.7,-64.0 265.3,-59.0" fill="purple" /><polygon points="705.0,306.0 735.0,306.0 730.7,-64.0 705.3,-59.0" fill="purple" /></g><g transform="translate(162.875,880.000) scale(1.174652,-1.174652)">
    <path d="M106 0Q81 0 66.0 20.0Q51 40 51 86V265Q51 303 59.5 332.5Q68 362 82.5 385.5Q97 409 114 429V470H177V431Q158 417 143.5 393.0Q129 369 121.5 337.5Q114 306 114 271V161H424Q442 161 450.5 168.0Q459 175 462.0 185.0Q465 195 465 204V358Q465 400 446.5 415.5Q428 431 400 431H119Q82 431 64.5 451.5Q47 472 47 520Q47 539 49.0 555.5Q51 572 55.5 593.5Q60 615 67 647H102V633Q102 613 114.0 602.5Q126 592 150 592H403Q448 592 475.0 572.5Q502 553 514.5 518.0Q527 483 527 436V90Q527 49 507.0 24.5Q487 0 453 0Z" fill="black" />
  </g>
</svg>