<svg xmlns="http://www.w3.org/2000/svg" width="1245.0" height="1245.0" viewBox="-122.5 -95.0 1245.0 1245.0">
  <g id="decorations"><polygon points="440.0,185.0 470.0,185.0 465.7,-65.0 440.3,-60.0" fill="purple" /><g><path d="M 341.8 858.5 L 335.7 863.0 L 329.8 867.6 L 324.2 872.4 L 318.8 877.2 L 313.7 882.2 L 308.9 887.4 L 304.4 892.6 L 300.0 897.9 L 296.0 903.3 L 292.2 908.8 L 288.6 914.4 L 285.4 920.1 L 282.4 925.8 L 279.7 931.6 L 277.2 937.4 L 275.0 943.3 L 273.1 949.1 L 271.4 955.0 L 269.9 960.9 L 268.7 966.8 L 267.7 972.7 L 267.0 978.6 L 266.5 984.4 L 266.2 990.2 L 266.2 996.0 L 266.4 1001.7 L 266.9 1007.4 L 267.5 1013.0 L 268.5 1018.6 L 269.6 1024.0 L 271.0 1029.4 L 272.6 1034.7 L 274.4 1039.9 L 276.5 1044.9 L 278.8 1049.9 L 281.3 1054.7 L 284.1 1059.3 L 287.0 1063.9 L 290.2 1068.2 L 293.7 1072.4 L 297.3 1076.4 L 301.2 1080.3 L 305.3 1083.9 L 309.5 1087.3 L 314.0 1090.4 L 318.7 1093.4 L 323.6 1096.1 L 328.7 1098.5 L 333.9 1100.6 L 339.4 1102.5 L 345.0 1104.1 L 350.7 1105.4 L 356.6 1106.4 L 362.7 1107.1 L 368.9 1107.5 L 375.2 1107.5 L 381.7 1107.2 L 388.2 1106.6 L 394.9 1105.7 L 401.7 1104.5 L 408.6 1102.9 L 415.6 1100.9 L 422.7 1098.7 L 420.3 1099.3 L 429.2 1065.3 L 413.3 1070.8 L 407.3 1072.6 L 401.5 1074.2 L 395.8 1075.4 L 390.3 1076.4 L 385.0 1077.1 L 379.8 1077.5 L 374.8 1077.7 L 370.0 1077.6 L 365.3 1077.3 L 360.9 1076.7 L 356.6 1076.0 L 352.4 1075.1 L 348.4 1073.9 L 344.6 1072.6 L 340.9 1071.1 L 337.3 1069.4 L 333.9 1067.5 L 330.6 1065.5 L 327.5 1063.2 L 324.5 1060.9 L 321.7 1058.4 L 319.0 1055.7 L 316.4 1052.8 L 314.0 1049.9 L 311.7 1046.8 L 309.5 1043.5 L 307.5 1040.1 L 305.7 1036.6 L 304.0 1032.9 L 302.5 1029.2 L 301.1 1025.3 L 299.9 1021.3 L 298.8 1017.2 L 297.9 1013.0 L 297.2 1008.8 L 296.7 1004.4 L 296.4 1000.0 L 296.2 995.5 L 296.2 991.0 L 296.4 986.4 L 296.8 981.7 L 297.4 977.0 L 298.2 972.3 L 299.2 967.6 L 300.3 962.8 L 301.7 958.1 L 303.3 953.3 L 305.1 948.5 L 307.1 943.8 L 309.3 939.1 L 311.8 934.3 L 314.4 929.6 L 317.2 925.0 L 320.2 920.3 L 323.5 915.7 L 327.0 911.2 L 330.7 906.7 L 334.7 902.3 L 338.9 897.9 L 343.3 893.7 L 348.0 889.5 L 353.0 885.4 L 358.2 881.5 Z" fill="purple" stroke="none" /><path d="M 421.6 1099.3 L 428.5 1095.4 L 435.1 1091.4 L 441.3 1087.2 L 447.2 1082.9 L 452.7 1078.5 L 457.9 1074.0 L 462.8 1069.4 L 467.3 1064.8 L 471.5 1060.0 L 475.4 1055.2 L 479.0 1050.3 L 482.3 1045.3 L 485.1 1040.3 L 487.7 1035.2 L 489.9 1030.1 L 491.9 1025.0 L 493.5 1019.9 L 494.9 1014.8 L 495.9 1009.7 L 496.6 1004.7 L 497.1 999.7 L 497.2 994.7 L 497.1 989.8 L 496.6 985.0 L 495.9 980.3 L 495.0 975.7 L 493.7 971.1 L 492.2 966.7 L 490.5 962.5 L 488.5 958.4 L 486.2 954.4 L 483.7 950.6 L 480.9 947.0 L 477.9 943.6 L 474.7 940.4 L 471.3 937.5 L 467.6 934.8 L 463.8 932.3 L 459.8 930.1 L 455.5 928.2 L 451.2 926.6 L 446.7 925.3 L 442.0 924.4 L 437.2 923.7 L 432.4 923.4 L 427.4 923.5 L 422.4 923.9 L 417.4 924.6 L 412.2 925.7 L 407.1 927.2 L 401.9 929.0 L 396.8 931.2 L 391.6 933.7 L 386.4 936.6 L 381.2 939.9 L 376.1 943.5 L 370.9 947.5 L 365.8 951.8 L 360.7 956.6 L 355.6 961.7 L 350.5 967.2 L 345.5 973.1 L 340.5 979.5 L 341.4 979.2 L 353.5 1010.3 L 363.9 997.4 L 368.3 991.9 L 372.6 986.9 L 377.0 982.2 L 381.2 978.0 L 385.5 974.1 L 389.6 970.6 L 393.7 967.5 L 397.7 964.8 L 401.6 962.4 L 405.4 960.3 L 409.1 958.5 L 412.7 957.0 L 416.1 955.8 L 419.5 954.8 L 422.7 954.2 L 425.8 953.7 L 428.8 953.5 L 431.6 953.4 L 434.4 953.6 L 437.0 954.0 L 439.5 954.5 L 441.9 955.2 L 444.2 956.0 L 446.4 957.0 L 448.6 958.2 L 450.6 959.4 L 452.5 960.9 L 454.3 962.5 L 456.1 964.2 L 457.7 966.1 L 459.2 968.0 L 460.7 970.2 L 462.0 972.4 L 463.1 974.8 L 464.2 977.3 L 465.1 980.0 L 465.8 982.7 L 466.4 985.5 L 466.8 988.5 L 467.1 991.5 L 467.2 994.7 L 467.1 997.9 L 466.8 1001.2 L 466.3 1004.6 L 465.6 1008.0 L 464.7 1011.5 L 463.6 1015.1 L 462.2 1018.7 L 460.6 1022.4 L 458.7 1026.0 L 456.6 1029.8 L 454.2 1033.5 L 451.6 1037.3 L 448.7 1041.2 L 445.5 1045.0 L 442.0 1048.8 L 438.1 1052.6 L 434.0 1056.4 L 429.5 1060.2 L 424.6 1063.9 L 419.4 1067.5 L 413.9 1071.1 L 407.9 1074.6 Z" fill="purple" stroke="none" /></g></g><g transform="translate(299.722,880.000) scale(1.174652,-1.174652)">
    <path d="M16 0 57 161H221Q238 161 247.0 165.0Q256 169 260.0 180.0Q264 191 264 210V368Q264 403 253.5 417.0Q243 431 216 431H157Q120 431 102.5 451.0Q85 471 85 519Q85 539 86.5 555.5Q88 572 93.0 593.5Q98 615 105 647H140V633Q140 613 152.0 602.5Q164 592 188 592H224Q263 592 285.0 577.5Q307 563 316.0 534.5Q325 506 325 461V159Q325 107 315.0 71.5Q305 36 280.0 18.0Q255 0 211 0Z" fill="black" />
  </g>
</svg>