<svg xmlns="http://www.w3.org/2000/svg" width="1238.0" height="1238.0" viewBox="-119.0 -88.0 1238.0 1238.0" version="1.1" id="svg1">
  <g id="decorations"><polygon points="685.0,192.0 715.0,192.0 710.7,-58.0 685.3,-53.0" fill="purple" /><polygon points="735.0,192.0 765.0,192.0 760.7,-58.0 735.3,-53.0" fill="purple" /><polygon points="785.0,192.0 815.0,192.0 810.7,-58.0 785.3,-53.0" fill="purple" /><g><path d="M 341.8 858.5 L 335.7 863.0 L 329.8 867.6 L 324.2 872.4 L 318.8 877.2 L 313.7 882.2 L 308.9 887.4 L 304.4 892.6 L 300.0 897.9 L 296.0 903.3 L 292.2 908.8 L 288.6 914.4 L 285.4 920.1 L 282.4 925.8 L 279.7 931.6 L 277.2 937.4 L 275.0 943.3 L 273.1 949.1 L 271.4 955.0 L 269.9 960.9 L 268.7 966.8 L 267.7 972.7 L 267.0 978.6 L 266.5 984.4 L 266.2 990.2 L 266.2 996.0 L 266.4 1001.7 L 266.9 1007.4 L 267.5 1013.0 L 268.5 1018.6 L 269.6 1024.0 L 271.0 1029.4 L 272.6 1034.7 L 274.4 1039.9 L 276.5 1044.9 L 278.8 1049.9 L 281.3 1054.7 L 284.1 1059.3 L 287.0 1063.9 L 290.2 1068.2 L 293.7 1072.4 L 297.3 1076.4 L 301.2 1080.3 L 305.3 1083.9 L 309.5 1087.3 L 314.0 1090.4 L 318.7 1093.4 L 323.6 1096.1 L 328.7 1098.5 L 333.9 1100.6 L 339.4 1102.5 L 345.0 1104.1 L 350.7 1105.4 L 356.6 1106.4 L 362.7 1107.1 L 368.9 1107.5 L 375.2 1107.5 L 381.7 1107.2 L 388.2 1106.6 L 394.9 1105.7 L 401.7 1104.5 L 408.6 1102.9 L 415.6 1100.9 L 422.7 1098.7 L 420.3 1099.3 L 429.2 1065.3 L 413.3 1070.8 L 407.3 1072.6 L 401.5 1074.2 L 395.8 1075.4 L 390.3 1076.4 L 385.0 1077.1 L 379.8 1077.5 L 374.8 1077.7 L 370.0 1077.6 L 365.3 1077.3 L 360.9 1076.7 L 356.6 1076.0 L 352.4 1075.1 L 348.4 1073.9 L 344.6 1072.6 L 340.9 1071.1 L 337.3 1069.4 L 333.9 1067.5 L 330.6 1065.5 L 327.5 1063.2 L 324.5 1060.9 L 321.7 1058.4 L 319.0 1055.7 L 316.4 1052.8 L 314.0 1049.9 L 311.7 1046.8 L 309.5 1043.5 L 307.5 1040.1 L 305.7 1036.6 L 304.0 1032.9 L 302.5 1029.2 L 301.1 1025.3 L 299.9 1021.3 L 298.8 1017.2 L 297.9 1013.0 L 297.2 1008.8 L 296.7 1004.4 L 296.4 1000.0 L 296.2 995.5 L 296.2 991.0 L 296.4 986.4 L 296.8 981.7 L 297.4 977.0 L 298.2 972.3 L 299.2 967.6 L 300.3 962.8 L 301.7 958.1 L 303.3 953.3 L 305.1 948.5 L 307.1 943.8 L 309.3 939.1 L 311.8 934.3 L 314.4 929.6 L 317.2 925.0 L 320.2 920.3 L 323.5 915.7 L 327.0 911.2 L 330.7 906.7 L 334.7 902.3 L 338.9 897.9 L 343.3 893.7 L 348.0 889.5 L 353.0 885.4 L 358.2 881.5 Z" fill="purple" stroke="none" /><path d="M 421.6 1099.3 L 428.5 1095.4 L 435.1 1091.4 L 441.3 1087.2 L 447.2 1082.9 L 452.7 1078.5 L 457.9 1074.0 L 462.8 1069.4 L 467.3 1064.8 L 471.5 1060.0 L 475.4 1055.2 L 479.0 1050.3 L 482.3 1045.3 L 485.1 1040.3 L 487.7 1035.2 L 489.9 1030.1 L 491.9 1025.0 L 493.5 1019.9 L 494.9 1014.8 L 495.9 1009.7 L 496.6 1004.7 L 497.1 999.7 L 497.2 994.7 L 497.1 989.8 L 496.6 985.0 L 495.9 980.3 L 495.0 975.7 L 493.7 971.1 L 492.2 966.7 L 490.5 962.5 L 488.5 958.4 L 486.2 954.4 L 483.7 950.6 L 480.9 947.0 L 477.9 943.6 L 474.7 940.4 L 471.3 937.5 L 467.6 934.8 L 463.8 932.3 L 459.8 930.1 L 455.5 928.2 L 451.2 926.6 L 446.7 925.3 L 442.0 924.4 L 437.2 923.7 L 432.4 923.4 L 427.4 923.5 L 422.4 923.9 L 417.4 924.6 L 412.2 925.7 L 407.1 927.2 L 401.9 929.0 L 396.8 931.2 L 391.6 933.7 L 386.4 936.6 L 381.2 939.9 L 376.1 943.5 L 370.9 947.5 L 365.8 951.8 L 360.7 956.6 L 355.6 961.7 L 350.5 967.2 L 345.5 973.1 L 340.5 979.5 L 341.4 979.2 L 353.5 1010.3 L 363.9 997.4 L 368.3 991.9 L 372.6 986.9 L 377.0 982.2 L 381.2 978.0 L 385.5 974.1 L 389.6 970.6 L 393.7 967.5 L 397.7 964.8 L 401.6 962.4 L 405.4 960.3 L 409.1 958.5 L 412.7 957.0 L 416.1 955.8 L 419.5 954.8 L 422.7 954.2 L 425.8 953.7 L 428.8 953.5 L 431.6 953.4 L 434.4 953.6 L 437.0 954.0 L 439.5 954.5 L 441.9 955.2 L 444.2 956.0 L 446.4 957.0 L 448.6 958.2 L 450.6 959.4 L 452.5 960.9 L 454.3 962.5 L 456.1 964.2 L 457.7 966.1 L 459.2 968.0 L 460.7 970.2 L 462.0 972.4 L 463.1 974.8 L 464.2 977.3 L 465.1 980.0 L 465.8 982.7 L 466.4 985.5 L 466.8 988.5 L 467.1 991.5 L 467.2 994.7 L 467.1 997.9 L 466.8 1001.2 L 466.3 1004.6 L 465.6 1008.0 L 464.7 1011.5 L 463.6 1015.1 L 462.2 1018.7 L 460.6 1022.4 L 458.7 1026.0 L 456.6 1029.8 L 454.2 1033.5 L 451.6 1037.3 L 448.7 1041.2 L 445.5 1045.0 L 442.0 1048.8 L 438.1 1052.6 L 434.0 1056.4 L 429.5 1060.2 L 424.6 1063.9 L 419.4 1067.5 L 413.9 1071.1 L 407.9 1074.6 Z" fill="purple" stroke="none" /></g></g><defs id="defs1" />
  <g transform="matrix(1.174652,0,0,-1.174652,299.722,880)" id="g1">
    <path d="m 16,0 41,161 h 164 c 11.33333,0 20,1.33333 26,4 6,2.66667 10.33333,7.66667 13,15 2.66667,7.33333 4,17.33333 4,30 v 158 c 0,23.33333 2.03889,79.33182 3.92909,90.84435 5.28908,32.21398 10.95545,58.08752 35.13518,97.48796 20.21138,32.93409 33.20284,48.91499 81.21084,43.38824 42.28718,-4.86817 12.97156,-12.61989 -20.21022,-44.97174 C 350.53406,541.55641 325,491 325,461 V 159 C 325,124.33333 321.66667,95.166667 315,71.5 308.33333,47.833333 296.66667,30 280,18 263.33333,6 240.33333,0 211,0 Z" fill="#000000" id="path1" />
  </g>
  <path d="m 751.46577,176.96228 c 16.73459,-3.68216 52.4583,11.92701 66.5646,18.05251 22.7641,9.88503 36.2952,16.37019 55.3435,32.09925 19.4737,16.08029 34.3484,37.97547 41.2759,61.12925 6.4879,21.68481 6.0599,35.2598 5.0203,51.10689 -1.3302,20.27545 -13.075,45.72933 -28.3682,59.20686 -9.6709,8.52274 -37.3936,22.46396 -54.0668,21.66359 -21.9266,-1.05251 -34.1175,-5.92392 -54.6517,-13.84904 -16.9231,-6.53096 -42.6884,-31.58537 -52.4676,-45.04366 -6.553,-9.01839 -7.3382,-47.46743 -0.8308,-58.3623 12.1923,-20.41243 11.4221,-23.7108 39.1735,-28.1015 13.0948,-2.07179 50.2602,6.56767 50.8845,20.60106 l 1.4218,31.96373 c 0,0 -33.0916,-32.49517 -50.3058,-13.24162 -6.7352,7.53313 -12.1342,31.78936 -9.0002,35.45726 8.2942,9.70703 22.8217,22.10635 35.5851,27.20603 15.1744,6.063 42.4774,11.08659 57.6198,4.77287 12.1502,-5.06612 22.4174,-20.6528 27.2624,-32.45758 5.2852,-12.8775 0.8545,-23.49959 -3.7983,-38.24963 -4.6857,-14.85451 -11.3019,-32.79226 -23.7127,-41.74143 -22.6477,-16.33082 -28.7157,-17.83771 -53.3177,-31.05663 -9.9049,-5.32199 -16.81646,-9.67895 -35.8882,-12.22551 -10.76742,-1.43772 -14.81061,-5.37503 -40.1214,3.74776 -11.04047,3.97933 15.66859,-50.32173 26.378,-52.67816 z" fill="#000000" stroke="none" id="path2" />
</svg>