<svg xmlns="http://www.w3.org/2000/svg" width="1245.0" height="1245.0" viewBox="-122.5 -95.0 1245.0 1245.0">
  <g id="decorations"><g><path d="M 464.2 174.3 L 459.3 169.9 L 454.8 165.4 L 450.4 160.8 L 446.4 156.2 L 442.5 151.5 L 439.0 146.8 L 435.7 142.0 L 432.6 137.1 L 429.7 132.3 L 427.1 127.4 L 424.7 122.5 L 422.5 117.6 L 420.5 112.7 L 418.7 107.8 L 417.1 102.9 L 415.7 98.0 L 414.6 93.1 L 413.6 88.2 L 412.9 83.4 L 412.3 78.6 L 411.9 73.8 L 411.7 69.1 L 411.8 64.4 L 412.0 59.8 L 412.3 55.3 L 412.9 50.8 L 413.6 46.5 L 414.5 42.2 L 415.6 38.0 L 416.9 33.9 L 418.3 29.9 L 419.8 26.0 L 421.5 22.3 L 423.4 18.7 L 425.4 15.2 L 427.5 11.8 L 429.8 8.6 L 432.2 5.6 L 434.8 2.7 L 437.5 -0.1 L 440.3 -2.7 L 443.2 -5.1 L 446.3 -7.4 L 449.4 -9.5 L 452.7 -11.4 L 456.2 -13.1 L 459.7 -14.7 L 463.4 -16.1 L 467.2 -17.3 L 471.2 -18.3 L 475.3 -19.1 L 479.5 -19.6 L 483.8 -20.0 L 488.4 -20.2 L 493.0 -20.1 L 497.8 -19.7 L 502.8 -19.1 L 507.9 -18.3 L 513.1 -17.1 L 518.5 -15.7 L 524.1 -13.9 L 529.8 -11.9 L 535.6 -9.5 L 532.0 -10.2 L 563.9 -29.8 L 547.4 -36.5 L 540.5 -39.3 L 533.7 -41.9 L 526.9 -44.1 L 520.3 -45.9 L 513.7 -47.4 L 507.2 -48.6 L 500.8 -49.4 L 494.5 -49.9 L 488.3 -50.1 L 482.2 -49.9 L 476.2 -49.5 L 470.4 -48.7 L 464.7 -47.6 L 459.1 -46.2 L 453.7 -44.5 L 448.4 -42.5 L 443.3 -40.2 L 438.4 -37.7 L 433.6 -35.0 L 429.1 -32.0 L 424.7 -28.7 L 420.5 -25.2 L 416.5 -21.6 L 412.8 -17.7 L 409.2 -13.6 L 405.8 -9.4 L 402.7 -5.0 L 399.7 -0.4 L 397.0 4.3 L 394.5 9.2 L 392.2 14.2 L 390.2 19.3 L 388.3 24.6 L 386.7 29.9 L 385.3 35.3 L 384.2 40.9 L 383.2 46.5 L 382.5 52.2 L 382.0 57.9 L 381.8 63.7 L 381.8 69.6 L 382.0 75.5 L 382.4 81.5 L 383.1 87.4 L 384.1 93.4 L 385.3 99.5 L 386.7 105.5 L 388.4 111.5 L 390.3 117.5 L 392.5 123.5 L 395.0 129.5 L 397.7 135.4 L 400.8 141.3 L 404.1 147.1 L 407.7 152.9 L 411.5 158.5 L 415.6 164.1 L 420.0 169.7 L 424.6 175.1 L 429.5 180.4 L 434.7 185.6 L 440.1 190.7 L 445.8 195.7 Z" fill="purple" stroke="none" /><path d="M 530.5 -13.8 L 536.1 -9.8 L 541.4 -5.7 L 546.2 -1.6 L 550.7 2.5 L 554.9 6.6 L 558.7 10.8 L 562.2 14.9 L 565.4 19.0 L 568.2 23.1 L 570.8 27.1 L 573.1 31.2 L 575.1 35.1 L 576.9 39.0 L 578.4 42.9 L 579.7 46.6 L 580.8 50.4 L 581.6 54.0 L 582.2 57.6 L 582.6 61.1 L 582.8 64.5 L 582.8 67.8 L 582.6 71.0 L 582.3 74.1 L 581.7 77.1 L 581.0 80.0 L 580.2 82.8 L 579.2 85.5 L 578.1 88.0 L 576.8 90.4 L 575.5 92.7 L 574.0 94.8 L 572.4 96.8 L 570.7 98.7 L 568.9 100.4 L 567.0 102.0 L 565.0 103.4 L 563.0 104.7 L 560.9 105.8 L 558.7 106.7 L 556.4 107.5 L 554.0 108.2 L 551.5 108.6 L 549.0 108.9 L 546.3 109.1 L 543.6 109.0 L 540.7 108.7 L 537.8 108.2 L 534.8 107.5 L 531.6 106.5 L 528.4 105.3 L 525.0 103.8 L 521.6 102.0 L 518.1 99.9 L 514.5 97.5 L 510.8 94.7 L 507.0 91.7 L 503.2 88.2 L 499.4 84.4 L 495.5 80.2 L 491.6 75.6 L 487.7 70.5 L 483.8 65.1 L 479.9 59.3 L 481.6 60.1 L 445.1 60.9 L 455.1 75.1 L 459.5 81.9 L 464.0 88.2 L 468.6 94.1 L 473.2 99.7 L 477.9 104.8 L 482.6 109.6 L 487.4 114.1 L 492.2 118.1 L 497.1 121.8 L 502.0 125.2 L 506.9 128.2 L 511.9 130.8 L 516.9 133.0 L 521.9 134.9 L 526.9 136.4 L 531.8 137.6 L 536.8 138.5 L 541.7 138.9 L 546.6 139.1 L 551.4 138.9 L 556.1 138.3 L 560.7 137.4 L 565.2 136.2 L 569.6 134.7 L 573.8 132.8 L 577.8 130.7 L 581.7 128.3 L 585.4 125.7 L 588.9 122.8 L 592.1 119.7 L 595.2 116.3 L 598.0 112.8 L 600.6 109.0 L 603.0 105.1 L 605.1 101.0 L 607.0 96.8 L 608.6 92.4 L 610.0 87.9 L 611.1 83.2 L 611.9 78.5 L 612.5 73.6 L 612.8 68.7 L 612.8 63.6 L 612.5 58.5 L 611.9 53.4 L 611.0 48.2 L 609.9 43.0 L 608.4 37.7 L 606.6 32.4 L 604.5 27.2 L 602.0 21.9 L 599.2 16.7 L 596.1 11.5 L 592.6 6.3 L 588.8 1.2 L 584.7 -3.9 L 580.3 -8.9 L 575.5 -13.8 L 570.3 -18.6 L 564.9 -23.4 L 559.0 -28.1 L 552.8 -32.7 L 546.3 -37.2 Z" fill="purple" stroke="none" /></g><g><path d="M 341.8 858.5 L 335.7 863.0 L 329.8 867.6 L 324.2 872.4 L 318.8 877.2 L 313.7 882.2 L 308.9 887.4 L 304.4 892.6 L 300.0 897.9 L 296.0 903.3 L 292.2 908.8 L 288.6 914.4 L 285.4 920.1 L 282.4 925.8 L 279.7 931.6 L 277.2 937.4 L 275.0 943.3 L 273.1 949.1 L 271.4 955.0 L 269.9 960.9 L 268.7 966.8 L 267.7 972.7 L 267.0 978.6 L 266.5 984.4 L 266.2 990.2 L 266.2 996.0 L 266.4 1001.7 L 266.9 1007.4 L 267.5 1013.0 L 268.5 1018.6 L 269.6 1024.0 L 271.0 1029.4 L 272.6 1034.7 L 274.4 1039.9 L 276.5 1044.9 L 278.8 1049.9 L 281.3 1054.7 L 284.1 1059.3 L 287.0 1063.9 L 290.2 1068.2 L 293.7 1072.4 L 297.3 1076.4 L 301.2 1080.3 L 305.3 1083.9 L 309.5 1087.3 L 314.0 1090.4 L 318.7 1093.4 L 323.6 1096.1 L 328.7 1098.5 L 333.9 1100.6 L 339.4 1102.5 L 345.0 1104.1 L 350.7 1105.4 L 356.6 1106.4 L 362.7 1107.1 L 368.9 1107.5 L 375.2 1107.5 L 381.7 1107.2 L 388.2 1106.6 L 394.9 1105.7 L 401.7 1104.5 L 408.6 1102.9 L 415.6 1100.9 L 422.7 1098.7 L 420.3 1099.3 L 429.2 1065.3 L 413.3 1070.8 L 407.3 1072.6 L 401.5 1074.2 L 395.8 1075.4 L 390.3 1076.4 L 385.0 1077.1 L 379.8 1077.5 L 374.8 1077.7 L 370.0 1077.6 L 365.3 1077.3 L 360.9 1076.7 L 356.6 1076.0 L 352.4 1075.1 L 348.4 1073.9 L 344.6 1072.6 L 340.9 1071.1 L 337.3 1069.4 L 333.9 1067.5 L 330.6 1065.5 L 327.5 1063.2 L 324.5 1060.9 L 321.7 1058.4 L 319.0 1055.7 L 316.4 1052.8 L 314.0 1049.9 L 311.7 1046.8 L 309.5 1043.5 L 307.5 1040.1 L 305.7 1036.6 L 304.0 1032.9 L 302.5 1029.2 L 301.1 1025.3 L 299.9 1021.3 L 298.8 1017.2 L 297.9 1013.0 L 297.2 1008.8 L 296.7 1004.4 L 296.4 1000.0 L 296.2 995.5 L 296.2 991.0 L 296.4 986.4 L 296.8 981.7 L 297.4 977.0 L 298.2 972.3 L 299.2 967.6 L 300.3 962.8 L 301.7 958.1 L 303.3 953.3 L 305.1 948.5 L 307.1 943.8 L 309.3 939.1 L 311.8 934.3 L 314.4 929.6 L 317.2 925.0 L 320.2 920.3 L 323.5 915.7 L 327.0 911.2 L 330.7 906.7 L 334.7 902.3 L 338.9 897.9 L 343.3 893.7 L 348.0 889.5 L 353.0 885.4 L 358.2 881.5 Z" fill="purple" stroke="none" /><path d="M 421.6 1099.3 L 428.5 1095.4 L 435.1 1091.4 L 441.3 1087.2 L 447.2 1082.9 L 452.7 1078.5 L 457.9 1074.0 L 462.8 1069.4 L 467.3 1064.8 L 471.5 1060.0 L 475.4 1055.2 L 479.0 1050.3 L 482.3 1045.3 L 485.1 1040.3 L 487.7 1035.2 L 489.9 1030.1 L 491.9 1025.0 L 493.5 1019.9 L 494.9 1014.8 L 495.9 1009.7 L 496.6 1004.7 L 497.1 999.7 L 497.2 994.7 L 497.1 989.8 L 496.6 985.0 L 495.9 980.3 L 495.0 975.7 L 493.7 971.1 L 492.2 966.7 L 490.5 962.5 L 488.5 958.4 L 486.2 954.4 L 483.7 950.6 L 480.9 947.0 L 477.9 943.6 L 474.7 940.4 L 471.3 937.5 L 467.6 934.8 L 463.8 932.3 L 459.8 930.1 L 455.5 928.2 L 451.2 926.6 L 446.7 925.3 L 442.0 924.4 L 437.2 923.7 L 432.4 923.4 L 427.4 923.5 L 422.4 923.9 L 417.4 924.6 L 412.2 925.7 L 407.1 927.2 L 401.9 929.0 L 396.8 931.2 L 391.6 933.7 L 386.4 936.6 L 381.2 939.9 L 376.1 943.5 L 370.9 947.5 L 365.8 951.8 L 360.7 956.6 L 355.6 961.7 L 350.5 967.2 L 345.5 973.1 L 340.5 979.5 L 341.4 979.2 L 353.5 1010.3 L 363.9 997.4 L 368.3 991.9 L 372.6 986.9 L 377.0 982.2 L 381.2 978.0 L 385.5 974.1 L 389.6 970.6 L 393.7 967.5 L 397.7 964.8 L 401.6 962.4 L 405.4 960.3 L 409.1 958.5 L 412.7 957.0 L 416.1 955.8 L 419.5 954.8 L 422.7 954.2 L 425.8 953.7 L 428.8 953.5 L 431.6 953.4 L 434.4 953.6 L 437.0 954.0 L 439.5 954.5 L 441.9 955.2 L 444.2 956.0 L 446.4 957.0 L 448.6 958.2 L 450.6 959.4 L 452.5 960.9 L 454.3 962.5 L 456.1 964.2 L 457.7 966.1 L 459.2 968.0 L 460.7 970.2 L 462.0 972.4 L 463.1 974.8 L 464.2 977.3 L 465.1 980.0 L 465.8 982.7 L 466.4 985.5 L 466.8 988.5 L 467.1 991.5 L 467.2 994.7 L 467.1 997.9 L 466.8 1001.2 L 466.3 1004.6 L 465.6 1008.0 L 464.7 1011.5 L 463.6 1015.1 L 462.2 1018.7 L 460.6 1022.4 L 458.7 1026.0 L 456.6 1029.8 L 454.2 1033.5 L 451.6 1037.3 L 448.7 1041.2 L 445.5 1045.0 L 442.0 1048.8 L 438.1 1052.6 L 434.0 1056.4 L 429.5 1060.2 L 424.6 1063.9 L 419.4 1067.5 L 413.9 1071.1 L 407.9 1074.6 Z" fill="purple" stroke="none" /></g></g><g transform="translate(299.722,880.000) scale(1.174652,-1.174652)">
    <path d="M16 0 57 161H221Q238 161 247.0 165.0Q256 169 260.0 180.0Q264 191 264 210V368Q264 403 253.5 417.0Q243 431 216 431H157Q120 431 102.5 451.0Q85 471 85 519Q85 539 86.5 555.5Q88 572 93.0 593.5Q98 615 105 647H140V633Q140 613 152.0 602.5Q164 592 188 592H224Q263 592 285.0 577.5Q307 563 316.0 534.5Q325 506 325 461V159Q325 107 315.0 71.5Q305 36 280.0 18.0Q255 0 211 0Z" fill="black" />
  </g>
</svg>