<svg xmlns="http://www.w3.org/2000/svg" width="1245.0" height="1245.0" viewBox="-122.5 -95.0 1245.0 1245.0" version="1.1" id="svg1">
  <g id="decorations"><polygon points="440.0,185.0 470.0,185.0 465.7,-65.0 440.3,-60.0" fill="purple" /><polygon points="490.0,185.0 520.0,185.0 515.7,-65.0 490.3,-60.0" fill="purple" /><polygon points="540.0,185.0 570.0,185.0 565.7,-65.0 540.3,-60.0" fill="purple" /></g><defs id="defs1" />
  <g transform="matrix(-1.174652,0,0,-1.174652,700.27833,880)" id="g1">
    <path d="m 16,0 41,161 h 164 q 17,0 26,4 9,4 13,15 4,11 4,30 v 158 q 0,35 -10.5,49 -10.5,14 -37.5,14 h -59 q -37,0 -54.5,20 -17.5,20 -17.5,68 0,20 1.5,36.5 1.5,16.5 6.5,38 5,21.5 12,53.5 h 35 v -14 q 0,-20 12,-30.5 12,-10.5 36,-10.5 h 36 q 39,0 61,-14.5 22,-14.5 31,-43 9,-28.5 9,-73.5 V 159 Q 325,107 315,71.5 305,36 280,18 255,0 211,0 Z" fill="#000000" id="path1" />
  </g>
</svg>