<svg xmlns="http://www.w3.org/2000/svg" width="1375.0" height="1375.0" viewBox="-87.5 -175.0 1375.0 1375.0">
  <g id="decorations"><polygon points="540.0,105.0 570.0,105.0 565.7,-145.0 540.3,-140.0" fill="purple" /><polygon points="590.0,105.0 620.0,105.0 615.7,-145.0 590.3,-140.0" fill="purple" /><polygon points="640.0,105.0 670.0,105.0 665.7,-145.0 640.3,-140.0" fill="purple" /></g><g transform="translate(399.722,800.000) scale(1.174652,-1.174652)">
    <path d="M16 -300        57 -139       H221       Q238 -139 247.0 -135.0       Q256 -131 260.0 -120.0       Q264 -109 264 -90       V368       Q264 403 253.5 417.0       Q243 431 216 431       H157       Q120 431 102.5 451.0       Q85 471 85 519       Q85 539 86.5 555.5       Q88 572 93.0 593.5       Q98 615 105 647       H140V633       Q140 613 152.0 602.5       Q164 592 188 592       H224       Q263 592 285.0 577.5       Q307 563 316.0 534.5       Q325 506 325 461       V-141       Q325 -193 315.0 -228.5       Q305 -264 280.0 -282.0       Q255 -300 211 -300       L-54 -300Z" fill="black" />
  </g>
</svg>