<svg xmlns="http://www.w3.org/2000/svg" width="1238.0" height="1238.0" viewBox="-119.0 -88.0 1238.0 1238.0" version="1.1" id="svg1">
  <g id="decorations"><polygon points="685.0,192.0 715.0,192.0 710.7,-58.0 685.3,-53.0" fill="purple" /><polygon points="735.0,192.0 765.0,192.0 760.7,-58.0 735.3,-53.0" fill="purple" /><polygon points="785.0,192.0 815.0,192.0 810.7,-58.0 785.3,-53.0" fill="purple" /></g><defs id="defs1" />
  <g transform="matrix(1.174652,0,0,-1.174652,299.722,880)" id="g1">
    <path d="m 16,0 41,161 h 164 c 11.33333,0 20,1.33333 26,4 6,2.66667 10.33333,7.66667 13,15 2.66667,7.33333 4,17.33333 4,30 v 158 c 0,23.33333 2.03889,79.33182 3.92909,90.84435 5.28908,32.21398 10.95545,58.08752 35.13518,97.48796 20.21138,32.93409 33.20284,48.91499 81.21084,43.38824 42.28718,-4.86817 12.97156,-12.61989 -20.21022,-44.97174 C 350.53406,541.55641 325,491 325,461 V 159 C 325,124.33333 321.66667,95.166667 315,71.5 308.33333,47.833333 296.66667,30 280,18 263.33333,6 240.33333,0 211,0 Z" fill="#000000" id="path1" />
  </g>
  <path d="m 751.46577,176.96228 c 16.73459,-3.68216 52.4583,11.92701 66.5646,18.05251 22.7641,9.88503 36.2952,16.37019 55.3435,32.09925 19.4737,16.08029 34.3484,37.97547 41.2759,61.12925 6.4879,21.68481 6.0599,35.2598 5.0203,51.10689 -1.3302,20.27545 -13.075,45.72933 -28.3682,59.20686 -9.6709,8.52274 -37.3936,22.46396 -54.0668,21.66359 -21.9266,-1.05251 -34.1175,-5.92392 -54.6517,-13.84904 -16.9231,-6.53096 -42.6884,-31.58537 -52.4676,-45.04366 -6.553,-9.01839 -7.3382,-47.46743 -0.8308,-58.3623 12.1923,-20.41243 11.4221,-23.7108 39.1735,-28.1015 13.0948,-2.07179 50.2602,6.56767 50.8845,20.60106 l 1.4218,31.96373 c 0,0 -33.0916,-32.49517 -50.3058,-13.24162 -6.7352,7.53313 -12.1342,31.78936 -9.0002,35.45726 8.2942,9.70703 22.8217,22.10635 35.5851,27.20603 15.1744,6.063 42.4774,11.08659 57.6198,4.77287 12.1502,-5.06612 22.4174,-20.6528 27.2624,-32.45758 5.2852,-12.8775 0.8545,-23.49959 -3.7983,-38.24963 -4.6857,-14.85451 -11.3019,-32.79226 -23.7127,-41.74143 -22.6477,-16.33082 -28.7157,-17.83771 -53.3177,-31.05663 -9.9049,-5.32199 -16.81646,-9.67895 -35.8882,-12.22551 -10.76742,-1.43772 -14.81061,-5.37503 -40.1214,3.74776 -11.04047,3.97933 15.66859,-50.32173 26.378,-52.67816 z" fill="#000000" stroke="none" id="path2" />
</svg>