<svg xmlns="http://www.w3.org/2000/svg" width="1245.0" height="1245.0" viewBox="-122.5 -95.0 1245.0 1245.0">
  <g id="decorations"><path d="M 345.9 846.5 L 338.2 848.9 L 330.7 851.4 L 323.4 854.2 L 316.3 857.1 L 309.5 860.1 L 302.8 863.4 L 296.4 866.8 L 290.2 870.4 L 284.2 874.1 L 278.5 878.0 L 273.0 882.0 L 267.7 886.2 L 262.7 890.5 L 257.9 895.0 L 253.4 899.6 L 249.1 904.3 L 245.1 909.1 L 241.3 914.0 L 237.8 919.0 L 234.5 924.1 L 231.5 929.3 L 228.7 934.6 L 226.2 939.9 L 224.0 945.3 L 222.0 950.8 L 220.3 956.3 L 218.8 961.8 L 217.6 967.4 L 216.7 973.0 L 216.1 978.6 L 215.8 984.3 L 215.7 989.9 L 215.9 995.6 L 216.4 1001.2 L 217.2 1006.8 L 218.2 1012.4 L 219.6 1017.9 L 221.2 1023.4 L 223.1 1028.8 L 225.3 1034.2 L 227.8 1039.5 L 230.5 1044.7 L 233.6 1049.8 L 236.9 1054.8 L 240.4 1059.8 L 244.3 1064.6 L 248.4 1069.2 L 252.8 1073.8 L 257.4 1078.2 L 262.3 1082.5 L 267.5 1086.7 L 272.9 1090.7 L 278.6 1094.5 L 284.6 1098.2 L 290.8 1101.7 L 297.2 1105.1 L 304.0 1108.2 L 310.9 1111.2 L 318.2 1114.1 L 325.6 1116.7 L 333.4 1119.1 L 341.3 1121.4 L 349.6 1123.5 L 347.7 1123.9 L 374.3 1097.9 L 356.4 1094.8 L 349.0 1092.9 L 341.9 1090.9 L 335.1 1088.6 L 328.6 1086.3 L 322.3 1083.8 L 316.3 1081.2 L 310.6 1078.4 L 305.1 1075.5 L 299.9 1072.5 L 294.9 1069.4 L 290.2 1066.2 L 285.8 1062.9 L 281.6 1059.5 L 277.6 1056.1 L 273.9 1052.6 L 270.5 1048.9 L 267.3 1045.3 L 264.3 1041.6 L 261.5 1037.8 L 259.0 1033.9 L 256.7 1030.1 L 254.7 1026.1 L 252.8 1022.2 L 251.2 1018.2 L 249.8 1014.2 L 248.6 1010.1 L 247.6 1006.0 L 246.8 1001.9 L 246.2 997.8 L 245.9 993.7 L 245.7 989.5 L 245.7 985.4 L 246.0 981.2 L 246.5 977.0 L 247.1 972.9 L 248.0 968.7 L 249.1 964.5 L 250.4 960.3 L 251.9 956.2 L 253.6 952.1 L 255.6 948.0 L 257.7 943.9 L 260.1 939.8 L 262.7 935.8 L 265.5 931.8 L 268.5 927.9 L 271.7 924.0 L 275.2 920.2 L 278.9 916.5 L 282.8 912.8 L 286.9 909.2 L 291.3 905.7 L 295.8 902.2 L 300.6 898.8 L 305.6 895.5 L 310.9 892.3 L 316.3 889.2 L 322.0 886.3 L 328.0 883.4 L 334.1 880.7 L 340.6 878.2 L 347.2 875.8 L 354.1 873.5 Z" fill="purple" stroke="none" /></g><g transform="translate(299.722,880.000) scale(1.174652,-1.174652)">
    <path d="M16 0 57 161H221Q238 161 247.0 165.0Q256 169 260.0 180.0Q264 191 264 210V368Q264 403 253.5 417.0Q243 431 216 431H157Q120 431 102.5 451.0Q85 471 85 519Q85 539 86.5 555.5Q88 572 93.0 593.5Q98 615 105 647H140V633Q140 613 152.0 602.5Q164 592 188 592H224Q263 592 285.0 577.5Q307 563 316.0 534.5Q325 506 325 461V159Q325 107 315.0 71.5Q305 36 280.0 18.0Q255 0 211 0Z" fill="black" />
  </g>
</svg>