<svg xmlns="http://www.w3.org/2000/svg" width="1235.0" height="1235.0" viewBox="-117.5 -95.0 1235.0 1235.0">
  <g id="decorations"><polygon points="415.0,185.0 445.0,185.0 440.7,-65.0 415.3,-60.0" fill="purple" /><polygon points="465.0,185.0 495.0,185.0 490.7,-65.0 465.3,-60.0" fill="purple" /><polygon points="515.0,185.0 545.0,185.0 540.7,-65.0 515.3,-60.0" fill="purple" /><path d="M 582.4 181.8 L 586.0 175.5 L 589.7 169.5 L 593.6 163.8 L 597.5 158.3 L 601.5 153.1 L 605.6 148.1 L 609.7 143.4 L 613.9 139.0 L 618.2 134.8 L 622.5 130.8 L 626.9 127.1 L 631.2 123.6 L 635.6 120.3 L 640.0 117.2 L 644.5 114.4 L 648.9 111.8 L 653.4 109.4 L 657.8 107.3 L 662.3 105.3 L 666.8 103.6 L 671.2 102.2 L 675.7 100.9 L 680.1 99.9 L 684.5 99.0 L 688.9 98.4 L 693.2 98.0 L 697.5 97.8 L 701.8 97.8 L 706.0 98.1 L 710.2 98.5 L 714.3 99.1 L 718.4 99.9 L 722.4 100.9 L 726.4 102.1 L 730.3 103.6 L 734.2 105.2 L 737.9 107.0 L 741.6 109.0 L 745.3 111.2 L 748.9 113.7 L 752.3 116.3 L 755.7 119.1 L 759.1 122.2 L 762.3 125.4 L 765.4 128.9 L 768.4 132.6 L 771.4 136.5 L 774.2 140.6 L 776.8 145.0 L 779.4 149.6 L 781.8 154.4 L 784.1 159.4 L 786.3 164.7 L 788.3 170.2 L 790.1 175.9 L 791.8 181.8 L 793.3 188.0 L 794.7 194.4 L 795.8 201.1 L 796.7 208.0 L 797.5 215.1 L 798.0 222.5 L 798.3 230.0 L 798.2 229.5 L 828.1 246.4 L 827.8 229.4 L 827.5 220.9 L 826.9 212.6 L 826.2 204.5 L 825.1 196.7 L 823.9 189.0 L 822.4 181.6 L 820.7 174.3 L 818.7 167.3 L 816.6 160.5 L 814.2 153.9 L 811.7 147.6 L 808.9 141.4 L 805.9 135.5 L 802.7 129.8 L 799.3 124.3 L 795.8 119.1 L 792.1 114.1 L 788.2 109.4 L 784.1 104.8 L 779.9 100.6 L 775.5 96.6 L 771.0 92.8 L 766.3 89.3 L 761.5 86.0 L 756.6 83.0 L 751.6 80.3 L 746.5 77.8 L 741.2 75.6 L 735.9 73.7 L 730.5 72.0 L 725.0 70.6 L 719.5 69.5 L 713.9 68.7 L 708.2 68.1 L 702.6 67.9 L 696.9 67.8 L 691.1 68.1 L 685.4 68.6 L 679.6 69.4 L 673.9 70.5 L 668.2 71.9 L 662.4 73.5 L 656.7 75.4 L 651.1 77.5 L 645.4 79.9 L 639.8 82.6 L 634.3 85.6 L 628.8 88.8 L 623.4 92.2 L 618.0 96.0 L 612.7 99.9 L 607.5 104.2 L 602.5 108.8 L 597.5 113.6 L 592.6 118.7 L 587.8 124.0 L 583.1 129.5 L 578.6 135.4 L 574.1 141.4 L 569.8 147.8 L 565.6 154.3 L 561.6 161.2 L 557.6 168.2 Z" fill="purple" stroke="none" /></g><g transform="translate(398.467,674.363) scale(0.856821,-0.856821)">
    <path d="M140 -240V273Q140 326 145.5 362.0Q151 398 161 428V431H83Q44 431 27.0 451.5Q10 472 10 523Q10 541 12.0 556.5Q14 572 18.5 593.5Q23 615 30 647H65V633Q65 613 77.0 602.5Q89 592 113 592H192Q211 592 219.0 583.5Q227 575 227 553V455Q216 435 210.5 417.5Q205 400 203.5 375.0Q202 350 203 307L214 -201Q200 -216 187.5 -224.5Q175 -233 158 -240Z" fill="black" />
  </g>
</svg>