<svg xmlns="http://www.w3.org/2000/svg" width="1235.0" height="1235.0" viewBox="-117.5 -95.0 1235.0 1235.0">
  <g id="decorations"><polygon points="415.0,185.0 445.0,185.0 440.7,-65.0 415.3,-60.0" fill="purple" /><g><path d="M 580.7 194.2 L 585.1 189.3 L 589.6 184.8 L 594.2 180.4 L 598.8 176.4 L 603.5 172.5 L 608.2 169.0 L 613.0 165.7 L 617.9 162.6 L 622.7 159.7 L 627.6 157.1 L 632.5 154.7 L 637.4 152.5 L 642.3 150.5 L 647.2 148.7 L 652.1 147.1 L 657.0 145.7 L 661.9 144.6 L 666.8 143.6 L 671.6 142.9 L 676.4 142.3 L 681.2 141.9 L 685.9 141.7 L 690.6 141.8 L 695.2 142.0 L 699.7 142.3 L 704.2 142.9 L 708.5 143.6 L 712.8 144.5 L 717.0 145.6 L 721.1 146.9 L 725.1 148.3 L 729.0 149.8 L 732.7 151.5 L 736.3 153.4 L 739.8 155.4 L 743.2 157.5 L 746.4 159.8 L 749.4 162.2 L 752.3 164.8 L 755.1 167.5 L 757.7 170.3 L 760.1 173.2 L 762.4 176.3 L 764.5 179.4 L 766.4 182.7 L 768.1 186.2 L 769.7 189.7 L 771.1 193.4 L 772.3 197.2 L 773.3 201.2 L 774.1 205.3 L 774.6 209.5 L 775.0 213.8 L 775.2 218.4 L 775.1 223.0 L 774.7 227.8 L 774.1 232.8 L 773.3 237.9 L 772.1 243.1 L 770.7 248.5 L 768.9 254.1 L 766.9 259.8 L 764.5 265.6 L 766.1 263.8 L 783.9 292.0 L 791.5 277.4 L 794.3 270.5 L 796.9 263.7 L 799.1 256.9 L 800.9 250.3 L 802.4 243.7 L 803.6 237.2 L 804.4 230.8 L 804.9 224.5 L 805.1 218.3 L 804.9 212.2 L 804.5 206.2 L 803.7 200.4 L 802.6 194.7 L 801.2 189.1 L 799.5 183.7 L 797.5 178.4 L 795.2 173.3 L 792.7 168.4 L 790.0 163.6 L 787.0 159.1 L 783.7 154.7 L 780.2 150.5 L 776.6 146.5 L 772.7 142.8 L 768.6 139.2 L 764.4 135.8 L 760.0 132.7 L 755.4 129.7 L 750.7 127.0 L 745.8 124.5 L 740.8 122.2 L 735.7 120.2 L 730.4 118.3 L 725.1 116.7 L 719.7 115.3 L 714.1 114.2 L 708.5 113.2 L 702.8 112.5 L 697.1 112.0 L 691.3 111.8 L 685.4 111.8 L 679.5 112.0 L 673.5 112.4 L 667.6 113.1 L 661.6 114.1 L 655.5 115.3 L 649.5 116.7 L 643.5 118.4 L 637.5 120.3 L 631.5 122.5 L 625.5 125.0 L 619.6 127.7 L 613.7 130.8 L 607.9 134.1 L 602.1 137.7 L 596.5 141.5 L 590.9 145.6 L 585.3 150.0 L 579.9 154.6 L 574.6 159.5 L 569.4 164.7 L 564.3 170.1 L 559.3 175.8 Z" fill="purple" stroke="none" /><path d="M 768.8 260.5 L 764.8 266.1 L 760.7 271.4 L 756.6 276.2 L 752.5 280.7 L 748.4 284.9 L 744.2 288.7 L 740.1 292.2 L 736.0 295.4 L 731.9 298.2 L 727.9 300.8 L 723.8 303.1 L 719.9 305.1 L 716.0 306.9 L 712.1 308.4 L 708.4 309.7 L 704.6 310.8 L 701.0 311.6 L 697.4 312.2 L 693.9 312.6 L 690.5 312.8 L 687.2 312.8 L 684.0 312.6 L 680.9 312.3 L 677.9 311.7 L 675.0 311.0 L 672.2 310.2 L 669.5 309.2 L 667.0 308.1 L 664.6 306.8 L 662.3 305.5 L 660.2 304.0 L 658.2 302.4 L 656.3 300.7 L 654.6 298.9 L 653.0 297.0 L 651.6 295.0 L 650.3 293.0 L 649.2 290.9 L 648.3 288.7 L 647.5 286.4 L 646.8 284.0 L 646.4 281.5 L 646.1 279.0 L 645.9 276.3 L 646.0 273.6 L 646.3 270.7 L 646.8 267.8 L 647.5 264.8 L 648.5 261.6 L 649.7 258.4 L 651.2 255.0 L 653.0 251.6 L 655.1 248.1 L 657.5 244.5 L 660.3 240.8 L 663.3 237.0 L 666.8 233.2 L 670.6 229.4 L 674.8 225.5 L 679.4 221.6 L 684.5 217.7 L 689.9 213.8 L 695.7 209.9 L 693.1 210.6 L 695.9 176.2 L 679.9 185.1 L 673.1 189.5 L 666.8 194.0 L 660.9 198.6 L 655.3 203.2 L 650.2 207.9 L 645.4 212.6 L 640.9 217.4 L 636.9 222.2 L 633.2 227.1 L 629.8 232.0 L 626.8 236.9 L 624.2 241.9 L 622.0 246.9 L 620.1 251.9 L 618.6 256.9 L 617.4 261.8 L 616.5 266.8 L 616.1 271.7 L 615.9 276.6 L 616.1 281.4 L 616.7 286.1 L 617.6 290.7 L 618.8 295.2 L 620.3 299.6 L 622.2 303.8 L 624.3 307.8 L 626.7 311.7 L 629.3 315.4 L 632.2 318.9 L 635.3 322.1 L 638.7 325.2 L 642.2 328.0 L 646.0 330.6 L 649.9 333.0 L 654.0 335.1 L 658.2 337.0 L 662.6 338.6 L 667.1 340.0 L 671.8 341.1 L 676.5 341.9 L 681.4 342.5 L 686.3 342.8 L 691.4 342.8 L 696.5 342.5 L 701.6 341.9 L 706.8 341.0 L 712.0 339.9 L 717.3 338.4 L 722.6 336.6 L 727.8 334.5 L 733.1 332.0 L 738.3 329.2 L 743.5 326.1 L 748.7 322.6 L 753.8 318.8 L 758.9 314.7 L 763.9 310.3 L 768.8 305.5 L 773.6 300.3 L 778.4 294.9 L 783.1 289.0 L 787.7 282.8 L 792.2 276.3 Z" fill="purple" stroke="none" /></g></g><g transform="translate(398.467,674.363) scale(0.856821,-0.856821)">
    <path d="M140 -240V273Q140 326 145.5 362.0Q151 398 161 428V431H83Q44 431 27.0 451.5Q10 472 10 523Q10 541 12.0 556.5Q14 572 18.5 593.5Q23 615 30 647H65V633Q65 613 77.0 602.5Q89 592 113 592H192Q211 592 219.0 583.5Q227 575 227 553V455Q216 435 210.5 417.5Q205 400 203.5 375.0Q202 350 203 307L214 -201Q200 -216 187.5 -224.5Q175 -233 158 -240Z" fill="black" />
  </g>
</svg>