<svg xmlns="http://www.w3.org/2000/svg" xmlns:ns1="http://sodipodi.sourceforge.net/DTD/sodipodi-0.dtd" xmlns:ns2="http://www.inkscape.org/namespaces/inkscape" width="1373.0" height="1373.0" viewBox="-186.5 -233.0 1373.0 1373.0" version="1.1" id="svg1" ns1:docname="nunsofit_base.svg" ns2:export-filename="nunsofit_base2.svg" ns2:export-xdpi="96" ns2:export-ydpi="96">
  <g id="decorations"><polygon points="585.0,47.0 615.0,47.0 610.7,-203.0 585.3,-198.0" fill="purple" /><polygon points="635.0,47.0 665.0,47.0 660.7,-203.0 635.3,-198.0" fill="purple" /><polygon points="685.0,47.0 715.0,47.0 710.7,-203.0 685.3,-198.0" fill="purple" /></g><defs id="defs1" />
  <ns1:namedview id="namedview1" pagecolor="#ffffff" bordercolor="#000000" borderopacity="0.25" ns2:showpageshadow="2" ns2:pageopacity="0.0" ns2:pagecheckerboard="0" ns2:deskcolor="#d1d1d1" showgrid="false">
    <ns2:page x="0" y="0" width="1000" height="1000" id="page2" margin="0" bleed="0" />
  </ns1:namedview>
  <g transform="matrix(0.856821,0,0,-0.856821,398.467,469.3632)" id="g1">
    <path d="m 187.9642,483.70275 c 19.5487,18.99306 29.86419,23.45309 58.22992,31.4974 29.10628,8.25433 60.94049,-3.57483 48.66231,-13.30575 l -59.68546,-47.30295 c -9.37607,-14.48888 -18.55301,-25.83333 -22.21968,-37.5 C 209.28462,405.42478 204.5,391.66667 203.5,375 c -1,-16.66667 -1.16667,-39.33333 -0.5,-68 l 11,-858.13145 c -9.33333,-10 -18.16667,-17.83299 -26.5,-23.49966 -8.33333,-5.66667 -18.16667,-10.83365 -29.5,-15.50032 H 140 V 273 c 0,35.33333 1.83333,65 5.5,89 3.66667,24 8.83333,46 15.5,66 l 11.8479,31.18984" fill="#000000" id="path1" ns1:nodetypes="csscssccsccsscc" />
  </g>
  <path d="m 628.07551,25.60024 c 17.8457,-0.34883 52.45833,8.59368 66.56465,14.71918 22.76413,9.885026 36.2952,16.370186 55.34352,32.099242 19.47364,16.080286 34.34838,37.975458 41.27583,61.129238 6.48795,21.68481 6.05995,35.2598 5.02031,51.10689 -1.33016,20.27545 -13.07493,45.72933 -28.36815,59.20686 -9.67094,8.52274 -37.39358,22.46396 -54.06685,21.66359 -21.92655,-1.05251 -34.11747,-5.92392 -54.65165,-13.84904 -16.9231,-6.53096 -42.68837,-31.58537 -52.46757,-45.04366 -6.55303,-9.01839 -7.33826,-47.46743 -0.8308,-58.3623 12.19229,-20.41243 11.42203,-23.7108 39.17344,-28.1015 13.09479,-2.07179 50.26022,6.56767 50.88448,20.60106 l 1.42185,31.96373 c 0,0 -33.09165,-32.49517 -50.3058,-13.24162 -6.73518,7.53313 -12.13425,31.78936 -9.0002,35.45726 8.2942,9.70703 22.82169,22.10635 35.58505,27.20603 15.1744,6.063 42.47739,11.08659 57.6198,4.77287 12.15023,-5.06612 22.41743,-20.6528 27.26239,-32.45758 5.28522,-12.8775 0.85455,-23.49959 -3.79821,-38.24963 -4.68574,-14.85451 -11.30195,-32.79226 -23.71272,-41.74143 -22.64773,-16.330816 -28.71573,-17.837706 -53.31776,-31.056618 -9.90487,-5.32199 -21.26088,-8.56784 -35.88817,-12.22551 -10.53845,-2.63522 -13.69945,-5.37503 -40.12135,3.74776 -11.09312,3.83016 15.41446,-49.130522 26.37791,-49.344822 z" fill="#000000" stroke="none" id="path2" ns1:nodetypes="sssssssssssscsssssssssss" />
</svg>