<svg xmlns="http://www.w3.org/2000/svg" width="1235.0" height="1235.0" viewBox="-117.5 -95.0 1235.0 1235.0">
  <g id="decorations"><polygon points="415.0,185.0 445.0,185.0 440.7,-65.0 415.3,-60.0" fill="purple" /><polygon points="465.0,185.0 495.0,185.0 490.7,-65.0 465.3,-60.0" fill="purple" /><polygon points="515.0,185.0 545.0,185.0 540.7,-65.0 515.3,-60.0" fill="purple" /><path d="M 582.4 181.8 L 586.0 175.5 L 589.7 169.5 L 593.6 163.8 L 597.5 158.3 L 601.5 153.1 L 605.6 148.1 L 609.7 143.4 L 613.9 139.0 L 618.2 134.8 L 622.5 130.8 L 626.9 127.1 L 631.2 123.6 L 635.6 120.3 L 640.0 117.2 L 644.5 114.4 L 648.9 111.8 L 653.4 109.4 L 657.8 107.3 L 662.3 105.3 L 666.8 103.6 L 671.2 102.2 L 675.7 100.9 L 680.1 99.9 L 684.5 99.0 L 688.9 98.4 L 693.2 98.0 L 697.5 97.8 L 701.8 97.8 L 706.0 98.1 L 710.2 98.5 L 714.3 99.1 L 718.4 99.9 L 722.4 100.9 L 726.4 102.1 L 730.3 103.6 L 734.2 105.2 L 737.9 107.0 L 741.6 109.0 L 745.3 111.2 L 748.9 113.7 L 752.3 116.3 L 755.7 119.1 L 759.1 122.2 L 762.3 125.4 L 765.4 128.9 L 768.4 132.6 L 771.4 136.5 L 774.2 140.6 L 776.8 145.0 L 779.4 149.6 L 781.8 154.4 L 784.1 159.4 L 786.3 164.7 L 788.3 170.2 L 790.1 175.9 L 791.8 181.8 L 793.3 188.0 L 794.7 194.4 L 795.8 201.1 L 796.7 208.0 L 797.5 215.1 L 798.0 222.5 L 798.3 230.0 L 798.2 229.5 L 828.1 246.4 L 827.8 229.4 L 827.5 220.9 L 826.9 212.6 L 826.2 204.5 L 825.1 196.7 L 823.9 189.0 L 822.4 181.6 L 820.7 174.3 L 818.7 167.3 L 816.6 160.5 L 814.2 153.9 L 811.7 147.6 L 808.9 141.4 L 805.9 135.5 L 802.7 129.8 L 799.3 124.3 L 795.8 119.1 L 792.1 114.1 L 788.2 109.4 L 784.1 104.8 L 779.9 100.6 L 775.5 96.6 L 771.0 92.8 L 766.3 89.3 L 761.5 86.0 L 756.6 83.0 L 751.6 80.3 L 746.5 77.8 L 741.2 75.6 L 735.9 73.7 L 730.5 72.0 L 725.0 70.6 L 719.5 69.5 L 713.9 68.7 L 708.2 68.1 L 702.6 67.9 L 696.9 67.8 L 691.1 68.1 L 685.4 68.6 L 679.6 69.4 L 673.9 70.5 L 668.2 71.9 L 662.4 73.5 L 656.7 75.4 L 651.1 77.5 L 645.4 79.9 L 639.8 82.6 L 634.3 85.6 L 628.8 88.8 L 623.4 92.2 L 618.0 96.0 L 612.7 99.9 L 607.5 104.2 L 602.5 108.8 L 597.5 113.6 L 592.6 118.7 L 587.8 124.0 L 583.1 129.5 L 578.6 135.4 L 574.1 141.4 L 569.8 147.8 L 565.6 154.3 L 561.6 161.2 L 557.6 168.2 Z" fill="purple" stroke="none" /><g><path d="M 536.8 848.5 L 530.7 853.0 L 524.8 857.6 L 519.2 862.4 L 513.8 867.2 L 508.7 872.2 L 503.9 877.4 L 499.4 882.6 L 495.0 887.9 L 491.0 893.3 L 487.2 898.8 L 483.6 904.4 L 480.4 910.1 L 477.4 915.8 L 474.7 921.6 L 472.2 927.4 L 470.0 933.3 L 468.1 939.1 L 466.4 945.0 L 464.9 950.9 L 463.7 956.8 L 462.7 962.7 L 462.0 968.6 L 461.5 974.4 L 461.2 980.2 L 461.2 986.0 L 461.4 991.7 L 461.9 997.4 L 462.5 1003.0 L 463.5 1008.6 L 464.6 1014.0 L 466.0 1019.4 L 467.6 1024.7 L 469.4 1029.9 L 471.5 1034.9 L 473.8 1039.9 L 476.3 1044.7 L 479.1 1049.3 L 482.0 1053.9 L 485.2 1058.2 L 488.7 1062.4 L 492.3 1066.4 L 496.2 1070.3 L 500.3 1073.9 L 504.5 1077.3 L 509.0 1080.4 L 513.7 1083.4 L 518.6 1086.1 L 523.7 1088.5 L 528.9 1090.6 L 534.4 1092.5 L 540.0 1094.1 L 545.7 1095.4 L 551.6 1096.4 L 557.7 1097.1 L 563.9 1097.5 L 570.2 1097.5 L 576.7 1097.2 L 583.2 1096.6 L 589.9 1095.7 L 596.7 1094.5 L 603.6 1092.9 L 610.6 1090.9 L 617.7 1088.7 L 615.3 1089.3 L 624.2 1055.3 L 608.3 1060.8 L 602.3 1062.6 L 596.5 1064.2 L 590.8 1065.4 L 585.3 1066.4 L 580.0 1067.1 L 574.8 1067.5 L 569.8 1067.7 L 565.0 1067.6 L 560.3 1067.3 L 555.9 1066.7 L 551.6 1066.0 L 547.4 1065.1 L 543.4 1063.9 L 539.6 1062.6 L 535.9 1061.1 L 532.3 1059.4 L 528.9 1057.5 L 525.6 1055.5 L 522.5 1053.2 L 519.5 1050.9 L 516.7 1048.4 L 514.0 1045.7 L 511.4 1042.8 L 509.0 1039.9 L 506.7 1036.8 L 504.5 1033.5 L 502.5 1030.1 L 500.7 1026.6 L 499.0 1022.9 L 497.5 1019.2 L 496.1 1015.3 L 494.9 1011.3 L 493.8 1007.2 L 492.9 1003.0 L 492.2 998.8 L 491.7 994.4 L 491.4 990.0 L 491.2 985.5 L 491.2 981.0 L 491.4 976.4 L 491.8 971.7 L 492.4 967.0 L 493.2 962.3 L 494.2 957.6 L 495.3 952.8 L 496.7 948.1 L 498.3 943.3 L 500.1 938.5 L 502.1 933.8 L 504.3 929.1 L 506.8 924.3 L 509.4 919.6 L 512.2 915.0 L 515.2 910.3 L 518.5 905.7 L 522.0 901.2 L 525.7 896.7 L 529.7 892.3 L 533.9 887.9 L 538.3 883.7 L 543.0 879.5 L 548.0 875.4 L 553.2 871.5 Z" fill="purple" stroke="none" /><path d="M 616.6 1089.3 L 623.5 1085.4 L 630.1 1081.4 L 636.3 1077.2 L 642.2 1072.9 L 647.7 1068.5 L 652.9 1064.0 L 657.8 1059.4 L 662.3 1054.8 L 666.5 1050.0 L 670.4 1045.2 L 674.0 1040.3 L 677.3 1035.3 L 680.1 1030.3 L 682.7 1025.2 L 684.9 1020.1 L 686.9 1015.0 L 688.5 1009.9 L 689.9 1004.8 L 690.9 999.7 L 691.6 994.7 L 692.1 989.7 L 692.2 984.7 L 692.1 979.8 L 691.6 975.0 L 690.9 970.3 L 690.0 965.7 L 688.7 961.1 L 687.2 956.7 L 685.5 952.5 L 683.5 948.4 L 681.2 944.4 L 678.7 940.6 L 675.9 937.0 L 672.9 933.6 L 669.7 930.4 L 666.3 927.5 L 662.6 924.8 L 658.8 922.3 L 654.8 920.1 L 650.5 918.2 L 646.2 916.6 L 641.7 915.3 L 637.0 914.4 L 632.2 913.7 L 627.4 913.4 L 622.4 913.5 L 617.4 913.9 L 612.4 914.6 L 607.2 915.7 L 602.1 917.2 L 596.9 919.0 L 591.8 921.2 L 586.6 923.7 L 581.4 926.6 L 576.2 929.9 L 571.1 933.5 L 565.9 937.5 L 560.8 941.8 L 555.7 946.6 L 550.6 951.7 L 545.5 957.2 L 540.5 963.1 L 535.5 969.5 L 536.4 969.2 L 548.5 1000.3 L 558.9 987.4 L 563.3 981.9 L 567.6 976.9 L 572.0 972.2 L 576.2 968.0 L 580.5 964.1 L 584.6 960.6 L 588.7 957.5 L 592.7 954.8 L 596.6 952.4 L 600.4 950.3 L 604.1 948.5 L 607.7 947.0 L 611.1 945.8 L 614.5 944.8 L 617.7 944.2 L 620.8 943.7 L 623.8 943.5 L 626.6 943.4 L 629.4 943.6 L 632.0 944.0 L 634.5 944.5 L 636.9 945.2 L 639.2 946.0 L 641.4 947.0 L 643.6 948.2 L 645.6 949.4 L 647.5 950.9 L 649.3 952.5 L 651.1 954.2 L 652.7 956.1 L 654.2 958.0 L 655.7 960.2 L 657.0 962.4 L 658.1 964.8 L 659.2 967.3 L 660.1 970.0 L 660.8 972.7 L 661.4 975.5 L 661.8 978.5 L 662.1 981.5 L 662.2 984.7 L 662.1 987.9 L 661.8 991.2 L 661.3 994.6 L 660.6 998.0 L 659.7 1001.5 L 658.6 1005.1 L 657.2 1008.7 L 655.6 1012.4 L 653.7 1016.0 L 651.6 1019.8 L 649.2 1023.5 L 646.6 1027.3 L 643.7 1031.2 L 640.5 1035.0 L 637.0 1038.8 L 633.1 1042.6 L 629.0 1046.4 L 624.5 1050.2 L 619.6 1053.9 L 614.4 1057.5 L 608.9 1061.1 L 602.9 1064.6 Z" fill="purple" stroke="none" /></g></g><g transform="translate(398.467,674.363) scale(0.856821,-0.856821)">
    <path d="M140 -240V273Q140 326 145.5 362.0Q151 398 161 428V431H83Q44 431 27.0 451.5Q10 472 10 523Q10 541 12.0 556.5Q14 572 18.5 593.5Q23 615 30 647H65V633Q65 613 77.0 602.5Q89 592 113 592H192Q211 592 219.0 583.5Q227 575 227 553V455Q216 435 210.5 417.5Q205 400 203.5 375.0Q202 350 203 307L214 -201Q200 -216 187.5 -224.5Q175 -233 158 -240Z" fill="black" />
  </g>
</svg>