<svg xmlns="http://www.w3.org/2000/svg" width="1178.0" height="1178.0" viewBox="-89.0 -58.0 1178.0 1178.0">
  <g id="decorations"><polygon points="255.0,222.0 285.0,222.0 280.7,-28.0 255.3,-23.0" fill="purple" /><polygon points="745.0,312.0 775.0,312.0 770.7,-28.0 745.3,-23.0" fill="purple" /><path d="M 753.2 782.4 L 759.5 786.0 L 765.5 789.7 L 771.2 793.6 L 776.7 797.5 L 781.9 801.5 L 786.9 805.6 L 791.6 809.7 L 796.0 813.9 L 800.2 818.2 L 804.2 822.5 L 807.9 826.9 L 811.4 831.2 L 814.7 835.6 L 817.8 840.0 L 820.6 844.5 L 823.2 848.9 L 825.6 853.4 L 827.7 857.8 L 829.7 862.3 L 831.4 866.8 L 832.8 871.2 L 834.1 875.7 L 835.1 880.1 L 836.0 884.5 L 836.6 888.9 L 837.0 893.2 L 837.2 897.5 L 837.2 901.8 L 836.9 906.0 L 836.5 910.2 L 835.9 914.3 L 835.1 918.4 L 834.1 922.4 L 832.9 926.4 L 831.4 930.3 L 829.8 934.2 L 828.0 937.9 L 826.0 941.6 L 823.8 945.3 L 821.3 948.9 L 818.7 952.3 L 815.9 955.7 L 812.8 959.1 L 809.6 962.3 L 806.1 965.4 L 802.4 968.4 L 798.5 971.4 L 794.4 974.2 L 790.0 976.8 L 785.4 979.4 L 780.6 981.8 L 775.6 984.1 L 770.3 986.3 L 764.8 988.3 L 759.1 990.1 L 753.2 991.8 L 747.0 993.3 L 740.6 994.7 L 733.9 995.8 L 727.0 996.7 L 719.9 997.5 L 712.5 998.0 L 705.0 998.3 L 707.6 998.2 L 686.5 1028.1 L 705.6 1027.8 L 714.1 1027.5 L 722.4 1026.9 L 730.5 1026.2 L 738.3 1025.1 L 746.0 1023.9 L 753.4 1022.4 L 760.7 1020.7 L 767.7 1018.7 L 774.5 1016.6 L 781.1 1014.2 L 787.4 1011.7 L 793.6 1008.9 L 799.5 1005.9 L 805.2 1002.7 L 810.7 999.3 L 815.9 995.8 L 820.9 992.1 L 825.6 988.2 L 830.2 984.1 L 834.4 979.9 L 838.4 975.5 L 842.2 971.0 L 845.7 966.3 L 849.0 961.5 L 852.0 956.6 L 854.7 951.6 L 857.2 946.5 L 859.4 941.2 L 861.3 935.9 L 863.0 930.5 L 864.4 925.0 L 865.5 919.5 L 866.3 913.9 L 866.9 908.2 L 867.1 902.6 L 867.2 896.9 L 866.9 891.1 L 866.4 885.4 L 865.6 879.6 L 864.5 873.9 L 863.1 868.2 L 861.5 862.4 L 859.6 856.7 L 857.5 851.1 L 855.1 845.4 L 852.4 839.8 L 849.4 834.3 L 846.2 828.8 L 842.8 823.4 L 839.0 818.0 L 835.1 812.7 L 830.8 807.5 L 826.2 802.5 L 821.4 797.5 L 816.3 792.6 L 811.0 787.8 L 805.5 783.1 L 799.6 778.6 L 793.6 774.1 L 787.2 769.8 L 780.7 765.6 L 773.8 761.6 L 766.8 757.6 Z" fill="purple" stroke="none" /></g><g transform="translate(166.986,880.000) scale(1.174652,-1.174652)">
    <path d="M39 0 79 161H353Q411 161 439.0 182.0Q467 203 467 247V347Q467 379 455.0 397.0Q443 415 420.5 423.0Q398 431 365 431H128Q90 431 73.0 451.5Q56 472 56 524Q56 549 60.5 574.0Q65 599 76 647H111V633Q111 613 123.5 602.5Q136 592 158 592H370Q445 592 486.5 547.5Q528 503 528 425V199Q528 133 509.0 88.5Q490 44 457.0 22.0Q424 0 382 0ZM250 239Q237 253 220.0 261.0Q203 269 180 269Q161 269 144.0 263.0Q127 257 108 246H79V260Q79 300 88.5 333.0Q98 366 111.0 390.0Q124 414 136 429V451H190V436Q183 424 174.0 407.5Q165 391 158.0 373.5Q151 356 151 339V336Q162 345 178.5 350.5Q195 356 211 356Q225 356 240.0 351.0Q255 346 265.0 333.5Q275 321 275 298Q275 274 265.0 259.5Q255 245 250 239Z" fill="black" />
  </g>
</svg>