<svg xmlns="http://www.w3.org/2000/svg" width="1178.0" height="1178.0" viewBox="-89.0 -58.0 1178.0 1178.0" version="1.1" id="svg1">
  <g id="decorations"><polygon points="255.0,222.0 285.0,222.0 280.7,-28.0 255.3,-23.0" fill="purple" /><g><path d="M 237.4 851.1 L 230.0 852.6 L 222.7 854.3 L 215.6 856.2 L 208.7 858.4 L 202.0 860.8 L 195.4 863.4 L 189.1 866.2 L 182.9 869.2 L 177.0 872.4 L 171.2 875.7 L 165.6 879.3 L 160.3 883.1 L 155.2 887.0 L 150.3 891.1 L 145.6 895.3 L 141.1 899.7 L 136.8 904.2 L 132.8 908.8 L 129.0 913.6 L 125.4 918.4 L 122.0 923.3 L 118.9 928.3 L 115.9 933.4 L 113.3 938.6 L 110.8 943.8 L 108.6 949.1 L 106.6 954.4 L 104.8 959.8 L 103.3 965.2 L 102.0 970.6 L 101.0 976.1 L 100.3 981.5 L 99.7 987.0 L 99.5 992.5 L 99.5 997.9 L 99.7 1003.3 L 100.2 1008.7 L 101.0 1014.1 L 102.1 1019.4 L 103.4 1024.7 L 105.0 1029.8 L 106.9 1034.9 L 109.1 1039.9 L 111.5 1044.8 L 114.2 1049.6 L 117.3 1054.2 L 120.5 1058.7 L 124.1 1063.1 L 128.0 1067.2 L 132.1 1071.2 L 136.5 1075.1 L 141.2 1078.7 L 146.1 1082.1 L 151.3 1085.2 L 156.8 1088.2 L 162.5 1090.9 L 168.4 1093.4 L 174.6 1095.6 L 181.1 1097.6 L 187.8 1099.3 L 194.7 1100.8 L 201.9 1102.0 L 209.3 1103.0 L 206.4 1103.4 L 229.6 1074.6 L 212.5 1073.7 L 206.3 1072.9 L 200.4 1071.8 L 194.7 1070.6 L 189.3 1069.1 L 184.2 1067.5 L 179.3 1065.7 L 174.7 1063.7 L 170.4 1061.6 L 166.3 1059.4 L 162.5 1057.0 L 158.9 1054.5 L 155.5 1051.9 L 152.4 1049.1 L 149.5 1046.3 L 146.7 1043.4 L 144.2 1040.3 L 141.9 1037.2 L 139.9 1034.0 L 138.0 1030.6 L 136.2 1027.2 L 134.7 1023.7 L 133.4 1020.2 L 132.3 1016.5 L 131.3 1012.8 L 130.6 1009.0 L 130.0 1005.1 L 129.6 1001.2 L 129.5 997.2 L 129.5 993.2 L 129.7 989.2 L 130.0 985.1 L 130.6 980.9 L 131.4 976.8 L 132.4 972.6 L 133.5 968.5 L 134.9 964.3 L 136.4 960.1 L 138.2 956.0 L 140.1 951.9 L 142.3 947.8 L 144.6 943.8 L 147.1 939.8 L 149.8 935.8 L 152.7 931.9 L 155.8 928.1 L 159.0 924.4 L 162.5 920.8 L 166.1 917.2 L 169.9 913.7 L 174.0 910.4 L 178.2 907.2 L 182.5 904.0 L 187.0 900.9 L 191.7 898.0 L 196.6 895.2 L 201.7 892.6 L 207.0 890.1 L 212.5 887.8 L 218.1 885.6 L 224.0 883.7 L 230.0 881.9 L 236.2 880.3 L 242.6 878.9 Z" fill="purple" stroke="none" /><path d="M 208.0 1103.1 L 215.9 1102.4 L 223.5 1101.6 L 230.9 1100.4 L 238.1 1099.0 L 244.9 1097.4 L 251.6 1095.5 L 257.9 1093.4 L 264.0 1091.1 L 269.8 1088.6 L 275.4 1085.8 L 280.7 1082.9 L 285.8 1079.8 L 290.5 1076.4 L 295.0 1072.9 L 299.2 1069.2 L 303.1 1065.4 L 306.7 1061.5 L 310.1 1057.4 L 313.2 1053.3 L 316.0 1049.0 L 318.5 1044.7 L 320.7 1040.2 L 322.6 1035.7 L 324.3 1031.2 L 325.7 1026.6 L 326.7 1022.0 L 327.5 1017.4 L 328.0 1012.8 L 328.2 1008.2 L 328.1 1003.6 L 327.8 999.1 L 327.1 994.6 L 326.1 990.1 L 324.8 985.8 L 323.3 981.5 L 321.4 977.4 L 319.2 973.4 L 316.8 969.6 L 314.1 965.9 L 311.1 962.4 L 307.8 959.1 L 304.2 956.0 L 300.4 953.2 L 296.4 950.6 L 292.1 948.3 L 287.6 946.2 L 282.9 944.4 L 278.0 943.0 L 272.9 941.8 L 267.6 941.0 L 262.1 940.4 L 256.5 940.2 L 250.8 940.3 L 244.8 940.7 L 238.8 941.5 L 232.6 942.6 L 226.2 944.1 L 219.7 945.8 L 213.1 948.0 L 206.3 950.5 L 199.4 953.3 L 192.3 956.6 L 185.1 960.2 L 186.8 959.8 L 183.2 994.2 L 198.7 986.3 L 205.0 983.2 L 211.1 980.5 L 217.0 978.1 L 222.7 976.1 L 228.1 974.3 L 233.4 973.0 L 238.4 971.9 L 243.2 971.1 L 247.7 970.5 L 252.1 970.2 L 256.2 970.2 L 260.0 970.3 L 263.7 970.7 L 267.1 971.3 L 270.3 972.0 L 273.3 972.9 L 276.1 973.9 L 278.7 975.1 L 281.1 976.4 L 283.4 977.8 L 285.4 979.4 L 287.3 981.0 L 289.0 982.8 L 290.6 984.6 L 292.1 986.5 L 293.4 988.6 L 294.5 990.7 L 295.5 992.9 L 296.3 995.2 L 297.0 997.6 L 297.6 1000.0 L 298.0 1002.6 L 298.2 1005.2 L 298.2 1007.8 L 298.1 1010.5 L 297.8 1013.3 L 297.3 1016.1 L 296.7 1018.9 L 295.8 1021.8 L 294.8 1024.6 L 293.5 1027.5 L 292.1 1030.4 L 290.4 1033.3 L 288.6 1036.1 L 286.5 1039.0 L 284.2 1041.7 L 281.6 1044.5 L 278.8 1047.2 L 275.8 1049.8 L 272.6 1052.4 L 269.1 1054.8 L 265.3 1057.3 L 261.4 1059.6 L 257.1 1061.8 L 252.6 1064.0 L 247.8 1065.9 L 242.7 1067.8 L 237.3 1069.4 L 231.7 1070.9 L 225.7 1072.2 L 219.4 1073.3 L 212.9 1074.3 L 206.0 1074.9 Z" fill="purple" stroke="none" /></g></g><defs id="defs1" />
  <g transform="matrix(1.174652,0,0,-1.174652,166.986,880)" id="g1">
    <path d="m 39,0 40,161 h 274 c 38.66667,0 67.33333,7 86,21 18.66667,14 28,35.66667 28,65 v 100 c 0,21.33333 -4,38 -12,50 -8,12 -19.5,20.66667 -34.5,26 -15,5.33333 -33.5,8 -55.5,8 H 128 c -25.33333,0 -43.666667,6.83333 -55,20.5 -11.333333,13.66667 -17,37.83333 -17,72.5 0,16.66667 1.5,33.33333 4.5,50 3,16.66667 8.166667,41 15.5,73 h 35 v -14 c 0,-13.33333 4.16667,-23.5 12.5,-30.5 8.33333,-7 19.83333,-10.5 34.5,-10.5 h 212 c 50,0 88.83333,-14.83333 116.5,-44.5 C 514.16667,517.83333 528,477 528,425 V 199 C 528,155 521.66667,118.16667 509,88.5 496.33333,58.833333 479,36.666667 457,22 435,7.3333333 410,0 382,0 Z m 72.85781,285.39013 C 100.65628,310.56326 85.900509,314.73384 93.727379,341.96122 100.05227,363.96364 102.33333,374 111,390 c 8.66667,16 17,29 25,39 v 22 h 54 v -15 c -4.66667,-8 -10,-17.5 -16,-28.5 -6,-11 -11.33333,-22.33333 -16,-34 -4.66667,-11.66667 -15.21988,-25.6317 -14.46768,-36.74031 1.27755,-18.86694 -19.01183,-79.82634 -31.67451,-51.36956 z" fill="#000000" id="path1" />
  </g>
  <path d="m 280.70825,511.53392 c 2.08404,19.28278 31.71382,51.9827 43.37297,64.9088 18.81487,20.85948 30.65238,33.03864 54.39754,47.80397 24.27531,15.09498 53.13116,23.15876 80.47153,22.24191 25.60572,-0.8588 40.01631,-6.21331 56.64411,-13.04336 21.27431,-8.73874 44.34917,-30.51896 53.2946,-51.78757 5.65669,-13.44956 10.61748,-48.2212 3.74626,-65.82162 -9.03632,-23.14605 -18.65908,-34.46921 -34.56708,-53.643 -13.10982,-15.80199 -49.28254,-34.41126 -67.2488,-40.05042 -12.03913,-3.77874 -53.5751,9.24401 -62.91781,20.15478 -17.50435,20.4423 -21.321,20.80536 -16.02435,52.16387 2.49928,14.79684 25.17097,51.5569 40.45286,47.16615 L 467.1374,531.6264 c 0,0 -46.79801,-23.7866 -32.34802,-49.19912 5.65364,-9.94292 29.73176,-24.4827 34.79734,-22.44281 13.40581,5.3985 31.94818,16.51412 42.02231,28.3692 11.97722,14.0946 27.213,41.5771 25.89932,60.10052 -1.05403,14.8631 -14.07486,31.4998 -24.99338,40.95497 -11.91067,10.31437 -24.90512,9.39102 -42.40858,9.71805 -17.62748,0.32929 -39.25917,-0.3008 -53.33648,-10.38953 -25.68869,-18.41011 -29.49371,-24.37725 -52.54831,-46.00637 -9.28189,-8.70801 -13.88793,-17.62308 -22.55,-37.60542 -6.76019,-15.59503 -15.02628,-27.05824 -4.58634,-41.00282 9.0895,-12.14085 -57.71068,35.07073 -56.37701,47.41085 z" fill="#000000" stroke="none" id="path2" style="stroke-width:1.1319" />
</svg>