<svg xmlns="http://www.w3.org/2000/svg" width="1178.0" height="1178.0" viewBox="-89.0 -58.0 1178.0 1178.0" version="1.1" id="svg1">
  <g id="decorations"><polygon points="500.0,222.0 530.0,222.0 525.7,-28.0 500.3,-23.0" fill="purple" /><polygon points="745.0,312.0 775.0,312.0 770.7,-28.0 745.3,-23.0" fill="purple" /><path d="M 233.2 842.6 L 226.2 846.6 L 219.3 850.6 L 212.8 854.8 L 206.4 859.1 L 200.4 863.6 L 194.5 868.1 L 189.0 872.8 L 183.7 877.6 L 178.6 882.5 L 173.8 887.5 L 169.2 892.5 L 164.9 897.7 L 161.0 903.0 L 157.2 908.4 L 153.8 913.8 L 150.6 919.3 L 147.6 924.8 L 144.9 930.4 L 142.5 936.1 L 140.4 941.7 L 138.5 947.4 L 136.9 953.2 L 135.5 958.9 L 134.4 964.6 L 133.6 970.4 L 133.1 976.1 L 132.8 981.9 L 132.9 987.6 L 133.1 993.2 L 133.7 998.9 L 134.5 1004.5 L 135.6 1010.0 L 137.0 1015.5 L 138.7 1020.9 L 140.6 1026.2 L 142.8 1031.5 L 145.3 1036.6 L 148.0 1041.6 L 151.0 1046.5 L 154.3 1051.3 L 157.8 1056.0 L 161.6 1060.5 L 165.6 1064.9 L 169.8 1069.1 L 174.4 1073.2 L 179.1 1077.1 L 184.1 1080.8 L 189.3 1084.3 L 194.8 1087.7 L 200.5 1090.9 L 206.4 1093.9 L 212.6 1096.7 L 218.9 1099.2 L 225.5 1101.6 L 232.3 1103.7 L 239.3 1105.7 L 246.6 1107.4 L 254.0 1108.9 L 261.7 1110.1 L 269.5 1111.2 L 277.6 1111.9 L 285.9 1112.5 L 294.4 1112.8 L 292.5 1113.2 L 313.4 1083.1 L 295.0 1083.3 L 287.5 1083.0 L 280.1 1082.5 L 273.0 1081.7 L 266.1 1080.8 L 259.4 1079.7 L 253.0 1078.3 L 246.8 1076.8 L 240.9 1075.1 L 235.2 1073.3 L 229.7 1071.3 L 224.4 1069.1 L 219.4 1066.8 L 214.6 1064.4 L 210.0 1061.8 L 205.6 1059.2 L 201.5 1056.4 L 197.6 1053.4 L 193.9 1050.4 L 190.4 1047.3 L 187.2 1044.1 L 184.1 1040.7 L 181.3 1037.3 L 178.7 1033.9 L 176.2 1030.3 L 174.0 1026.6 L 172.0 1022.9 L 170.2 1019.2 L 168.6 1015.3 L 167.1 1011.4 L 165.9 1007.4 L 164.9 1003.4 L 164.1 999.3 L 163.5 995.2 L 163.1 991.0 L 162.8 986.8 L 162.8 982.5 L 163.0 978.2 L 163.4 973.9 L 164.0 969.5 L 164.9 965.1 L 165.9 960.7 L 167.2 956.2 L 168.6 951.8 L 170.3 947.3 L 172.3 942.8 L 174.4 938.4 L 176.8 933.9 L 179.4 929.5 L 182.2 925.0 L 185.3 920.6 L 188.6 916.2 L 192.1 911.9 L 195.8 907.5 L 199.8 903.2 L 204.0 898.9 L 208.4 894.7 L 213.1 890.6 L 218.1 886.5 L 223.3 882.5 L 228.8 878.6 L 234.5 874.7 L 240.5 871.0 L 246.8 867.4 Z" fill="purple" stroke="none" /></g><defs id="defs1" />
  <g transform="matrix(1.174652,0,0,-1.174652,166.986,880)" id="g1">
    <path d="m 39,0 40,161 h 274 c 38.66667,0 67.33333,7 86,21 18.66667,14 28,35.66667 28,65 v 100 c 0,21.33333 -4,38 -12,50 -8,12 -19.5,20.66667 -34.5,26 -15,5.33333 -33.5,8 -55.5,8 H 128 c -25.33333,0 -43.666667,6.83333 -55,20.5 -11.333333,13.66667 -17,37.83333 -17,72.5 0,16.66667 1.5,33.33333 4.5,50 3,16.66667 8.166667,41 15.5,73 h 35 v -14 c 0,-13.33333 4.16667,-23.5 12.5,-30.5 8.33333,-7 19.83333,-10.5 34.5,-10.5 h 212 c 50,0 88.83333,-14.83333 116.5,-44.5 C 514.16667,517.83333 528,477 528,425 V 199 C 528,155 521.66667,118.16667 509,88.5 496.33333,58.833333 479,36.666667 457,22 435,7.3333333 410,0 382,0 Z m 72.85781,285.39013 C 100.65628,310.56326 85.900509,314.73384 93.727379,341.96122 100.05227,363.96364 102.33333,374 111,390 c 8.66667,16 17,29 25,39 v 22 h 54 v -15 c -4.66667,-8 -10,-17.5 -16,-28.5 -6,-11 -11.33333,-22.33333 -16,-34 -4.66667,-11.66667 -15.21988,-25.6317 -14.46768,-36.74031 1.27755,-18.86694 -19.01183,-79.82634 -31.67451,-51.36956 z" fill="#000000" id="path1" />
  </g>
  <path d="m 280.70825,511.53392 c 2.08404,19.28278 31.71382,51.9827 43.37297,64.9088 18.81487,20.85948 30.65238,33.03864 54.39754,47.80397 24.27531,15.09498 53.13116,23.15876 80.47153,22.24191 25.60572,-0.8588 40.01631,-6.21331 56.64411,-13.04336 21.27431,-8.73874 44.34917,-30.51896 53.2946,-51.78757 5.65669,-13.44956 10.61748,-48.2212 3.74626,-65.82162 -9.03632,-23.14605 -18.65908,-34.46921 -34.56708,-53.643 -13.10982,-15.80199 -49.28254,-34.41126 -67.2488,-40.05042 -12.03913,-3.77874 -53.5751,9.24401 -62.91781,20.15478 -17.50435,20.4423 -21.321,20.80536 -16.02435,52.16387 2.49928,14.79684 25.17097,51.5569 40.45286,47.16615 L 467.1374,531.6264 c 0,0 -46.79801,-23.7866 -32.34802,-49.19912 5.65364,-9.94292 29.73176,-24.4827 34.79734,-22.44281 13.40581,5.3985 31.94818,16.51412 42.02231,28.3692 11.97722,14.0946 27.213,41.5771 25.89932,60.10052 -1.05403,14.8631 -14.07486,31.4998 -24.99338,40.95497 -11.91067,10.31437 -24.90512,9.39102 -42.40858,9.71805 -17.62748,0.32929 -39.25917,-0.3008 -53.33648,-10.38953 -25.68869,-18.41011 -29.49371,-24.37725 -52.54831,-46.00637 -9.28189,-8.70801 -13.88793,-17.62308 -22.55,-37.60542 -6.76019,-15.59503 -15.02628,-27.05824 -4.58634,-41.00282 9.0895,-12.14085 -57.71068,35.07073 -56.37701,47.41085 z" fill="#000000" stroke="none" id="path2" style="stroke-width:1.1319" />
</svg>