<svg xmlns="http://www.w3.org/2000/svg" width="1209.0" height="1209.0" viewBox="-104.5 -83.0 1209.0 1209.0">
  <g id="decorations"><polygon points="316.0,195.0 344.0,195.0 339.7,-55.0 316.3,-50.0" fill="purple" /><polygon points="476.0,195.0 504.0,195.0 499.7,-55.0 476.3,-50.0" fill="purple" /></g><g transform="translate(278.512,674.363) scale(0.856821,-0.856821)">
    <path d="M427 -240V367Q427 403 409.0 417.0Q391 431 343 431H89Q50 431 33.0 451.5Q16 472 16 524Q16 549 20.5 574.0Q25 599 36 647H71V633Q71 614 83.5 603.0Q96 592 118 592H350Q420 592 454.5 553.5Q489 515 490 439L501 -201Q486 -217 474.0 -225.5Q462 -234 445 -240ZM212 205Q199 219 182.0 227.0Q165 235 142 235Q119 235 103.0 229.0Q87 223 70 212H41V226Q41 267 50.5 307.5Q60 348 73.0 380.5Q86 413 98 429V451H152V436Q146 425 139.5 411.0Q133 397 126.5 380.0Q120 363 116.5 344.5Q113 326 113 307V302Q124 311 140.5 317.0Q157 323 173 323Q187 323 202.0 317.5Q217 312 227.0 299.5Q237 287 237 264Q237 240 227.0 225.5Q217 211 212 205Z" fill="black" />
  </g>
</svg>