<svg xmlns="http://www.w3.org/2000/svg" width="1209.0" height="1209.0" viewBox="-104.5 -83.0 1209.0 1209.0" version="1.1" id="svg1">
  <g id="decorations"><polygon points="316.0,195.0 344.0,195.0 339.7,-55.0 316.3,-50.0" fill="purple" /></g><defs id="defs1" />
  <g transform="matrix(0.856821,0,0,-0.856821,278.512,674.363)" id="g1">
    <path d="m 427,-240 v 607 c 0,24 -6,40.66667 -18,50 -12,9.33333 -34,14 -66,14 H 89 c -26,0 -44.666667,6.83333 -56,20.5 -11.333333,13.66667 -17,37.83333 -17,72.5 0,16.66667 1.5,33.33333 4.5,50 3,16.66667 8.166667,41 15.5,73 h 35 v -14 c 0,-12.66667 4.166667,-22.66667 12.5,-30 8.333333,-7.33333 19.83333,-11 34.5,-11 h 232 c 46.66667,0 81.5,-12.83333 104.5,-38.5 23,-25.66667 34.83333,-63.83333 35.5,-114.5 l 11,-640 c -10,-10.66667 -19,-18.83333 -27,-24.5 -8,-5.66667 -17.66667,-10.5 -29,-14.5 z M 49.048999,270.2695 c -7.894805,25.03728 -4.583226,12.89961 -1.308371,43.26725 C 50.788914,341.80342 64.333333,358.83333 73,380.5 c 8.666667,21.66667 17,37.83333 25,48.5 v 22 h 54 v -15 c -4,-7.33333 -8.16667,-15.66667 -12.5,-25 -4.33333,-9.33333 -8.66667,-19.66667 -13,-31 -4.33333,-11.33333 -9.97777,-20.85557 -12.3111,-33.1889 -2.33333,-12.33333 -10.25577,-38.25277 -9.2379,-50.87847 3.60441,-44.70917 -50.635114,-42.36633 -55.902001,-25.66313 z" fill="#000000" id="path1" />
  </g>
  <path d="m 319.46631,437.1712 c 1.84118,17.03571 28.01814,45.92503 38.31862,57.34483 16.62233,18.42867 27.08039,29.18857 48.05847,42.23326 21.44646,13.33593 46.93967,20.46002 71.094,19.65001 22.62183,-0.75872 35.35312,-5.48926 50.04325,-11.52339 18.7952,-7.72039 39.18101,-26.96251 47.08401,-45.75264 4.99756,-11.88226 9.38024,-42.60188 3.30971,-58.15128 -7.98327,-20.44879 -16.48468,-30.45244 -30.53886,-47.39186 -11.58211,-13.96055 -43.53954,-30.40124 -59.41215,-35.38325 -10.63618,-3.3384 -47.33187,8.16678 -55.58585,17.80609 -15.46453,18.06012 -18.83642,18.38087 -14.157,46.0851 2.20803,13.07253 22.23774,45.54886 35.7388,41.66977 l 30.75114,-8.83559 c 0,0 -41.34453,-21.01469 -28.57843,-43.46583 4.99481,-8.78425 26.26705,-21.62968 30.74233,-19.8275 11.8436,4.7694 28.22518,14.58969 37.12535,25.06327 10.58149,12.45213 24.04179,36.73203 22.88123,53.09687 -0.93125,13.13107 -12.4347,27.82906 -22.08086,36.1824 -10.52269,9.11241 -22.00287,8.29666 -37.46661,8.58558 -15.57331,0.29092 -34.68421,-0.26575 -47.12106,-9.17881 -22.69513,-16.26474 -26.05674,-21.53652 -46.42474,-40.64515 -8.20025,-7.69324 -15.36942,-12.46953 -23.02208,-30.12329 -5.97241,-13.7777 -10.17535,-27.00496 -0.952,-39.32455 8.03028,-10.72605 -50.98552,30.98386 -49.80727,41.88596 z" fill="#000000" stroke="none" id="path2" />
</svg>