<svg xmlns="http://www.w3.org/2000/svg" width="1237.0" height="1237.0" viewBox="-118.5 -102.0 1237.0 1237.0">
  <g id="decorations"><path d="M 336.8 180.4 L 343.8 176.4 L 350.7 172.4 L 357.2 168.2 L 363.6 163.9 L 369.6 159.4 L 375.5 154.9 L 381.0 150.2 L 386.3 145.4 L 391.4 140.5 L 396.2 135.5 L 400.8 130.5 L 405.1 125.3 L 409.0 120.0 L 412.8 114.6 L 416.2 109.2 L 419.4 103.7 L 422.4 98.2 L 425.1 92.6 L 427.5 86.9 L 429.6 81.3 L 431.5 75.6 L 433.1 69.8 L 434.5 64.1 L 435.6 58.4 L 436.4 52.6 L 436.9 46.9 L 437.2 41.1 L 437.1 35.4 L 436.9 29.8 L 436.3 24.1 L 435.5 18.5 L 434.4 13.0 L 433.0 7.5 L 431.3 2.1 L 429.4 -3.2 L 427.2 -8.5 L 424.7 -13.6 L 422.0 -18.6 L 419.0 -23.5 L 415.7 -28.3 L 412.2 -33.0 L 408.4 -37.5 L 404.4 -41.9 L 400.2 -46.1 L 395.6 -50.2 L 390.9 -54.1 L 385.9 -57.8 L 380.7 -61.3 L 375.2 -64.7 L 369.5 -67.9 L 363.6 -70.9 L 357.4 -73.7 L 351.1 -76.2 L 344.5 -78.6 L 337.7 -80.7 L 330.7 -82.7 L 323.4 -84.4 L 316.0 -85.9 L 308.3 -87.1 L 300.5 -88.2 L 292.4 -88.9 L 284.1 -89.5 L 275.6 -89.8 L 277.5 -90.2 L 256.6 -60.1 L 275.0 -60.3 L 282.5 -60.0 L 289.9 -59.5 L 297.0 -58.7 L 303.9 -57.8 L 310.6 -56.7 L 317.0 -55.3 L 323.2 -53.8 L 329.1 -52.1 L 334.8 -50.3 L 340.3 -48.3 L 345.6 -46.1 L 350.6 -43.8 L 355.4 -41.4 L 360.0 -38.8 L 364.4 -36.2 L 368.5 -33.4 L 372.4 -30.4 L 376.1 -27.4 L 379.6 -24.3 L 382.8 -21.1 L 385.9 -17.7 L 388.7 -14.3 L 391.3 -10.9 L 393.8 -7.3 L 396.0 -3.6 L 398.0 0.1 L 399.8 3.8 L 401.4 7.7 L 402.9 11.6 L 404.1 15.6 L 405.1 19.6 L 405.9 23.7 L 406.5 27.8 L 406.9 32.0 L 407.2 36.2 L 407.2 40.5 L 407.0 44.8 L 406.6 49.1 L 406.0 53.5 L 405.1 57.9 L 404.1 62.3 L 402.8 66.8 L 401.4 71.2 L 399.7 75.7 L 397.7 80.2 L 395.6 84.6 L 393.2 89.1 L 390.6 93.5 L 387.8 98.0 L 384.7 102.4 L 381.4 106.8 L 377.9 111.1 L 374.2 115.5 L 370.2 119.8 L 366.0 124.1 L 361.6 128.3 L 356.9 132.4 L 351.9 136.5 L 346.7 140.5 L 341.2 144.4 L 335.5 148.3 L 329.5 152.0 L 323.2 155.6 Z" fill="purple" stroke="none" /><polygon points="485.0,178.0 515.0,178.0 510.7,-72.0 485.3,-67.0" fill="purple" /><polygon points="655.0,298.0 685.0,298.0 680.7,-72.0 655.3,-67.0" fill="purple" /></g><g transform="translate(245.524,674.363) scale(0.856821,-0.856821)">
    <path d="M306 -7Q288 -7 278.5 2.5Q269 12 269 34V66Q269 100 276.5 123.5Q284 147 307 163L438 251Q449 259 455.5 266.0Q462 273 464.0 282.5Q466 292 466 307V395Q466 413 456.0 422.0Q446 431 427 431H137Q98 431 81.5 451.5Q65 472 65 524Q65 549 69.0 574.0Q73 599 84 647H119V633Q119 613 132.0 602.5Q145 592 166 592H427Q475 592 502.0 565.5Q529 539 529 479V314Q529 288 525.5 269.0Q522 250 514.0 237.0Q506 224 490 212L369 131Q352 119 348.0 105.5Q344 92 344 71V34Q344 12 334.0 2.5Q324 -7 306 -7ZM76 -240V240Q76 283 83.5 306.0Q91 329 107 336L127 345L137 332L150 -201Q136 -216 123.5 -224.5Q111 -233 94 -240Z" fill="black" />
  </g>
</svg>