<svg xmlns="http://www.w3.org/2000/svg" width="1237.0" height="1237.0" viewBox="-118.5 -102.0 1237.0 1237.0">
  <g id="decorations"><g><path d="M 683.3 198.3 L 681.3 192.1 L 679.6 185.9 L 678.1 179.8 L 676.9 173.7 L 676.0 167.8 L 675.2 161.9 L 674.8 156.1 L 674.5 150.3 L 674.5 144.7 L 674.6 139.2 L 675.0 133.7 L 675.6 128.4 L 676.3 123.1 L 677.2 118.0 L 678.3 112.9 L 679.5 108.0 L 681.0 103.2 L 682.6 98.5 L 684.3 93.9 L 686.2 89.5 L 688.3 85.2 L 690.5 81.0 L 692.8 76.9 L 695.3 73.1 L 697.9 69.3 L 700.6 65.8 L 703.4 62.3 L 706.4 59.1 L 709.4 56.0 L 712.5 53.1 L 715.7 50.3 L 719.0 47.7 L 722.4 45.4 L 725.8 43.2 L 729.3 41.1 L 732.8 39.3 L 736.4 37.7 L 740.0 36.2 L 743.7 35.0 L 747.4 34.0 L 751.1 33.1 L 754.8 32.5 L 758.6 32.0 L 762.4 31.8 L 766.2 31.8 L 770.1 32.0 L 774.0 32.4 L 777.8 33.1 L 781.7 33.9 L 785.6 35.0 L 789.6 36.4 L 793.5 38.0 L 797.5 39.9 L 801.5 42.0 L 805.5 44.4 L 809.4 47.1 L 813.4 50.1 L 817.4 53.4 L 821.4 57.0 L 825.4 61.0 L 829.3 65.3 L 833.2 69.9 L 837.0 74.9 L 834.7 73.4 L 871.3 70.5 L 860.7 57.4 L 856.2 51.5 L 851.6 45.9 L 846.8 40.6 L 842.0 35.7 L 837.0 31.1 L 832.0 26.8 L 826.9 22.9 L 821.7 19.3 L 816.4 16.1 L 811.0 13.1 L 805.6 10.6 L 800.2 8.3 L 794.7 6.4 L 789.1 4.9 L 783.6 3.6 L 778.0 2.7 L 772.5 2.1 L 767.0 1.8 L 761.5 1.8 L 756.0 2.1 L 750.6 2.8 L 745.2 3.7 L 740.0 4.9 L 734.8 6.3 L 729.6 8.1 L 724.6 10.1 L 719.7 12.3 L 714.8 14.8 L 710.1 17.6 L 705.5 20.5 L 701.1 23.7 L 696.7 27.1 L 692.5 30.7 L 688.4 34.5 L 684.5 38.5 L 680.7 42.8 L 677.1 47.1 L 673.6 51.7 L 670.3 56.5 L 667.2 61.4 L 664.3 66.4 L 661.5 71.7 L 658.9 77.1 L 656.5 82.6 L 654.4 88.3 L 652.4 94.1 L 650.6 100.0 L 649.1 106.1 L 647.7 112.2 L 646.6 118.5 L 645.8 124.9 L 645.2 131.4 L 644.9 138.0 L 644.9 144.7 L 645.1 151.5 L 645.6 158.3 L 646.3 165.2 L 647.3 172.2 L 648.6 179.2 L 650.2 186.3 L 652.1 193.4 L 654.2 200.5 L 656.7 207.7 Z" fill="purple" stroke="none" /><path d="M 834.8 68.6 L 837.7 74.9 L 840.2 81.0 L 842.3 87.0 L 844.2 92.8 L 845.7 98.5 L 846.9 104.0 L 847.9 109.3 L 848.6 114.4 L 849.0 119.4 L 849.2 124.2 L 849.2 128.8 L 848.9 133.3 L 848.6 137.5 L 848.0 141.6 L 847.2 145.5 L 846.2 149.3 L 845.1 152.9 L 843.9 156.3 L 842.5 159.5 L 840.9 162.5 L 839.3 165.4 L 837.5 168.1 L 835.6 170.6 L 833.7 173.0 L 831.6 175.1 L 829.5 177.1 L 827.3 178.9 L 825.1 180.6 L 822.8 182.0 L 820.5 183.3 L 818.1 184.4 L 815.7 185.3 L 813.3 186.1 L 810.9 186.7 L 808.5 187.1 L 806.1 187.3 L 803.7 187.4 L 801.3 187.3 L 798.9 187.0 L 796.5 186.6 L 794.1 186.0 L 791.8 185.1 L 789.4 184.1 L 787.1 182.9 L 784.7 181.5 L 782.4 179.8 L 780.1 177.9 L 777.8 175.8 L 775.6 173.3 L 773.4 170.7 L 771.2 167.7 L 769.2 164.4 L 767.2 160.8 L 765.2 156.9 L 763.4 152.7 L 761.7 148.2 L 760.2 143.3 L 758.8 138.1 L 757.5 132.5 L 756.4 126.5 L 755.6 120.2 L 754.9 113.6 L 754.4 106.6 L 754.6 107.6 L 724.4 91.1 L 725.0 107.9 L 725.5 115.9 L 726.2 123.7 L 727.2 131.1 L 728.4 138.2 L 729.9 145.0 L 731.6 151.5 L 733.5 157.8 L 735.6 163.7 L 738.0 169.3 L 740.6 174.7 L 743.4 179.7 L 746.4 184.5 L 749.6 188.9 L 753.0 193.0 L 756.5 196.9 L 760.2 200.4 L 764.1 203.6 L 768.1 206.5 L 772.3 209.0 L 776.6 211.2 L 780.9 213.1 L 785.4 214.6 L 789.9 215.8 L 794.4 216.7 L 798.9 217.2 L 803.5 217.4 L 808.1 217.3 L 812.6 216.8 L 817.0 216.1 L 821.4 215.0 L 825.7 213.6 L 830.0 212.0 L 834.1 210.0 L 838.1 207.8 L 842.0 205.3 L 845.8 202.6 L 849.4 199.6 L 852.8 196.4 L 856.1 192.9 L 859.2 189.2 L 862.1 185.3 L 864.8 181.1 L 867.3 176.8 L 869.6 172.2 L 871.7 167.5 L 873.5 162.5 L 875.1 157.4 L 876.5 152.1 L 877.5 146.7 L 878.4 141.0 L 878.9 135.3 L 879.1 129.3 L 879.0 123.3 L 878.5 117.1 L 877.8 110.7 L 876.8 104.3 L 875.4 97.7 L 873.7 91.1 L 871.7 84.3 L 869.3 77.4 L 866.6 70.5 L 863.6 63.4 L 860.2 56.2 Z" fill="purple" stroke="none" /></g></g><g transform="translate(245.524,674.363) scale(0.856821,-0.856821)">
    <path d="M306 -7Q288 -7 278.5 2.5Q269 12 269 34V66Q269 100 276.5 123.5Q284 147 307 163L438 251Q449 259 455.5 266.0Q462 273 464.0 282.5Q466 292 466 307V395Q466 413 456.0 422.0Q446 431 427 431H137Q98 431 81.5 451.5Q65 472 65 524Q65 549 69.0 574.0Q73 599 84 647H119V633Q119 613 132.0 602.5Q145 592 166 592H427Q475 592 502.0 565.5Q529 539 529 479V314Q529 288 525.5 269.0Q522 250 514.0 237.0Q506 224 490 212L369 131Q352 119 348.0 105.5Q344 92 344 71V34Q344 12 334.0 2.5Q324 -7 306 -7ZM76 -240V240Q76 283 83.5 306.0Q91 329 107 336L127 345L137 332L150 -201Q136 -216 123.5 -224.5Q111 -233 94 -240Z" fill="black" />
  </g>
</svg>