<svg xmlns="http://www.w3.org/2000/svg" width="1237.0" height="1237.0" viewBox="-118.5 -102.0 1237.0 1237.0">
  <g id="decorations"><polygon points="315.0,178.0 345.0,178.0 340.7,-72.0 315.3,-67.0" fill="purple" /><polygon points="655.0,298.0 685.0,298.0 680.7,-72.0 655.3,-67.0" fill="purple" /><g><path d="M 332.8 865.7 L 337.7 870.1 L 342.2 874.6 L 346.6 879.2 L 350.6 883.8 L 354.5 888.5 L 358.0 893.2 L 361.3 898.0 L 364.4 902.9 L 367.3 907.7 L 369.9 912.6 L 372.3 917.5 L 374.5 922.4 L 376.5 927.3 L 378.3 932.2 L 379.9 937.1 L 381.3 942.0 L 382.4 946.9 L 383.4 951.8 L 384.1 956.6 L 384.7 961.4 L 385.1 966.2 L 385.3 970.9 L 385.2 975.6 L 385.0 980.2 L 384.7 984.7 L 384.1 989.2 L 383.4 993.5 L 382.5 997.8 L 381.4 1002.0 L 380.1 1006.1 L 378.7 1010.1 L 377.2 1014.0 L 375.5 1017.7 L 373.6 1021.3 L 371.6 1024.8 L 369.5 1028.2 L 367.2 1031.4 L 364.8 1034.4 L 362.2 1037.3 L 359.5 1040.1 L 356.7 1042.7 L 353.8 1045.1 L 350.7 1047.4 L 347.6 1049.5 L 344.3 1051.4 L 340.8 1053.1 L 337.3 1054.7 L 333.6 1056.1 L 329.8 1057.3 L 325.8 1058.3 L 321.7 1059.1 L 317.5 1059.6 L 313.2 1060.0 L 308.6 1060.2 L 304.0 1060.1 L 299.2 1059.7 L 294.2 1059.1 L 289.1 1058.3 L 283.9 1057.1 L 278.5 1055.7 L 272.9 1053.9 L 267.2 1051.9 L 261.4 1049.5 L 265.0 1050.2 L 233.1 1069.8 L 249.6 1076.5 L 256.5 1079.3 L 263.3 1081.9 L 270.1 1084.1 L 276.7 1085.9 L 283.3 1087.4 L 289.8 1088.6 L 296.2 1089.4 L 302.5 1089.9 L 308.7 1090.1 L 314.8 1089.9 L 320.8 1089.5 L 326.6 1088.7 L 332.3 1087.6 L 337.9 1086.2 L 343.3 1084.5 L 348.6 1082.5 L 353.7 1080.2 L 358.6 1077.7 L 363.4 1075.0 L 367.9 1072.0 L 372.3 1068.7 L 376.5 1065.2 L 380.5 1061.6 L 384.2 1057.7 L 387.8 1053.6 L 391.2 1049.4 L 394.3 1045.0 L 397.3 1040.4 L 400.0 1035.7 L 402.5 1030.8 L 404.8 1025.8 L 406.8 1020.7 L 408.7 1015.4 L 410.3 1010.1 L 411.7 1004.7 L 412.8 999.1 L 413.8 993.5 L 414.5 987.8 L 415.0 982.1 L 415.2 976.3 L 415.2 970.4 L 415.0 964.5 L 414.6 958.5 L 413.9 952.6 L 412.9 946.6 L 411.7 940.5 L 410.3 934.5 L 408.6 928.5 L 406.7 922.5 L 404.5 916.5 L 402.0 910.5 L 399.3 904.6 L 396.2 898.7 L 392.9 892.9 L 389.3 887.1 L 385.5 881.5 L 381.4 875.9 L 377.0 870.3 L 372.4 864.9 L 367.5 859.6 L 362.3 854.4 L 356.9 849.3 L 351.2 844.3 Z" fill="purple" stroke="none" /><path d="M 266.5 1053.8 L 260.9 1049.8 L 255.6 1045.7 L 250.8 1041.6 L 246.3 1037.5 L 242.1 1033.4 L 238.3 1029.2 L 234.8 1025.1 L 231.6 1021.0 L 228.8 1016.9 L 226.2 1012.9 L 223.9 1008.8 L 221.9 1004.9 L 220.1 1001.0 L 218.6 997.1 L 217.3 993.4 L 216.2 989.6 L 215.4 986.0 L 214.8 982.4 L 214.4 978.9 L 214.2 975.5 L 214.2 972.2 L 214.4 969.0 L 214.7 965.9 L 215.3 962.9 L 216.0 960.0 L 216.8 957.2 L 217.8 954.5 L 218.9 952.0 L 220.2 949.6 L 221.5 947.3 L 223.0 945.2 L 224.6 943.2 L 226.3 941.3 L 228.1 939.6 L 230.0 938.0 L 232.0 936.6 L 234.0 935.3 L 236.1 934.2 L 238.3 933.3 L 240.6 932.5 L 243.0 931.8 L 245.5 931.4 L 248.0 931.1 L 250.7 930.9 L 253.4 931.0 L 256.3 931.3 L 259.2 931.8 L 262.2 932.5 L 265.4 933.5 L 268.6 934.7 L 272.0 936.2 L 275.4 938.0 L 278.9 940.1 L 282.5 942.5 L 286.2 945.3 L 290.0 948.3 L 293.8 951.8 L 297.6 955.6 L 301.5 959.8 L 305.4 964.4 L 309.3 969.5 L 313.2 974.9 L 317.1 980.7 L 315.4 979.9 L 351.9 979.1 L 341.9 964.9 L 337.5 958.1 L 333.0 951.8 L 328.4 945.9 L 323.8 940.3 L 319.1 935.2 L 314.4 930.4 L 309.6 925.9 L 304.8 921.9 L 299.9 918.2 L 295.0 914.8 L 290.1 911.8 L 285.1 909.2 L 280.1 907.0 L 275.1 905.1 L 270.1 903.6 L 265.2 902.4 L 260.2 901.5 L 255.3 901.1 L 250.4 900.9 L 245.6 901.1 L 240.9 901.7 L 236.3 902.6 L 231.8 903.8 L 227.4 905.3 L 223.2 907.2 L 219.2 909.3 L 215.3 911.7 L 211.6 914.3 L 208.1 917.2 L 204.9 920.3 L 201.8 923.7 L 199.0 927.2 L 196.4 931.0 L 194.0 934.9 L 191.9 939.0 L 190.0 943.2 L 188.4 947.6 L 187.0 952.1 L 185.9 956.8 L 185.1 961.5 L 184.5 966.4 L 184.2 971.3 L 184.2 976.4 L 184.5 981.5 L 185.1 986.6 L 186.0 991.8 L 187.1 997.0 L 188.6 1002.3 L 190.4 1007.6 L 192.5 1012.8 L 195.0 1018.1 L 197.8 1023.3 L 200.9 1028.5 L 204.4 1033.7 L 208.2 1038.8 L 212.3 1043.9 L 216.7 1048.9 L 221.5 1053.8 L 226.7 1058.6 L 232.1 1063.4 L 238.0 1068.1 L 244.2 1072.7 L 250.7 1077.2 Z" fill="purple" stroke="none" /></g></g><g transform="translate(245.524,674.363) scale(0.856821,-0.856821)">
    <path d="M306 -7Q288 -7 278.5 2.5Q269 12 269 34V66Q269 100 276.5 123.5Q284 147 307 163L438 251Q449 259 455.5 266.0Q462 273 464.0 282.5Q466 292 466 307V395Q466 413 456.0 422.0Q446 431 427 431H137Q98 431 81.5 451.5Q65 472 65 524Q65 549 69.0 574.0Q73 599 84 647H119V633Q119 613 132.0 602.5Q145 592 166 592H427Q475 592 502.0 565.5Q529 539 529 479V314Q529 288 525.5 269.0Q522 250 514.0 237.0Q506 224 490 212L369 131Q352 119 348.0 105.5Q344 92 344 71V34Q344 12 334.0 2.5Q324 -7 306 -7ZM76 -240V240Q76 283 83.5 306.0Q91 329 107 336L127 345L137 332L150 -201Q136 -216 123.5 -224.5Q111 -233 94 -240Z" fill="black" />
  </g>
</svg>