<svg xmlns="http://www.w3.org/2000/svg" width="1085.0" height="1085.0" viewBox="-42.5 -85.0 1085.0 1085.0">
  <g id="decorations"><path d="M 306.8 197.4 L 313.8 193.4 L 320.7 189.4 L 327.2 185.2 L 333.6 180.9 L 339.6 176.4 L 345.5 171.9 L 351.0 167.2 L 356.3 162.4 L 361.4 157.5 L 366.2 152.5 L 370.8 147.5 L 375.1 142.3 L 379.0 137.0 L 382.8 131.6 L 386.2 126.2 L 389.4 120.7 L 392.4 115.2 L 395.1 109.6 L 397.5 103.9 L 399.6 98.3 L 401.5 92.6 L 403.1 86.8 L 404.5 81.1 L 405.6 75.4 L 406.4 69.6 L 406.9 63.9 L 407.2 58.1 L 407.1 52.4 L 406.9 46.8 L 406.3 41.1 L 405.5 35.5 L 404.4 30.0 L 403.0 24.5 L 401.3 19.1 L 399.4 13.8 L 397.2 8.5 L 394.7 3.4 L 392.0 -1.6 L 389.0 -6.5 L 385.7 -11.3 L 382.2 -16.0 L 378.4 -20.5 L 374.4 -24.9 L 370.2 -29.1 L 365.6 -33.2 L 360.9 -37.1 L 355.9 -40.8 L 350.7 -44.3 L 345.2 -47.7 L 339.5 -50.9 L 333.6 -53.9 L 327.4 -56.7 L 321.1 -59.2 L 314.5 -61.6 L 307.7 -63.7 L 300.7 -65.7 L 293.4 -67.4 L 286.0 -68.9 L 278.3 -70.1 L 270.5 -71.2 L 262.4 -71.9 L 254.1 -72.5 L 245.6 -72.8 L 247.5 -73.2 L 226.6 -43.1 L 245.0 -43.3 L 252.5 -43.0 L 259.9 -42.5 L 267.0 -41.7 L 273.9 -40.8 L 280.6 -39.7 L 287.0 -38.3 L 293.2 -36.8 L 299.1 -35.1 L 304.8 -33.3 L 310.3 -31.3 L 315.6 -29.1 L 320.6 -26.8 L 325.4 -24.4 L 330.0 -21.8 L 334.4 -19.2 L 338.5 -16.4 L 342.4 -13.4 L 346.1 -10.4 L 349.6 -7.3 L 352.8 -4.1 L 355.9 -0.7 L 358.7 2.7 L 361.3 6.1 L 363.8 9.7 L 366.0 13.4 L 368.0 17.1 L 369.8 20.8 L 371.4 24.7 L 372.9 28.6 L 374.1 32.6 L 375.1 36.6 L 375.9 40.7 L 376.5 44.8 L 376.9 49.0 L 377.2 53.2 L 377.2 57.5 L 377.0 61.8 L 376.6 66.1 L 376.0 70.5 L 375.1 74.9 L 374.1 79.3 L 372.8 83.8 L 371.4 88.2 L 369.7 92.7 L 367.7 97.2 L 365.6 101.6 L 363.2 106.1 L 360.6 110.5 L 357.8 115.0 L 354.7 119.4 L 351.4 123.8 L 347.9 128.1 L 344.2 132.5 L 340.2 136.8 L 336.0 141.1 L 331.6 145.3 L 326.9 149.4 L 321.9 153.5 L 316.7 157.5 L 311.2 161.4 L 305.5 165.3 L 299.5 169.0 L 293.2 172.6 Z" fill="purple" stroke="none" /></g><g transform="translate(236.789,871.865) scale(1.162080,-1.162080)">
    <path d="M368 -7V364Q368 399 355.5 415.0Q343 431 299 431H81Q43 431 26.0 451.5Q9 472 9 524Q9 549 13.5 574.0Q18 599 29 647H64V633Q64 613 76.5 602.5Q89 592 111 592H287Q332 592 363.0 575.0Q394 558 411.0 522.0Q428 486 430 429L444 30Q430 16 418.0 8.0Q406 0 386 -7Z" fill="black" />
  </g>
</svg>