<svg xmlns="http://www.w3.org/2000/svg" width="1085.0" height="1085.0" viewBox="-42.5 -85.0 1085.0 1085.0">
  <g id="decorations"><polygon points="285.0,195.0 315.0,195.0 310.7,-55.0 285.3,-50.0" fill="purple" /><polygon points="475.0,195.0 505.0,195.0 500.7,-55.0 475.3,-50.0" fill="purple" /><polygon points="270.0,353.0 300.0,353.0 264.9,595.6 239.5,600.6" fill="purple" /></g><g transform="translate(236.789,871.865) scale(1.162080,-1.162080)">
    <path d="M368 -7V364Q368 399 355.5 415.0Q343 431 299 431H81Q43 431 26.0 451.5Q9 472 9 524Q9 549 13.5 574.0Q18 599 29 647H64V633Q64 613 76.5 602.5Q89 592 111 592H287Q332 592 363.0 575.0Q394 558 411.0 522.0Q428 486 430 429L444 30Q430 16 418.0 8.0Q406 0 386 -7Z" fill="black" />
  </g>
</svg>