<?xml version="1.0" encoding="UTF-8" standalone="no"?>
<svg
   width="1000"
   height="1000"
   viewBox="0 0 1000 1000"
   version="1.1"
   id="svg1"
   xmlns="http://www.w3.org/2000/svg"
   xmlns:svg="http://www.w3.org/2000/svg">
  <defs
     id="defs1" />
  <g
     transform="matrix(1.16208,0,0,-1.16208,236.789,871.865)"
     id="g1">
    <path
       d="m 368,-7 v 371 c 0,23.33333 -4.16667,40.33333 -12.5,51 -8.33333,10.66667 -27.16667,16 -56.5,16 H -91.105604 c -25.333336,0 -43.666326,6.83333 -54.999656,20.5 -11.33333,13.66667 -16.99969,37.83333 -16.99969,72.5 0,16.66667 1.49969,33.33333 4.49969,50 3,16.66667 8.16646,41 15.49979,73 h 35.00018 v -14 c 0,-13.33333 4.16666,-23.5 12.499996,-30.5 8.333333,-7 19.83354,-10.5 34.500207,-10.5 H 287 c 30,0 55.33333,-5.66667 76,-17 20.66667,-11.33333 36.66667,-29 48,-53 11.33333,-24 17.66667,-55 19,-93 L 444,30 C 434.66667,20.666667 426,13.333333 418,8 410,2.6666667 399.33333,-2.3333333 386,-7 Z"
       fill="#000000"
       id="path1" />
  </g>
</svg>
