<svg xmlns="http://www.w3.org/2000/svg" width="1218.0" height="1218.0" viewBox="-109.0 -93.0 1218.0 1218.0">
  <g id="decorations"><polygon points="285.0,187.0 315.0,187.0 310.7,-63.0 285.3,-58.0" fill="purple" /><polygon points="690.0,307.0 720.0,307.0 715.7,-63.0 690.3,-58.0" fill="purple" /><polygon points="290.0,725.0 320.0,725.0 319.7,1090.0 294.3,1095.0" fill="purple" /><polygon points="225.0,345.0 255.0,345.0 169.2,574.9 143.8,579.9" fill="purple" /></g><g transform="translate(158.232,869.573) scale(1.158537,-1.158537)">
    <path d="M290 -9Q212 -9 160.5 21.0Q109 51 84.5 106.0Q60 161 60 236Q60 298 76.5 347.0Q93 396 108 429V462H155V431Q149 413 141.0 390.5Q133 368 127.5 341.0Q122 314 122 283Q122 235 141.5 202.5Q161 170 201.0 154.0Q241 138 302 138Q365 138 404.5 156.0Q444 174 464.0 211.0Q484 248 484 306Q484 347 473.0 374.5Q462 402 435.5 416.5Q409 431 361 431H117Q82 431 63.5 451.5Q45 472 45 525Q45 549 49.0 574.0Q53 599 64 647H99V632Q99 612 111.0 602.0Q123 592 147 592H381Q420 592 448.0 582.5Q476 573 496.0 548.5Q516 524 528 475Q539 438 542.0 401.5Q545 365 545 332Q545 288 540.0 240.5Q535 193 520.5 148.5Q506 104 478.0 68.5Q450 33 404.0 12.0Q358 -9 290 -9Z" fill="black" />
  </g>
</svg>