<svg xmlns="http://www.w3.org/2000/svg" width="1060.0" height="1060.0" viewBox="-30.0 -60.0 1060.0 1060.0">
  <g id="decorations"><polygon points="75.0,220.0 105.0,220.0 100.7,-30.0 75.3,-25.0" fill="purple" /><polygon points="125.0,220.0 155.0,220.0 150.7,-30.0 125.3,-25.0" fill="purple" /><polygon points="175.0,220.0 205.0,220.0 200.7,-30.0 175.3,-25.0" fill="purple" /></g><g transform="translate(195.228,862.091) scale(1.119293,-1.119293)">
    <path d="M118 0              Q110 42 103.0 84.0       Q96 126 90.5 163.5       Q85 201 79.5 231.5       Q75 262 68 281       Q55 304 33.5 330.0       Q5 356 -20.5 383.0              Q-50 410 -93 434       L-103 436       Q-125 442 -138 450.5       Q-151 459 -155.5 475.0       Q-160 491 -160 518       Q-160 544 -154.5 576.0       Q-149 608 -136 647       H-101       V631       Q-101 614 -91 604.5       Q-81 595 -62 593       L-23 587       Q11 583 23.0 563.5       Q35 544 35 515       Q35 491 31.0 466.5       Q27 442 21 420       L-9 427              Q53 395 97.0 359.5       Q133 324 138 295       Q143 278 145.5 257.0       Q148 236 152.5 212.0       Q157 188 164 161              H309       L359 433       L347 435       Q314 439 300.0 457.5       Q286 476 286 517       Q286 545 292.0 577.5       Q298 610 311 647       H345       V631       Q345 614 355.0 604.5       Q365 595 385 593       L424 587       Q458 583 470.0 563.5       Q482 544 482 515       Q482 491 477.5 466.5       Q473 442 467 420       L419 425       L370 161       H458       Q488 161 511.5 171.0       Q535 181 553.0 199.0       Q571 217 585.5 240.0       Q600 263 610.5 289.5       Q621 316 629.0 344.0       Q637 372 642 398       L650 427       L589 433       Q555 437 541.5 456.5       Q528 476 528 518       Q528 544 533.5 574.5       Q539 605 553 647       H587       V631       Q587 617 595.0 606.0       Q603 595 625 593       L661 590       Q686 587 699.5 573.0       Q713 559 717.0 537.5       Q721 516 717 493       L690 356       Q683 318 673.0 277.0       Q663 236 649.0 196.0       Q635 156 616.5 120.5       Q598 85 574.5 58.0       Q551 31 522.5 15.5       Q494 0 459 0Z" fill="black" />
  </g>
</svg>