<svg xmlns="http://www.w3.org/2000/svg" width="1035.0" height="1035.0" viewBox="-17.5 -35.0 1035.0 1035.0">
  <g id="decorations"><polygon points="225.0,245.0 255.0,245.0 250.7,-5.0 225.3,0.0" fill="purple" /><polygon points="505.0,245.0 535.0,245.0 530.7,-5.0 505.3,0.0" fill="purple" /><polygon points="775.0,245.0 805.0,245.0 800.7,-5.0 775.3,0.0" fill="purple" /></g><g transform="translate(75.228,862.091) scale(1.119293,-1.119293)">
    <path d="M118 0Q110 42 103.0 84.0Q96 126 90.5 163.5Q85 201 82.5 231.5Q80 262 80 281Q80 304 83.5 330.0Q87 356 93.5 383.0Q100 410 107 434L97 436Q75 442 62.0 450.5Q49 459 44.5 475.0Q40 491 40 518Q40 544 45.5 576.0Q51 608 64 647H99V631Q99 614 109.0 604.5Q119 595 138 593L177 587Q211 583 223.0 563.5Q235 544 235 515Q235 491 231.0 466.5Q227 442 221 420L161 427Q153 395 148.0 359.5Q143 324 143 295Q143 278 145.5 257.0Q148 236 152.5 212.0Q157 188 164 161H309L359 433L347 435Q314 439 300.0 457.5Q286 476 286 517Q286 545 292.0 577.5Q298 610 311 647H345V631Q345 614 355.0 604.5Q365 595 385 593L424 587Q458 583 470.0 563.5Q482 544 482 515Q482 491 477.5 466.5Q473 442 467 420L419 425L370 161H458Q488 161 511.5 171.0Q535 181 553.0 199.0Q571 217 585.5 240.0Q600 263 610.5 289.5Q621 316 629.0 344.0Q637 372 642 398L650 427L589 433Q555 437 541.5 456.5Q528 476 528 518Q528 544 533.5 574.5Q539 605 553 647H587V631Q587 617 595.0 606.0Q603 595 625 593L661 590Q686 587 699.5 573.0Q713 559 717.0 537.5Q721 516 717 493L690 356Q683 318 673.0 277.0Q663 236 649.0 196.0Q635 156 616.5 120.5Q598 85 574.5 58.0Q551 31 522.5 15.5Q494 0 459 0Z" fill="black" />
  </g>
</svg>