<svg xmlns="http://www.w3.org/2000/svg" width="1223.0" height="1223.0" viewBox="-111.5 -88.0 1223.0 1223.0">
  <g id="decorations"><g><path d="M 763.9 867.7 L 769.7 870.7 L 775.3 873.9 L 780.7 877.2 L 785.8 880.6 L 790.7 884.1 L 795.4 887.8 L 799.8 891.6 L 804.1 895.4 L 808.1 899.4 L 811.9 903.4 L 815.4 907.6 L 818.8 911.7 L 822.0 915.9 L 825.0 920.2 L 827.8 924.5 L 830.4 928.9 L 832.8 933.3 L 835.0 937.8 L 837.0 942.3 L 838.8 946.8 L 840.4 951.3 L 841.8 955.8 L 843.0 960.3 L 844.0 964.8 L 844.8 969.3 L 845.4 973.7 L 845.8 978.1 L 846.1 982.5 L 846.1 986.8 L 846.0 991.1 L 845.6 995.3 L 845.1 999.4 L 844.4 1003.5 L 843.6 1007.5 L 842.6 1011.4 L 841.3 1015.1 L 840.0 1018.8 L 838.4 1022.4 L 836.7 1025.9 L 834.8 1029.2 L 832.8 1032.5 L 830.6 1035.6 L 828.2 1038.6 L 825.7 1041.4 L 823.0 1044.1 L 820.1 1046.7 L 817.1 1049.1 L 813.9 1051.4 L 810.5 1053.6 L 807.0 1055.5 L 803.2 1057.4 L 799.3 1059.0 L 795.2 1060.5 L 790.9 1061.8 L 786.4 1062.9 L 781.6 1063.8 L 776.7 1064.5 L 771.5 1065.0 L 766.2 1065.3 L 760.6 1065.3 L 754.8 1065.0 L 748.7 1064.5 L 742.5 1063.7 L 746.4 1063.9 L 720.1 1090.2 L 738.1 1092.8 L 745.5 1093.8 L 752.7 1094.5 L 759.8 1094.9 L 766.7 1094.9 L 773.5 1094.7 L 780.0 1094.1 L 786.4 1093.3 L 792.6 1092.1 L 798.7 1090.7 L 804.5 1089.0 L 810.2 1087.0 L 815.6 1084.7 L 820.8 1082.1 L 825.9 1079.3 L 830.7 1076.3 L 835.2 1073.0 L 839.6 1069.5 L 843.7 1065.8 L 847.6 1061.9 L 851.2 1057.8 L 854.6 1053.6 L 857.7 1049.1 L 860.6 1044.6 L 863.3 1039.8 L 865.7 1035.0 L 867.8 1030.0 L 869.7 1024.9 L 871.4 1019.8 L 872.8 1014.5 L 873.9 1009.2 L 874.8 1003.7 L 875.5 998.3 L 875.9 992.7 L 876.1 987.1 L 876.0 981.5 L 875.7 975.9 L 875.2 970.2 L 874.4 964.5 L 873.4 958.9 L 872.1 953.2 L 870.6 947.5 L 868.9 941.9 L 866.9 936.2 L 864.7 930.6 L 862.2 925.1 L 859.5 919.6 L 856.5 914.1 L 853.3 908.7 L 849.9 903.4 L 846.2 898.2 L 842.3 893.1 L 838.1 888.1 L 833.7 883.2 L 829.0 878.4 L 824.0 873.8 L 818.9 869.3 L 813.5 865.0 L 807.8 860.8 L 801.9 856.7 L 795.8 852.8 L 789.5 849.1 L 782.9 845.6 L 776.1 842.3 Z" fill="purple" stroke="none" /><path d="M 748.5 1066.6 L 742.0 1064.1 L 735.9 1061.6 L 730.2 1058.9 L 724.8 1056.1 L 719.7 1053.2 L 714.9 1050.1 L 710.5 1047.1 L 706.3 1043.9 L 702.5 1040.7 L 699.0 1037.4 L 695.8 1034.1 L 692.8 1030.8 L 690.0 1027.6 L 687.6 1024.2 L 685.3 1020.9 L 683.3 1017.6 L 681.6 1014.3 L 680.1 1011.0 L 678.8 1007.7 L 677.7 1004.5 L 676.9 1001.3 L 676.2 998.1 L 675.8 995.0 L 675.5 992.0 L 675.4 989.0 L 675.5 986.1 L 675.8 983.3 L 676.2 980.5 L 676.8 977.9 L 677.5 975.3 L 678.4 972.9 L 679.4 970.5 L 680.6 968.3 L 681.9 966.2 L 683.3 964.2 L 684.8 962.3 L 686.5 960.6 L 688.3 958.9 L 690.1 957.4 L 692.1 956.1 L 694.3 954.8 L 696.5 953.7 L 698.9 952.8 L 701.4 952.0 L 704.1 951.3 L 706.9 950.9 L 709.9 950.6 L 713.0 950.5 L 716.3 950.6 L 719.8 951.0 L 723.4 951.6 L 727.2 952.4 L 731.1 953.5 L 735.2 954.9 L 739.5 956.6 L 743.9 958.6 L 748.5 961.0 L 753.2 963.7 L 758.0 966.8 L 762.9 970.2 L 768.0 974.0 L 773.2 978.2 L 778.5 982.9 L 776.1 982.3 L 812.1 972.6 L 798.3 961.1 L 792.3 955.8 L 786.3 950.8 L 780.4 946.3 L 774.5 942.1 L 768.7 938.3 L 762.8 934.9 L 757.1 931.9 L 751.4 929.2 L 745.7 926.9 L 740.1 924.9 L 734.6 923.3 L 729.1 922.1 L 723.7 921.2 L 718.4 920.7 L 713.2 920.5 L 708.0 920.6 L 703.0 921.1 L 698.2 921.9 L 693.4 923.1 L 688.8 924.5 L 684.4 926.3 L 680.2 928.3 L 676.2 930.7 L 672.4 933.3 L 668.8 936.1 L 665.4 939.2 L 662.3 942.5 L 659.4 946.0 L 656.8 949.7 L 654.4 953.6 L 652.4 957.6 L 650.5 961.8 L 649.0 966.1 L 647.7 970.5 L 646.7 975.0 L 646.0 979.6 L 645.6 984.2 L 645.4 989.0 L 645.6 993.7 L 646.0 998.5 L 646.7 1003.4 L 647.7 1008.2 L 649.0 1013.1 L 650.6 1017.9 L 652.5 1022.7 L 654.7 1027.5 L 657.2 1032.3 L 660.0 1037.0 L 663.1 1041.6 L 666.5 1046.1 L 670.2 1050.6 L 674.2 1054.9 L 678.6 1059.1 L 683.3 1063.2 L 688.3 1067.2 L 693.6 1071.0 L 699.2 1074.7 L 705.1 1078.2 L 711.3 1081.6 L 717.8 1084.7 L 724.7 1087.8 L 731.8 1090.6 L 739.3 1093.2 Z" fill="purple" stroke="none" /></g></g><g transform="translate(165.902,871.865) scale(1.162080,-1.162080)">
    <path d="M483 -7V364Q483 400 470.5 415.5Q458 431 414 431H137Q98 431 81.0 451.5Q64 472 64 524Q64 549 68.5 574.0Q73 599 84 647H119V633Q119 613 132.0 602.5Q145 592 166 592H402Q447 592 478.0 575.0Q509 558 526.0 522.0Q543 486 545 429L559 30Q545 16 533.0 8.0Q521 0 502 -7ZM16 0 29 161H100Q113 161 118.0 166.5Q123 172 122 185L117 265Q115 289 120.0 316.5Q125 344 134.5 373.0Q144 402 154 428V465H202V431Q199 420 194.5 404.0Q190 388 186.5 369.0Q183 350 180.0 330.0Q177 310 177 291Q177 266 181.0 239.0Q185 212 190.5 185.0Q196 158 200.0 131.5Q204 105 204 81Q204 64 202.0 43.5Q200 23 193 0Z" fill="black" />
  </g>
</svg>