<svg xmlns="http://www.w3.org/2000/svg" width="1223.0" height="1223.0" viewBox="-111.5 -88.0 1223.0 1223.0">
  <g id="decorations" /><g transform="translate(65.902,871.865) scale(1.162080,-1.162080)">
    <path d="M683 -7       V364       Q683 400 670.5 415.5       Q658 431 614 431       H137       Q98 431 81.0 451.5       Q64 472 64 524       Q64 549 68.5 574.0       Q73 599 84 647       H119       V633       Q119 613 132.0 602.5       Q145 592 166 592       H402       Q647 592 678.0 575.0       Q709 558 726.0 522.0       Q743 486 745 429       L759 30       Q745 16 733.0 8.0       Q721 0 702 -7Z              M16 0 29 161       H100       Q113 161 118.0 166.5       Q123 172 122 185       L117 265       Q115 289 120.0 316.5       Q125 344 134.5 373.0       Q144 402 154 428       V465       H202       V431       Q199 420 194.5 404.0       Q190 388 186.5 369.0       Q183 350 180.0 330.0       Q177 310 177 291       Q177 266 181.0 239.0       Q185 212 190.5 185.0       Q196 158 200.0 131.5       Q204 105 204 81       Q204 64 202.0 43.5       Q200 23 193 0Z" fill="black" />
  </g>
</svg>