<svg xmlns="http://www.w3.org/2000/svg" width="1223.0" height="1223.0" viewBox="-111.5 -88.0 1223.0 1223.0">
  <g id="decorations"><polygon points="275.0,192.0 305.0,192.0 300.7,-58.0 275.3,-53.0" fill="purple" /></g><g transform="translate(165.902,871.865) scale(1.162080,-1.162080)">
    <path d="M483 -7V364Q483 400 470.5 415.5Q458 431 414 431H137Q98 431 81.0 451.5Q64 472 64 524Q64 549 68.5 574.0Q73 599 84 647H119V633Q119 613 132.0 602.5Q145 592 166 592H402Q447 592 478.0 575.0Q509 558 526.0 522.0Q543 486 545 429L559 30Q545 16 533.0 8.0Q521 0 502 -7ZM16 0 29 161H100Q113 161 118.0 166.5Q123 172 122 185L117 265Q115 289 120.0 316.5Q125 344 134.5 373.0Q144 402 154 428V465H202V431Q199 420 194.5 404.0Q190 388 186.5 369.0Q183 350 180.0 330.0Q177 310 177 291Q177 266 181.0 239.0Q185 212 190.5 185.0Q196 158 200.0 131.5Q204 105 204 81Q204 64 202.0 43.5Q200 23 193 0Z" fill="black" />
  </g>
</svg>