<svg xmlns="http://www.w3.org/2000/svg" width="1095.0" height="1095.0" viewBox="-47.5 -95.0 1095.0 1095.0">
  <g id="decorations"><polygon points="245.0,210.0 275.0,210.0 270.7,-40.0 245.3,-35.0" fill="purple" /><polygon points="295.0,210.0 325.0,210.0 320.7,-40.0 295.3,-35.0" fill="purple" /><polygon points="345.0,210.0 375.0,210.0 370.7,-40.0 345.3,-35.0" fill="purple" /></g><g transform="translate(229.397,880.000) scale(1.174652,-1.174652)">
    <path d="M125 0       Q113 64 105.5 119.0       Q98 174 95.0 215.5       Q92 257 92 278       Q92 308 97.0 340.0       Q102 372 110.5 404.0       Q119 436 128 462       L176 456       Q169 430 164.5 401.5       Q160 373 158.0 346.0       Q156 319 156 295       Q156 280 157.5 260.5       Q159 241 163.5 217.0       Q168 193 177 161       H388       Q432 161 461.5 175.5       Q491 190 508 218       Q515 232 520.0 247.5       Q525 263 527.5 281.5       Q530 300 530 321       Q530 373 516.5 402.5       Q503 432 481.0 444.0       Q459 456 433 456       Q406 456 386.0 446.5       Q366 437 353.0 418.0       Q340 399 335 369       H302       Q310 484 351.0 544.0       Q392 604 458 604       Q501 604 530.5 578.0       Q560 552 575.5 500.5       Q591 449 591 370       Q591 330 585.5 284.5       Q580 239 564.0 186.5       Q548 134 518 70       Q505 42 493.5 26.5       Q482 11 463.0 5.5       Q444 0 406 0Z              M232 418        -99 435       Q-134 438 -147.0 458.0       Q-160 477 -160 519       Q-160 545 -154.0 576.0       Q-148 607 -135 647       H-100       V630       Q-100 613 -90.5 603.5       Q-81 594 -62 592       L188 586       Q218 583 232.0 563.0       Q246 543 246 507       Q246 486 242.5 465.5       Q239 445 232 418Z" fill="black" />
  </g>
</svg>