<svg xmlns="http://www.w3.org/2000/svg" width="1095.0" height="1095.0" viewBox="-47.5 -95.0 1095.0 1095.0">
  <g id="decorations"><polygon points="270.0,210.0 300.0,210.0 295.7,-40.0 270.3,-35.0" fill="purple" /><polygon points="320.0,210.0 350.0,210.0 345.7,-40.0 320.3,-35.0" fill="purple" /><polygon points="655.0,185.0 685.0,185.0 680.7,-65.0 655.3,-60.0" fill="purple" /></g><g transform="translate(129.397,880.000) scale(1.174652,-1.174652)">
    <path d="M125 0Q113 64 105.5 119.0Q98 174 95.0 215.5Q92 257 92 278Q92 308 97.0 340.0Q102 372 110.5 404.0Q119 436 128 462L176 456Q169 430 164.5 401.5Q160 373 158.0 346.0Q156 319 156 295Q156 280 157.5 260.5Q159 241 163.5 217.0Q168 193 177 161H388Q432 161 461.5 175.5Q491 190 508 218Q515 232 520.0 247.5Q525 263 527.5 281.5Q530 300 530 321Q530 373 516.5 402.5Q503 432 481.0 444.0Q459 456 433 456Q406 456 386.0 446.5Q366 437 353.0 418.0Q340 399 335 369H302Q310 484 351.0 544.0Q392 604 458 604Q501 604 530.5 578.0Q560 552 575.5 500.5Q591 449 591 370Q591 330 585.5 284.5Q580 239 564.0 186.5Q548 134 518 70Q505 42 493.5 26.5Q482 11 463.0 5.5Q444 0 406 0ZM232 418 101 434Q66 439 53.0 458.0Q40 477 40 519Q40 545 46.0 576.0Q52 607 65 647H100V630Q100 613 109.5 603.5Q119 594 138 592L188 586Q218 583 232.0 563.0Q246 543 246 507Q246 486 242.5 465.5Q239 445 232 418Z" fill="black" />
  </g>
</svg>