<svg xmlns="http://www.w3.org/2000/svg" width="1095.0" height="1095.0" viewBox="-47.5 -95.0 1095.0 1095.0">
  <g id="decorations"><polygon points="270.0,210.0 300.0,210.0 295.7,-40.0 270.3,-35.0" fill="purple" /><polygon points="320.0,210.0 350.0,210.0 345.7,-40.0 320.3,-35.0" fill="purple" /><polygon points="655.0,185.0 685.0,185.0 680.7,-65.0 655.3,-60.0" fill="purple" /></g><g transform="translate(129.397,880.000) scale(1.174652,-1.174652)">
    <path d="M125 0Q113 64 105.5 119.0Q98 174 95.0 215.5Q92 257 92 278Q92 308 97.0 340.0Q102 372 110.5 404.0Q119 436 128 462L176 456Q169 430 164.5 401.5Q160 373 158.0 346.0Q156 319 156 295Q156 280 157.5 260.5Q159 241 163.5 217.0Q168 193 177 161H388Q432 161 461.5 175.5Q491 190 508 218Q515 232 520.0 247.5Q525 263 527.5 281.5Q530 300 530 321Q530 373 516.5 402.5Q503 432 481.0 444.0Q459 456 433 456Q406 456 386.0 446.5Q366 437 353.0 418.0Q340 399 335 369H302Q310 484 351.0 544.0Q392 604 458 604Q501 604 530.5 578.0Q560 552 575.5 500.5Q591 449 591 370Q591 330 585.5 284.5Q580 239 564.0 186.5Q548 134 518 70Q505 42 493.5 26.5Q482 11 463.0 5.5Q444 0 406 0Z              M232 418 101 434       Q66 439 53.0 458.0       Q40 477 40 519       Q40 545 46.0 576.0       Q52 607 65 647       H100       V630       Q100 613 109.5 603.5       Q119 594 138 592       L188 586       Q218 583 232.0 563.0       Q246 543 246 507       Q246 486 242.5 465.5       Q239 445 232 418Z" fill="black" />
  </g>

  <g id="decorations">
    <path d="m 484.68148,440.83704 c -1.28909,16.91272 -0.24153,35.89091 0.3952,51.25661 1.02752,24.79646 7.19543,53.84389 12.40004,77.99248 5.07707,23.5568 11.68638,34.86149 27.77475,52.89622 14.25611,15.98082 29.16711,25.17424 45.27336,27.45388 20.1185,2.84752 47.37031,4.26361 65.44963,-5.15258 11.43276,-5.95448 34.41912,-26.79987 39.67458,-42.64345 6.91131,-20.83543 6.75507,-33.96268 6.75331,-55.97312 -10e-4,-18.13959 -12.53944,-53.41508 -21.57506,-67.38346 -6.05476,-9.36021 -43.20452,-21.71562 -55.71157,-19.56644 -23.43299,4.02667 -26.23294,2.12067 -40.31943,26.43097 -6.64685,11.47105 -11.96568,49.2549 0.90217,54.88915 l 29.30894,12.83306 c 0,0 -18.40403,-42.57096 5.75557,-51.69999 9.45266,-3.57181 34.02629,0.12303 36.32007,4.36736 6.07044,11.23253 12.40876,29.24966 12.57189,42.99314 0.19394,16.33969 -4.94798,43.62063 -16.28947,55.47498 -9.1004,9.51193 -27.33818,13.47979 -40.09566,13.75035 -13.91677,0.29515 -26.59256,-6.18183 -38.67876,-15.83247 -12.17185,-9.71903 -18.05144,-27.17867 -21.93291,-41.97896 -7.08308,-27.00825 -6.7782,-31.98434 -10.25449,-59.69561 -1.39957,-11.15667 -2.00393,-21.15019 -2.03234,-33.79487 -0.0121,-5.40016 2.88294,-13.79448 3.81327,-29.0716 0.66653,-10.94529 -38.66971,-8.47949 -39.50309,2.45435 z" fill="#000000" stroke="none" id="path2" />
  </g>
</svg>