<svg xmlns="http://www.w3.org/2000/svg" width="1228.0" height="1228.0" viewBox="-114.0 -78.0 1228.0 1228.0">
  <g id="decorations"><path d="M 354.5 205.4 L 362.2 202.7 L 369.6 199.9 L 376.8 196.9 L 383.8 193.8 L 390.5 190.4 L 397.0 187.0 L 403.3 183.3 L 409.4 179.5 L 415.2 175.6 L 420.9 171.5 L 426.2 167.3 L 431.3 163.0 L 436.2 158.4 L 440.8 153.8 L 445.1 149.1 L 449.2 144.2 L 453.1 139.3 L 456.7 134.2 L 460.1 129.1 L 463.2 123.9 L 466.0 118.6 L 468.6 113.2 L 470.9 107.8 L 473.0 102.4 L 474.8 96.8 L 476.3 91.3 L 477.6 85.7 L 478.5 80.1 L 479.2 74.4 L 479.7 68.8 L 479.8 63.1 L 479.7 57.5 L 479.3 51.8 L 478.6 46.2 L 477.6 40.6 L 476.4 35.1 L 474.8 29.6 L 473.0 24.2 L 470.9 18.8 L 468.5 13.5 L 465.9 8.3 L 462.9 3.2 L 459.7 -1.8 L 456.3 -6.7 L 452.5 -11.5 L 448.5 -16.1 L 444.2 -20.7 L 439.7 -25.1 L 434.9 -29.3 L 429.9 -33.4 L 424.5 -37.4 L 419.0 -41.2 L 413.2 -44.9 L 407.1 -48.3 L 400.7 -51.6 L 394.2 -54.8 L 387.3 -57.7 L 380.3 -60.5 L 373.0 -63.0 L 365.4 -65.4 L 357.6 -67.6 L 349.5 -69.5 L 341.2 -71.3 L 343.1 -71.7 L 317.4 -45.0 L 335.4 -42.4 L 342.9 -40.8 L 350.0 -39.0 L 356.9 -37.0 L 363.5 -34.9 L 369.9 -32.6 L 376.0 -30.2 L 381.8 -27.6 L 387.4 -24.9 L 392.7 -22.1 L 397.7 -19.2 L 402.5 -16.2 L 407.1 -13.0 L 411.4 -9.8 L 415.5 -6.5 L 419.3 -3.1 L 422.9 0.4 L 426.2 3.9 L 429.3 7.6 L 432.2 11.2 L 434.9 15.0 L 437.3 18.8 L 439.5 22.6 L 441.5 26.5 L 443.2 30.5 L 444.8 34.4 L 446.1 38.4 L 447.3 42.5 L 448.2 46.5 L 448.9 50.6 L 449.4 54.8 L 449.7 58.9 L 449.8 63.1 L 449.7 67.2 L 449.4 71.4 L 448.9 75.6 L 448.1 79.8 L 447.2 84.0 L 446.0 88.2 L 444.7 92.4 L 443.1 96.6 L 441.3 100.8 L 439.3 105.0 L 437.1 109.1 L 434.6 113.2 L 432.0 117.3 L 429.1 121.3 L 426.0 125.3 L 422.6 129.2 L 419.1 133.1 L 415.3 136.9 L 411.3 140.6 L 407.1 144.3 L 402.7 148.0 L 398.0 151.5 L 393.1 155.0 L 388.0 158.4 L 382.6 161.6 L 377.0 164.8 L 371.2 167.8 L 365.1 170.7 L 358.8 173.5 L 352.3 176.1 L 345.5 178.6 Z" fill="purple" stroke="none" /><path d="M 223.2 847.6 L 216.2 851.6 L 209.3 855.6 L 202.8 859.8 L 196.4 864.1 L 190.4 868.6 L 184.5 873.1 L 179.0 877.8 L 173.7 882.6 L 168.6 887.5 L 163.8 892.5 L 159.2 897.5 L 154.9 902.7 L 151.0 908.0 L 147.2 913.4 L 143.8 918.8 L 140.6 924.3 L 137.6 929.8 L 134.9 935.4 L 132.5 941.1 L 130.4 946.7 L 128.5 952.4 L 126.9 958.2 L 125.5 963.9 L 124.4 969.6 L 123.6 975.4 L 123.1 981.1 L 122.8 986.9 L 122.9 992.6 L 123.1 998.2 L 123.7 1003.9 L 124.5 1009.5 L 125.6 1015.0 L 127.0 1020.5 L 128.7 1025.9 L 130.6 1031.2 L 132.8 1036.5 L 135.3 1041.6 L 138.0 1046.6 L 141.0 1051.5 L 144.3 1056.3 L 147.8 1061.0 L 151.6 1065.5 L 155.6 1069.9 L 159.8 1074.1 L 164.4 1078.2 L 169.1 1082.1 L 174.1 1085.8 L 179.3 1089.3 L 184.8 1092.7 L 190.5 1095.9 L 196.4 1098.9 L 202.6 1101.7 L 208.9 1104.2 L 215.5 1106.6 L 222.3 1108.7 L 229.3 1110.7 L 236.6 1112.4 L 244.0 1113.9 L 251.7 1115.1 L 259.5 1116.2 L 267.6 1116.9 L 275.9 1117.5 L 284.4 1117.8 L 282.5 1118.2 L 303.4 1088.1 L 285.0 1088.3 L 277.5 1088.0 L 270.1 1087.5 L 263.0 1086.7 L 256.1 1085.8 L 249.4 1084.7 L 243.0 1083.3 L 236.8 1081.8 L 230.9 1080.1 L 225.2 1078.3 L 219.7 1076.3 L 214.4 1074.1 L 209.4 1071.8 L 204.6 1069.4 L 200.0 1066.8 L 195.6 1064.2 L 191.5 1061.4 L 187.6 1058.4 L 183.9 1055.4 L 180.4 1052.3 L 177.2 1049.1 L 174.1 1045.7 L 171.3 1042.3 L 168.7 1038.9 L 166.2 1035.3 L 164.0 1031.6 L 162.0 1027.9 L 160.2 1024.2 L 158.6 1020.3 L 157.1 1016.4 L 155.9 1012.4 L 154.9 1008.4 L 154.1 1004.3 L 153.5 1000.2 L 153.1 996.0 L 152.8 991.8 L 152.8 987.5 L 153.0 983.2 L 153.4 978.9 L 154.0 974.5 L 154.9 970.1 L 155.9 965.7 L 157.2 961.2 L 158.6 956.8 L 160.3 952.3 L 162.3 947.8 L 164.4 943.4 L 166.8 938.9 L 169.4 934.5 L 172.2 930.0 L 175.3 925.6 L 178.6 921.2 L 182.1 916.9 L 185.8 912.5 L 189.8 908.2 L 194.0 903.9 L 198.4 899.7 L 203.1 895.6 L 208.1 891.5 L 213.3 887.5 L 218.8 883.6 L 224.5 879.7 L 230.5 876.0 L 236.8 872.4 Z" fill="purple" stroke="none" /></g><g transform="translate(182.257,880.000) scale(1.174652,-1.174652)">
    <path d="M20 0 48 161H327Q330 161 334.0 162.0Q338 163 340 165Q343 167 344.5 171.0Q346 175 346 179Q346 185 342.5 190.0Q339 195 330 202L216 281Q191 299 181.0 322.0Q171 345 171 378V411Q171 423 168.0 427.0Q165 431 153 431H112Q73 431 56.5 451.0Q40 471 40 523Q40 548 44.5 573.5Q49 599 60 647H95V633Q95 613 107.5 602.5Q120 592 142 592H166Q205 592 218.0 573.0Q231 554 231 507V427Q231 406 235.5 392.0Q240 378 253.5 365.5Q267 353 292 335L426 243Q448 229 458.5 210.5Q469 192 473.5 173.5Q478 155 479 140Q479 123 474.5 104.5Q470 86 460.5 61.5Q451 37 436 0ZM391 258 339 304Q339 315 345.5 332.0Q352 349 360.5 367.5Q369 386 378 399L423 473L470 457L422 378Q409 358 402.5 338.5Q396 319 393.5 299.5Q391 280 391 258ZM508 420 382 435Q349 439 335.0 457.5Q321 476 321 519Q321 537 323.5 555.5Q326 574 331.5 596.5Q337 619 346 647H381V631Q381 614 390.5 604.5Q400 595 420 593L463 587Q493 584 507.0 564.5Q521 545 521 510Q521 488 517.0 463.5Q513 439 508 420Z" fill="black" />
  </g>
</svg>