<svg xmlns="http://www.w3.org/2000/svg" width="1542.0" height="1542.0" viewBox="-121.0 -87.0 1542.0 1542.0">
  <g id="decorations"><path d="M 313.2 1152.6 L 306.2 1156.6 L 299.3 1160.6 L 292.8 1164.8 L 286.4 1169.1 L 280.4 1173.6 L 274.5 1178.1 L 269.0 1182.8 L 263.7 1187.6 L 258.6 1192.5 L 253.8 1197.5 L 249.2 1202.5 L 244.9 1207.7 L 241.0 1213.0 L 237.2 1218.4 L 233.8 1223.8 L 230.6 1229.3 L 227.6 1234.8 L 224.9 1240.4 L 222.5 1246.1 L 220.4 1251.7 L 218.5 1257.4 L 216.9 1263.2 L 215.5 1268.9 L 214.4 1274.6 L 213.6 1280.4 L 213.1 1286.1 L 212.8 1291.9 L 212.9 1297.6 L 213.1 1303.2 L 213.7 1308.9 L 214.5 1314.5 L 215.6 1320.0 L 217.0 1325.5 L 218.7 1330.9 L 220.6 1336.2 L 222.8 1341.5 L 225.3 1346.6 L 228.0 1351.6 L 231.0 1356.5 L 234.3 1361.3 L 237.8 1366.0 L 241.6 1370.5 L 245.6 1374.9 L 249.8 1379.1 L 254.4 1383.2 L 259.1 1387.1 L 264.1 1390.8 L 269.3 1394.3 L 274.8 1397.7 L 280.5 1400.9 L 286.4 1403.9 L 292.6 1406.7 L 298.9 1409.2 L 305.5 1411.6 L 312.3 1413.7 L 319.3 1415.7 L 326.6 1417.4 L 334.0 1418.9 L 341.7 1420.1 L 349.5 1421.2 L 357.6 1421.9 L 365.9 1422.5 L 374.4 1422.8 L 372.5 1423.2 L 393.4 1393.1 L 375.0 1393.3 L 367.5 1393.0 L 360.1 1392.5 L 353.0 1391.7 L 346.1 1390.8 L 339.4 1389.7 L 333.0 1388.3 L 326.8 1386.8 L 320.9 1385.1 L 315.2 1383.3 L 309.7 1381.3 L 304.4 1379.1 L 299.4 1376.8 L 294.6 1374.4 L 290.0 1371.8 L 285.6 1369.2 L 281.5 1366.4 L 277.6 1363.4 L 273.9 1360.4 L 270.4 1357.3 L 267.2 1354.1 L 264.1 1350.7 L 261.3 1347.3 L 258.7 1343.9 L 256.2 1340.3 L 254.0 1336.6 L 252.0 1332.9 L 250.2 1329.2 L 248.6 1325.3 L 247.1 1321.4 L 245.9 1317.4 L 244.9 1313.4 L 244.1 1309.3 L 243.5 1305.2 L 243.1 1301.0 L 242.8 1296.8 L 242.8 1292.5 L 243.0 1288.2 L 243.4 1283.9 L 244.0 1279.5 L 244.9 1275.1 L 245.9 1270.7 L 247.2 1266.2 L 248.6 1261.8 L 250.3 1257.3 L 252.3 1252.8 L 254.4 1248.4 L 256.8 1243.9 L 259.4 1239.5 L 262.2 1235.0 L 265.3 1230.6 L 268.6 1226.2 L 272.1 1221.9 L 275.8 1217.5 L 279.8 1213.2 L 284.0 1208.9 L 288.4 1204.7 L 293.1 1200.6 L 298.1 1196.5 L 303.3 1192.5 L 308.8 1188.6 L 314.5 1184.7 L 320.5 1181.0 L 326.8 1177.4 Z" fill="purple" stroke="none" /></g><g transform="translate(282.257,1180.000) scale(1.174652,-1.174652)">
    <path d="M20 0 48 161       H327       Q330 161 334.0 162.0       Q338 163 340 165       Q343 167 344.5 171.0       Q346 175 346 179       Q346 185 342.5 190.0       Q339 195 330 202       L216 281       Q191 299 181.0 322.0       Q171 345 171 478       V411       Q171 623 168.0 627.0       Q165 631 153 631       H112       Q73 631 56.5 651.0       Q40 671 40 723       Q40 748 44.5 773.5       Q49 799 60 847       H95       V833       Q95 813 107.5 802.5       Q120 792 142 792       H166       Q205 792 218.0 773.0       Q231 754 231 707       V627       Q231 606 235.5 492.0       Q240 378 253.5 365.5       Q267 353 292 335       L426 243       Q448 229 458.5 210.5       Q469 192 473.5 173.5       Q478 155 479 140       Q479 123 474.5 104.5       Q470 86 460.5 61.5       Q451 37 436 0Z              M391 258 339 304       Q339 315 345.5 332.0       Q352 349 360.5 367.5       Q369 386 378 399       L423 473       L470 457       L422 378       Q409 358 402.5 338.5       Q396 319 393.5 299.5       Q391 280 391 258Z              M508 420 382 435       Q349 439 335.0 457.5       Q321 476 321 519       Q321 537 323.5 555.5       Q326 574 331.5 596.5       Q337 619 346 647       H381       V631       Q381 614 390.5 604.5       Q400 595 420 593       L463 587       Q493 584 507.0 564.5       Q521 545 521 510       Q521 488 517.0 463.5       Q513 439 508 420Z" fill="black" />
  </g>
</svg>