<svg xmlns="http://www.w3.org/2000/svg" width="1216.0" height="1216.0" viewBox="-108.0 -98.0 1216.0 1216.0">
  <g id="decorations"><polygon points="338.0,180.0 366.0,180.0 361.7,-70.0 338.3,-65.0" fill="purple" /><polygon points="376.0,180.0 404.0,180.0 399.7,-70.0 376.3,-65.0" fill="purple" /><polygon points="414.0,180.0 442.0,180.0 437.7,-70.0 414.3,-65.0" fill="purple" /><polygon points="606.0,180.0 634.0,180.0 629.7,-70.0 606.3,-65.0" fill="purple" /></g><g transform="translate(266.088,674.363) scale(0.856821,-0.856821)">
    <path d="M103 -240V272Q103 308 105.5 335.5Q108 363 112.5 386.0Q117 409 125 429V444H182Q174 424 168.5 402.0Q163 380 161.5 349.5Q160 319 161 274L164 192Q176 216 197.5 243.5Q219 271 245.5 299.0Q272 327 299.0 354.5Q326 382 350 406L411 468L467 449L332 311Q292 269 261.0 227.0Q230 185 209.0 143.0Q188 101 178.0 61.5Q168 22 170 -13L177 -201Q164 -216 151.5 -224.5Q139 -233 122 -240ZM226 420 101 435Q67 439 53.5 457.5Q40 476 40 520Q40 545 45.0 575.5Q50 606 64 647H99V631Q99 614 109.0 604.5Q119 595 138 593L181 587Q211 584 225.0 564.5Q239 545 239 510Q239 488 235.0 463.5Q231 439 226 420ZM492 420 367 435Q333 439 319.5 457.5Q306 476 306 520Q306 545 311.0 575.5Q316 606 330 647H365V631Q365 614 375.0 604.5Q385 595 405 593L448 587Q477 584 491.5 564.5Q506 545 506 510Q506 488 501.5 463.5Q497 439 492 420Z" fill="black" />
  </g>
</svg>