<svg xmlns="http://www.w3.org/2000/svg" width="1216.0" height="1216.0" viewBox="-108.0 -98.0 1216.0 1216.0" version="1.1" id="svg1">
  <g id="decorations"><polygon points="238.0,180.0 266.0,180.0 261.7,-70.0 238.3,-65.0" fill="purple" /><polygon points="276.0,180.0 304.0,180.0 299.7,-70.0 276.3,-65.0" fill="purple" /><polygon points="314.0,180.0 342.0,180.0 337.7,-70.0 314.3,-65.0" fill="purple" /></g><defs id="defs1" />
  <g transform="matrix(0.856821,0,0,-0.856821,266.088,674.363)" id="g1">
    <path d="m 103,-240 v 512 c 0,24 0.83333,45.16667 2.5,63.5 1.66667,18.33333 4,35.16667 7,50.5 3,15.33333 7.16667,29.66667 12.5,43 v 15 h 57 c -5.33333,-13.33333 -9.83333,-27.33333 -13.5,-42 -3.66667,-14.66667 -6,-32.16667 -7,-52.5 -1,-20.33333 -1.16667,-45.5 -0.5,-75.5 l 3,-82 c 8,16 19.16667,33.16667 33.5,51.5 14.33333,18.33333 30.33333,36.83333 48,55.5 17.66667,18.66667 35.5,37.16667 53.5,55.5 18,18.33333 35,35.5 51,51.5 l 61,62 56,-19 L 332,311 C 305.33333,283 281.66667,255 261,227 240.33333,199 223,171 209,143 195,115 184.66667,87.833333 178,61.5 171.33333,35.166667 168.66667,10.333333 170,-13 l 7,-188 c -8.66667,-10 -17.16667,-17.83333 -25.5,-23.5 -8.33333,-5.66667 -18.16667,-10.83333 -29.5,-15.5 z m 123,660 -358.42089,14.99984 c -22.66667,2.66667 -38.5,10.16683 -47.5,22.50016 -9,12.33333 -13.49991,33.16667 -13.49991,62.5 0,16.66667 1.66655,35.16667 4.99988,55.5 3.33333,20.33333 9.66714,44.16667 19.00047,71.5 h 34.99914 v -16 c 0,-11.33333 3.33309,-20.16667 9.99976,-26.5 6.66666,-6.33333 16.33355,-10.16667 29.000219,-11.5 L 181,587 c 20,-2 34.66667,-9.5 44,-22.5 9.33333,-13 14,-31.16667 14,-54.5 0,-14.66667 -1.33333,-30.16667 -4,-46.5 -2.66667,-16.33333 -5.66667,-30.83333 -9,-43.5 z m 266,0 -125,15 c -22.66667,2.66667 -38.5,10.16667 -47.5,22.5 -9,12.33333 -13.5,33.16667 -13.5,62.5 0,16.66667 1.66667,35.16667 5,55.5 3.33333,20.33333 9.66667,44.16667 19,71.5 h 35 v -16 c 0,-11.33333 3.33333,-20.16667 10,-26.5 6.66667,-6.33333 16.66667,-10.16667 30,-11.5 l 43,-6 c 19.33333,-2 33.83333,-9.5 43.5,-22.5 9.66667,-13 14.5,-31.16667 14.5,-54.5 0,-14.66667 -1.5,-30.16667 -4.5,-46.5 -3,-16.33333 -6.16667,-30.83333 -9.5,-43.5 z" fill="#000000" id="path1" />
  </g>
</svg>