<svg xmlns="http://www.w3.org/2000/svg" width="1585.0" height="1585.0" viewBox="-175.0 -150.0 1585.0 1585.0">
  <g id="decorations"><path d="M 701.8 1157.9 L 708.4 1161.0 L 714.7 1164.2 L 720.7 1167.5 L 726.5 1170.9 L 732.1 1174.5 L 737.4 1178.1 L 742.4 1181.8 L 747.2 1185.6 L 751.8 1189.5 L 756.1 1193.5 L 760.2 1197.5 L 764.1 1201.5 L 767.8 1205.6 L 771.2 1209.7 L 774.4 1213.9 L 777.4 1218.1 L 780.1 1222.3 L 782.6 1226.6 L 784.9 1230.9 L 787.0 1235.2 L 788.9 1239.5 L 790.5 1243.8 L 791.9 1248.1 L 793.1 1252.4 L 794.1 1256.7 L 794.9 1261.0 L 795.5 1265.3 L 795.8 1269.6 L 796.0 1273.8 L 796.0 1278.0 L 795.7 1282.2 L 795.2 1286.3 L 794.6 1290.4 L 793.7 1294.5 L 792.6 1298.5 L 791.4 1302.4 L 789.9 1306.4 L 788.2 1310.2 L 786.3 1314.1 L 784.2 1317.8 L 781.9 1321.5 L 779.4 1325.2 L 776.6 1328.7 L 773.6 1332.2 L 770.4 1335.6 L 767.0 1339.0 L 763.4 1342.2 L 759.5 1345.4 L 755.4 1348.4 L 751.1 1351.4 L 746.5 1354.2 L 741.7 1356.9 L 736.6 1359.5 L 731.3 1362.0 L 725.8 1364.4 L 720.0 1366.6 L 714.0 1368.6 L 707.7 1370.5 L 701.2 1372.2 L 694.4 1373.8 L 687.4 1375.1 L 680.1 1376.3 L 672.6 1377.3 L 675.2 1377.1 L 656.7 1408.3 L 675.8 1406.5 L 684.2 1405.5 L 692.4 1404.2 L 700.4 1402.8 L 708.1 1401.0 L 715.7 1399.1 L 722.9 1397.0 L 730.0 1394.7 L 736.8 1392.1 L 743.4 1389.4 L 749.8 1386.5 L 755.9 1383.4 L 761.8 1380.0 L 767.4 1376.6 L 772.8 1372.9 L 777.9 1369.1 L 782.9 1365.1 L 787.5 1360.9 L 791.9 1356.6 L 796.0 1352.2 L 799.9 1347.6 L 803.6 1342.9 L 806.9 1338.1 L 810.0 1333.1 L 812.8 1328.1 L 815.4 1322.9 L 817.7 1317.6 L 819.7 1312.3 L 821.4 1306.9 L 822.9 1301.4 L 824.1 1295.9 L 825.0 1290.3 L 825.6 1284.7 L 825.9 1279.1 L 826.0 1273.4 L 825.8 1267.7 L 825.3 1262.0 L 824.5 1256.4 L 823.5 1250.7 L 822.2 1245.0 L 820.6 1239.4 L 818.8 1233.8 L 816.7 1228.2 L 814.3 1222.7 L 811.7 1217.3 L 808.8 1211.9 L 805.6 1206.5 L 802.2 1201.3 L 798.5 1196.1 L 794.6 1191.0 L 790.4 1185.9 L 786.0 1181.0 L 781.3 1176.2 L 776.3 1171.6 L 771.1 1167.0 L 765.6 1162.6 L 759.9 1158.3 L 753.9 1154.1 L 747.7 1150.1 L 741.3 1146.2 L 734.6 1142.4 L 727.7 1138.8 L 720.6 1135.4 L 713.2 1132.1 Z" fill="purple" stroke="none" /></g><g transform="translate(451.323,817.365) scale(1.162080,-1.162080)">
    <path d="M180 -307       V394       Q180 417 174.5 424.0       Q169 431 147 431       H102       Q64 431 47.0 451.5       Q30 472 30 520       Q30 539 31.5 556.0       Q33 573 37.5 594.5       Q42 616 49 647       H84       V633       Q84 614 96.0 603.0       Q108 592 132 592       H181       Q215 592 228.0 576.0       Q241 560 242 516       L256 -270       Q241 -285 228.5 -293.0       Q216 -301 199 -307Z" fill="black" />
  </g>
</svg>