<svg xmlns="http://www.w3.org/2000/svg" width="1235.0" height="1235.0" viewBox="-117.5 -95.0 1235.0 1235.0">
  <g id="decorations"><polygon points="385.0,350.0 415.0,350.0 379.9,592.6 354.5,597.6" fill="purple" /></g><g transform="translate(333.823,871.865) scale(1.162080,-1.162080)">
    <path d="M180 -7V394Q180 417 174.5 424.0Q169 431 147 431H102Q64 431 47.0 451.5Q30 472 30 520Q30 539 31.5 556.0Q33 573 37.5 594.5Q42 616 49 647H84V633Q84 614 96.0 603.0Q108 592 132 592H181Q215 592 228.0 576.0Q241 560 242 516L256 30Q241 15 228.5 7.0Q216 -1 199 -7Z" fill="black" />
  </g>
</svg>