<svg xmlns="http://www.w3.org/2000/svg" width="1585.0" height="1585.0" viewBox="-175.0 -150.0 1585.0 1585.0">
  <g id="decorations"><polygon points="602.5,130.0 632.5,130.0 628.2,-120.0 602.8,-115.0" fill="purple" /><path d="M 701.8 1157.9 L 708.4 1161.0 L 714.7 1164.2 L 720.7 1167.5 L 726.5 1170.9 L 732.1 1174.5 L 737.4 1178.1 L 742.4 1181.8 L 747.2 1185.6 L 751.8 1189.5 L 756.1 1193.5 L 760.2 1197.5 L 764.1 1201.5 L 767.8 1205.6 L 771.2 1209.7 L 774.4 1213.9 L 777.4 1218.1 L 780.1 1222.3 L 782.6 1226.6 L 784.9 1230.9 L 787.0 1235.2 L 788.9 1239.5 L 790.5 1243.8 L 791.9 1248.1 L 793.1 1252.4 L 794.1 1256.7 L 794.9 1261.0 L 795.5 1265.3 L 795.8 1269.6 L 796.0 1273.8 L 796.0 1278.0 L 795.7 1282.2 L 795.2 1286.3 L 794.6 1290.4 L 793.7 1294.5 L 792.6 1298.5 L 791.4 1302.4 L 789.9 1306.4 L 788.2 1310.2 L 786.3 1314.1 L 784.2 1317.8 L 781.9 1321.5 L 779.4 1325.2 L 776.6 1328.7 L 773.6 1332.2 L 770.4 1335.6 L 767.0 1339.0 L 763.4 1342.2 L 759.5 1345.4 L 755.4 1348.4 L 751.1 1351.4 L 746.5 1354.2 L 741.7 1356.9 L 736.6 1359.5 L 731.3 1362.0 L 725.8 1364.4 L 720.0 1366.6 L 714.0 1368.6 L 707.7 1370.5 L 701.2 1372.2 L 694.4 1373.8 L 687.4 1375.1 L 680.1 1376.3 L 672.6 1377.3 L 675.2 1377.1 L 656.7 1408.3 L 675.8 1406.5 L 684.2 1405.5 L 692.4 1404.2 L 700.4 1402.8 L 708.1 1401.0 L 715.7 1399.1 L 722.9 1397.0 L 730.0 1394.7 L 736.8 1392.1 L 743.4 1389.4 L 749.8 1386.5 L 755.9 1383.4 L 761.8 1380.0 L 767.4 1376.6 L 772.8 1372.9 L 777.9 1369.1 L 782.9 1365.1 L 787.5 1360.9 L 791.9 1356.6 L 796.0 1352.2 L 799.9 1347.6 L 803.6 1342.9 L 806.9 1338.1 L 810.0 1333.1 L 812.8 1328.1 L 815.4 1322.9 L 817.7 1317.6 L 819.7 1312.3 L 821.4 1306.9 L 822.9 1301.4 L 824.1 1295.9 L 825.0 1290.3 L 825.6 1284.7 L 825.9 1279.1 L 826.0 1273.4 L 825.8 1267.7 L 825.3 1262.0 L 824.5 1256.4 L 823.5 1250.7 L 822.2 1245.0 L 820.6 1239.4 L 818.8 1233.8 L 816.7 1228.2 L 814.3 1222.7 L 811.7 1217.3 L 808.8 1211.9 L 805.6 1206.5 L 802.2 1201.3 L 798.5 1196.1 L 794.6 1191.0 L 790.4 1185.9 L 786.0 1181.0 L 781.3 1176.2 L 776.3 1171.6 L 771.1 1167.0 L 765.6 1162.6 L 759.9 1158.3 L 753.9 1154.1 L 747.7 1150.1 L 741.3 1146.2 L 734.6 1142.4 L 727.7 1138.8 L 720.6 1135.4 L 713.2 1132.1 Z" fill="purple" stroke="none" /><g><path d="M 514.9 281.1 L 507.5 282.6 L 500.2 284.3 L 493.1 286.2 L 486.2 288.4 L 479.5 290.8 L 472.9 293.4 L 466.6 296.2 L 460.4 299.2 L 454.5 302.4 L 448.7 305.7 L 443.1 309.3 L 437.8 313.1 L 432.7 317.0 L 427.8 321.1 L 423.1 325.3 L 418.6 329.7 L 414.3 334.2 L 410.3 338.8 L 406.5 343.6 L 402.9 348.4 L 399.5 353.3 L 396.4 358.3 L 393.4 363.4 L 390.8 368.6 L 388.3 373.8 L 386.1 379.1 L 384.1 384.4 L 382.3 389.8 L 380.8 395.2 L 379.5 400.6 L 378.5 406.1 L 377.8 411.5 L 377.2 417.0 L 377.0 422.5 L 377.0 427.9 L 377.2 433.3 L 377.7 438.7 L 378.5 444.1 L 379.6 449.4 L 380.9 454.7 L 382.5 459.8 L 384.4 464.9 L 386.6 469.9 L 389.0 474.8 L 391.7 479.6 L 394.8 484.2 L 398.0 488.7 L 401.6 493.1 L 405.5 497.2 L 409.6 501.2 L 414.0 505.1 L 418.7 508.7 L 423.6 512.1 L 428.8 515.2 L 434.3 518.2 L 440.0 520.9 L 445.9 523.4 L 452.1 525.6 L 458.6 527.6 L 465.3 529.3 L 472.2 530.8 L 479.4 532.0 L 486.8 533.0 L 483.9 533.4 L 507.1 504.6 L 490.0 503.7 L 483.8 502.9 L 477.9 501.8 L 472.2 500.6 L 466.8 499.1 L 461.7 497.5 L 456.8 495.7 L 452.2 493.7 L 447.9 491.6 L 443.8 489.4 L 440.0 487.0 L 436.4 484.5 L 433.0 481.9 L 429.9 479.1 L 427.0 476.3 L 424.2 473.4 L 421.7 470.3 L 419.4 467.2 L 417.4 464.0 L 415.5 460.6 L 413.7 457.2 L 412.2 453.7 L 410.9 450.2 L 409.8 446.5 L 408.8 442.8 L 408.1 439.0 L 407.5 435.1 L 407.1 431.2 L 407.0 427.2 L 407.0 423.2 L 407.2 419.2 L 407.5 415.1 L 408.1 410.9 L 408.9 406.8 L 409.9 402.6 L 411.0 398.5 L 412.4 394.3 L 413.9 390.1 L 415.7 386.0 L 417.6 381.9 L 419.8 377.8 L 422.1 373.8 L 424.6 369.8 L 427.3 365.8 L 430.2 361.9 L 433.3 358.1 L 436.5 354.4 L 440.0 350.8 L 443.6 347.2 L 447.4 343.7 L 451.5 340.4 L 455.7 337.2 L 460.0 334.0 L 464.5 330.9 L 469.2 328.0 L 474.1 325.2 L 479.2 322.6 L 484.5 320.1 L 490.0 317.8 L 495.6 315.6 L 501.5 313.7 L 507.5 311.9 L 513.7 310.3 L 520.1 308.9 Z" fill="purple" stroke="none" /><path d="M 485.5 533.1 L 493.4 532.4 L 501.0 531.6 L 508.4 530.4 L 515.6 529.0 L 522.4 527.4 L 529.1 525.5 L 535.4 523.4 L 541.5 521.1 L 547.3 518.6 L 552.9 515.8 L 558.2 512.9 L 563.3 509.8 L 568.0 506.4 L 572.5 502.9 L 576.7 499.2 L 580.6 495.4 L 584.2 491.5 L 587.6 487.4 L 590.7 483.3 L 593.5 479.0 L 596.0 474.7 L 598.2 470.2 L 600.1 465.7 L 601.8 461.2 L 603.2 456.6 L 604.2 452.0 L 605.0 447.4 L 605.5 442.8 L 605.7 438.2 L 605.6 433.6 L 605.3 429.1 L 604.6 424.6 L 603.6 420.1 L 602.3 415.8 L 600.8 411.5 L 598.9 407.4 L 596.7 403.4 L 594.3 399.6 L 591.6 395.9 L 588.6 392.4 L 585.3 389.1 L 581.7 386.0 L 577.9 383.2 L 573.9 380.6 L 569.6 378.3 L 565.1 376.2 L 560.4 374.4 L 555.5 373.0 L 550.4 371.8 L 545.1 371.0 L 539.6 370.4 L 534.0 370.2 L 528.3 370.3 L 522.3 370.7 L 516.3 371.5 L 510.1 372.6 L 503.7 374.1 L 497.2 375.8 L 490.6 378.0 L 483.8 380.5 L 476.9 383.3 L 469.8 386.6 L 462.6 390.2 L 464.3 389.8 L 460.7 424.2 L 476.2 416.3 L 482.5 413.2 L 488.6 410.5 L 494.5 408.1 L 500.2 406.1 L 505.6 404.3 L 510.9 403.0 L 515.9 401.9 L 520.7 401.1 L 525.2 400.5 L 529.6 400.2 L 533.7 400.2 L 537.5 400.3 L 541.2 400.7 L 544.6 401.3 L 547.8 402.0 L 550.8 402.9 L 553.6 403.9 L 556.2 405.1 L 558.6 406.4 L 560.9 407.8 L 562.9 409.4 L 564.8 411.0 L 566.5 412.8 L 568.1 414.6 L 569.6 416.5 L 570.9 418.6 L 572.0 420.7 L 573.0 422.9 L 573.8 425.2 L 574.5 427.6 L 575.1 430.0 L 575.5 432.6 L 575.7 435.2 L 575.7 437.8 L 575.6 440.5 L 575.3 443.3 L 574.8 446.1 L 574.2 448.9 L 573.3 451.8 L 572.3 454.6 L 571.0 457.5 L 569.6 460.4 L 567.9 463.3 L 566.1 466.1 L 564.0 469.0 L 561.7 471.7 L 559.1 474.5 L 556.3 477.2 L 553.3 479.8 L 550.1 482.4 L 546.6 484.8 L 542.8 487.3 L 538.9 489.6 L 534.6 491.8 L 530.1 494.0 L 525.3 495.9 L 520.2 497.8 L 514.8 499.4 L 509.2 500.9 L 503.2 502.2 L 496.9 503.3 L 490.4 504.3 L 483.5 504.9 Z" fill="purple" stroke="none" /></g></g><g transform="translate(451.323,817.365) scale(1.162080,-1.162080)">
    <path d="M180 -307       V394       Q180 417 174.5 424.0       Q169 431 147 431       H102       Q64 431 47.0 451.5       Q30 472 30 520       Q30 539 31.5 556.0       Q33 573 37.5 594.5       Q42 616 49 647       H84       V633       Q84 614 96.0 603.0       Q108 592 132 592       H181       Q215 592 228.0 576.0       Q241 560 242 516       L256 -270       Q241 -285 228.5 -293.0       Q216 -301 199 -307Z" fill="black" />
  </g>
</svg>
