<svg xmlns="http://www.w3.org/2000/svg" width="1235.0" height="1235.0" viewBox="-117.5 -95.0 1235.0 1235.0">
  <g id="decorations"><polygon points="485.0,185.0 515.0,185.0 510.7,-65.0 485.3,-60.0" fill="purple" /><g><path d="M 397.4 336.1 L 390.0 337.6 L 382.7 339.3 L 375.6 341.2 L 368.7 343.4 L 362.0 345.8 L 355.4 348.4 L 349.1 351.2 L 342.9 354.2 L 337.0 357.4 L 331.2 360.7 L 325.6 364.3 L 320.3 368.1 L 315.2 372.0 L 310.3 376.1 L 305.6 380.3 L 301.1 384.7 L 296.8 389.2 L 292.8 393.8 L 289.0 398.6 L 285.4 403.4 L 282.0 408.3 L 278.9 413.3 L 275.9 418.4 L 273.3 423.6 L 270.8 428.8 L 268.6 434.1 L 266.6 439.4 L 264.8 444.8 L 263.3 450.2 L 262.0 455.6 L 261.0 461.1 L 260.3 466.5 L 259.7 472.0 L 259.5 477.5 L 259.5 482.9 L 259.7 488.3 L 260.2 493.7 L 261.0 499.1 L 262.1 504.4 L 263.4 509.7 L 265.0 514.8 L 266.9 519.9 L 269.1 524.9 L 271.5 529.8 L 274.2 534.6 L 277.3 539.2 L 280.5 543.7 L 284.1 548.1 L 288.0 552.2 L 292.1 556.2 L 296.5 560.1 L 301.2 563.7 L 306.1 567.1 L 311.3 570.2 L 316.8 573.2 L 322.5 575.9 L 328.4 578.4 L 334.6 580.6 L 341.1 582.6 L 347.8 584.3 L 354.7 585.8 L 361.9 587.0 L 369.3 588.0 L 366.4 588.4 L 389.6 559.6 L 372.5 558.7 L 366.3 557.9 L 360.4 556.8 L 354.7 555.6 L 349.3 554.1 L 344.2 552.5 L 339.3 550.7 L 334.7 548.7 L 330.4 546.6 L 326.3 544.4 L 322.5 542.0 L 318.9 539.5 L 315.5 536.9 L 312.4 534.1 L 309.5 531.3 L 306.7 528.4 L 304.2 525.3 L 301.9 522.2 L 299.9 519.0 L 298.0 515.6 L 296.2 512.2 L 294.7 508.7 L 293.4 505.2 L 292.3 501.5 L 291.3 497.8 L 290.6 494.0 L 290.0 490.1 L 289.6 486.2 L 289.5 482.2 L 289.5 478.2 L 289.7 474.2 L 290.0 470.1 L 290.6 465.9 L 291.4 461.8 L 292.4 457.6 L 293.5 453.5 L 294.9 449.3 L 296.4 445.1 L 298.2 441.0 L 300.1 436.9 L 302.3 432.8 L 304.6 428.8 L 307.1 424.8 L 309.8 420.8 L 312.7 416.9 L 315.8 413.1 L 319.0 409.4 L 322.5 405.8 L 326.1 402.2 L 329.9 398.7 L 334.0 395.4 L 338.2 392.2 L 342.5 389.0 L 347.0 385.9 L 351.7 383.0 L 356.6 380.2 L 361.7 377.6 L 367.0 375.1 L 372.5 372.8 L 378.1 370.6 L 384.0 368.7 L 390.0 366.9 L 396.2 365.3 L 402.6 363.9 Z" fill="purple" stroke="none" /><path d="M 368.0 588.1 L 375.9 587.4 L 383.5 586.6 L 390.9 585.4 L 398.1 584.0 L 404.9 582.4 L 411.6 580.5 L 417.9 578.4 L 424.0 576.1 L 429.8 573.6 L 435.4 570.8 L 440.7 567.9 L 445.8 564.8 L 450.5 561.4 L 455.0 557.9 L 459.2 554.2 L 463.1 550.4 L 466.7 546.5 L 470.1 542.4 L 473.2 538.3 L 476.0 534.0 L 478.5 529.7 L 480.7 525.2 L 482.6 520.7 L 484.3 516.2 L 485.7 511.6 L 486.7 507.0 L 487.5 502.4 L 488.0 497.8 L 488.2 493.2 L 488.1 488.6 L 487.8 484.1 L 487.1 479.6 L 486.1 475.1 L 484.8 470.8 L 483.3 466.5 L 481.4 462.4 L 479.2 458.4 L 476.8 454.6 L 474.1 450.9 L 471.1 447.4 L 467.8 444.1 L 464.2 441.0 L 460.4 438.2 L 456.4 435.6 L 452.1 433.3 L 447.6 431.2 L 442.9 429.4 L 438.0 428.0 L 432.9 426.8 L 427.6 426.0 L 422.1 425.4 L 416.5 425.2 L 410.8 425.3 L 404.8 425.7 L 398.8 426.5 L 392.6 427.6 L 386.2 429.1 L 379.7 430.8 L 373.1 433.0 L 366.3 435.5 L 359.4 438.3 L 352.3 441.6 L 345.1 445.2 L 346.8 444.8 L 343.2 479.2 L 358.7 471.3 L 365.0 468.2 L 371.1 465.5 L 377.0 463.1 L 382.7 461.1 L 388.1 459.3 L 393.4 458.0 L 398.4 456.9 L 403.2 456.1 L 407.7 455.5 L 412.1 455.2 L 416.2 455.2 L 420.0 455.3 L 423.7 455.7 L 427.1 456.3 L 430.3 457.0 L 433.3 457.9 L 436.1 458.9 L 438.7 460.1 L 441.1 461.4 L 443.4 462.8 L 445.4 464.4 L 447.3 466.0 L 449.0 467.8 L 450.6 469.6 L 452.1 471.5 L 453.4 473.6 L 454.5 475.7 L 455.5 477.9 L 456.3 480.2 L 457.0 482.6 L 457.6 485.0 L 458.0 487.6 L 458.2 490.2 L 458.2 492.8 L 458.1 495.5 L 457.8 498.3 L 457.3 501.1 L 456.7 503.9 L 455.8 506.8 L 454.8 509.6 L 453.5 512.5 L 452.1 515.4 L 450.4 518.3 L 448.6 521.1 L 446.5 524.0 L 444.2 526.7 L 441.6 529.5 L 438.8 532.2 L 435.8 534.8 L 432.6 537.4 L 429.1 539.8 L 425.3 542.3 L 421.4 544.6 L 417.1 546.8 L 412.6 549.0 L 407.8 550.9 L 402.7 552.8 L 397.3 554.4 L 391.7 555.9 L 385.7 557.2 L 379.4 558.3 L 372.9 559.3 L 366.0 559.9 Z" fill="purple" stroke="none" /></g></g><g transform="translate(333.823,871.865) scale(1.162080,-1.162080)">
    <path d="M180 -7V394Q180 417 174.5 424.0Q169 431 147 431H102Q64 431 47.0 451.5Q30 472 30 520Q30 539 31.5 556.0Q33 573 37.5 594.5Q42 616 49 647H84V633Q84 614 96.0 603.0Q108 592 132 592H181Q215 592 228.0 576.0Q241 560 242 516L256 30Q241 15 228.5 7.0Q216 -1 199 -7Z" fill="black" />
  </g>
</svg>