<svg xmlns="http://www.w3.org/2000/svg" width="1235.0" height="1235.0" viewBox="-117.5 -95.0 1235.0 1235.0">
  <g id="decorations"><polygon points="485.0,185.0 515.0,185.0 510.7,-65.0 485.3,-60.0" fill="purple" /><path d="M 584.3 862.9 L 590.9 866.0 L 597.2 869.2 L 603.2 872.5 L 609.0 875.9 L 614.6 879.5 L 619.9 883.1 L 624.9 886.8 L 629.7 890.6 L 634.3 894.5 L 638.6 898.5 L 642.7 902.5 L 646.6 906.5 L 650.3 910.6 L 653.7 914.7 L 656.9 918.9 L 659.9 923.1 L 662.6 927.3 L 665.1 931.6 L 667.4 935.9 L 669.5 940.2 L 671.4 944.5 L 673.0 948.8 L 674.4 953.1 L 675.6 957.4 L 676.6 961.7 L 677.4 966.0 L 678.0 970.3 L 678.3 974.6 L 678.5 978.8 L 678.5 983.0 L 678.2 987.2 L 677.7 991.3 L 677.1 995.4 L 676.2 999.5 L 675.1 1003.5 L 673.9 1007.4 L 672.4 1011.4 L 670.7 1015.2 L 668.8 1019.1 L 666.7 1022.8 L 664.4 1026.5 L 661.9 1030.2 L 659.1 1033.7 L 656.1 1037.2 L 652.9 1040.6 L 649.5 1044.0 L 645.9 1047.2 L 642.0 1050.4 L 637.9 1053.4 L 633.6 1056.4 L 629.0 1059.2 L 624.2 1061.9 L 619.1 1064.5 L 613.8 1067.0 L 608.3 1069.4 L 602.5 1071.6 L 596.5 1073.6 L 590.2 1075.5 L 583.7 1077.2 L 576.9 1078.8 L 569.9 1080.1 L 562.6 1081.3 L 555.1 1082.3 L 557.7 1082.1 L 539.2 1113.3 L 558.3 1111.5 L 566.7 1110.5 L 574.9 1109.2 L 582.9 1107.8 L 590.6 1106.0 L 598.2 1104.1 L 605.4 1102.0 L 612.5 1099.7 L 619.3 1097.1 L 625.9 1094.4 L 632.3 1091.5 L 638.4 1088.4 L 644.3 1085.0 L 649.9 1081.6 L 655.3 1077.9 L 660.4 1074.1 L 665.4 1070.1 L 670.0 1065.9 L 674.4 1061.6 L 678.5 1057.2 L 682.4 1052.6 L 686.1 1047.9 L 689.4 1043.1 L 692.5 1038.1 L 695.3 1033.1 L 697.9 1027.9 L 700.2 1022.6 L 702.2 1017.3 L 703.9 1011.9 L 705.4 1006.4 L 706.6 1000.9 L 707.5 995.3 L 708.1 989.7 L 708.4 984.1 L 708.5 978.4 L 708.3 972.7 L 707.8 967.0 L 707.0 961.4 L 706.0 955.7 L 704.7 950.0 L 703.1 944.4 L 701.3 938.8 L 699.2 933.2 L 696.8 927.7 L 694.2 922.3 L 691.3 916.9 L 688.1 911.5 L 684.7 906.3 L 681.0 901.1 L 677.1 896.0 L 672.9 890.9 L 668.5 886.0 L 663.8 881.2 L 658.8 876.6 L 653.6 872.0 L 648.1 867.6 L 642.4 863.3 L 636.4 859.1 L 630.2 855.1 L 623.8 851.2 L 617.1 847.4 L 610.2 843.8 L 603.1 840.4 L 595.7 837.1 Z" fill="purple" stroke="none" /><path d="M 395.9 326.5 L 388.2 328.9 L 380.7 331.4 L 373.4 334.2 L 366.3 337.1 L 359.5 340.1 L 352.8 343.4 L 346.4 346.8 L 340.2 350.4 L 334.2 354.1 L 328.5 358.0 L 323.0 362.0 L 317.7 366.2 L 312.7 370.5 L 307.9 375.0 L 303.4 379.6 L 299.1 384.3 L 295.1 389.1 L 291.3 394.0 L 287.8 399.0 L 284.5 404.1 L 281.5 409.3 L 278.7 414.6 L 276.2 419.9 L 274.0 425.3 L 272.0 430.8 L 270.3 436.3 L 268.8 441.8 L 267.6 447.4 L 266.7 453.0 L 266.1 458.6 L 265.8 464.3 L 265.7 469.9 L 265.9 475.6 L 266.4 481.2 L 267.2 486.8 L 268.2 492.4 L 269.6 497.9 L 271.2 503.4 L 273.1 508.8 L 275.3 514.2 L 277.8 519.5 L 280.5 524.7 L 283.6 529.8 L 286.9 534.8 L 290.4 539.8 L 294.3 544.6 L 298.4 549.2 L 302.8 553.8 L 307.4 558.2 L 312.3 562.5 L 317.5 566.7 L 322.9 570.7 L 328.6 574.5 L 334.6 578.2 L 340.8 581.7 L 347.2 585.1 L 354.0 588.2 L 360.9 591.2 L 368.2 594.1 L 375.6 596.7 L 383.4 599.1 L 391.3 601.4 L 399.6 603.5 L 397.7 603.9 L 424.3 577.9 L 406.4 574.8 L 399.0 572.9 L 391.9 570.9 L 385.1 568.6 L 378.6 566.3 L 372.3 563.8 L 366.3 561.2 L 360.6 558.4 L 355.1 555.5 L 349.9 552.5 L 344.9 549.4 L 340.2 546.2 L 335.8 542.9 L 331.6 539.5 L 327.6 536.1 L 323.9 532.6 L 320.5 528.9 L 317.3 525.3 L 314.3 521.6 L 311.5 517.8 L 309.0 513.9 L 306.7 510.1 L 304.7 506.1 L 302.8 502.2 L 301.2 498.2 L 299.8 494.2 L 298.6 490.1 L 297.6 486.0 L 296.8 481.9 L 296.2 477.8 L 295.9 473.7 L 295.7 469.5 L 295.7 465.4 L 296.0 461.2 L 296.5 457.0 L 297.1 452.9 L 298.0 448.7 L 299.1 444.5 L 300.4 440.3 L 301.9 436.2 L 303.6 432.1 L 305.6 428.0 L 307.7 423.9 L 310.1 419.8 L 312.7 415.8 L 315.5 411.8 L 318.5 407.9 L 321.7 404.0 L 325.2 400.2 L 328.9 396.5 L 332.8 392.8 L 336.9 389.2 L 341.3 385.7 L 345.8 382.2 L 350.6 378.8 L 355.6 375.5 L 360.9 372.3 L 366.3 369.2 L 372.0 366.3 L 378.0 363.4 L 384.1 360.7 L 390.6 358.2 L 397.2 355.8 L 404.1 353.5 Z" fill="purple" stroke="none" /></g><g transform="translate(333.823,871.865) scale(1.162080,-1.162080)">
    <path d="M180 -7V394Q180 417 174.5 424.0Q169 431 147 431H102Q64 431 47.0 451.5Q30 472 30 520Q30 539 31.5 556.0Q33 573 37.5 594.5Q42 616 49 647H84V633Q84 614 96.0 603.0Q108 592 132 592H181Q215 592 228.0 576.0Q241 560 242 516L256 30Q241 15 228.5 7.0Q216 -1 199 -7Z" fill="black" />
  </g>
</svg>