<svg xmlns="http://www.w3.org/2000/svg" width="1585.0" height="1585.0" viewBox="-175.0 -150.0 1585.0 1585.0">
  <g id="decorations"><polygon points="602.5,130.0 632.5,130.0 628.2,-120.0 602.8,-115.0" fill="purple" /><g><path d="M 701.4 1167.7 L 707.2 1170.7 L 712.8 1173.9 L 718.2 1177.2 L 723.3 1180.6 L 728.2 1184.1 L 732.9 1187.8 L 737.3 1191.6 L 741.6 1195.4 L 745.6 1199.4 L 749.4 1203.4 L 752.9 1207.6 L 756.3 1211.7 L 759.5 1215.9 L 762.5 1220.2 L 765.3 1224.5 L 767.9 1228.9 L 770.3 1233.3 L 772.5 1237.8 L 774.5 1242.3 L 776.3 1246.8 L 777.9 1251.3 L 779.3 1255.8 L 780.5 1260.3 L 781.5 1264.8 L 782.3 1269.3 L 782.9 1273.7 L 783.3 1278.1 L 783.6 1282.5 L 783.6 1286.8 L 783.5 1291.1 L 783.1 1295.3 L 782.6 1299.4 L 781.9 1303.5 L 781.1 1307.5 L 780.1 1311.4 L 778.8 1315.1 L 777.5 1318.8 L 775.9 1322.4 L 774.2 1325.9 L 772.3 1329.2 L 770.3 1332.5 L 768.1 1335.6 L 765.7 1338.6 L 763.2 1341.4 L 760.5 1344.1 L 757.6 1346.7 L 754.6 1349.1 L 751.4 1351.4 L 748.0 1353.6 L 744.5 1355.5 L 740.7 1357.4 L 736.8 1359.0 L 732.7 1360.5 L 728.4 1361.8 L 723.9 1362.9 L 719.1 1363.8 L 714.2 1364.5 L 709.0 1365.0 L 703.7 1365.3 L 698.1 1365.3 L 692.3 1365.0 L 686.2 1364.5 L 680.0 1363.7 L 683.9 1363.9 L 657.6 1390.2 L 675.6 1392.8 L 683.0 1393.8 L 690.2 1394.5 L 697.3 1394.9 L 704.2 1394.9 L 711.0 1394.7 L 717.5 1394.1 L 723.9 1393.3 L 730.1 1392.1 L 736.2 1390.7 L 742.0 1389.0 L 747.7 1387.0 L 753.1 1384.7 L 758.3 1382.1 L 763.4 1379.3 L 768.2 1376.3 L 772.7 1373.0 L 777.1 1369.5 L 781.2 1365.8 L 785.1 1361.9 L 788.7 1357.8 L 792.1 1353.6 L 795.2 1349.1 L 798.1 1344.6 L 800.8 1339.8 L 803.2 1335.0 L 805.3 1330.0 L 807.2 1324.9 L 808.9 1319.8 L 810.3 1314.5 L 811.4 1309.2 L 812.3 1303.7 L 813.0 1298.3 L 813.4 1292.7 L 813.6 1287.1 L 813.5 1281.5 L 813.2 1275.9 L 812.7 1270.2 L 811.9 1264.5 L 810.9 1258.9 L 809.6 1253.2 L 808.1 1247.5 L 806.4 1241.9 L 804.4 1236.2 L 802.2 1230.6 L 799.7 1225.1 L 797.0 1219.6 L 794.0 1214.1 L 790.8 1208.7 L 787.4 1203.4 L 783.7 1198.2 L 779.8 1193.1 L 775.6 1188.1 L 771.2 1183.2 L 766.5 1178.4 L 761.5 1173.8 L 756.4 1169.3 L 751.0 1165.0 L 745.3 1160.8 L 739.4 1156.7 L 733.3 1152.8 L 727.0 1149.1 L 720.4 1145.6 L 713.6 1142.3 Z" fill="purple" stroke="none" /><path d="M 686.0 1366.6 L 679.5 1364.1 L 673.4 1361.6 L 667.7 1358.9 L 662.3 1356.1 L 657.2 1353.2 L 652.4 1350.1 L 648.0 1347.1 L 643.8 1343.9 L 640.0 1340.7 L 636.5 1337.4 L 633.3 1334.1 L 630.3 1330.8 L 627.5 1327.6 L 625.1 1324.2 L 622.8 1320.9 L 620.8 1317.6 L 619.1 1314.3 L 617.6 1311.0 L 616.3 1307.7 L 615.2 1304.5 L 614.4 1301.3 L 613.7 1298.1 L 613.3 1295.0 L 613.0 1292.0 L 612.9 1289.0 L 613.0 1286.1 L 613.3 1283.3 L 613.7 1280.5 L 614.3 1277.9 L 615.0 1275.3 L 615.9 1272.9 L 616.9 1270.5 L 618.1 1268.3 L 619.4 1266.2 L 620.8 1264.2 L 622.3 1262.3 L 624.0 1260.6 L 625.8 1258.9 L 627.6 1257.4 L 629.6 1256.1 L 631.8 1254.8 L 634.0 1253.7 L 636.4 1252.8 L 638.9 1252.0 L 641.6 1251.3 L 644.4 1250.9 L 647.4 1250.6 L 650.5 1250.5 L 653.8 1250.6 L 657.3 1251.0 L 660.9 1251.6 L 664.7 1252.4 L 668.6 1253.5 L 672.7 1254.9 L 677.0 1256.6 L 681.4 1258.6 L 686.0 1261.0 L 690.7 1263.7 L 695.5 1266.8 L 700.4 1270.2 L 705.5 1274.0 L 710.7 1278.2 L 716.0 1282.9 L 713.6 1282.3 L 749.6 1272.6 L 735.8 1261.1 L 729.8 1255.8 L 723.8 1250.8 L 717.9 1246.3 L 712.0 1242.1 L 706.2 1238.3 L 700.3 1234.9 L 694.6 1231.9 L 688.9 1229.2 L 683.2 1226.9 L 677.6 1224.9 L 672.1 1223.3 L 666.6 1222.1 L 661.2 1221.2 L 655.9 1220.7 L 650.7 1220.5 L 645.5 1220.6 L 640.5 1221.1 L 635.7 1221.9 L 630.9 1223.1 L 626.3 1224.5 L 621.9 1226.3 L 617.7 1228.3 L 613.7 1230.7 L 609.9 1233.3 L 606.3 1236.1 L 602.9 1239.2 L 599.8 1242.5 L 596.9 1246.0 L 594.3 1249.7 L 591.9 1253.6 L 589.9 1257.6 L 588.0 1261.8 L 586.5 1266.1 L 585.2 1270.5 L 584.2 1275.0 L 583.5 1279.6 L 583.1 1284.2 L 582.9 1289.0 L 583.1 1293.7 L 583.5 1298.5 L 584.2 1303.4 L 585.2 1308.2 L 586.5 1313.1 L 588.1 1317.9 L 590.0 1322.7 L 592.2 1327.5 L 594.7 1332.3 L 597.5 1337.0 L 600.6 1341.6 L 604.0 1346.1 L 607.7 1350.6 L 611.7 1354.9 L 616.1 1359.1 L 620.8 1363.2 L 625.8 1367.2 L 631.1 1371.0 L 636.7 1374.7 L 642.6 1378.2 L 648.8 1381.6 L 655.3 1384.7 L 662.2 1387.8 L 669.3 1390.6 L 676.8 1393.2 Z" fill="purple" stroke="none" /></g><path d="M 513.4 271.5 L 505.7 273.9 L 498.2 276.4 L 490.9 279.2 L 483.8 282.1 L 477.0 285.1 L 470.3 288.4 L 463.9 291.8 L 457.7 295.4 L 451.7 299.1 L 446.0 303.0 L 440.5 307.0 L 435.2 311.2 L 430.2 315.5 L 425.4 320.0 L 420.9 324.6 L 416.6 329.3 L 412.6 334.1 L 408.8 339.0 L 405.3 344.0 L 402.0 349.1 L 399.0 354.3 L 396.2 359.6 L 393.7 364.9 L 391.5 370.3 L 389.5 375.8 L 387.8 381.3 L 386.3 386.8 L 385.1 392.4 L 384.2 398.0 L 383.6 403.6 L 383.3 409.3 L 383.2 414.9 L 383.4 420.6 L 383.9 426.2 L 384.7 431.8 L 385.7 437.4 L 387.1 442.9 L 388.7 448.4 L 390.6 453.8 L 392.8 459.2 L 395.3 464.5 L 398.0 469.7 L 401.1 474.8 L 404.4 479.8 L 407.9 484.8 L 411.8 489.6 L 415.9 494.2 L 420.3 498.8 L 424.9 503.2 L 429.8 507.5 L 435.0 511.7 L 440.4 515.7 L 446.1 519.5 L 452.1 523.2 L 458.3 526.7 L 464.7 530.1 L 471.5 533.2 L 478.4 536.2 L 485.7 539.1 L 493.1 541.7 L 500.9 544.1 L 508.8 546.4 L 517.1 548.5 L 515.2 548.9 L 541.8 522.9 L 523.9 519.8 L 516.5 517.9 L 509.4 515.9 L 502.6 513.6 L 496.1 511.3 L 489.8 508.8 L 483.8 506.2 L 478.1 503.4 L 472.6 500.5 L 467.4 497.5 L 462.4 494.4 L 457.7 491.2 L 453.3 487.9 L 449.1 484.5 L 445.1 481.1 L 441.4 477.6 L 438.0 473.9 L 434.8 470.3 L 431.8 466.6 L 429.0 462.8 L 426.5 458.9 L 424.2 455.1 L 422.2 451.1 L 420.3 447.2 L 418.7 443.2 L 417.3 439.2 L 416.1 435.1 L 415.1 431.0 L 414.3 426.9 L 413.7 422.8 L 413.4 418.7 L 413.2 414.5 L 413.2 410.4 L 413.5 406.2 L 414.0 402.0 L 414.6 397.9 L 415.5 393.7 L 416.6 389.5 L 417.9 385.3 L 419.4 381.2 L 421.1 377.1 L 423.1 373.0 L 425.2 368.9 L 427.6 364.8 L 430.2 360.8 L 433.0 356.8 L 436.0 352.9 L 439.2 349.0 L 442.7 345.2 L 446.4 341.5 L 450.3 337.8 L 454.4 334.2 L 458.8 330.7 L 463.3 327.2 L 468.1 323.8 L 473.1 320.5 L 478.4 317.3 L 483.8 314.2 L 489.5 311.3 L 495.5 308.4 L 501.6 305.7 L 508.1 303.2 L 514.7 300.8 L 521.6 298.5 Z" fill="purple" stroke="none" /></g><g transform="translate(451.323,817.365) scale(1.162080,-1.162080)">
    <path d="M180 -307       V394       Q180 417 174.5 424.0       Q169 431 147 431       H102       Q64 431 47.0 451.5       Q30 472 30 520       Q30 539 31.5 556.0       Q33 573 37.5 594.5       Q42 616 49 647       H84       V633       Q84 614 96.0 603.0       Q108 592 132 592       H181       Q215 592 228.0 576.0       Q241 560 242 516       L256 -270       Q241 -285 228.5 -293.0       Q216 -301 199 -307Z" fill="black" />
  </g>
</svg>