<svg xmlns="http://www.w3.org/2000/svg" width="1170.0" height="1170.0" viewBox="-85.0 -60.0 1170.0 1170.0">
  <g id="decorations"><polygon points="490.0,220.0 520.0,220.0 515.7,-30.0 490.3,-25.0" fill="purple" /><g><path d="M 329.9 470.9 L 322.3 471.0 L 314.8 471.4 L 307.5 472.1 L 300.3 473.1 L 293.3 474.2 L 286.4 475.7 L 279.7 477.3 L 273.1 479.2 L 266.6 481.3 L 260.4 483.6 L 254.3 486.2 L 248.4 488.9 L 242.6 491.9 L 237.1 495.1 L 231.7 498.5 L 226.6 502.0 L 221.6 505.7 L 216.8 509.5 L 212.2 513.5 L 207.9 517.7 L 203.7 521.9 L 199.7 526.3 L 196.0 530.8 L 192.4 535.4 L 189.1 540.2 L 186.0 545.0 L 183.1 549.9 L 180.4 554.9 L 178.0 559.9 L 175.8 565.1 L 173.9 570.3 L 172.1 575.5 L 170.7 580.8 L 169.5 586.1 L 168.5 591.5 L 167.8 596.9 L 167.4 602.3 L 167.2 607.7 L 167.4 613.1 L 167.8 618.5 L 168.4 623.9 L 169.4 629.2 L 170.7 634.5 L 172.2 639.8 L 174.1 644.9 L 176.3 650.0 L 178.7 655.0 L 181.5 659.9 L 184.6 664.7 L 187.9 669.4 L 191.6 673.9 L 195.6 678.3 L 199.8 682.5 L 204.4 686.5 L 209.3 690.3 L 214.4 694.0 L 219.9 697.5 L 225.6 700.8 L 231.6 703.8 L 237.9 706.7 L 244.4 709.4 L 251.3 711.8 L 258.4 714.0 L 255.6 714.3 L 283.3 689.3 L 266.7 685.8 L 260.7 683.9 L 255.0 681.8 L 249.7 679.6 L 244.6 677.2 L 239.8 674.7 L 235.4 672.1 L 231.2 669.4 L 227.3 666.5 L 223.7 663.6 L 220.3 660.6 L 217.2 657.5 L 214.4 654.3 L 211.7 651.1 L 209.3 647.8 L 207.2 644.5 L 205.3 641.0 L 203.5 637.5 L 202.0 634.0 L 200.7 630.4 L 199.7 626.8 L 198.8 623.1 L 198.1 619.3 L 197.6 615.5 L 197.3 611.7 L 197.2 607.8 L 197.3 603.9 L 197.7 600.0 L 198.2 596.0 L 198.9 592.1 L 199.8 588.1 L 200.9 584.1 L 202.2 580.2 L 203.6 576.2 L 205.3 572.3 L 207.2 568.4 L 209.3 564.5 L 211.5 560.7 L 213.9 556.9 L 216.6 553.2 L 219.4 549.6 L 222.4 546.0 L 225.5 542.5 L 228.9 539.1 L 232.4 535.8 L 236.1 532.6 L 239.9 529.4 L 244.0 526.5 L 248.2 523.6 L 252.5 520.8 L 257.1 518.2 L 261.8 515.8 L 266.6 513.4 L 271.6 511.2 L 276.7 509.1 L 282.1 507.2 L 287.5 505.5 L 293.1 504.0 L 298.9 502.7 L 304.9 501.5 L 311.0 500.6 L 317.2 499.9 L 323.6 499.4 L 330.1 499.1 Z" fill="purple" stroke="none" /><path d="M 257.1 713.9 L 265.0 714.7 L 272.7 715.1 L 280.2 715.3 L 287.5 715.1 L 294.5 714.7 L 301.4 714.0 L 308.0 713.1 L 314.4 711.8 L 320.6 710.4 L 326.5 708.6 L 332.3 706.7 L 337.8 704.5 L 343.0 702.0 L 348.0 699.3 L 352.8 696.4 L 357.3 693.3 L 361.6 690.1 L 365.6 686.7 L 369.4 683.1 L 372.9 679.4 L 376.1 675.6 L 379.0 671.6 L 381.7 667.5 L 384.2 663.3 L 386.3 659.1 L 388.2 654.7 L 389.7 650.3 L 391.0 645.8 L 392.0 641.3 L 392.7 636.8 L 393.1 632.3 L 393.3 627.7 L 393.1 623.2 L 392.6 618.7 L 391.8 614.2 L 390.6 609.8 L 389.2 605.5 L 387.5 601.3 L 385.4 597.2 L 383.1 593.2 L 380.4 589.4 L 377.4 585.8 L 374.2 582.3 L 370.6 579.1 L 366.8 576.0 L 362.7 573.2 L 358.4 570.7 L 353.8 568.4 L 349.0 566.4 L 344.0 564.6 L 338.7 563.1 L 333.2 561.9 L 327.5 561.0 L 321.6 560.4 L 315.5 560.1 L 309.2 560.1 L 302.7 560.5 L 296.0 561.1 L 289.1 562.1 L 282.0 563.3 L 274.7 565.0 L 267.2 566.9 L 259.5 569.2 L 261.3 568.8 L 251.4 602.7 L 268.3 597.3 L 275.0 595.4 L 281.5 593.7 L 287.7 592.4 L 293.7 591.4 L 299.3 590.6 L 304.7 590.2 L 309.9 590.0 L 314.7 590.0 L 319.3 590.3 L 323.6 590.7 L 327.7 591.4 L 331.4 592.2 L 335.0 593.2 L 338.2 594.4 L 341.3 595.6 L 344.1 597.0 L 346.6 598.5 L 349.0 600.2 L 351.1 601.9 L 353.1 603.7 L 354.9 605.5 L 356.4 607.5 L 357.9 609.5 L 359.1 611.6 L 360.2 613.7 L 361.1 616.0 L 361.8 618.2 L 362.4 620.6 L 362.9 623.0 L 363.1 625.5 L 363.3 628.0 L 363.2 630.5 L 363.0 633.1 L 362.5 635.8 L 362.0 638.4 L 361.2 641.1 L 360.2 643.7 L 359.1 646.4 L 357.7 649.1 L 356.2 651.7 L 354.5 654.4 L 352.6 656.9 L 350.4 659.5 L 348.1 662.0 L 345.6 664.4 L 342.8 666.7 L 339.8 669.0 L 336.6 671.2 L 333.2 673.2 L 329.5 675.2 L 325.7 677.0 L 321.6 678.7 L 317.2 680.4 L 312.7 681.8 L 307.9 683.1 L 302.8 684.2 L 297.5 685.1 L 291.9 685.9 L 286.0 686.3 L 279.9 686.6 L 273.6 686.6 L 267.0 686.4 L 260.1 685.8 Z" fill="purple" stroke="none" /></g></g><g transform="translate(211.449,1268.879) scale(1.775701,-1.775701)">
    <path d="M162 219 121 268 163 310Q192 341 202.0 361.5Q212 382 212 402Q212 417 203.0 424.0Q194 431 174 431H102Q64 431 47.0 451.5Q30 472 30 520Q30 539 31.5 555.5Q33 572 37.5 593.5Q42 615 49 647H84V633Q84 612 96.0 602.0Q108 592 132 592H216Q256 592 275.5 562.0Q295 532 295 476Q295 446 289.0 412.0Q283 378 267.0 344.5Q251 311 222 282Z" fill="black" />
  </g>
</svg>