<svg xmlns="http://www.w3.org/2000/svg" width="1170.0" height="1170.0" viewBox="-85.0 -60.0 1170.0 1170.0">
  <g id="decorations"><polygon points="315.0,485.0 345.0,485.0 309.9,727.6 284.5,732.6" fill="purple" /></g><g transform="translate(211.449,1268.879) scale(1.775701,-1.775701)">
    <path d="M162 219 121 268 163 310Q192 341 202.0 361.5Q212 382 212 402Q212 417 203.0 424.0Q194 431 174 431H102Q64 431 47.0 451.5Q30 472 30 520Q30 539 31.5 555.5Q33 572 37.5 593.5Q42 615 49 647H84V633Q84 612 96.0 602.0Q108 592 132 592H216Q256 592 275.5 562.0Q295 532 295 476Q295 446 289.0 412.0Q283 378 267.0 344.5Q251 311 222 282Z" fill="black" />
  </g>
</svg>