<svg xmlns="http://www.w3.org/2000/svg"
     width="1200" height="1200" viewBox="0 0 1200 1200">
  <g transform="translate(411.449,1173.879) scale(1.775701,-1.775701)">
    <path d="M-48 9 
      -89 58
      -47 100
      Q192 341 202.0 361.5
      Q212 382 212 402
      Q212 417 203.0 424.0
      Q194 431 174 431
      H102
      Q64 431 47.0 451.5
      Q30 472 30 520
      Q30 539 31.5 555.5
      Q33 572 37.5 593.5
      Q42 615 49 647
      H84
      V633
      Q84 612 96.0 602.0
      Q108 592 132 592
      H216
      Q256 592 275.5 562.0
      Q295 532 295 476
      Q295 446 289.0 412.0
      Q283 378 267.0 344.5
      Q251 311 222 282Z" fill="black"/>
  </g>
</svg>
