<svg xmlns="http://www.w3.org/2000/svg" width="1170.0" height="1170.0" viewBox="-85.0 -60.0 1170.0 1170.0">
  <g id="decorations"><polygon points="490.0,220.0 520.0,220.0 515.7,-30.0 490.3,-25.0" fill="purple" /><g><path d="M 446.8 825.0 L 444.3 831.1 L 441.7 836.9 L 438.8 842.6 L 435.9 848.0 L 432.8 853.2 L 429.5 858.1 L 426.2 862.9 L 422.7 867.4 L 419.1 871.8 L 415.4 875.9 L 411.6 879.8 L 407.7 883.6 L 403.8 887.2 L 399.8 890.5 L 395.8 893.7 L 391.6 896.7 L 387.4 899.4 L 383.2 902.0 L 378.9 904.4 L 374.6 906.5 L 370.2 908.5 L 365.9 910.3 L 361.5 911.9 L 357.1 913.3 L 352.7 914.5 L 348.3 915.5 L 344.0 916.3 L 339.6 916.9 L 335.3 917.3 L 331.1 917.5 L 326.8 917.6 L 322.7 917.4 L 318.6 917.1 L 314.5 916.6 L 310.6 915.9 L 306.7 915.0 L 302.9 914.0 L 299.2 912.8 L 295.6 911.4 L 292.1 909.8 L 288.7 908.0 L 285.4 906.1 L 282.2 904.0 L 279.2 901.7 L 276.2 899.3 L 273.4 896.7 L 270.7 893.9 L 268.2 890.9 L 265.7 887.7 L 263.5 884.3 L 261.3 880.8 L 259.3 877.0 L 257.5 873.0 L 255.8 868.8 L 254.3 864.4 L 253.0 859.8 L 251.8 854.9 L 250.9 849.8 L 250.2 844.5 L 249.7 838.9 L 249.4 833.1 L 249.4 827.1 L 249.7 820.8 L 249.4 822.7 L 221.7 802.9 L 220.3 818.9 L 219.9 826.4 L 219.9 833.7 L 220.1 840.7 L 220.7 847.6 L 221.5 854.3 L 222.7 860.8 L 224.1 867.1 L 225.8 873.2 L 227.7 879.1 L 229.9 884.8 L 232.4 890.2 L 235.2 895.5 L 238.2 900.4 L 241.4 905.2 L 244.8 909.7 L 248.5 914.0 L 252.3 918.0 L 256.4 921.8 L 260.6 925.3 L 265.0 928.6 L 269.5 931.6 L 274.2 934.3 L 279.1 936.8 L 284.0 939.0 L 289.0 941.0 L 294.2 942.7 L 299.4 944.1 L 304.7 945.3 L 310.1 946.3 L 315.5 947.0 L 321.0 947.4 L 326.5 947.6 L 332.0 947.5 L 337.6 947.2 L 343.2 946.7 L 348.8 945.9 L 354.4 944.8 L 360.0 943.6 L 365.5 942.0 L 371.1 940.3 L 376.6 938.3 L 382.1 936.1 L 387.5 933.6 L 392.9 930.9 L 398.2 928.0 L 403.5 924.8 L 408.6 921.4 L 413.7 917.7 L 418.7 913.8 L 423.6 909.7 L 428.4 905.4 L 433.0 900.8 L 437.5 895.9 L 441.8 890.8 L 446.0 885.5 L 450.0 879.9 L 453.9 874.2 L 457.6 868.2 L 461.1 862.0 L 464.4 855.5 L 467.5 848.9 L 470.5 842.0 L 473.2 835.0 Z" fill="purple" stroke="none" /><path d="M 247.4 827.0 L 249.2 820.4 L 251.2 814.1 L 253.4 808.1 L 255.8 802.5 L 258.2 797.1 L 260.8 792.1 L 263.5 787.4 L 266.3 783.1 L 269.1 779.0 L 272.1 775.2 L 275.1 771.7 L 278.1 768.4 L 281.1 765.4 L 284.2 762.6 L 287.3 760.1 L 290.5 757.8 L 293.6 755.8 L 296.8 754.0 L 299.9 752.5 L 303.0 751.1 L 306.2 750.0 L 309.2 749.1 L 312.3 748.3 L 315.3 747.8 L 318.3 747.5 L 321.2 747.3 L 324.0 747.3 L 326.8 747.5 L 329.5 747.9 L 332.1 748.4 L 334.6 749.0 L 337.0 749.9 L 339.3 750.8 L 341.6 751.9 L 343.7 753.1 L 345.7 754.5 L 347.6 756.0 L 349.3 757.6 L 351.0 759.4 L 352.5 761.2 L 354.0 763.3 L 355.2 765.4 L 356.4 767.7 L 357.4 770.2 L 358.3 772.8 L 359.0 775.5 L 359.5 778.5 L 359.9 781.6 L 360.1 784.9 L 360.0 788.3 L 359.7 792.0 L 359.2 795.8 L 358.5 799.8 L 357.4 804.1 L 356.1 808.5 L 354.5 813.0 L 352.5 817.8 L 350.3 822.7 L 347.6 827.8 L 344.6 833.0 L 341.3 838.4 L 337.5 843.9 L 333.3 849.6 L 335.2 848.7 L 345.1 880.7 L 356.7 867.5 L 361.5 861.0 L 365.9 854.6 L 370.0 848.3 L 373.6 842.1 L 376.9 835.9 L 379.7 829.8 L 382.3 823.8 L 384.4 817.9 L 386.3 812.1 L 387.7 806.3 L 388.8 800.7 L 389.6 795.1 L 390.0 789.7 L 390.1 784.3 L 389.8 779.1 L 389.2 774.0 L 388.3 769.0 L 387.1 764.3 L 385.5 759.6 L 383.7 755.2 L 381.5 751.0 L 379.1 746.9 L 376.4 743.1 L 373.5 739.5 L 370.4 736.2 L 367.0 733.1 L 363.4 730.3 L 359.7 727.8 L 355.8 725.5 L 351.7 723.5 L 347.5 721.7 L 343.2 720.3 L 338.8 719.1 L 334.3 718.2 L 329.7 717.6 L 325.1 717.3 L 320.4 717.3 L 315.7 717.6 L 311.0 718.1 L 306.2 719.0 L 301.4 720.1 L 296.7 721.5 L 292.0 723.2 L 287.3 725.2 L 282.7 727.6 L 278.1 730.2 L 273.6 733.1 L 269.1 736.3 L 264.8 739.8 L 260.6 743.5 L 256.4 747.6 L 252.5 752.0 L 248.7 756.8 L 245.0 761.8 L 241.5 767.1 L 238.2 772.7 L 235.0 778.6 L 232.0 784.8 L 229.2 791.3 L 226.6 798.0 L 224.2 805.1 L 222.0 812.5 L 220.0 820.2 Z" fill="purple" stroke="none" /></g></g><g transform="translate(211.449,1268.879) scale(1.775701,-1.775701)">
    <path d="M162 219 121 268 163 310Q192 341 202.0 361.5Q212 382 212 402Q212 417 203.0 424.0Q194 431 174 431H102Q64 431 47.0 451.5Q30 472 30 520Q30 539 31.5 555.5Q33 572 37.5 593.5Q42 615 49 647H84V633Q84 612 96.0 602.0Q108 592 132 592H216Q256 592 275.5 562.0Q295 532 295 476Q295 446 289.0 412.0Q283 378 267.0 344.5Q251 311 222 282Z" fill="black" />
  </g>
</svg>