<svg xmlns="http://www.w3.org/2000/svg" width="1215.0" height="1215.0" viewBox="-107.5 -215.0 1215.0 1215.0">
  <g id="decorations"><polygon points="485.0,215.0 515.0,215.0 510.7,-35.0 485.3,-30.0" fill="purple" /><g><path d="M 632.3 313.9 L 638.8 313.0 L 645.2 312.4 L 651.5 312.0 L 657.6 311.9 L 663.7 312.0 L 669.6 312.3 L 675.4 312.8 L 681.1 313.6 L 686.6 314.5 L 692.1 315.7 L 697.4 317.0 L 702.5 318.5 L 707.6 320.1 L 712.5 321.8 L 717.3 323.8 L 721.9 325.9 L 726.4 328.1 L 730.8 330.5 L 735.0 333.0 L 739.0 335.7 L 742.9 338.5 L 746.6 341.4 L 750.2 344.4 L 753.6 347.5 L 756.8 350.7 L 759.8 354.0 L 762.7 357.4 L 765.4 360.8 L 767.9 364.3 L 770.3 367.9 L 772.4 371.5 L 774.4 375.2 L 776.2 378.9 L 777.7 382.7 L 779.1 386.5 L 780.3 390.3 L 781.3 394.1 L 782.1 397.9 L 782.7 401.7 L 783.0 405.5 L 783.2 409.4 L 783.2 413.2 L 783.0 417.0 L 782.5 420.7 L 781.9 424.5 L 781.0 428.3 L 779.9 432.0 L 778.6 435.7 L 777.1 439.4 L 775.3 443.1 L 773.3 446.7 L 771.0 450.3 L 768.5 453.9 L 765.7 457.4 L 762.7 460.9 L 759.3 464.4 L 755.7 467.8 L 751.7 471.2 L 747.5 474.4 L 742.9 477.7 L 738.0 480.8 L 732.8 483.8 L 727.2 486.7 L 730.7 485.8 L 723.8 520.1 L 740.3 513.1 L 746.9 509.7 L 753.2 506.1 L 759.2 502.3 L 764.9 498.4 L 770.3 494.4 L 775.4 490.1 L 780.1 485.8 L 784.6 481.3 L 788.7 476.6 L 792.5 471.9 L 796.0 467.0 L 799.1 462.0 L 801.9 456.9 L 804.4 451.7 L 806.6 446.5 L 808.5 441.2 L 810.1 435.8 L 811.3 430.4 L 812.2 425.0 L 812.9 419.6 L 813.2 414.1 L 813.2 408.7 L 813.0 403.3 L 812.4 397.9 L 811.6 392.6 L 810.5 387.3 L 809.1 382.0 L 807.5 376.8 L 805.7 371.7 L 803.5 366.7 L 801.2 361.7 L 798.6 356.8 L 795.8 352.1 L 792.7 347.4 L 789.4 342.8 L 786.0 338.4 L 782.3 334.0 L 778.4 329.8 L 774.3 325.8 L 770.0 321.8 L 765.5 318.1 L 760.8 314.4 L 756.0 311.0 L 750.9 307.7 L 745.7 304.5 L 740.3 301.6 L 734.8 298.8 L 729.1 296.2 L 723.2 293.8 L 717.2 291.7 L 711.1 289.7 L 704.8 288.0 L 698.3 286.6 L 691.8 285.4 L 685.1 284.4 L 678.2 283.7 L 671.3 283.2 L 664.3 283.0 L 657.2 283.1 L 649.9 283.4 L 642.6 284.0 L 635.2 284.9 L 627.7 286.1 Z" fill="purple" stroke="none" /><path d="M 733.7 485.7 L 727.1 487.4 L 720.6 488.7 L 714.3 489.8 L 708.3 490.7 L 702.4 491.2 L 696.8 491.5 L 691.4 491.5 L 686.2 491.3 L 681.2 490.8 L 676.5 490.2 L 671.9 489.3 L 667.6 488.3 L 663.5 487.2 L 659.5 485.9 L 655.8 484.5 L 652.3 482.9 L 649.0 481.2 L 645.8 479.4 L 642.9 477.4 L 640.2 475.4 L 637.6 473.2 L 635.3 471.0 L 633.1 468.8 L 631.2 466.4 L 629.4 464.0 L 627.8 461.6 L 626.4 459.1 L 625.2 456.6 L 624.1 454.1 L 623.3 451.6 L 622.6 449.1 L 622.1 446.6 L 621.7 444.1 L 621.6 441.6 L 621.6 439.2 L 621.8 436.8 L 622.1 434.4 L 622.6 432.0 L 623.3 429.7 L 624.2 427.4 L 625.2 425.2 L 626.4 423.0 L 627.9 420.9 L 629.5 418.8 L 631.3 416.7 L 633.3 414.7 L 635.6 412.8 L 638.1 410.9 L 640.9 409.1 L 643.9 407.4 L 647.2 405.8 L 650.8 404.4 L 654.7 403.0 L 658.8 401.8 L 663.3 400.7 L 668.1 399.9 L 673.1 399.2 L 678.5 398.7 L 684.3 398.4 L 690.3 398.4 L 696.6 398.6 L 703.3 399.1 L 710.3 399.9 L 707.2 399.9 L 732.8 373.0 L 714.1 370.7 L 706.1 369.8 L 698.4 369.1 L 690.9 368.8 L 683.7 368.8 L 676.7 369.0 L 670.0 369.6 L 663.5 370.4 L 657.3 371.5 L 651.3 372.8 L 645.6 374.4 L 640.2 376.3 L 635.0 378.4 L 630.1 380.8 L 625.4 383.4 L 621.0 386.3 L 616.9 389.3 L 613.1 392.6 L 609.5 396.0 L 606.3 399.7 L 603.4 403.5 L 600.8 407.5 L 598.5 411.6 L 596.5 415.8 L 594.9 420.1 L 593.6 424.5 L 592.6 429.0 L 592.0 433.5 L 591.6 438.0 L 591.6 442.5 L 591.9 447.0 L 592.5 451.5 L 593.4 456.0 L 594.6 460.4 L 596.1 464.7 L 597.8 469.0 L 599.9 473.2 L 602.2 477.2 L 604.8 481.2 L 607.6 485.0 L 610.7 488.7 L 614.1 492.3 L 617.7 495.7 L 621.6 498.9 L 625.6 501.9 L 630.0 504.8 L 634.5 507.5 L 639.3 509.9 L 644.2 512.2 L 649.4 514.2 L 654.8 515.9 L 660.4 517.5 L 666.2 518.7 L 672.2 519.6 L 678.4 520.3 L 684.8 520.7 L 691.3 520.8 L 698.0 520.6 L 704.8 520.1 L 711.9 519.3 L 719.0 518.1 L 726.4 516.7 L 733.9 514.9 L 741.5 512.8 Z" fill="purple" stroke="none" /></g></g><g transform="translate(320.766,873.017) scale(1.163859,-1.163859)">
    <path d="M143 -6Q136 23 130.0 60.0Q124 97 119.5 135.5Q115 174 112.0 208.0Q109 242 109 265Q109 296 112.0 332.5Q115 369 123.5 400.0Q132 431 148 445L195 453Q187 422 182.5 392.5Q178 363 176.0 336.0Q174 309 174 285Q174 241 181.0 196.5Q188 152 199.0 110.0Q210 68 223 30Q209 18 195.0 9.5Q181 1 161 -6ZM254 417 101 435Q66 439 53.0 458.0Q40 477 40 517Q40 545 46.0 576.0Q52 607 65 647H100V629Q100 612 109.5 603.5Q119 595 138 593L210 584Q240 581 254.0 562.0Q268 543 268 507Q268 486 264.5 465.0Q261 444 254 417Z" fill="black" />
  </g>
</svg>