<svg xmlns="http://www.w3.org/2000/svg" width="1215.0" height="1215.0" viewBox="-107.5 -215.0 1215.0 1215.0">
  <g id="decorations"><g><path d="M 510.9 206.1 L 506.9 200.9 L 503.2 195.6 L 499.7 190.4 L 496.5 185.1 L 493.6 179.8 L 490.9 174.6 L 488.4 169.3 L 486.2 164.0 L 484.3 158.7 L 482.5 153.4 L 481.0 148.2 L 479.7 143.0 L 478.6 137.8 L 477.7 132.6 L 477.0 127.5 L 476.5 122.5 L 476.2 117.4 L 476.1 112.5 L 476.1 107.6 L 476.4 102.8 L 476.9 98.0 L 477.5 93.3 L 478.4 88.7 L 479.3 84.2 L 480.5 79.8 L 481.8 75.6 L 483.3 71.4 L 485.0 67.3 L 486.7 63.4 L 488.7 59.6 L 490.7 55.9 L 492.9 52.3 L 495.3 49.0 L 497.7 45.7 L 500.3 42.6 L 503.0 39.7 L 505.8 36.9 L 508.7 34.4 L 511.8 31.9 L 514.9 29.7 L 518.1 27.6 L 521.4 25.7 L 524.8 24.0 L 528.3 22.5 L 531.9 21.2 L 535.6 20.1 L 539.3 19.1 L 543.2 18.4 L 547.2 17.9 L 551.2 17.6 L 555.4 17.6 L 559.6 17.7 L 564.0 18.1 L 568.5 18.7 L 573.0 19.6 L 577.7 20.8 L 582.5 22.3 L 587.4 24.0 L 592.3 26.0 L 597.4 28.4 L 602.6 31.1 L 607.8 34.1 L 613.1 37.5 L 609.8 36.5 L 644.4 22.0 L 629.4 12.9 L 623.2 8.9 L 616.9 5.2 L 610.6 1.9 L 604.4 -1.1 L 598.2 -3.7 L 592.0 -6.0 L 585.8 -7.9 L 579.7 -9.5 L 573.6 -10.7 L 567.6 -11.6 L 561.6 -12.2 L 555.7 -12.4 L 549.9 -12.3 L 544.2 -11.9 L 538.5 -11.2 L 533.0 -10.2 L 527.6 -8.9 L 522.3 -7.2 L 517.1 -5.3 L 512.1 -3.2 L 507.3 -0.7 L 502.5 2.0 L 498.0 4.9 L 493.6 8.1 L 489.4 11.4 L 485.3 15.0 L 481.5 18.8 L 477.8 22.8 L 474.3 27.0 L 471.0 31.4 L 467.9 35.9 L 464.9 40.6 L 462.2 45.4 L 459.7 50.4 L 457.4 55.5 L 455.3 60.8 L 453.4 66.1 L 451.7 71.6 L 450.2 77.2 L 448.9 82.9 L 447.9 88.6 L 447.1 94.5 L 446.5 100.4 L 446.2 106.4 L 446.1 112.5 L 446.2 118.7 L 446.6 124.8 L 447.2 131.1 L 448.0 137.3 L 449.2 143.6 L 450.5 149.9 L 452.2 156.2 L 454.2 162.5 L 456.5 168.8 L 459.0 175.1 L 461.8 181.4 L 464.8 187.6 L 468.2 193.8 L 471.8 199.9 L 475.7 206.0 L 479.9 212.1 L 484.3 218.1 L 489.1 223.9 Z" fill="purple" stroke="none" /><path d="M 608.9 32.3 L 613.7 37.3 L 618.2 42.2 L 622.3 47.1 L 626.0 51.9 L 629.4 56.7 L 632.4 61.4 L 635.1 66.1 L 637.5 70.7 L 639.6 75.2 L 641.5 79.7 L 643.0 84.0 L 644.3 88.3 L 645.4 92.4 L 646.2 96.5 L 646.9 100.4 L 647.3 104.3 L 647.4 108.0 L 647.4 111.6 L 647.2 115.1 L 646.8 118.5 L 646.2 121.8 L 645.5 124.9 L 644.6 127.9 L 643.5 130.8 L 642.4 133.5 L 641.0 136.1 L 639.6 138.6 L 638.1 140.9 L 636.4 143.0 L 634.7 145.0 L 632.8 146.9 L 630.9 148.6 L 628.9 150.1 L 626.8 151.5 L 624.7 152.7 L 622.5 153.7 L 620.3 154.6 L 618.0 155.4 L 615.7 155.9 L 613.3 156.3 L 610.8 156.5 L 608.3 156.6 L 605.7 156.4 L 603.1 156.1 L 600.4 155.5 L 597.7 154.8 L 594.9 153.8 L 592.0 152.5 L 589.1 151.0 L 586.1 149.2 L 583.1 147.2 L 580.0 144.8 L 576.9 142.1 L 573.8 139.1 L 570.6 135.8 L 567.5 132.1 L 564.3 128.0 L 561.2 123.6 L 558.1 118.8 L 555.1 113.6 L 552.1 108.0 L 549.2 101.9 L 546.4 95.5 L 547.6 96.4 L 512.1 91.3 L 519.2 106.8 L 522.4 114.2 L 525.7 121.2 L 529.2 127.9 L 532.7 134.1 L 536.4 140.0 L 540.3 145.6 L 544.2 150.8 L 548.2 155.6 L 552.4 160.1 L 556.6 164.2 L 561.0 168.0 L 565.4 171.5 L 570.0 174.5 L 574.5 177.3 L 579.2 179.7 L 583.9 181.7 L 588.6 183.4 L 593.4 184.7 L 598.2 185.7 L 602.9 186.3 L 607.7 186.6 L 612.4 186.5 L 617.0 186.1 L 621.6 185.3 L 626.0 184.3 L 630.4 182.9 L 634.6 181.2 L 638.7 179.2 L 642.6 177.0 L 646.4 174.5 L 650.0 171.7 L 653.4 168.7 L 656.6 165.5 L 659.6 162.0 L 662.4 158.4 L 665.0 154.5 L 667.4 150.5 L 669.5 146.2 L 671.4 141.9 L 673.1 137.3 L 674.5 132.6 L 675.6 127.8 L 676.5 122.9 L 677.1 117.8 L 677.4 112.6 L 677.4 107.4 L 677.2 102.0 L 676.6 96.6 L 675.8 91.1 L 674.6 85.5 L 673.1 79.9 L 671.3 74.3 L 669.1 68.6 L 666.6 62.9 L 663.7 57.2 L 660.5 51.5 L 657.0 45.8 L 653.2 40.2 L 648.9 34.5 L 644.4 28.8 L 639.5 23.2 L 634.2 17.6 L 628.5 12.0 Z" fill="purple" stroke="none" /></g></g><g transform="translate(320.766,873.017) scale(1.163859,-1.163859)">
    <path d="M143 -6Q136 23 130.0 60.0Q124 97 119.5 135.5Q115 174 112.0 208.0Q109 242 109 265Q109 296 112.0 332.5Q115 369 123.5 400.0Q132 431 148 445L195 453Q187 422 182.5 392.5Q178 363 176.0 336.0Q174 309 174 285Q174 241 181.0 196.5Q188 152 199.0 110.0Q210 68 223 30Q209 18 195.0 9.5Q181 1 161 -6ZM254 417 101 435Q66 439 53.0 458.0Q40 477 40 517Q40 545 46.0 576.0Q52 607 65 647H100V629Q100 612 109.5 603.5Q119 595 138 593L210 584Q240 581 254.0 562.0Q268 543 268 507Q268 486 264.5 465.0Q261 444 254 417Z" fill="black" />
  </g>
</svg>