<svg xmlns="http://www.w3.org/2000/svg" width="1215.0" height="1215.0" viewBox="-107.5 -215.0 1215.0 1215.0">
  <g id="decorations"><polygon points="485.0,215.0 515.0,215.0 510.7,-35.0 485.3,-30.0" fill="purple" /><path d="M 626.8 303.7 L 631.0 304.9 L 635.2 306.3 L 639.2 307.8 L 643.1 309.5 L 647.0 311.3 L 650.7 313.3 L 654.3 315.5 L 657.8 317.8 L 661.2 320.2 L 664.5 322.8 L 667.6 325.4 L 670.7 328.2 L 673.7 331.1 L 676.6 334.1 L 679.4 337.3 L 682.1 340.5 L 684.6 343.9 L 687.1 347.3 L 689.4 350.9 L 691.6 354.5 L 693.7 358.3 L 695.7 362.1 L 697.5 366.0 L 699.2 370.0 L 700.8 374.0 L 702.3 378.1 L 703.6 382.3 L 704.8 386.5 L 705.8 390.8 L 706.7 395.1 L 707.5 399.4 L 708.1 403.8 L 708.6 408.2 L 708.9 412.6 L 709.1 417.0 L 709.2 421.4 L 709.1 425.8 L 708.9 430.2 L 708.5 434.6 L 707.9 439.0 L 707.2 443.4 L 706.4 447.7 L 705.4 452.0 L 704.2 456.3 L 702.9 460.5 L 701.4 464.7 L 699.8 468.8 L 698.0 472.9 L 696.1 476.9 L 694.0 480.8 L 691.8 484.7 L 689.3 488.5 L 686.8 492.2 L 684.0 495.9 L 681.1 499.4 L 678.1 502.9 L 674.8 506.3 L 671.4 509.6 L 667.8 512.8 L 664.0 515.9 L 660.1 518.9 L 655.9 521.7 L 651.5 524.5 L 656.1 522.8 L 651.9 557.2 L 666.6 549.8 L 672.0 546.4 L 677.2 542.9 L 682.1 539.3 L 686.9 535.5 L 691.5 531.5 L 695.8 527.4 L 699.9 523.2 L 703.8 518.9 L 707.5 514.4 L 711.0 509.8 L 714.3 505.1 L 717.4 500.3 L 720.2 495.4 L 722.9 490.4 L 725.3 485.4 L 727.5 480.3 L 729.6 475.1 L 731.4 469.9 L 733.0 464.6 L 734.5 459.3 L 735.7 454.0 L 736.8 448.6 L 737.6 443.2 L 738.3 437.8 L 738.8 432.4 L 739.1 427.0 L 739.2 421.6 L 739.1 416.1 L 738.9 410.7 L 738.5 405.3 L 737.9 400.0 L 737.1 394.6 L 736.2 389.3 L 735.1 384.1 L 733.8 378.9 L 732.3 373.7 L 730.7 368.6 L 728.9 363.6 L 727.0 358.6 L 724.9 353.7 L 722.6 348.8 L 720.2 344.1 L 717.6 339.4 L 714.8 334.9 L 711.9 330.4 L 708.8 326.1 L 705.6 321.8 L 702.2 317.7 L 698.6 313.7 L 694.9 309.9 L 691.1 306.2 L 687.0 302.7 L 682.8 299.3 L 678.5 296.2 L 674.0 293.2 L 669.3 290.3 L 664.6 287.7 L 659.7 285.3 L 654.6 283.0 L 649.5 281.0 L 644.2 279.2 L 638.8 277.6 L 633.2 276.3 Z" fill="purple" stroke="none" /></g><g transform="translate(320.766,873.017) scale(1.163859,-1.163859)">
    <path d="M143 -6Q136 23 130.0 60.0Q124 97 119.5 135.5Q115 174 112.0 208.0Q109 242 109 265Q109 296 112.0 332.5Q115 369 123.5 400.0Q132 431 148 445L195 453Q187 422 182.5 392.5Q178 363 176.0 336.0Q174 309 174 285Q174 241 181.0 196.5Q188 152 199.0 110.0Q210 68 223 30Q209 18 195.0 9.5Q181 1 161 -6ZM254 417 101 435Q66 439 53.0 458.0Q40 477 40 517Q40 545 46.0 576.0Q52 607 65 647H100V629Q100 612 109.5 603.5Q119 595 138 593L210 584Q240 581 254.0 562.0Q268 543 268 507Q268 486 264.5 465.0Q261 444 254 417Z" fill="black" />
  </g>
</svg>